<?xml version="1.0" encoding="UTF-8"?>
<svg width="216px" height="464px" viewBox="0 0 216 464" version="1.1" xmlns="http://www.w3.org/2000/svg" xmlns:xlink="http://www.w3.org/1999/xlink">
    <!-- Generator: Sketch 62 (91390) - https://sketch.com -->
    <title>Icon Pattern</title>
    <desc>Created with Sketch.</desc>
    <defs>
        <path d="M14.6,21.5 C14,22.5 13,23 12,23 C11.5,23 11,22.9 10.5,22.6 C10,22.3 9.7,22 9.4,21.5 C9.1,21 9.3,20.4 9.8,20.1 C10.3,19.8 10.9,20 11.2,20.5 C11.3,20.6 11.4,20.8 11.6,20.9 C12.1,21.2 12.7,21 13,20.5 C13.3,20 13.9,19.9 14.4,20.1 C14.9,20.3 14.9,21 14.6,21.5 Z M9.1,3.8 C12,2.2 15.6,3.2 17.3,6.1 C17.7,6.9 18,8 18,9 L18,13 C18,13.6 18.4,14 19,14 C19.6,14 20,13.6 20,13 L20,9 C20,7.6 19.6,6.3 19,5.1 C16.8,1.3 11.9,-0.1 8.1,2.1 C7.6,2.3 7.4,2.9 7.7,3.4 C8,3.9 8.6,4 9.1,3.8 Z M23.7,23.7 C23.5,23.9 23.3,24 23,24 C22.7,24 22.5,23.9 22.3,23.7 L16.6,18 L2,18 C1.4,18 1,17.6 1,17 C1,16.4 1.4,16 2,16 C3.1,16 4,15.1 4,14 L4,9 C4,8 4.2,7 4.6,6 L0.3,1.7 C-0.1,1.3 -0.1,0.7 0.3,0.3 C0.7,-0.1 1.3,-0.1 1.7,0.3 L17.7,16.3 C17.7,16.3 17.7,16.3 17.7,16.3 L23.7,22.3 C24.1,22.7 24.1,23.3 23.7,23.7 Z M14.6,16 L6.2,7.6 C6.1,8 6,8.5 6,9 L6,14 C6,14.7 5.8,15.4 5.5,16 L14.6,16 Z" id="path-1"></path>
        <path d="M14.6,21.5 C14,22.5 13,23 12,23 C11.5,23 11,22.9 10.5,22.6 C10,22.3 9.7,22 9.4,21.5 C9.1,21 9.3,20.4 9.8,20.1 C10.3,19.8 10.9,20 11.2,20.5 C11.3,20.6 11.4,20.8 11.6,20.9 C12.1,21.2 12.7,21 13,20.5 C13.3,20 13.9,19.9 14.4,20.1 C14.9,20.3 14.9,21 14.6,21.5 Z M9.1,3.8 C12,2.2 15.6,3.2 17.3,6.1 C17.7,6.9 18,8 18,9 L18,13 C18,13.6 18.4,14 19,14 C19.6,14 20,13.6 20,13 L20,9 C20,7.6 19.6,6.3 19,5.1 C16.8,1.3 11.9,-0.1 8.1,2.1 C7.6,2.3 7.4,2.9 7.7,3.4 C8,3.9 8.6,4 9.1,3.8 Z M23.7,23.7 C23.5,23.9 23.3,24 23,24 C22.7,24 22.5,23.9 22.3,23.7 L16.6,18 L2,18 C1.4,18 1,17.6 1,17 C1,16.4 1.4,16 2,16 C3.1,16 4,15.1 4,14 L4,9 C4,8 4.2,7 4.6,6 L0.3,1.7 C-0.1,1.3 -0.1,0.7 0.3,0.3 C0.7,-0.1 1.3,-0.1 1.7,0.3 L17.7,16.3 C17.7,16.3 17.7,16.3 17.7,16.3 L23.7,22.3 C24.1,22.7 24.1,23.3 23.7,23.7 Z M14.6,16 L6.2,7.6 C6.1,8 6,8.5 6,9 L6,14 C6,14.7 5.8,15.4 5.5,16 L14.6,16 Z" id="path-3"></path>
        <path d="M14.6,21.5 C14,22.5 13,23 12,23 C11.5,23 11,22.9 10.5,22.6 C10,22.3 9.7,22 9.4,21.5 C9.1,21 9.3,20.4 9.8,20.1 C10.3,19.8 10.9,20 11.2,20.5 C11.3,20.6 11.4,20.8 11.6,20.9 C12.1,21.2 12.7,21 13,20.5 C13.3,20 13.9,19.9 14.4,20.1 C14.9,20.3 14.9,21 14.6,21.5 Z M9.1,3.8 C12,2.2 15.6,3.2 17.3,6.1 C17.7,6.9 18,8 18,9 L18,13 C18,13.6 18.4,14 19,14 C19.6,14 20,13.6 20,13 L20,9 C20,7.6 19.6,6.3 19,5.1 C16.8,1.3 11.9,-0.1 8.1,2.1 C7.6,2.3 7.4,2.9 7.7,3.4 C8,3.9 8.6,4 9.1,3.8 Z M23.7,23.7 C23.5,23.9 23.3,24 23,24 C22.7,24 22.5,23.9 22.3,23.7 L16.6,18 L2,18 C1.4,18 1,17.6 1,17 C1,16.4 1.4,16 2,16 C3.1,16 4,15.1 4,14 L4,9 C4,8 4.2,7 4.6,6 L0.3,1.7 C-0.1,1.3 -0.1,0.7 0.3,0.3 C0.7,-0.1 1.3,-0.1 1.7,0.3 L17.7,16.3 C17.7,16.3 17.7,16.3 17.7,16.3 L23.7,22.3 C24.1,22.7 24.1,23.3 23.7,23.7 Z M14.6,16 L6.2,7.6 C6.1,8 6,8.5 6,9 L6,14 C6,14.7 5.8,15.4 5.5,16 L14.6,16 Z" id="path-5"></path>
        <path d="M14.6,21.5 C14,22.5 13,23 12,23 C11.5,23 11,22.9 10.5,22.6 C10,22.3 9.7,22 9.4,21.5 C9.1,21 9.3,20.4 9.8,20.1 C10.3,19.8 10.9,20 11.2,20.5 C11.3,20.6 11.4,20.8 11.6,20.9 C12.1,21.2 12.7,21 13,20.5 C13.3,20 13.9,19.9 14.4,20.1 C14.9,20.3 14.9,21 14.6,21.5 Z M9.1,3.8 C12,2.2 15.6,3.2 17.3,6.1 C17.7,6.9 18,8 18,9 L18,13 C18,13.6 18.4,14 19,14 C19.6,14 20,13.6 20,13 L20,9 C20,7.6 19.6,6.3 19,5.1 C16.8,1.3 11.9,-0.1 8.1,2.1 C7.6,2.3 7.4,2.9 7.7,3.4 C8,3.9 8.6,4 9.1,3.8 Z M23.7,23.7 C23.5,23.9 23.3,24 23,24 C22.7,24 22.5,23.9 22.3,23.7 L16.6,18 L2,18 C1.4,18 1,17.6 1,17 C1,16.4 1.4,16 2,16 C3.1,16 4,15.1 4,14 L4,9 C4,8 4.2,7 4.6,6 L0.3,1.7 C-0.1,1.3 -0.1,0.7 0.3,0.3 C0.7,-0.1 1.3,-0.1 1.7,0.3 L17.7,16.3 C17.7,16.3 17.7,16.3 17.7,16.3 L23.7,22.3 C24.1,22.7 24.1,23.3 23.7,23.7 Z M14.6,16 L6.2,7.6 C6.1,8 6,8.5 6,9 L6,14 C6,14.7 5.8,15.4 5.5,16 L14.6,16 Z" id="path-7"></path>
        <path d="M14.6,21.5 C14,22.5 13,23 12,23 C11.5,23 11,22.9 10.5,22.6 C10,22.3 9.7,22 9.4,21.5 C9.1,21 9.3,20.4 9.8,20.1 C10.3,19.8 10.9,20 11.2,20.5 C11.3,20.6 11.4,20.8 11.6,20.9 C12.1,21.2 12.7,21 13,20.5 C13.3,20 13.9,19.9 14.4,20.1 C14.9,20.3 14.9,21 14.6,21.5 Z M9.1,3.8 C12,2.2 15.6,3.2 17.3,6.1 C17.7,6.9 18,8 18,9 L18,13 C18,13.6 18.4,14 19,14 C19.6,14 20,13.6 20,13 L20,9 C20,7.6 19.6,6.3 19,5.1 C16.8,1.3 11.9,-0.1 8.1,2.1 C7.6,2.3 7.4,2.9 7.7,3.4 C8,3.9 8.6,4 9.1,3.8 Z M23.7,23.7 C23.5,23.9 23.3,24 23,24 C22.7,24 22.5,23.9 22.3,23.7 L16.6,18 L2,18 C1.4,18 1,17.6 1,17 C1,16.4 1.4,16 2,16 C3.1,16 4,15.1 4,14 L4,9 C4,8 4.2,7 4.6,6 L0.3,1.7 C-0.1,1.3 -0.1,0.7 0.3,0.3 C0.7,-0.1 1.3,-0.1 1.7,0.3 L17.7,16.3 C17.7,16.3 17.7,16.3 17.7,16.3 L23.7,22.3 C24.1,22.7 24.1,23.3 23.7,23.7 Z M14.6,16 L6.2,7.6 C6.1,8 6,8.5 6,9 L6,14 C6,14.7 5.8,15.4 5.5,16 L14.6,16 Z" id="path-9"></path>
        <path d="M14.6,21.5 C14,22.5 13,23 12,23 C11.5,23 11,22.9 10.5,22.6 C10,22.3 9.7,22 9.4,21.5 C9.1,21 9.3,20.4 9.8,20.1 C10.3,19.8 10.9,20 11.2,20.5 C11.3,20.6 11.4,20.8 11.6,20.9 C12.1,21.2 12.7,21 13,20.5 C13.3,20 13.9,19.9 14.4,20.1 C14.9,20.3 14.9,21 14.6,21.5 Z M9.1,3.8 C12,2.2 15.6,3.2 17.3,6.1 C17.7,6.9 18,8 18,9 L18,13 C18,13.6 18.4,14 19,14 C19.6,14 20,13.6 20,13 L20,9 C20,7.6 19.6,6.3 19,5.1 C16.8,1.3 11.9,-0.1 8.1,2.1 C7.6,2.3 7.4,2.9 7.7,3.4 C8,3.9 8.6,4 9.1,3.8 Z M23.7,23.7 C23.5,23.9 23.3,24 23,24 C22.7,24 22.5,23.9 22.3,23.7 L16.6,18 L2,18 C1.4,18 1,17.6 1,17 C1,16.4 1.4,16 2,16 C3.1,16 4,15.1 4,14 L4,9 C4,8 4.2,7 4.6,6 L0.3,1.7 C-0.1,1.3 -0.1,0.7 0.3,0.3 C0.7,-0.1 1.3,-0.1 1.7,0.3 L17.7,16.3 C17.7,16.3 17.7,16.3 17.7,16.3 L23.7,22.3 C24.1,22.7 24.1,23.3 23.7,23.7 Z M14.6,16 L6.2,7.6 C6.1,8 6,8.5 6,9 L6,14 C6,14.7 5.8,15.4 5.5,16 L14.6,16 Z" id="path-11"></path>
        <path d="M14.6,21.5 C14,22.5 13,23 12,23 C11.5,23 11,22.9 10.5,22.6 C10,22.3 9.7,22 9.4,21.5 C9.1,21 9.3,20.4 9.8,20.1 C10.3,19.8 10.9,20 11.2,20.5 C11.3,20.6 11.4,20.8 11.6,20.9 C12.1,21.2 12.7,21 13,20.5 C13.3,20 13.9,19.9 14.4,20.1 C14.9,20.3 14.9,21 14.6,21.5 Z M9.1,3.8 C12,2.2 15.6,3.2 17.3,6.1 C17.7,6.9 18,8 18,9 L18,13 C18,13.6 18.4,14 19,14 C19.6,14 20,13.6 20,13 L20,9 C20,7.6 19.6,6.3 19,5.1 C16.8,1.3 11.9,-0.1 8.1,2.1 C7.6,2.3 7.4,2.9 7.7,3.4 C8,3.9 8.6,4 9.1,3.8 Z M23.7,23.7 C23.5,23.9 23.3,24 23,24 C22.7,24 22.5,23.9 22.3,23.7 L16.6,18 L2,18 C1.4,18 1,17.6 1,17 C1,16.4 1.4,16 2,16 C3.1,16 4,15.1 4,14 L4,9 C4,8 4.2,7 4.6,6 L0.3,1.7 C-0.1,1.3 -0.1,0.7 0.3,0.3 C0.7,-0.1 1.3,-0.1 1.7,0.3 L17.7,16.3 C17.7,16.3 17.7,16.3 17.7,16.3 L23.7,22.3 C24.1,22.7 24.1,23.3 23.7,23.7 Z M14.6,16 L6.2,7.6 C6.1,8 6,8.5 6,9 L6,14 C6,14.7 5.8,15.4 5.5,16 L14.6,16 Z" id="path-13"></path>
        <path d="M14.6,21.5 C14,22.5 13,23 12,23 C11.5,23 11,22.9 10.5,22.6 C10,22.3 9.7,22 9.4,21.5 C9.1,21 9.3,20.4 9.8,20.1 C10.3,19.8 10.9,20 11.2,20.5 C11.3,20.6 11.4,20.8 11.6,20.9 C12.1,21.2 12.7,21 13,20.5 C13.3,20 13.9,19.9 14.4,20.1 C14.9,20.3 14.9,21 14.6,21.5 Z M9.1,3.8 C12,2.2 15.6,3.2 17.3,6.1 C17.7,6.9 18,8 18,9 L18,13 C18,13.6 18.4,14 19,14 C19.6,14 20,13.6 20,13 L20,9 C20,7.6 19.6,6.3 19,5.1 C16.8,1.3 11.9,-0.1 8.1,2.1 C7.6,2.3 7.4,2.9 7.7,3.4 C8,3.9 8.6,4 9.1,3.8 Z M23.7,23.7 C23.5,23.9 23.3,24 23,24 C22.7,24 22.5,23.9 22.3,23.7 L16.6,18 L2,18 C1.4,18 1,17.6 1,17 C1,16.4 1.4,16 2,16 C3.1,16 4,15.1 4,14 L4,9 C4,8 4.2,7 4.6,6 L0.3,1.7 C-0.1,1.3 -0.1,0.7 0.3,0.3 C0.7,-0.1 1.3,-0.1 1.7,0.3 L17.7,16.3 C17.7,16.3 17.7,16.3 17.7,16.3 L23.7,22.3 C24.1,22.7 24.1,23.3 23.7,23.7 Z M14.6,16 L6.2,7.6 C6.1,8 6,8.5 6,9 L6,14 C6,14.7 5.8,15.4 5.5,16 L14.6,16 Z" id="path-15"></path>
        <path d="M14.6,21.5 C14,22.5 13,23 12,23 C11.5,23 11,22.9 10.5,22.6 C10,22.3 9.7,22 9.4,21.5 C9.1,21 9.3,20.4 9.8,20.1 C10.3,19.8 10.9,20 11.2,20.5 C11.3,20.6 11.4,20.8 11.6,20.9 C12.1,21.2 12.7,21 13,20.5 C13.3,20 13.9,19.9 14.4,20.1 C14.9,20.3 14.9,21 14.6,21.5 Z M9.1,3.8 C12,2.2 15.6,3.2 17.3,6.1 C17.7,6.9 18,8 18,9 L18,13 C18,13.6 18.4,14 19,14 C19.6,14 20,13.6 20,13 L20,9 C20,7.6 19.6,6.3 19,5.1 C16.8,1.3 11.9,-0.1 8.1,2.1 C7.6,2.3 7.4,2.9 7.7,3.4 C8,3.9 8.6,4 9.1,3.8 Z M23.7,23.7 C23.5,23.9 23.3,24 23,24 C22.7,24 22.5,23.9 22.3,23.7 L16.6,18 L2,18 C1.4,18 1,17.6 1,17 C1,16.4 1.4,16 2,16 C3.1,16 4,15.1 4,14 L4,9 C4,8 4.2,7 4.6,6 L0.3,1.7 C-0.1,1.3 -0.1,0.7 0.3,0.3 C0.7,-0.1 1.3,-0.1 1.7,0.3 L17.7,16.3 C17.7,16.3 17.7,16.3 17.7,16.3 L23.7,22.3 C24.1,22.7 24.1,23.3 23.7,23.7 Z M14.6,16 L6.2,7.6 C6.1,8 6,8.5 6,9 L6,14 C6,14.7 5.8,15.4 5.5,16 L14.6,16 Z" id="path-17"></path>
        <path d="M14.6,21.5 C14,22.5 13,23 12,23 C11.5,23 11,22.9 10.5,22.6 C10,22.3 9.7,22 9.4,21.5 C9.1,21 9.3,20.4 9.8,20.1 C10.3,19.8 10.9,20 11.2,20.5 C11.3,20.6 11.4,20.8 11.6,20.9 C12.1,21.2 12.7,21 13,20.5 C13.3,20 13.9,19.9 14.4,20.1 C14.9,20.3 14.9,21 14.6,21.5 Z M9.1,3.8 C12,2.2 15.6,3.2 17.3,6.1 C17.7,6.9 18,8 18,9 L18,13 C18,13.6 18.4,14 19,14 C19.6,14 20,13.6 20,13 L20,9 C20,7.6 19.6,6.3 19,5.1 C16.8,1.3 11.9,-0.1 8.1,2.1 C7.6,2.3 7.4,2.9 7.7,3.4 C8,3.9 8.6,4 9.1,3.8 Z M23.7,23.7 C23.5,23.9 23.3,24 23,24 C22.7,24 22.5,23.9 22.3,23.7 L16.6,18 L2,18 C1.4,18 1,17.6 1,17 C1,16.4 1.4,16 2,16 C3.1,16 4,15.1 4,14 L4,9 C4,8 4.2,7 4.6,6 L0.3,1.7 C-0.1,1.3 -0.1,0.7 0.3,0.3 C0.7,-0.1 1.3,-0.1 1.7,0.3 L17.7,16.3 C17.7,16.3 17.7,16.3 17.7,16.3 L23.7,22.3 C24.1,22.7 24.1,23.3 23.7,23.7 Z M14.6,16 L6.2,7.6 C6.1,8 6,8.5 6,9 L6,14 C6,14.7 5.8,15.4 5.5,16 L14.6,16 Z" id="path-19"></path>
        <path d="M14.6,21.5 C14,22.5 13,23 12,23 C11.5,23 11,22.9 10.5,22.6 C10,22.3 9.7,22 9.4,21.5 C9.1,21 9.3,20.4 9.8,20.1 C10.3,19.8 10.9,20 11.2,20.5 C11.3,20.6 11.4,20.8 11.6,20.9 C12.1,21.2 12.7,21 13,20.5 C13.3,20 13.9,19.9 14.4,20.1 C14.9,20.3 14.9,21 14.6,21.5 Z M9.1,3.8 C12,2.2 15.6,3.2 17.3,6.1 C17.7,6.9 18,8 18,9 L18,13 C18,13.6 18.4,14 19,14 C19.6,14 20,13.6 20,13 L20,9 C20,7.6 19.6,6.3 19,5.1 C16.8,1.3 11.9,-0.1 8.1,2.1 C7.6,2.3 7.4,2.9 7.7,3.4 C8,3.9 8.6,4 9.1,3.8 Z M23.7,23.7 C23.5,23.9 23.3,24 23,24 C22.7,24 22.5,23.9 22.3,23.7 L16.6,18 L2,18 C1.4,18 1,17.6 1,17 C1,16.4 1.4,16 2,16 C3.1,16 4,15.1 4,14 L4,9 C4,8 4.2,7 4.6,6 L0.3,1.7 C-0.1,1.3 -0.1,0.7 0.3,0.3 C0.7,-0.1 1.3,-0.1 1.7,0.3 L17.7,16.3 C17.7,16.3 17.7,16.3 17.7,16.3 L23.7,22.3 C24.1,22.7 24.1,23.3 23.7,23.7 Z M14.6,16 L6.2,7.6 C6.1,8 6,8.5 6,9 L6,14 C6,14.7 5.8,15.4 5.5,16 L14.6,16 Z" id="path-21"></path>
        <path d="M14.6,21.5 C14,22.5 13,23 12,23 C11.5,23 11,22.9 10.5,22.6 C10,22.3 9.7,22 9.4,21.5 C9.1,21 9.3,20.4 9.8,20.1 C10.3,19.8 10.9,20 11.2,20.5 C11.3,20.6 11.4,20.8 11.6,20.9 C12.1,21.2 12.7,21 13,20.5 C13.3,20 13.9,19.9 14.4,20.1 C14.9,20.3 14.9,21 14.6,21.5 Z M9.1,3.8 C12,2.2 15.6,3.2 17.3,6.1 C17.7,6.9 18,8 18,9 L18,13 C18,13.6 18.4,14 19,14 C19.6,14 20,13.6 20,13 L20,9 C20,7.6 19.6,6.3 19,5.1 C16.8,1.3 11.9,-0.1 8.1,2.1 C7.6,2.3 7.4,2.9 7.7,3.4 C8,3.9 8.6,4 9.1,3.8 Z M23.7,23.7 C23.5,23.9 23.3,24 23,24 C22.7,24 22.5,23.9 22.3,23.7 L16.6,18 L2,18 C1.4,18 1,17.6 1,17 C1,16.4 1.4,16 2,16 C3.1,16 4,15.1 4,14 L4,9 C4,8 4.2,7 4.6,6 L0.3,1.7 C-0.1,1.3 -0.1,0.7 0.3,0.3 C0.7,-0.1 1.3,-0.1 1.7,0.3 L17.7,16.3 C17.7,16.3 17.7,16.3 17.7,16.3 L23.7,22.3 C24.1,22.7 24.1,23.3 23.7,23.7 Z M14.6,16 L6.2,7.6 C6.1,8 6,8.5 6,9 L6,14 C6,14.7 5.8,15.4 5.5,16 L14.6,16 Z" id="path-23"></path>
        <path d="M14.6,21.5 C14,22.5 13,23 12,23 C11.5,23 11,22.9 10.5,22.6 C10,22.3 9.7,22 9.4,21.5 C9.1,21 9.3,20.4 9.8,20.1 C10.3,19.8 10.9,20 11.2,20.5 C11.3,20.6 11.4,20.8 11.6,20.9 C12.1,21.2 12.7,21 13,20.5 C13.3,20 13.9,19.9 14.4,20.1 C14.9,20.3 14.9,21 14.6,21.5 Z M9.1,3.8 C12,2.2 15.6,3.2 17.3,6.1 C17.7,6.9 18,8 18,9 L18,13 C18,13.6 18.4,14 19,14 C19.6,14 20,13.6 20,13 L20,9 C20,7.6 19.6,6.3 19,5.1 C16.8,1.3 11.9,-0.1 8.1,2.1 C7.6,2.3 7.4,2.9 7.7,3.4 C8,3.9 8.6,4 9.1,3.8 Z M23.7,23.7 C23.5,23.9 23.3,24 23,24 C22.7,24 22.5,23.9 22.3,23.7 L16.6,18 L2,18 C1.4,18 1,17.6 1,17 C1,16.4 1.4,16 2,16 C3.1,16 4,15.1 4,14 L4,9 C4,8 4.2,7 4.6,6 L0.3,1.7 C-0.1,1.3 -0.1,0.7 0.3,0.3 C0.7,-0.1 1.3,-0.1 1.7,0.3 L17.7,16.3 C17.7,16.3 17.7,16.3 17.7,16.3 L23.7,22.3 C24.1,22.7 24.1,23.3 23.7,23.7 Z M14.6,16 L6.2,7.6 C6.1,8 6,8.5 6,9 L6,14 C6,14.7 5.8,15.4 5.5,16 L14.6,16 Z" id="path-25"></path>
        <path d="M14.6,21.5 C14,22.5 13,23 12,23 C11.5,23 11,22.9 10.5,22.6 C10,22.3 9.7,22 9.4,21.5 C9.1,21 9.3,20.4 9.8,20.1 C10.3,19.8 10.9,20 11.2,20.5 C11.3,20.6 11.4,20.8 11.6,20.9 C12.1,21.2 12.7,21 13,20.5 C13.3,20 13.9,19.9 14.4,20.1 C14.9,20.3 14.9,21 14.6,21.5 Z M9.1,3.8 C12,2.2 15.6,3.2 17.3,6.1 C17.7,6.9 18,8 18,9 L18,13 C18,13.6 18.4,14 19,14 C19.6,14 20,13.6 20,13 L20,9 C20,7.6 19.6,6.3 19,5.1 C16.8,1.3 11.9,-0.1 8.1,2.1 C7.6,2.3 7.4,2.9 7.7,3.4 C8,3.9 8.6,4 9.1,3.8 Z M23.7,23.7 C23.5,23.9 23.3,24 23,24 C22.7,24 22.5,23.9 22.3,23.7 L16.6,18 L2,18 C1.4,18 1,17.6 1,17 C1,16.4 1.4,16 2,16 C3.1,16 4,15.1 4,14 L4,9 C4,8 4.2,7 4.6,6 L0.3,1.7 C-0.1,1.3 -0.1,0.7 0.3,0.3 C0.7,-0.1 1.3,-0.1 1.7,0.3 L17.7,16.3 C17.7,16.3 17.7,16.3 17.7,16.3 L23.7,22.3 C24.1,22.7 24.1,23.3 23.7,23.7 Z M14.6,16 L6.2,7.6 C6.1,8 6,8.5 6,9 L6,14 C6,14.7 5.8,15.4 5.5,16 L14.6,16 Z" id="path-27"></path>
        <path d="M14.6,21.5 C14,22.5 13,23 12,23 C11.5,23 11,22.9 10.5,22.6 C10,22.3 9.7,22 9.4,21.5 C9.1,21 9.3,20.4 9.8,20.1 C10.3,19.8 10.9,20 11.2,20.5 C11.3,20.6 11.4,20.8 11.6,20.9 C12.1,21.2 12.7,21 13,20.5 C13.3,20 13.9,19.9 14.4,20.1 C14.9,20.3 14.9,21 14.6,21.5 Z M9.1,3.8 C12,2.2 15.6,3.2 17.3,6.1 C17.7,6.9 18,8 18,9 L18,13 C18,13.6 18.4,14 19,14 C19.6,14 20,13.6 20,13 L20,9 C20,7.6 19.6,6.3 19,5.1 C16.8,1.3 11.9,-0.1 8.1,2.1 C7.6,2.3 7.4,2.9 7.7,3.4 C8,3.9 8.6,4 9.1,3.8 Z M23.7,23.7 C23.5,23.9 23.3,24 23,24 C22.7,24 22.5,23.9 22.3,23.7 L16.6,18 L2,18 C1.4,18 1,17.6 1,17 C1,16.4 1.4,16 2,16 C3.1,16 4,15.1 4,14 L4,9 C4,8 4.2,7 4.6,6 L0.3,1.7 C-0.1,1.3 -0.1,0.7 0.3,0.3 C0.7,-0.1 1.3,-0.1 1.7,0.3 L17.7,16.3 C17.7,16.3 17.7,16.3 17.7,16.3 L23.7,22.3 C24.1,22.7 24.1,23.3 23.7,23.7 Z M14.6,16 L6.2,7.6 C6.1,8 6,8.5 6,9 L6,14 C6,14.7 5.8,15.4 5.5,16 L14.6,16 Z" id="path-29"></path>
        <path d="M14.6,21.5 C14,22.5 13,23 12,23 C11.5,23 11,22.9 10.5,22.6 C10,22.3 9.7,22 9.4,21.5 C9.1,21 9.3,20.4 9.8,20.1 C10.3,19.8 10.9,20 11.2,20.5 C11.3,20.6 11.4,20.8 11.6,20.9 C12.1,21.2 12.7,21 13,20.5 C13.3,20 13.9,19.9 14.4,20.1 C14.9,20.3 14.9,21 14.6,21.5 Z M9.1,3.8 C12,2.2 15.6,3.2 17.3,6.1 C17.7,6.9 18,8 18,9 L18,13 C18,13.6 18.4,14 19,14 C19.6,14 20,13.6 20,13 L20,9 C20,7.6 19.6,6.3 19,5.1 C16.8,1.3 11.9,-0.1 8.1,2.1 C7.6,2.3 7.4,2.9 7.7,3.4 C8,3.9 8.6,4 9.1,3.8 Z M23.7,23.7 C23.5,23.9 23.3,24 23,24 C22.7,24 22.5,23.9 22.3,23.7 L16.6,18 L2,18 C1.4,18 1,17.6 1,17 C1,16.4 1.4,16 2,16 C3.1,16 4,15.1 4,14 L4,9 C4,8 4.2,7 4.6,6 L0.3,1.7 C-0.1,1.3 -0.1,0.7 0.3,0.3 C0.7,-0.1 1.3,-0.1 1.7,0.3 L17.7,16.3 C17.7,16.3 17.7,16.3 17.7,16.3 L23.7,22.3 C24.1,22.7 24.1,23.3 23.7,23.7 Z M14.6,16 L6.2,7.6 C6.1,8 6,8.5 6,9 L6,14 C6,14.7 5.8,15.4 5.5,16 L14.6,16 Z" id="path-31"></path>
        <path d="M14.6,21.5 C14,22.5 13,23 12,23 C11.5,23 11,22.9 10.5,22.6 C10,22.3 9.7,22 9.4,21.5 C9.1,21 9.3,20.4 9.8,20.1 C10.3,19.8 10.9,20 11.2,20.5 C11.3,20.6 11.4,20.8 11.6,20.9 C12.1,21.2 12.7,21 13,20.5 C13.3,20 13.9,19.9 14.4,20.1 C14.9,20.3 14.9,21 14.6,21.5 Z M9.1,3.8 C12,2.2 15.6,3.2 17.3,6.1 C17.7,6.9 18,8 18,9 L18,13 C18,13.6 18.4,14 19,14 C19.6,14 20,13.6 20,13 L20,9 C20,7.6 19.6,6.3 19,5.1 C16.8,1.3 11.9,-0.1 8.1,2.1 C7.6,2.3 7.4,2.9 7.7,3.4 C8,3.9 8.6,4 9.1,3.8 Z M23.7,23.7 C23.5,23.9 23.3,24 23,24 C22.7,24 22.5,23.9 22.3,23.7 L16.6,18 L2,18 C1.4,18 1,17.6 1,17 C1,16.4 1.4,16 2,16 C3.1,16 4,15.1 4,14 L4,9 C4,8 4.2,7 4.6,6 L0.3,1.7 C-0.1,1.3 -0.1,0.7 0.3,0.3 C0.7,-0.1 1.3,-0.1 1.7,0.3 L17.7,16.3 C17.7,16.3 17.7,16.3 17.7,16.3 L23.7,22.3 C24.1,22.7 24.1,23.3 23.7,23.7 Z M14.6,16 L6.2,7.6 C6.1,8 6,8.5 6,9 L6,14 C6,14.7 5.8,15.4 5.5,16 L14.6,16 Z" id="path-33"></path>
        <path d="M14.6,21.5 C14,22.5 13,23 12,23 C11.5,23 11,22.9 10.5,22.6 C10,22.3 9.7,22 9.4,21.5 C9.1,21 9.3,20.4 9.8,20.1 C10.3,19.8 10.9,20 11.2,20.5 C11.3,20.6 11.4,20.8 11.6,20.9 C12.1,21.2 12.7,21 13,20.5 C13.3,20 13.9,19.9 14.4,20.1 C14.9,20.3 14.9,21 14.6,21.5 Z M9.1,3.8 C12,2.2 15.6,3.2 17.3,6.1 C17.7,6.9 18,8 18,9 L18,13 C18,13.6 18.4,14 19,14 C19.6,14 20,13.6 20,13 L20,9 C20,7.6 19.6,6.3 19,5.1 C16.8,1.3 11.9,-0.1 8.1,2.1 C7.6,2.3 7.4,2.9 7.7,3.4 C8,3.9 8.6,4 9.1,3.8 Z M23.7,23.7 C23.5,23.9 23.3,24 23,24 C22.7,24 22.5,23.9 22.3,23.7 L16.6,18 L2,18 C1.4,18 1,17.6 1,17 C1,16.4 1.4,16 2,16 C3.1,16 4,15.1 4,14 L4,9 C4,8 4.2,7 4.6,6 L0.3,1.7 C-0.1,1.3 -0.1,0.7 0.3,0.3 C0.7,-0.1 1.3,-0.1 1.7,0.3 L17.7,16.3 C17.7,16.3 17.7,16.3 17.7,16.3 L23.7,22.3 C24.1,22.7 24.1,23.3 23.7,23.7 Z M14.6,16 L6.2,7.6 C6.1,8 6,8.5 6,9 L6,14 C6,14.7 5.8,15.4 5.5,16 L14.6,16 Z" id="path-35"></path>
        <path d="M14.6,21.5 C14,22.5 13,23 12,23 C11.5,23 11,22.9 10.5,22.6 C10,22.3 9.7,22 9.4,21.5 C9.1,21 9.3,20.4 9.8,20.1 C10.3,19.8 10.9,20 11.2,20.5 C11.3,20.6 11.4,20.8 11.6,20.9 C12.1,21.2 12.7,21 13,20.5 C13.3,20 13.9,19.9 14.4,20.1 C14.9,20.3 14.9,21 14.6,21.5 Z M9.1,3.8 C12,2.2 15.6,3.2 17.3,6.1 C17.7,6.9 18,8 18,9 L18,13 C18,13.6 18.4,14 19,14 C19.6,14 20,13.6 20,13 L20,9 C20,7.6 19.6,6.3 19,5.1 C16.8,1.3 11.9,-0.1 8.1,2.1 C7.6,2.3 7.4,2.9 7.7,3.4 C8,3.9 8.6,4 9.1,3.8 Z M23.7,23.7 C23.5,23.9 23.3,24 23,24 C22.7,24 22.5,23.9 22.3,23.7 L16.6,18 L2,18 C1.4,18 1,17.6 1,17 C1,16.4 1.4,16 2,16 C3.1,16 4,15.1 4,14 L4,9 C4,8 4.2,7 4.6,6 L0.3,1.7 C-0.1,1.3 -0.1,0.7 0.3,0.3 C0.7,-0.1 1.3,-0.1 1.7,0.3 L17.7,16.3 C17.7,16.3 17.7,16.3 17.7,16.3 L23.7,22.3 C24.1,22.7 24.1,23.3 23.7,23.7 Z M14.6,16 L6.2,7.6 C6.1,8 6,8.5 6,9 L6,14 C6,14.7 5.8,15.4 5.5,16 L14.6,16 Z" id="path-37"></path>
        <path d="M14.6,21.5 C14,22.5 13,23 12,23 C11.5,23 11,22.9 10.5,22.6 C10,22.3 9.7,22 9.4,21.5 C9.1,21 9.3,20.4 9.8,20.1 C10.3,19.8 10.9,20 11.2,20.5 C11.3,20.6 11.4,20.8 11.6,20.9 C12.1,21.2 12.7,21 13,20.5 C13.3,20 13.9,19.9 14.4,20.1 C14.9,20.3 14.9,21 14.6,21.5 Z M9.1,3.8 C12,2.2 15.6,3.2 17.3,6.1 C17.7,6.9 18,8 18,9 L18,13 C18,13.6 18.4,14 19,14 C19.6,14 20,13.6 20,13 L20,9 C20,7.6 19.6,6.3 19,5.1 C16.8,1.3 11.9,-0.1 8.1,2.1 C7.6,2.3 7.4,2.9 7.7,3.4 C8,3.9 8.6,4 9.1,3.8 Z M23.7,23.7 C23.5,23.9 23.3,24 23,24 C22.7,24 22.5,23.9 22.3,23.7 L16.6,18 L2,18 C1.4,18 1,17.6 1,17 C1,16.4 1.4,16 2,16 C3.1,16 4,15.1 4,14 L4,9 C4,8 4.2,7 4.6,6 L0.3,1.7 C-0.1,1.3 -0.1,0.7 0.3,0.3 C0.7,-0.1 1.3,-0.1 1.7,0.3 L17.7,16.3 C17.7,16.3 17.7,16.3 17.7,16.3 L23.7,22.3 C24.1,22.7 24.1,23.3 23.7,23.7 Z M14.6,16 L6.2,7.6 C6.1,8 6,8.5 6,9 L6,14 C6,14.7 5.8,15.4 5.5,16 L14.6,16 Z" id="path-39"></path>
        <path d="M14.6,21.5 C14,22.5 13,23 12,23 C11.5,23 11,22.9 10.5,22.6 C10,22.3 9.7,22 9.4,21.5 C9.1,21 9.3,20.4 9.8,20.1 C10.3,19.8 10.9,20 11.2,20.5 C11.3,20.6 11.4,20.8 11.6,20.9 C12.1,21.2 12.7,21 13,20.5 C13.3,20 13.9,19.9 14.4,20.1 C14.9,20.3 14.9,21 14.6,21.5 Z M9.1,3.8 C12,2.2 15.6,3.2 17.3,6.1 C17.7,6.9 18,8 18,9 L18,13 C18,13.6 18.4,14 19,14 C19.6,14 20,13.6 20,13 L20,9 C20,7.6 19.6,6.3 19,5.1 C16.8,1.3 11.9,-0.1 8.1,2.1 C7.6,2.3 7.4,2.9 7.7,3.4 C8,3.9 8.6,4 9.1,3.8 Z M23.7,23.7 C23.5,23.9 23.3,24 23,24 C22.7,24 22.5,23.9 22.3,23.7 L16.6,18 L2,18 C1.4,18 1,17.6 1,17 C1,16.4 1.4,16 2,16 C3.1,16 4,15.1 4,14 L4,9 C4,8 4.2,7 4.6,6 L0.3,1.7 C-0.1,1.3 -0.1,0.7 0.3,0.3 C0.7,-0.1 1.3,-0.1 1.7,0.3 L17.7,16.3 C17.7,16.3 17.7,16.3 17.7,16.3 L23.7,22.3 C24.1,22.7 24.1,23.3 23.7,23.7 Z M14.6,16 L6.2,7.6 C6.1,8 6,8.5 6,9 L6,14 C6,14.7 5.8,15.4 5.5,16 L14.6,16 Z" id="path-41"></path>
    </defs>
    <g id="Website" stroke="none" stroke-width="1" fill="none" fill-rule="evenodd">
        <g id="Features---Desktop" transform="translate(-1208.000000, -4320.000000)">
            <g id="Adressen" transform="translate(0.000000, 4320.000000)">
                <g id="Icon-Pattern" transform="translate(1208.000000, 0.000000)">
                    <g id="bell-off" transform="translate(192.000000, 40.000000)">
                        <mask id="mask-2" fill="white">
                            <use xlink:href="#path-1"></use>
                        </mask>
                        <use id="Mask" fill="#313233" fill-rule="evenodd" xlink:href="#path-1"></use>
                    </g>
                    <g id="bell-off" opacity="0.75" transform="translate(128.000000, 80.000000)">
                        <mask id="mask-4" fill="white">
                            <use xlink:href="#path-3"></use>
                        </mask>
                        <use id="Mask" fill="#313233" fill-rule="evenodd" xlink:href="#path-3"></use>
                    </g>
                    <g id="bell-off" opacity="0.25" transform="translate(0.000000, 80.000000)">
                        <mask id="mask-6" fill="white">
                            <use xlink:href="#path-5"></use>
                        </mask>
                        <use id="Mask" fill="#313233" fill-rule="evenodd" xlink:href="#path-5"></use>
                    </g>
                    <g id="bell-off" opacity="0.75" transform="translate(128.000000, 0.000000)">
                        <mask id="mask-8" fill="white">
                            <use xlink:href="#path-7"></use>
                        </mask>
                        <use id="Mask" fill="#313233" fill-rule="evenodd" xlink:href="#path-7"></use>
                    </g>
                    <g id="bell-off" opacity="0.5" transform="translate(64.000000, 120.000000)">
                        <mask id="mask-10" fill="white">
                            <use xlink:href="#path-9"></use>
                        </mask>
                        <use id="Mask" fill="#313233" fill-rule="evenodd" xlink:href="#path-9"></use>
                    </g>
                    <g id="bell-off" transform="translate(192.000000, 120.000000)">
                        <mask id="mask-12" fill="white">
                            <use xlink:href="#path-11"></use>
                        </mask>
                        <use id="Mask" fill="#313233" fill-rule="evenodd" xlink:href="#path-11"></use>
                    </g>
                    <g id="bell-off" opacity="0.75" transform="translate(128.000000, 160.000000)">
                        <mask id="mask-14" fill="white">
                            <use xlink:href="#path-13"></use>
                        </mask>
                        <use id="Mask" fill="#313233" fill-rule="evenodd" xlink:href="#path-13"></use>
                    </g>
                    <g id="bell-off" opacity="0.25" transform="translate(0.000000, 160.000000)">
                        <mask id="mask-16" fill="white">
                            <use xlink:href="#path-15"></use>
                        </mask>
                        <use id="Mask" fill="#313233" fill-rule="evenodd" xlink:href="#path-15"></use>
                    </g>
                    <g id="bell-off" opacity="0.5" transform="translate(64.000000, 200.000000)">
                        <mask id="mask-18" fill="white">
                            <use xlink:href="#path-17"></use>
                        </mask>
                        <use id="Mask" fill="#313233" fill-rule="evenodd" xlink:href="#path-17"></use>
                    </g>
                    <g id="bell-off" transform="translate(192.000000, 200.000000)">
                        <mask id="mask-20" fill="white">
                            <use xlink:href="#path-19"></use>
                        </mask>
                        <use id="Mask" fill="#313233" fill-rule="evenodd" xlink:href="#path-19"></use>
                    </g>
                    <g id="bell-off" opacity="0.75" transform="translate(128.000000, 240.000000)">
                        <mask id="mask-22" fill="white">
                            <use xlink:href="#path-21"></use>
                        </mask>
                        <use id="Mask" fill="#313233" fill-rule="evenodd" xlink:href="#path-21"></use>
                    </g>
                    <g id="bell-off" opacity="0.25" transform="translate(0.000000, 240.000000)">
                        <mask id="mask-24" fill="white">
                            <use xlink:href="#path-23"></use>
                        </mask>
                        <use id="Mask" fill="#313233" fill-rule="evenodd" xlink:href="#path-23"></use>
                    </g>
                    <g id="bell-off" opacity="0.5" transform="translate(64.000000, 280.000000)">
                        <mask id="mask-26" fill="white">
                            <use xlink:href="#path-25"></use>
                        </mask>
                        <use id="Mask" fill="#313233" fill-rule="evenodd" xlink:href="#path-25"></use>
                    </g>
                    <g id="bell-off" transform="translate(192.000000, 280.000000)">
                        <mask id="mask-28" fill="white">
                            <use xlink:href="#path-27"></use>
                        </mask>
                        <use id="Mask" fill="#313233" fill-rule="evenodd" xlink:href="#path-27"></use>
                    </g>
                    <g id="bell-off" opacity="0.75" transform="translate(128.000000, 320.000000)">
                        <mask id="mask-30" fill="white">
                            <use xlink:href="#path-29"></use>
                        </mask>
                        <use id="Mask" fill="#313233" fill-rule="evenodd" xlink:href="#path-29"></use>
                    </g>
                    <g id="bell-off" opacity="0.25" transform="translate(0.000000, 320.000000)">
                        <mask id="mask-32" fill="white">
                            <use xlink:href="#path-31"></use>
                        </mask>
                        <use id="Mask" fill="#313233" fill-rule="evenodd" xlink:href="#path-31"></use>
                    </g>
                    <g id="bell-off" opacity="0.5" transform="translate(64.000000, 360.000000)">
                        <mask id="mask-34" fill="white">
                            <use xlink:href="#path-33"></use>
                        </mask>
                        <use id="Mask" fill="#313233" fill-rule="evenodd" xlink:href="#path-33"></use>
                    </g>
                    <g id="bell-off" opacity="0.5" transform="translate(64.000000, 440.000000)">
                        <mask id="mask-36" fill="white">
                            <use xlink:href="#path-35"></use>
                        </mask>
                        <use id="Mask" fill="#313233" fill-rule="evenodd" xlink:href="#path-35"></use>
                    </g>
                    <g id="bell-off" transform="translate(192.000000, 360.000000)">
                        <mask id="mask-38" fill="white">
                            <use xlink:href="#path-37"></use>
                        </mask>
                        <use id="Mask" fill="#313233" fill-rule="evenodd" xlink:href="#path-37"></use>
                    </g>
                    <g id="bell-off" opacity="0.75" transform="translate(128.000000, 400.000000)">
                        <mask id="mask-40" fill="white">
                            <use xlink:href="#path-39"></use>
                        </mask>
                        <use id="Mask" fill="#313233" fill-rule="evenodd" xlink:href="#path-39"></use>
                    </g>
                    <g id="bell-off" transform="translate(192.000000, 440.000000)">
                        <mask id="mask-42" fill="white">
                            <use xlink:href="#path-41"></use>
                        </mask>
                        <use id="Mask" fill="#313233" fill-rule="evenodd" xlink:href="#path-41"></use>
                    </g>
                </g>
            </g>
        </g>
    </g>
</svg>