<?xml version="1.0" encoding="UTF-8"?>
<svg width="214px" height="462px" viewBox="0 0 214 462" version="1.1" xmlns="http://www.w3.org/2000/svg" xmlns:xlink="http://www.w3.org/1999/xlink">
    <!-- Generator: Sketch 62 (91390) - https://sketch.com -->
    <title>Icon Pattern Copy</title>
    <desc>Created with Sketch.</desc>
    <defs>
        <path d="M20,8 L19,8 L19,2 C19,1.4 18.6,1 18,1 L6,1 C5.4,1 5,1.4 5,2 L5,8 L4,8 C2.3,8 1,9.3 1,11 L1,16 C1,17.7 2.3,19 4,19 L5,19 L5,22 C5,22.6 5.4,23 6,23 L18,23 C18.6,23 19,22.6 19,22 L19,19 L20,19 C21.7,19 23,17.7 23,16 L23,11 C23,9.3 21.7,8 20,8 Z M7,3 L17,3 L17,8 L7,8 L7,3 Z M17,21 L7,21 L7,15 L17,15 L17,21 Z M21,16 C21,16.6 20.6,17 20,17 L19,17 L19,14 C19,13.4 18.6,13 18,13 L6,13 C5.4,13 5,13.4 5,14 L5,17 L4,17 C3.4,17 3,16.6 3,16 L3,11 C3,10.4 3.4,10 4,10 L20,10 C20.6,10 21,10.4 21,11 L21,16 Z" id="path-1"></path>
        <path d="M20,8 L19,8 L19,2 C19,1.4 18.6,1 18,1 L6,1 C5.4,1 5,1.4 5,2 L5,8 L4,8 C2.3,8 1,9.3 1,11 L1,16 C1,17.7 2.3,19 4,19 L5,19 L5,22 C5,22.6 5.4,23 6,23 L18,23 C18.6,23 19,22.6 19,22 L19,19 L20,19 C21.7,19 23,17.7 23,16 L23,11 C23,9.3 21.7,8 20,8 Z M7,3 L17,3 L17,8 L7,8 L7,3 Z M17,21 L7,21 L7,15 L17,15 L17,21 Z M21,16 C21,16.6 20.6,17 20,17 L19,17 L19,14 C19,13.4 18.6,13 18,13 L6,13 C5.4,13 5,13.4 5,14 L5,17 L4,17 C3.4,17 3,16.6 3,16 L3,11 C3,10.4 3.4,10 4,10 L20,10 C20.6,10 21,10.4 21,11 L21,16 Z" id="path-3"></path>
        <path d="M20,8 L19,8 L19,2 C19,1.4 18.6,1 18,1 L6,1 C5.4,1 5,1.4 5,2 L5,8 L4,8 C2.3,8 1,9.3 1,11 L1,16 C1,17.7 2.3,19 4,19 L5,19 L5,22 C5,22.6 5.4,23 6,23 L18,23 C18.6,23 19,22.6 19,22 L19,19 L20,19 C21.7,19 23,17.7 23,16 L23,11 C23,9.3 21.7,8 20,8 Z M7,3 L17,3 L17,8 L7,8 L7,3 Z M17,21 L7,21 L7,15 L17,15 L17,21 Z M21,16 C21,16.6 20.6,17 20,17 L19,17 L19,14 C19,13.4 18.6,13 18,13 L6,13 C5.4,13 5,13.4 5,14 L5,17 L4,17 C3.4,17 3,16.6 3,16 L3,11 C3,10.4 3.4,10 4,10 L20,10 C20.6,10 21,10.4 21,11 L21,16 Z" id="path-5"></path>
        <path d="M20,8 L19,8 L19,2 C19,1.4 18.6,1 18,1 L6,1 C5.4,1 5,1.4 5,2 L5,8 L4,8 C2.3,8 1,9.3 1,11 L1,16 C1,17.7 2.3,19 4,19 L5,19 L5,22 C5,22.6 5.4,23 6,23 L18,23 C18.6,23 19,22.6 19,22 L19,19 L20,19 C21.7,19 23,17.7 23,16 L23,11 C23,9.3 21.7,8 20,8 Z M7,3 L17,3 L17,8 L7,8 L7,3 Z M17,21 L7,21 L7,15 L17,15 L17,21 Z M21,16 C21,16.6 20.6,17 20,17 L19,17 L19,14 C19,13.4 18.6,13 18,13 L6,13 C5.4,13 5,13.4 5,14 L5,17 L4,17 C3.4,17 3,16.6 3,16 L3,11 C3,10.4 3.4,10 4,10 L20,10 C20.6,10 21,10.4 21,11 L21,16 Z" id="path-7"></path>
        <path d="M20,8 L19,8 L19,2 C19,1.4 18.6,1 18,1 L6,1 C5.4,1 5,1.4 5,2 L5,8 L4,8 C2.3,8 1,9.3 1,11 L1,16 C1,17.7 2.3,19 4,19 L5,19 L5,22 C5,22.6 5.4,23 6,23 L18,23 C18.6,23 19,22.6 19,22 L19,19 L20,19 C21.7,19 23,17.7 23,16 L23,11 C23,9.3 21.7,8 20,8 Z M7,3 L17,3 L17,8 L7,8 L7,3 Z M17,21 L7,21 L7,15 L17,15 L17,21 Z M21,16 C21,16.6 20.6,17 20,17 L19,17 L19,14 C19,13.4 18.6,13 18,13 L6,13 C5.4,13 5,13.4 5,14 L5,17 L4,17 C3.4,17 3,16.6 3,16 L3,11 C3,10.4 3.4,10 4,10 L20,10 C20.6,10 21,10.4 21,11 L21,16 Z" id="path-9"></path>
        <path d="M20,8 L19,8 L19,2 C19,1.4 18.6,1 18,1 L6,1 C5.4,1 5,1.4 5,2 L5,8 L4,8 C2.3,8 1,9.3 1,11 L1,16 C1,17.7 2.3,19 4,19 L5,19 L5,22 C5,22.6 5.4,23 6,23 L18,23 C18.6,23 19,22.6 19,22 L19,19 L20,19 C21.7,19 23,17.7 23,16 L23,11 C23,9.3 21.7,8 20,8 Z M7,3 L17,3 L17,8 L7,8 L7,3 Z M17,21 L7,21 L7,15 L17,15 L17,21 Z M21,16 C21,16.6 20.6,17 20,17 L19,17 L19,14 C19,13.4 18.6,13 18,13 L6,13 C5.4,13 5,13.4 5,14 L5,17 L4,17 C3.4,17 3,16.6 3,16 L3,11 C3,10.4 3.4,10 4,10 L20,10 C20.6,10 21,10.4 21,11 L21,16 Z" id="path-11"></path>
        <path d="M20,8 L19,8 L19,2 C19,1.4 18.6,1 18,1 L6,1 C5.4,1 5,1.4 5,2 L5,8 L4,8 C2.3,8 1,9.3 1,11 L1,16 C1,17.7 2.3,19 4,19 L5,19 L5,22 C5,22.6 5.4,23 6,23 L18,23 C18.6,23 19,22.6 19,22 L19,19 L20,19 C21.7,19 23,17.7 23,16 L23,11 C23,9.3 21.7,8 20,8 Z M7,3 L17,3 L17,8 L7,8 L7,3 Z M17,21 L7,21 L7,15 L17,15 L17,21 Z M21,16 C21,16.6 20.6,17 20,17 L19,17 L19,14 C19,13.4 18.6,13 18,13 L6,13 C5.4,13 5,13.4 5,14 L5,17 L4,17 C3.4,17 3,16.6 3,16 L3,11 C3,10.4 3.4,10 4,10 L20,10 C20.6,10 21,10.4 21,11 L21,16 Z" id="path-13"></path>
        <path d="M20,8 L19,8 L19,2 C19,1.4 18.6,1 18,1 L6,1 C5.4,1 5,1.4 5,2 L5,8 L4,8 C2.3,8 1,9.3 1,11 L1,16 C1,17.7 2.3,19 4,19 L5,19 L5,22 C5,22.6 5.4,23 6,23 L18,23 C18.6,23 19,22.6 19,22 L19,19 L20,19 C21.7,19 23,17.7 23,16 L23,11 C23,9.3 21.7,8 20,8 Z M7,3 L17,3 L17,8 L7,8 L7,3 Z M17,21 L7,21 L7,15 L17,15 L17,21 Z M21,16 C21,16.6 20.6,17 20,17 L19,17 L19,14 C19,13.4 18.6,13 18,13 L6,13 C5.4,13 5,13.4 5,14 L5,17 L4,17 C3.4,17 3,16.6 3,16 L3,11 C3,10.4 3.4,10 4,10 L20,10 C20.6,10 21,10.4 21,11 L21,16 Z" id="path-15"></path>
        <path d="M20,8 L19,8 L19,2 C19,1.4 18.6,1 18,1 L6,1 C5.4,1 5,1.4 5,2 L5,8 L4,8 C2.3,8 1,9.3 1,11 L1,16 C1,17.7 2.3,19 4,19 L5,19 L5,22 C5,22.6 5.4,23 6,23 L18,23 C18.6,23 19,22.6 19,22 L19,19 L20,19 C21.7,19 23,17.7 23,16 L23,11 C23,9.3 21.7,8 20,8 Z M7,3 L17,3 L17,8 L7,8 L7,3 Z M17,21 L7,21 L7,15 L17,15 L17,21 Z M21,16 C21,16.6 20.6,17 20,17 L19,17 L19,14 C19,13.4 18.6,13 18,13 L6,13 C5.4,13 5,13.4 5,14 L5,17 L4,17 C3.4,17 3,16.6 3,16 L3,11 C3,10.4 3.4,10 4,10 L20,10 C20.6,10 21,10.4 21,11 L21,16 Z" id="path-17"></path>
        <path d="M20,8 L19,8 L19,2 C19,1.4 18.6,1 18,1 L6,1 C5.4,1 5,1.4 5,2 L5,8 L4,8 C2.3,8 1,9.3 1,11 L1,16 C1,17.7 2.3,19 4,19 L5,19 L5,22 C5,22.6 5.4,23 6,23 L18,23 C18.6,23 19,22.6 19,22 L19,19 L20,19 C21.7,19 23,17.7 23,16 L23,11 C23,9.3 21.7,8 20,8 Z M7,3 L17,3 L17,8 L7,8 L7,3 Z M17,21 L7,21 L7,15 L17,15 L17,21 Z M21,16 C21,16.6 20.6,17 20,17 L19,17 L19,14 C19,13.4 18.6,13 18,13 L6,13 C5.4,13 5,13.4 5,14 L5,17 L4,17 C3.4,17 3,16.6 3,16 L3,11 C3,10.4 3.4,10 4,10 L20,10 C20.6,10 21,10.4 21,11 L21,16 Z" id="path-19"></path>
        <path d="M20,8 L19,8 L19,2 C19,1.4 18.6,1 18,1 L6,1 C5.4,1 5,1.4 5,2 L5,8 L4,8 C2.3,8 1,9.3 1,11 L1,16 C1,17.7 2.3,19 4,19 L5,19 L5,22 C5,22.6 5.4,23 6,23 L18,23 C18.6,23 19,22.6 19,22 L19,19 L20,19 C21.7,19 23,17.7 23,16 L23,11 C23,9.3 21.7,8 20,8 Z M7,3 L17,3 L17,8 L7,8 L7,3 Z M17,21 L7,21 L7,15 L17,15 L17,21 Z M21,16 C21,16.6 20.6,17 20,17 L19,17 L19,14 C19,13.4 18.6,13 18,13 L6,13 C5.4,13 5,13.4 5,14 L5,17 L4,17 C3.4,17 3,16.6 3,16 L3,11 C3,10.4 3.4,10 4,10 L20,10 C20.6,10 21,10.4 21,11 L21,16 Z" id="path-21"></path>
        <path d="M20,8 L19,8 L19,2 C19,1.4 18.6,1 18,1 L6,1 C5.4,1 5,1.4 5,2 L5,8 L4,8 C2.3,8 1,9.3 1,11 L1,16 C1,17.7 2.3,19 4,19 L5,19 L5,22 C5,22.6 5.4,23 6,23 L18,23 C18.6,23 19,22.6 19,22 L19,19 L20,19 C21.7,19 23,17.7 23,16 L23,11 C23,9.3 21.7,8 20,8 Z M7,3 L17,3 L17,8 L7,8 L7,3 Z M17,21 L7,21 L7,15 L17,15 L17,21 Z M21,16 C21,16.6 20.6,17 20,17 L19,17 L19,14 C19,13.4 18.6,13 18,13 L6,13 C5.4,13 5,13.4 5,14 L5,17 L4,17 C3.4,17 3,16.6 3,16 L3,11 C3,10.4 3.4,10 4,10 L20,10 C20.6,10 21,10.4 21,11 L21,16 Z" id="path-23"></path>
        <path d="M20,8 L19,8 L19,2 C19,1.4 18.6,1 18,1 L6,1 C5.4,1 5,1.4 5,2 L5,8 L4,8 C2.3,8 1,9.3 1,11 L1,16 C1,17.7 2.3,19 4,19 L5,19 L5,22 C5,22.6 5.4,23 6,23 L18,23 C18.6,23 19,22.6 19,22 L19,19 L20,19 C21.7,19 23,17.7 23,16 L23,11 C23,9.3 21.7,8 20,8 Z M7,3 L17,3 L17,8 L7,8 L7,3 Z M17,21 L7,21 L7,15 L17,15 L17,21 Z M21,16 C21,16.6 20.6,17 20,17 L19,17 L19,14 C19,13.4 18.6,13 18,13 L6,13 C5.4,13 5,13.4 5,14 L5,17 L4,17 C3.4,17 3,16.6 3,16 L3,11 C3,10.4 3.4,10 4,10 L20,10 C20.6,10 21,10.4 21,11 L21,16 Z" id="path-25"></path>
        <path d="M20,8 L19,8 L19,2 C19,1.4 18.6,1 18,1 L6,1 C5.4,1 5,1.4 5,2 L5,8 L4,8 C2.3,8 1,9.3 1,11 L1,16 C1,17.7 2.3,19 4,19 L5,19 L5,22 C5,22.6 5.4,23 6,23 L18,23 C18.6,23 19,22.6 19,22 L19,19 L20,19 C21.7,19 23,17.7 23,16 L23,11 C23,9.3 21.7,8 20,8 Z M7,3 L17,3 L17,8 L7,8 L7,3 Z M17,21 L7,21 L7,15 L17,15 L17,21 Z M21,16 C21,16.6 20.6,17 20,17 L19,17 L19,14 C19,13.4 18.6,13 18,13 L6,13 C5.4,13 5,13.4 5,14 L5,17 L4,17 C3.4,17 3,16.6 3,16 L3,11 C3,10.4 3.4,10 4,10 L20,10 C20.6,10 21,10.4 21,11 L21,16 Z" id="path-27"></path>
        <path d="M20,8 L19,8 L19,2 C19,1.4 18.6,1 18,1 L6,1 C5.4,1 5,1.4 5,2 L5,8 L4,8 C2.3,8 1,9.3 1,11 L1,16 C1,17.7 2.3,19 4,19 L5,19 L5,22 C5,22.6 5.4,23 6,23 L18,23 C18.6,23 19,22.6 19,22 L19,19 L20,19 C21.7,19 23,17.7 23,16 L23,11 C23,9.3 21.7,8 20,8 Z M7,3 L17,3 L17,8 L7,8 L7,3 Z M17,21 L7,21 L7,15 L17,15 L17,21 Z M21,16 C21,16.6 20.6,17 20,17 L19,17 L19,14 C19,13.4 18.6,13 18,13 L6,13 C5.4,13 5,13.4 5,14 L5,17 L4,17 C3.4,17 3,16.6 3,16 L3,11 C3,10.4 3.4,10 4,10 L20,10 C20.6,10 21,10.4 21,11 L21,16 Z" id="path-29"></path>
        <path d="M20,8 L19,8 L19,2 C19,1.4 18.6,1 18,1 L6,1 C5.4,1 5,1.4 5,2 L5,8 L4,8 C2.3,8 1,9.3 1,11 L1,16 C1,17.7 2.3,19 4,19 L5,19 L5,22 C5,22.6 5.4,23 6,23 L18,23 C18.6,23 19,22.6 19,22 L19,19 L20,19 C21.7,19 23,17.7 23,16 L23,11 C23,9.3 21.7,8 20,8 Z M7,3 L17,3 L17,8 L7,8 L7,3 Z M17,21 L7,21 L7,15 L17,15 L17,21 Z M21,16 C21,16.6 20.6,17 20,17 L19,17 L19,14 C19,13.4 18.6,13 18,13 L6,13 C5.4,13 5,13.4 5,14 L5,17 L4,17 C3.4,17 3,16.6 3,16 L3,11 C3,10.4 3.4,10 4,10 L20,10 C20.6,10 21,10.4 21,11 L21,16 Z" id="path-31"></path>
        <path d="M20,8 L19,8 L19,2 C19,1.4 18.6,1 18,1 L6,1 C5.4,1 5,1.4 5,2 L5,8 L4,8 C2.3,8 1,9.3 1,11 L1,16 C1,17.7 2.3,19 4,19 L5,19 L5,22 C5,22.6 5.4,23 6,23 L18,23 C18.6,23 19,22.6 19,22 L19,19 L20,19 C21.7,19 23,17.7 23,16 L23,11 C23,9.3 21.7,8 20,8 Z M7,3 L17,3 L17,8 L7,8 L7,3 Z M17,21 L7,21 L7,15 L17,15 L17,21 Z M21,16 C21,16.6 20.6,17 20,17 L19,17 L19,14 C19,13.4 18.6,13 18,13 L6,13 C5.4,13 5,13.4 5,14 L5,17 L4,17 C3.4,17 3,16.6 3,16 L3,11 C3,10.4 3.4,10 4,10 L20,10 C20.6,10 21,10.4 21,11 L21,16 Z" id="path-33"></path>
        <path d="M20,8 L19,8 L19,2 C19,1.4 18.6,1 18,1 L6,1 C5.4,1 5,1.4 5,2 L5,8 L4,8 C2.3,8 1,9.3 1,11 L1,16 C1,17.7 2.3,19 4,19 L5,19 L5,22 C5,22.6 5.4,23 6,23 L18,23 C18.6,23 19,22.6 19,22 L19,19 L20,19 C21.7,19 23,17.7 23,16 L23,11 C23,9.3 21.7,8 20,8 Z M7,3 L17,3 L17,8 L7,8 L7,3 Z M17,21 L7,21 L7,15 L17,15 L17,21 Z M21,16 C21,16.6 20.6,17 20,17 L19,17 L19,14 C19,13.4 18.6,13 18,13 L6,13 C5.4,13 5,13.4 5,14 L5,17 L4,17 C3.4,17 3,16.6 3,16 L3,11 C3,10.4 3.4,10 4,10 L20,10 C20.6,10 21,10.4 21,11 L21,16 Z" id="path-35"></path>
        <path d="M20,8 L19,8 L19,2 C19,1.4 18.6,1 18,1 L6,1 C5.4,1 5,1.4 5,2 L5,8 L4,8 C2.3,8 1,9.3 1,11 L1,16 C1,17.7 2.3,19 4,19 L5,19 L5,22 C5,22.6 5.4,23 6,23 L18,23 C18.6,23 19,22.6 19,22 L19,19 L20,19 C21.7,19 23,17.7 23,16 L23,11 C23,9.3 21.7,8 20,8 Z M7,3 L17,3 L17,8 L7,8 L7,3 Z M17,21 L7,21 L7,15 L17,15 L17,21 Z M21,16 C21,16.6 20.6,17 20,17 L19,17 L19,14 C19,13.4 18.6,13 18,13 L6,13 C5.4,13 5,13.4 5,14 L5,17 L4,17 C3.4,17 3,16.6 3,16 L3,11 C3,10.4 3.4,10 4,10 L20,10 C20.6,10 21,10.4 21,11 L21,16 Z" id="path-37"></path>
        <path d="M20,8 L19,8 L19,2 C19,1.4 18.6,1 18,1 L6,1 C5.4,1 5,1.4 5,2 L5,8 L4,8 C2.3,8 1,9.3 1,11 L1,16 C1,17.7 2.3,19 4,19 L5,19 L5,22 C5,22.6 5.4,23 6,23 L18,23 C18.6,23 19,22.6 19,22 L19,19 L20,19 C21.7,19 23,17.7 23,16 L23,11 C23,9.3 21.7,8 20,8 Z M7,3 L17,3 L17,8 L7,8 L7,3 Z M17,21 L7,21 L7,15 L17,15 L17,21 Z M21,16 C21,16.6 20.6,17 20,17 L19,17 L19,14 C19,13.4 18.6,13 18,13 L6,13 C5.4,13 5,13.4 5,14 L5,17 L4,17 C3.4,17 3,16.6 3,16 L3,11 C3,10.4 3.4,10 4,10 L20,10 C20.6,10 21,10.4 21,11 L21,16 Z" id="path-39"></path>
        <path d="M20,8 L19,8 L19,2 C19,1.4 18.6,1 18,1 L6,1 C5.4,1 5,1.4 5,2 L5,8 L4,8 C2.3,8 1,9.3 1,11 L1,16 C1,17.7 2.3,19 4,19 L5,19 L5,22 C5,22.6 5.4,23 6,23 L18,23 C18.6,23 19,22.6 19,22 L19,19 L20,19 C21.7,19 23,17.7 23,16 L23,11 C23,9.3 21.7,8 20,8 Z M7,3 L17,3 L17,8 L7,8 L7,3 Z M17,21 L7,21 L7,15 L17,15 L17,21 Z M21,16 C21,16.6 20.6,17 20,17 L19,17 L19,14 C19,13.4 18.6,13 18,13 L6,13 C5.4,13 5,13.4 5,14 L5,17 L4,17 C3.4,17 3,16.6 3,16 L3,11 C3,10.4 3.4,10 4,10 L20,10 C20.6,10 21,10.4 21,11 L21,16 Z" id="path-41"></path>
    </defs>
    <g id="Website" stroke="none" stroke-width="1" fill="none" fill-rule="evenodd">
        <g id="Icon-Pattern-Copy" transform="translate(-1.000000, -1.000000)">
            <g id="printer" transform="translate(0.000000, 40.000000)">
                <mask id="mask-2" fill="white">
                    <use xlink:href="#path-1"></use>
                </mask>
                <use id="Mask" fill="#313233" fill-rule="evenodd" xlink:href="#path-1"></use>
            </g>
            <g id="printer" opacity="0.75" transform="translate(64.000000, 80.000000)">
                <mask id="mask-4" fill="white">
                    <use xlink:href="#path-3"></use>
                </mask>
                <use id="Mask" fill="#313233" fill-rule="evenodd" xlink:href="#path-3"></use>
            </g>
            <g id="printer" opacity="0.25" transform="translate(192.000000, 80.000000)">
                <mask id="mask-6" fill="white">
                    <use xlink:href="#path-5"></use>
                </mask>
                <use id="Mask" fill="#313233" fill-rule="evenodd" xlink:href="#path-5"></use>
            </g>
            <g id="printer" opacity="0.75" transform="translate(64.000000, 0.000000)">
                <mask id="mask-8" fill="white">
                    <use xlink:href="#path-7"></use>
                </mask>
                <use id="Mask" fill="#313233" fill-rule="evenodd" xlink:href="#path-7"></use>
            </g>
            <g id="printer" opacity="0.5" transform="translate(128.000000, 120.000000)">
                <mask id="mask-10" fill="white">
                    <use xlink:href="#path-9"></use>
                </mask>
                <use id="Mask" fill="#313233" fill-rule="evenodd" xlink:href="#path-9"></use>
            </g>
            <g id="printer" transform="translate(0.000000, 120.000000)">
                <mask id="mask-12" fill="white">
                    <use xlink:href="#path-11"></use>
                </mask>
                <use id="Mask" fill="#313233" fill-rule="evenodd" xlink:href="#path-11"></use>
            </g>
            <g id="printer" opacity="0.75" transform="translate(64.000000, 160.000000)">
                <mask id="mask-14" fill="white">
                    <use xlink:href="#path-13"></use>
                </mask>
                <use id="Mask" fill="#313233" fill-rule="evenodd" xlink:href="#path-13"></use>
            </g>
            <g id="printer" opacity="0.25" transform="translate(192.000000, 160.000000)">
                <mask id="mask-16" fill="white">
                    <use xlink:href="#path-15"></use>
                </mask>
                <use id="Mask" fill="#313233" fill-rule="evenodd" xlink:href="#path-15"></use>
            </g>
            <g id="printer" opacity="0.5" transform="translate(128.000000, 200.000000)">
                <mask id="mask-18" fill="white">
                    <use xlink:href="#path-17"></use>
                </mask>
                <use id="Mask" fill="#313233" fill-rule="evenodd" xlink:href="#path-17"></use>
            </g>
            <g id="printer" transform="translate(0.000000, 200.000000)">
                <mask id="mask-20" fill="white">
                    <use xlink:href="#path-19"></use>
                </mask>
                <use id="Mask" fill="#313233" fill-rule="evenodd" xlink:href="#path-19"></use>
            </g>
            <g id="printer" opacity="0.75" transform="translate(64.000000, 240.000000)">
                <mask id="mask-22" fill="white">
                    <use xlink:href="#path-21"></use>
                </mask>
                <use id="Mask" fill="#313233" fill-rule="evenodd" xlink:href="#path-21"></use>
            </g>
            <g id="printer" opacity="0.25" transform="translate(192.000000, 240.000000)">
                <mask id="mask-24" fill="white">
                    <use xlink:href="#path-23"></use>
                </mask>
                <use id="Mask" fill="#313233" fill-rule="evenodd" xlink:href="#path-23"></use>
            </g>
            <g id="printer" opacity="0.5" transform="translate(128.000000, 280.000000)">
                <mask id="mask-26" fill="white">
                    <use xlink:href="#path-25"></use>
                </mask>
                <use id="Mask" fill="#313233" fill-rule="evenodd" xlink:href="#path-25"></use>
            </g>
            <g id="printer" transform="translate(0.000000, 280.000000)">
                <mask id="mask-28" fill="white">
                    <use xlink:href="#path-27"></use>
                </mask>
                <use id="Mask" fill="#313233" fill-rule="evenodd" xlink:href="#path-27"></use>
            </g>
            <g id="printer" opacity="0.75" transform="translate(64.000000, 320.000000)">
                <mask id="mask-30" fill="white">
                    <use xlink:href="#path-29"></use>
                </mask>
                <use id="Mask" fill="#313233" fill-rule="evenodd" xlink:href="#path-29"></use>
            </g>
            <g id="printer" opacity="0.25" transform="translate(192.000000, 320.000000)">
                <mask id="mask-32" fill="white">
                    <use xlink:href="#path-31"></use>
                </mask>
                <use id="Mask" fill="#313233" fill-rule="evenodd" xlink:href="#path-31"></use>
            </g>
            <g id="printer" opacity="0.5" transform="translate(128.000000, 360.000000)">
                <mask id="mask-34" fill="white">
                    <use xlink:href="#path-33"></use>
                </mask>
                <use id="Mask" fill="#313233" fill-rule="evenodd" xlink:href="#path-33"></use>
            </g>
            <g id="printer" opacity="0.5" transform="translate(128.000000, 440.000000)">
                <mask id="mask-36" fill="white">
                    <use xlink:href="#path-35"></use>
                </mask>
                <use id="Mask" fill="#313233" fill-rule="evenodd" xlink:href="#path-35"></use>
            </g>
            <g id="printer" transform="translate(0.000000, 360.000000)">
                <mask id="mask-38" fill="white">
                    <use xlink:href="#path-37"></use>
                </mask>
                <use id="Mask" fill="#313233" fill-rule="evenodd" xlink:href="#path-37"></use>
            </g>
            <g id="printer" opacity="0.75" transform="translate(64.000000, 400.000000)">
                <mask id="mask-40" fill="white">
                    <use xlink:href="#path-39"></use>
                </mask>
                <use id="Mask" fill="#313233" fill-rule="evenodd" xlink:href="#path-39"></use>
            </g>
            <g id="printer" transform="translate(0.000000, 440.000000)">
                <mask id="mask-42" fill="white">
                    <use xlink:href="#path-41"></use>
                </mask>
                <use id="Mask" fill="#313233" fill-rule="evenodd" xlink:href="#path-41"></use>
            </g>
        </g>
    </g>
</svg>