<?xml version="1.0" encoding="UTF-8"?>
<svg width="20px" height="24px" viewBox="0 0 20 24" version="1.1" xmlns="http://www.w3.org/2000/svg" xmlns:xlink="http://www.w3.org/1999/xlink">
    <!-- Generator: Sketch 54.1 (76490) - https://sketchapp.com -->
    <title>Shape</title>
    <desc>Created with Sketch.</desc>
    <g id="Website" stroke="none" stroke-width="1" fill="none" fill-rule="evenodd">
        <g id="Desktop-Download" transform="translate(-525.000000, -2500.000000)" fill="#636566" fill-rule="nonzero">
            <g id="Download" transform="translate(80.000000, 1979.000000)">
                <g id="linux" transform="translate(376.000000, 509.000000)">
                    <path d="M85.2864463,24.752144 C85.2562308,21.712725 87.7598139,20.2550546 87.8716486,20.1826327 C86.4649442,18.119666 84.2736191,17.8370569 83.4927403,17.804385 C81.6278455,17.6151508 79.8538778,18.9047277 78.9074218,18.9047277 C77.9633512,18.9047277 76.5028576,17.8323694 74.9562077,17.8605412 C72.9235373,17.8908225 71.0492879,19.0450245 70.0026436,20.8694446 C67.8907395,24.5420973 69.461805,29.9828733 71.5202006,32.9614486 C72.5260118,34.4194472 73.7253706,36.0569768 75.3000844,35.9984769 C76.8165188,35.9378207 77.3899584,35.0150872 79.2233281,35.0150872 C81.056651,35.0150872 81.572045,35.9984769 83.1767872,35.9682894 C84.8086111,35.9379144 85.8424395,34.4824002 86.8413283,33.0199485 C87.996346,31.3285126 88.4719361,29.6909361 88.5,29.6068893 C88.4637508,29.5902956 85.3179714,28.3825623 85.2864463,24.752144 Z M82.2710707,15.8325432 C83.1068613,14.816341 83.670993,13.406483 83.5171091,12 C82.3132134,12.049125 80.8539359,12.8036711 79.9901749,13.8175764 C79.2151427,14.717013 78.5366973,16.1525585 78.7185047,17.5309165 C80.0624863,17.6360102 81.4343914,16.8464485 82.2710707,15.8325432 Z" id="Shape"></path>
                </g>
            </g>
        </g>
    </g>
</svg>