<?xml version="1.0" encoding="UTF-8"?>
<svg width="21px" height="24px" viewBox="0 0 21 24" version="1.1" xmlns="http://www.w3.org/2000/svg" xmlns:xlink="http://www.w3.org/1999/xlink">
    <!-- Generator: Sketch 54.1 (76490) - https://sketchapp.com -->
    <title>XMLID_92_</title>
    <desc>Created with Sketch.</desc>
    <g id="Website" stroke="none" stroke-width="1" fill="none" fill-rule="evenodd">
        <g id="Desktop-Download" transform="translate(-470.000000, -2500.000000)" fill="#636566" fill-rule="nonzero">
            <g id="Download" transform="translate(80.000000, 1979.000000)">
                <g id="linux" transform="translate(376.000000, 509.000000)">
                    <path d="M33.621676,31.2700018 C32.9263718,30.9817638 32.6289396,30.5992564 32.6577033,30.0285248 C32.6873221,29.3623434 32.3139382,28.8743926 32.1366138,28.6816045 C32.2437392,28.2673854 32.5567971,26.8344579 32.1369248,25.5898334 C31.6857234,24.2576279 30.3081753,22.2229654 28.886782,20.2229261 C28.3049001,19.4015698 28.2773802,18.508764 28.2455847,17.4749474 C28.2151107,16.488895 28.1807497,15.3711959 27.6375045,14.1286959 C27.046838,12.7757953 25.861618,12 24.3855736,12 C23.5075033,12 22.6061889,12.2777723 21.912595,12.7620247 C20.49229,13.7542148 20.6800315,15.9174552 20.8042596,17.3488875 C20.8212846,17.5449019 20.8372989,17.7300572 20.8466277,17.8881435 C20.9293428,19.2900675 20.8540907,20.0289576 20.7556722,20.2535361 C20.6920034,20.4002911 20.3785568,20.8179726 20.0468413,21.260205 C19.7037759,21.7175457 19.314844,22.2359491 18.9960333,22.7190211 C18.6156528,23.3002971 18.3085809,24.188775 18.0116151,25.0479806 C17.7943325,25.6767061 17.5890996,26.2705723 17.3893085,26.6254598 C17.0106383,27.308166 17.1048588,27.9447603 17.1835314,28.2389786 C17.0401794,28.3397793 16.8330807,28.538233 16.6582441,28.9123207 C16.4469475,29.3687172 16.0182128,29.6139909 15.1266936,29.7875002 C14.7170052,29.872327 14.434499,30.0467019 14.2867935,30.3057463 C14.0718431,30.6827455 14.1889191,31.1564535 14.2957335,31.4801802 C14.4535452,31.9560915 14.3552044,32.2573132 14.176403,32.804202 C14.135201,32.9304192 14.0884794,33.0733185 14.0411359,33.2309327 C13.9665835,33.4796687 13.9934815,33.705821 14.1208969,33.9030944 C14.4575877,34.4240946 15.4400624,34.6078335 16.4514564,34.7286999 C17.0553386,34.8012512 17.7162818,35.045738 18.3555357,35.2822773 C18.9818847,35.5139378 19.6295344,35.7535459 20.2182574,35.8262546 C20.3077359,35.8376645 20.3963592,35.8434088 20.4817951,35.8434088 C21.3706713,35.8434088 21.7722747,35.2463951 21.8996124,35.0011213 C22.2188895,34.9351799 23.3200728,34.7239785 24.4549952,34.6956505 C25.5881296,34.6629158 26.6844931,34.8893829 26.9950633,34.9598096 C27.0927044,35.148978 27.3501007,35.5810595 27.760411,35.8036708 C27.9859339,35.9284717 28.2997692,36 28.621223,36 C28.6213008,36 28.621223,36 28.6213008,36 C28.9645995,36 29.617691,35.9178486 30.1345825,35.3674188 C30.6501524,34.8143922 31.9382998,34.1083942 32.8789505,33.5929022 C33.0888478,33.4778589 33.2852184,33.3702123 33.4574119,33.2730313 C33.9858089,32.976531 34.2741456,32.5528692 34.2484137,32.1107155 C34.2269575,31.7434737 33.9868195,31.4213208 33.621676,31.2700018 Z M21.9241782,31.1635355 C21.8584104,30.6945488 21.2623798,30.2294179 20.5721287,29.6908701 C20.0077382,29.2504475 19.368018,28.751323 19.191782,28.3286054 C18.8275713,27.4565735 19.1146642,25.9232388 19.6152303,25.133673 C19.8625982,24.7383393 20.0646437,24.1388075 20.2600814,23.5590266 C20.4710671,22.9329766 20.6892825,22.2856806 20.9333075,22.0023213 C21.3197517,21.5599315 21.6768881,20.6991521 21.7401682,20.0207739 C22.1020467,20.370468 22.6634053,20.8141955 23.1820071,20.8141955 C23.2618458,20.8141955 23.3393523,20.8036512 23.4134383,20.7824838 C23.7682424,20.6787717 24.2901092,20.3735369 24.7947956,20.078453 C25.2299049,19.8239726 25.7664645,19.5101607 25.9683546,19.4815966 C26.3145297,19.9847343 28.3260453,24.4905475 28.5315891,25.9375602 C28.6942207,27.0824858 28.5224158,28.0289576 28.436047,28.3996616 C28.3665477,28.3900616 28.2836771,28.3822714 28.1966086,28.3822714 C27.6363384,28.3822714 27.4880109,28.691834 27.4493743,28.8766746 C27.3500229,29.3569138 27.3395281,30.8925304 27.3384397,31.2375819 C27.1358499,31.4981213 26.111318,32.7250408 24.6404045,32.9456062 C24.0412644,33.0337379 23.4817715,33.0784333 22.9775516,33.0784333 C22.5465625,33.0784333 22.2715193,33.0447544 22.1573196,33.0272067 L21.4181702,32.1711487 C21.7096165,32.0254952 22.000985,31.7181359 21.9241782,31.1635355 Z M22.8621081,17.0478233 C22.8390194,17.0578955 22.8163194,17.0686759 22.7940081,17.0801645 C22.7917536,17.0294887 22.786545,16.9781048 22.7785378,16.9265635 C22.697844,16.4563964 22.3898392,16.1151221 22.0463073,16.1151221 C22.0208864,16.1151221 21.99531,16.1170893 21.967246,16.1214172 C21.7628682,16.155883 21.6025689,16.3112938 21.514723,16.5316232 C21.5917631,16.0481577 21.8623751,15.6902012 22.1834402,15.6902012 C22.5604779,15.6902012 22.8789776,16.2045128 22.8789776,16.8132512 C22.8789776,16.889973 22.8734581,16.9663014 22.8621081,17.0478233 Z M25.7918077,17.4103437 C25.8263241,17.2990774 25.8449817,17.1786831 25.8449817,17.0537249 C25.8449817,16.5018 25.4990398,16.0694037 25.0574004,16.0694037 C24.6257894,16.0694037 24.274639,16.5109279 24.274639,17.0537249 C24.274639,17.0907088 24.276427,17.1277713 24.2798476,17.1647552 C24.2569921,17.1558633 24.2346808,17.1472075 24.2129137,17.1388665 C24.163238,16.9866032 24.1381281,16.82773 24.1381281,16.6655519 C24.1381281,16.0055869 24.554813,15.4686129 25.0671179,15.4686129 C25.579345,15.4686129 25.9961077,16.0055869 25.9961077,16.6655519 C25.9961077,16.940098 25.9212443,17.2021325 25.7918077,17.4103437 Z M25.4140703,18.6948636 C25.406685,18.7282277 25.3909816,18.7430213 25.217311,18.8344579 C25.1296206,18.8806484 25.020474,18.9381701 24.8838853,19.0223674 L24.7926189,19.0783153 C24.4258428,19.3033659 23.567052,19.8305038 23.3339105,19.8614286 C23.1755547,19.8829894 23.0776026,19.8208251 22.8573659,19.6693487 C22.8076902,19.6351189 22.7548272,19.5987646 22.6984659,19.5621742 C22.3014491,19.2984872 22.0460741,19.008046 22.0172326,18.8944977 C22.1466693,18.7932249 22.4675012,18.5397675 22.6317652,18.3897075 C22.965191,18.0758956 23.3007156,17.865009 23.4667677,17.865009 C23.4755523,17.865009 23.4834818,17.8656385 23.4917222,17.8672122 C23.6868489,17.9020715 24.1681356,18.0965121 24.5196747,18.2384671 C24.6821507,18.3040938 24.8224709,18.3607499 24.9212004,18.3966321 C25.2322371,18.5047509 25.3944022,18.6430862 25.4140703,18.6948636 Z M28.2085805,33.3601401 C28.3840391,32.5590069 28.5861624,31.4691637 28.553434,30.8266677 C28.5458932,30.6806995 28.5331439,30.5218264 28.5207833,30.3682254 C28.4976946,30.0810104 28.4634114,29.6541223 28.498783,29.5275117 C28.5057795,29.5242067 28.5135535,29.5213739 28.5221826,29.5189346 C28.5236597,29.886255 28.6024878,30.6189286 29.1813378,30.874432 C29.3538423,30.950603 29.5509903,30.9891606 29.7672622,30.9891606 C30.3471229,30.9891606 30.9904969,30.7012374 31.2540346,30.4344815 C31.4092031,30.2774182 31.5397281,30.0852596 31.6311501,29.933075 C31.6511292,29.9923278 31.6634121,30.0697578 31.6569597,30.1695355 C31.622521,30.7113096 31.8826381,31.4300553 32.3776847,31.6949226 L32.4497495,31.7332442 C32.6260632,31.8268841 33.0943674,32.0757775 33.1019081,32.1938111 C33.1018304,32.1938898 33.0979434,32.2077391 33.0718228,32.23229 C32.9545136,32.3408022 32.5416378,32.5542069 32.1423666,32.7606083 C31.4340798,33.1266697 30.6312616,33.541597 30.2707047,33.9254421 C29.7630643,34.4661932 29.1888786,34.8294218 28.8421594,34.8294218 C28.8004131,34.8294218 28.7623984,34.824071 28.7285816,34.8132119 C28.3520103,34.6943914 28.042062,34.1444337 28.2085805,33.3601401 Z M15.3728953,31.3163496 C15.3344919,31.1344206 15.3041734,30.9908131 15.3367463,30.8516908 C15.3603792,30.7486082 15.8631221,30.6381288 16.0778392,30.590994 C16.3797026,30.5246592 16.6919054,30.456121 16.8960499,30.3306907 C17.1721037,30.1614306 17.3215972,29.8492711 17.4534438,29.5738595 C17.5489082,29.3746975 17.6474822,29.1687683 17.7647914,29.1011744 C17.7713993,29.09724 17.7815055,29.092676 17.8007849,29.092676 C18.0205552,29.092676 18.4817073,29.560325 18.7474217,29.978872 C18.814822,30.084394 18.939672,30.2958314 19.0841125,30.5406331 C19.5161122,31.2722838 20.1076338,32.2743887 20.4165715,32.6102335 C20.6949575,32.9121634 21.1456147,33.4926524 21.0347579,33.990518 C20.9535976,34.3768025 20.5215201,34.6909291 20.4196034,34.7604115 C20.3825992,34.76891 20.3368105,34.7732379 20.2829369,34.7732379 C19.6916485,34.7732379 18.521199,34.2752936 17.8923623,34.0077509 L17.7993079,33.9681703 C17.4481575,33.8191332 16.8749047,33.7252572 16.3205427,33.6344501 C15.8794474,33.5621348 15.2754097,33.4632227 15.1752809,33.373832 C15.0941206,33.2816871 15.1882634,32.9821179 15.2712895,32.7178014 C15.3310713,32.5278461 15.3927967,32.3314382 15.4266135,32.1258238 C15.4745789,31.7978479 15.4181398,31.5308559 15.3728953,31.3163496 Z" id="XMLID_92_"></path>
                </g>
            </g>
        </g>
    </g>
</svg>