<?xml version="1.0" encoding="UTF-8"?>
<svg width="27px" height="24px" viewBox="0 0 27 24" version="1.1" xmlns="http://www.w3.org/2000/svg" xmlns:xlink="http://www.w3.org/1999/xlink">
    <!-- Generator: Sketch 54.1 (76490) - https://sketchapp.com -->
    <title>Windows</title>
    <desc>Created with Sketch.</desc>
    <g id="Website" stroke="none" stroke-width="1" fill="none" fill-rule="evenodd">
        <g id="Desktop-Download" transform="translate(-403.000000, -2500.000000)" fill="#636566" fill-rule="nonzero">
            <g id="Download" transform="translate(80.000000, 1979.000000)">
                <g id="Win" transform="translate(312.000000, 509.000000)">
                    <path d="M16.5119,13.0443 C18.2129,12.366 19.7051,12.0252 21.0707,12 C21.7877,12 22.4645,12.0771 23.1062,12.2262 C24.083,12.4755 25.4348,13.2075 25.9499,13.5015 L23.5043,21.8292 C22.2581,21.0345 20.7542,20.2626 18.7205,20.2419 L18.7187,20.2419 C17.3624,20.2419 15.8888,20.5542 14.1812,21.1953 L16.5119,13.0443 Z M20.342,33.0156 C20.9468,30.9711 22.3991,26.0334 22.8326,24.5574 C22.5182,24.3663 22.1978,24.1752 21.8699,23.9982 C20.6114,23.3547 19.3886,23.0286 18.2339,23.0286 C18.0773,23.0286 17.9201,23.0334 17.7611,23.0472 C16.2875,23.1684 14.9426,23.5557 14.0762,23.8563 C13.8464,23.94 13.6124,24.0285 13.3691,24.1266 L11,32.2974 C12.6281,31.698 14.0666,31.4067 15.3851,31.4067 C17.5169,31.4067 19.0631,32.1996 20.342,33.0156 Z M34.7648,26.9259 C33.2189,27.4224 31.736,27.6741 30.3491,27.6741 C27.8192,27.6741 26.048,26.8581 24.9305,26.0748 L22.5461,34.3188 C23.2538,34.722 25.6331,36 27.4562,36 C28.9274,36 30.5744,35.6244 32.4878,34.8504 L34.7648,26.9259 Z M38,15.7629 C36.449,16.3623 34.9358,16.6677 33.4904,16.6677 C31.073,16.6677 29.2904,15.8334 28.1354,15.0312 L25.7108,23.382 C27.3392,24.4242 29.0936,24.9531 30.935,24.9531 C32.4365,24.9531 33.9914,24.5943 35.5613,23.8854 L35.5565,23.8275 L35.6549,23.8038 L38,15.7629 Z" id="Windows"></path>
                </g>
            </g>
        </g>
    </g>
</svg>