<?xml version="1.0" encoding="UTF-8"?>
<svg width="160px" height="160px" viewBox="0 0 160 160" version="1.1" xmlns="http://www.w3.org/2000/svg" xmlns:xlink="http://www.w3.org/1999/xlink">
    <!-- Generator: Sketch 53.2 (72643) - https://sketchapp.com -->
    <title>Website/Graphics/Verschlüsselt</title>
    <desc>Created with Sketch.</desc>
    <defs>
        <linearGradient x1="50%" y1="0%" x2="50%" y2="100%" id="linearGradient-1">
            <stop stop-color="#2079C2" stop-opacity="0.4" offset="0%"></stop>
            <stop stop-color="#2079C2" stop-opacity="0.8" offset="100%"></stop>
        </linearGradient>
        <linearGradient x1="100%" y1="50%" x2="0%" y2="50%" id="linearGradient-2">
            <stop stop-color="#2079C2" stop-opacity="0.4" offset="0%"></stop>
            <stop stop-color="#2079C2" stop-opacity="0.8" offset="100%"></stop>
        </linearGradient>
        <linearGradient x1="50%" y1="0%" x2="50%" y2="100%" id="linearGradient-3">
            <stop stop-color="#2079C2" stop-opacity="0.4" offset="0%"></stop>
            <stop stop-color="#2079C2" stop-opacity="0.8" offset="100%"></stop>
        </linearGradient>
    </defs>
    <g id="Website/Graphics/Verschlüsselt" stroke="none" stroke-width="1" fill="none" fill-rule="evenodd">
        <rect id="Rectangle" fill="url(#linearGradient-1)" x="44" y="68" width="72" height="60" rx="3"></rect>
        <rect id="Rectangle" fill="#2079C2" x="77" y="92" width="6" height="24" rx="2"></rect>
        <path d="M47,68 L113,68 C114.656854,68 116,69.3431458 116,71 L116,80 L44,80 L44,71 C44,69.3431458 45.3431458,68 47,68 Z" id="Rectangle" fill="url(#linearGradient-2)"></path>
        <path d="M92,68 L92,56 C92,49.372583 86.627417,44 80,44 C73.372583,44 68,49.372583 68,56 L68,68 L56,68 L56,56 C56,42.745166 66.745166,32 80,32 C93.254834,32 104,42.745166 104,56 L104,68 L92,68 Z" id="Combined-Shape" fill="url(#linearGradient-3)"></path>
        <circle id="Oval" fill="#2079C2" cx="80" cy="98" r="6"></circle>
    </g>
</svg>