<?xml version="1.0" encoding="UTF-8"?>
<svg width="216px" height="460px" viewBox="0 0 216 460" version="1.1" xmlns="http://www.w3.org/2000/svg" xmlns:xlink="http://www.w3.org/1999/xlink">
    <!-- Generator: Sketch 54.1 (76490) - https://sketchapp.com -->
    <title>Icon Pattern</title>
    <desc>Created with Sketch.</desc>
    <defs>
        <path d="M18.0717507,19 L18.0717507,21 C18.0717507,21.6 17.6701563,22 17.0677646,22 C16.4653729,22 16.0637784,21.6 16.0637784,21 L16.0637784,19 C16.0637784,17.3 14.7585964,16 13.05182,16 L5.01993076,16 C3.3131543,16 2.0079723,17.3 2.0079723,19 L2.0079723,21 C2.0079723,21.6 1.60637784,22 1.00398615,22 C0.40159446,22 0,21.6 0,21 L0,19 C0,16.2 2.20876953,14 5.01993076,14 L13.05182,14 C15.8629812,14 18.0717507,16.2 18.0717507,19 Z M4.0159446,7 C4.0159446,4.2 6.22471414,2 9.03587536,2 C11.8470366,2 14.0558061,4.2 14.0558061,7 C14.0558061,9.8 11.8470366,12 9.03587536,12 C6.22471414,12 4.0159446,9.8 4.0159446,7 Z M6.02391691,7 C6.02391691,8.7 7.3290989,10 9.03587536,10 C10.7426518,10 12.0478338,8.7 12.0478338,7 C12.0478338,5.3 10.7426518,4 9.03587536,4 C7.3290989,4 6.02391691,5.3 6.02391691,7 Z M20.2805203,14.2 C19.7785272,14.1 19.1761355,14.4 19.0757369,14.9 C18.9753383,15.4 19.2765341,16 19.7785272,16.1 C21.0837092,16.4 21.9872967,17.6 21.9872967,19 L21.9872967,21 C21.9872967,21.6 22.3888912,22 22.9912829,22 C23.5936746,22 23.995269,21.6 23.995269,21 L23.995269,19 C24.0956676,16.7 22.5896884,14.7 20.2805203,14.2 Z M16.2645756,2.2 C15.7625826,2 15.2605895,2.3 15.0597923,2.9 C14.9593937,3.4 15.2605895,4 15.7625826,4.1 C17.3689604,4.5 18.3729466,6.1 17.9713521,7.8 C17.6701563,8.9 16.8669673,9.7 15.7625826,10 C15.2605895,10.1 14.858995,10.7 15.0597923,11.2 C15.1601909,11.7 15.5617853,12 16.0637784,12 C16.164177,12 16.2645756,12 16.2645756,12 C18.0717507,11.5 19.4773313,10.2 19.8789258,8.4 C20.5817161,5.6 18.9753383,2.8 16.2645756,2.2 Z" id="path-1"></path>
        <path d="M18.0717507,19 L18.0717507,21 C18.0717507,21.6 17.6701563,22 17.0677646,22 C16.4653729,22 16.0637784,21.6 16.0637784,21 L16.0637784,19 C16.0637784,17.3 14.7585964,16 13.05182,16 L5.01993076,16 C3.3131543,16 2.0079723,17.3 2.0079723,19 L2.0079723,21 C2.0079723,21.6 1.60637784,22 1.00398615,22 C0.40159446,22 0,21.6 0,21 L0,19 C0,16.2 2.20876953,14 5.01993076,14 L13.05182,14 C15.8629812,14 18.0717507,16.2 18.0717507,19 Z M4.0159446,7 C4.0159446,4.2 6.22471414,2 9.03587536,2 C11.8470366,2 14.0558061,4.2 14.0558061,7 C14.0558061,9.8 11.8470366,12 9.03587536,12 C6.22471414,12 4.0159446,9.8 4.0159446,7 Z M6.02391691,7 C6.02391691,8.7 7.3290989,10 9.03587536,10 C10.7426518,10 12.0478338,8.7 12.0478338,7 C12.0478338,5.3 10.7426518,4 9.03587536,4 C7.3290989,4 6.02391691,5.3 6.02391691,7 Z M20.2805203,14.2 C19.7785272,14.1 19.1761355,14.4 19.0757369,14.9 C18.9753383,15.4 19.2765341,16 19.7785272,16.1 C21.0837092,16.4 21.9872967,17.6 21.9872967,19 L21.9872967,21 C21.9872967,21.6 22.3888912,22 22.9912829,22 C23.5936746,22 23.995269,21.6 23.995269,21 L23.995269,19 C24.0956676,16.7 22.5896884,14.7 20.2805203,14.2 Z M16.2645756,2.2 C15.7625826,2 15.2605895,2.3 15.0597923,2.9 C14.9593937,3.4 15.2605895,4 15.7625826,4.1 C17.3689604,4.5 18.3729466,6.1 17.9713521,7.8 C17.6701563,8.9 16.8669673,9.7 15.7625826,10 C15.2605895,10.1 14.858995,10.7 15.0597923,11.2 C15.1601909,11.7 15.5617853,12 16.0637784,12 C16.164177,12 16.2645756,12 16.2645756,12 C18.0717507,11.5 19.4773313,10.2 19.8789258,8.4 C20.5817161,5.6 18.9753383,2.8 16.2645756,2.2 Z" id="path-3"></path>
        <path d="M18.0717507,19 L18.0717507,21 C18.0717507,21.6 17.6701563,22 17.0677646,22 C16.4653729,22 16.0637784,21.6 16.0637784,21 L16.0637784,19 C16.0637784,17.3 14.7585964,16 13.05182,16 L5.01993076,16 C3.3131543,16 2.0079723,17.3 2.0079723,19 L2.0079723,21 C2.0079723,21.6 1.60637784,22 1.00398615,22 C0.40159446,22 0,21.6 0,21 L0,19 C0,16.2 2.20876953,14 5.01993076,14 L13.05182,14 C15.8629812,14 18.0717507,16.2 18.0717507,19 Z M4.0159446,7 C4.0159446,4.2 6.22471414,2 9.03587536,2 C11.8470366,2 14.0558061,4.2 14.0558061,7 C14.0558061,9.8 11.8470366,12 9.03587536,12 C6.22471414,12 4.0159446,9.8 4.0159446,7 Z M6.02391691,7 C6.02391691,8.7 7.3290989,10 9.03587536,10 C10.7426518,10 12.0478338,8.7 12.0478338,7 C12.0478338,5.3 10.7426518,4 9.03587536,4 C7.3290989,4 6.02391691,5.3 6.02391691,7 Z M20.2805203,14.2 C19.7785272,14.1 19.1761355,14.4 19.0757369,14.9 C18.9753383,15.4 19.2765341,16 19.7785272,16.1 C21.0837092,16.4 21.9872967,17.6 21.9872967,19 L21.9872967,21 C21.9872967,21.6 22.3888912,22 22.9912829,22 C23.5936746,22 23.995269,21.6 23.995269,21 L23.995269,19 C24.0956676,16.7 22.5896884,14.7 20.2805203,14.2 Z M16.2645756,2.2 C15.7625826,2 15.2605895,2.3 15.0597923,2.9 C14.9593937,3.4 15.2605895,4 15.7625826,4.1 C17.3689604,4.5 18.3729466,6.1 17.9713521,7.8 C17.6701563,8.9 16.8669673,9.7 15.7625826,10 C15.2605895,10.1 14.858995,10.7 15.0597923,11.2 C15.1601909,11.7 15.5617853,12 16.0637784,12 C16.164177,12 16.2645756,12 16.2645756,12 C18.0717507,11.5 19.4773313,10.2 19.8789258,8.4 C20.5817161,5.6 18.9753383,2.8 16.2645756,2.2 Z" id="path-5"></path>
        <path d="M18.0717507,19 L18.0717507,21 C18.0717507,21.6 17.6701563,22 17.0677646,22 C16.4653729,22 16.0637784,21.6 16.0637784,21 L16.0637784,19 C16.0637784,17.3 14.7585964,16 13.05182,16 L5.01993076,16 C3.3131543,16 2.0079723,17.3 2.0079723,19 L2.0079723,21 C2.0079723,21.6 1.60637784,22 1.00398615,22 C0.40159446,22 0,21.6 0,21 L0,19 C0,16.2 2.20876953,14 5.01993076,14 L13.05182,14 C15.8629812,14 18.0717507,16.2 18.0717507,19 Z M4.0159446,7 C4.0159446,4.2 6.22471414,2 9.03587536,2 C11.8470366,2 14.0558061,4.2 14.0558061,7 C14.0558061,9.8 11.8470366,12 9.03587536,12 C6.22471414,12 4.0159446,9.8 4.0159446,7 Z M6.02391691,7 C6.02391691,8.7 7.3290989,10 9.03587536,10 C10.7426518,10 12.0478338,8.7 12.0478338,7 C12.0478338,5.3 10.7426518,4 9.03587536,4 C7.3290989,4 6.02391691,5.3 6.02391691,7 Z M20.2805203,14.2 C19.7785272,14.1 19.1761355,14.4 19.0757369,14.9 C18.9753383,15.4 19.2765341,16 19.7785272,16.1 C21.0837092,16.4 21.9872967,17.6 21.9872967,19 L21.9872967,21 C21.9872967,21.6 22.3888912,22 22.9912829,22 C23.5936746,22 23.995269,21.6 23.995269,21 L23.995269,19 C24.0956676,16.7 22.5896884,14.7 20.2805203,14.2 Z M16.2645756,2.2 C15.7625826,2 15.2605895,2.3 15.0597923,2.9 C14.9593937,3.4 15.2605895,4 15.7625826,4.1 C17.3689604,4.5 18.3729466,6.1 17.9713521,7.8 C17.6701563,8.9 16.8669673,9.7 15.7625826,10 C15.2605895,10.1 14.858995,10.7 15.0597923,11.2 C15.1601909,11.7 15.5617853,12 16.0637784,12 C16.164177,12 16.2645756,12 16.2645756,12 C18.0717507,11.5 19.4773313,10.2 19.8789258,8.4 C20.5817161,5.6 18.9753383,2.8 16.2645756,2.2 Z" id="path-7"></path>
        <path d="M18.0717507,19 L18.0717507,21 C18.0717507,21.6 17.6701563,22 17.0677646,22 C16.4653729,22 16.0637784,21.6 16.0637784,21 L16.0637784,19 C16.0637784,17.3 14.7585964,16 13.05182,16 L5.01993076,16 C3.3131543,16 2.0079723,17.3 2.0079723,19 L2.0079723,21 C2.0079723,21.6 1.60637784,22 1.00398615,22 C0.40159446,22 0,21.6 0,21 L0,19 C0,16.2 2.20876953,14 5.01993076,14 L13.05182,14 C15.8629812,14 18.0717507,16.2 18.0717507,19 Z M4.0159446,7 C4.0159446,4.2 6.22471414,2 9.03587536,2 C11.8470366,2 14.0558061,4.2 14.0558061,7 C14.0558061,9.8 11.8470366,12 9.03587536,12 C6.22471414,12 4.0159446,9.8 4.0159446,7 Z M6.02391691,7 C6.02391691,8.7 7.3290989,10 9.03587536,10 C10.7426518,10 12.0478338,8.7 12.0478338,7 C12.0478338,5.3 10.7426518,4 9.03587536,4 C7.3290989,4 6.02391691,5.3 6.02391691,7 Z M20.2805203,14.2 C19.7785272,14.1 19.1761355,14.4 19.0757369,14.9 C18.9753383,15.4 19.2765341,16 19.7785272,16.1 C21.0837092,16.4 21.9872967,17.6 21.9872967,19 L21.9872967,21 C21.9872967,21.6 22.3888912,22 22.9912829,22 C23.5936746,22 23.995269,21.6 23.995269,21 L23.995269,19 C24.0956676,16.7 22.5896884,14.7 20.2805203,14.2 Z M16.2645756,2.2 C15.7625826,2 15.2605895,2.3 15.0597923,2.9 C14.9593937,3.4 15.2605895,4 15.7625826,4.1 C17.3689604,4.5 18.3729466,6.1 17.9713521,7.8 C17.6701563,8.9 16.8669673,9.7 15.7625826,10 C15.2605895,10.1 14.858995,10.7 15.0597923,11.2 C15.1601909,11.7 15.5617853,12 16.0637784,12 C16.164177,12 16.2645756,12 16.2645756,12 C18.0717507,11.5 19.4773313,10.2 19.8789258,8.4 C20.5817161,5.6 18.9753383,2.8 16.2645756,2.2 Z" id="path-9"></path>
        <path d="M18.0717507,19 L18.0717507,21 C18.0717507,21.6 17.6701563,22 17.0677646,22 C16.4653729,22 16.0637784,21.6 16.0637784,21 L16.0637784,19 C16.0637784,17.3 14.7585964,16 13.05182,16 L5.01993076,16 C3.3131543,16 2.0079723,17.3 2.0079723,19 L2.0079723,21 C2.0079723,21.6 1.60637784,22 1.00398615,22 C0.40159446,22 0,21.6 0,21 L0,19 C0,16.2 2.20876953,14 5.01993076,14 L13.05182,14 C15.8629812,14 18.0717507,16.2 18.0717507,19 Z M4.0159446,7 C4.0159446,4.2 6.22471414,2 9.03587536,2 C11.8470366,2 14.0558061,4.2 14.0558061,7 C14.0558061,9.8 11.8470366,12 9.03587536,12 C6.22471414,12 4.0159446,9.8 4.0159446,7 Z M6.02391691,7 C6.02391691,8.7 7.3290989,10 9.03587536,10 C10.7426518,10 12.0478338,8.7 12.0478338,7 C12.0478338,5.3 10.7426518,4 9.03587536,4 C7.3290989,4 6.02391691,5.3 6.02391691,7 Z M20.2805203,14.2 C19.7785272,14.1 19.1761355,14.4 19.0757369,14.9 C18.9753383,15.4 19.2765341,16 19.7785272,16.1 C21.0837092,16.4 21.9872967,17.6 21.9872967,19 L21.9872967,21 C21.9872967,21.6 22.3888912,22 22.9912829,22 C23.5936746,22 23.995269,21.6 23.995269,21 L23.995269,19 C24.0956676,16.7 22.5896884,14.7 20.2805203,14.2 Z M16.2645756,2.2 C15.7625826,2 15.2605895,2.3 15.0597923,2.9 C14.9593937,3.4 15.2605895,4 15.7625826,4.1 C17.3689604,4.5 18.3729466,6.1 17.9713521,7.8 C17.6701563,8.9 16.8669673,9.7 15.7625826,10 C15.2605895,10.1 14.858995,10.7 15.0597923,11.2 C15.1601909,11.7 15.5617853,12 16.0637784,12 C16.164177,12 16.2645756,12 16.2645756,12 C18.0717507,11.5 19.4773313,10.2 19.8789258,8.4 C20.5817161,5.6 18.9753383,2.8 16.2645756,2.2 Z" id="path-11"></path>
        <path d="M18.0717507,19 L18.0717507,21 C18.0717507,21.6 17.6701563,22 17.0677646,22 C16.4653729,22 16.0637784,21.6 16.0637784,21 L16.0637784,19 C16.0637784,17.3 14.7585964,16 13.05182,16 L5.01993076,16 C3.3131543,16 2.0079723,17.3 2.0079723,19 L2.0079723,21 C2.0079723,21.6 1.60637784,22 1.00398615,22 C0.40159446,22 0,21.6 0,21 L0,19 C0,16.2 2.20876953,14 5.01993076,14 L13.05182,14 C15.8629812,14 18.0717507,16.2 18.0717507,19 Z M4.0159446,7 C4.0159446,4.2 6.22471414,2 9.03587536,2 C11.8470366,2 14.0558061,4.2 14.0558061,7 C14.0558061,9.8 11.8470366,12 9.03587536,12 C6.22471414,12 4.0159446,9.8 4.0159446,7 Z M6.02391691,7 C6.02391691,8.7 7.3290989,10 9.03587536,10 C10.7426518,10 12.0478338,8.7 12.0478338,7 C12.0478338,5.3 10.7426518,4 9.03587536,4 C7.3290989,4 6.02391691,5.3 6.02391691,7 Z M20.2805203,14.2 C19.7785272,14.1 19.1761355,14.4 19.0757369,14.9 C18.9753383,15.4 19.2765341,16 19.7785272,16.1 C21.0837092,16.4 21.9872967,17.6 21.9872967,19 L21.9872967,21 C21.9872967,21.6 22.3888912,22 22.9912829,22 C23.5936746,22 23.995269,21.6 23.995269,21 L23.995269,19 C24.0956676,16.7 22.5896884,14.7 20.2805203,14.2 Z M16.2645756,2.2 C15.7625826,2 15.2605895,2.3 15.0597923,2.9 C14.9593937,3.4 15.2605895,4 15.7625826,4.1 C17.3689604,4.5 18.3729466,6.1 17.9713521,7.8 C17.6701563,8.9 16.8669673,9.7 15.7625826,10 C15.2605895,10.1 14.858995,10.7 15.0597923,11.2 C15.1601909,11.7 15.5617853,12 16.0637784,12 C16.164177,12 16.2645756,12 16.2645756,12 C18.0717507,11.5 19.4773313,10.2 19.8789258,8.4 C20.5817161,5.6 18.9753383,2.8 16.2645756,2.2 Z" id="path-13"></path>
        <path d="M18.0717507,19 L18.0717507,21 C18.0717507,21.6 17.6701563,22 17.0677646,22 C16.4653729,22 16.0637784,21.6 16.0637784,21 L16.0637784,19 C16.0637784,17.3 14.7585964,16 13.05182,16 L5.01993076,16 C3.3131543,16 2.0079723,17.3 2.0079723,19 L2.0079723,21 C2.0079723,21.6 1.60637784,22 1.00398615,22 C0.40159446,22 0,21.6 0,21 L0,19 C0,16.2 2.20876953,14 5.01993076,14 L13.05182,14 C15.8629812,14 18.0717507,16.2 18.0717507,19 Z M4.0159446,7 C4.0159446,4.2 6.22471414,2 9.03587536,2 C11.8470366,2 14.0558061,4.2 14.0558061,7 C14.0558061,9.8 11.8470366,12 9.03587536,12 C6.22471414,12 4.0159446,9.8 4.0159446,7 Z M6.02391691,7 C6.02391691,8.7 7.3290989,10 9.03587536,10 C10.7426518,10 12.0478338,8.7 12.0478338,7 C12.0478338,5.3 10.7426518,4 9.03587536,4 C7.3290989,4 6.02391691,5.3 6.02391691,7 Z M20.2805203,14.2 C19.7785272,14.1 19.1761355,14.4 19.0757369,14.9 C18.9753383,15.4 19.2765341,16 19.7785272,16.1 C21.0837092,16.4 21.9872967,17.6 21.9872967,19 L21.9872967,21 C21.9872967,21.6 22.3888912,22 22.9912829,22 C23.5936746,22 23.995269,21.6 23.995269,21 L23.995269,19 C24.0956676,16.7 22.5896884,14.7 20.2805203,14.2 Z M16.2645756,2.2 C15.7625826,2 15.2605895,2.3 15.0597923,2.9 C14.9593937,3.4 15.2605895,4 15.7625826,4.1 C17.3689604,4.5 18.3729466,6.1 17.9713521,7.8 C17.6701563,8.9 16.8669673,9.7 15.7625826,10 C15.2605895,10.1 14.858995,10.7 15.0597923,11.2 C15.1601909,11.7 15.5617853,12 16.0637784,12 C16.164177,12 16.2645756,12 16.2645756,12 C18.0717507,11.5 19.4773313,10.2 19.8789258,8.4 C20.5817161,5.6 18.9753383,2.8 16.2645756,2.2 Z" id="path-15"></path>
        <path d="M18.0717507,19 L18.0717507,21 C18.0717507,21.6 17.6701563,22 17.0677646,22 C16.4653729,22 16.0637784,21.6 16.0637784,21 L16.0637784,19 C16.0637784,17.3 14.7585964,16 13.05182,16 L5.01993076,16 C3.3131543,16 2.0079723,17.3 2.0079723,19 L2.0079723,21 C2.0079723,21.6 1.60637784,22 1.00398615,22 C0.40159446,22 0,21.6 0,21 L0,19 C0,16.2 2.20876953,14 5.01993076,14 L13.05182,14 C15.8629812,14 18.0717507,16.2 18.0717507,19 Z M4.0159446,7 C4.0159446,4.2 6.22471414,2 9.03587536,2 C11.8470366,2 14.0558061,4.2 14.0558061,7 C14.0558061,9.8 11.8470366,12 9.03587536,12 C6.22471414,12 4.0159446,9.8 4.0159446,7 Z M6.02391691,7 C6.02391691,8.7 7.3290989,10 9.03587536,10 C10.7426518,10 12.0478338,8.7 12.0478338,7 C12.0478338,5.3 10.7426518,4 9.03587536,4 C7.3290989,4 6.02391691,5.3 6.02391691,7 Z M20.2805203,14.2 C19.7785272,14.1 19.1761355,14.4 19.0757369,14.9 C18.9753383,15.4 19.2765341,16 19.7785272,16.1 C21.0837092,16.4 21.9872967,17.6 21.9872967,19 L21.9872967,21 C21.9872967,21.6 22.3888912,22 22.9912829,22 C23.5936746,22 23.995269,21.6 23.995269,21 L23.995269,19 C24.0956676,16.7 22.5896884,14.7 20.2805203,14.2 Z M16.2645756,2.2 C15.7625826,2 15.2605895,2.3 15.0597923,2.9 C14.9593937,3.4 15.2605895,4 15.7625826,4.1 C17.3689604,4.5 18.3729466,6.1 17.9713521,7.8 C17.6701563,8.9 16.8669673,9.7 15.7625826,10 C15.2605895,10.1 14.858995,10.7 15.0597923,11.2 C15.1601909,11.7 15.5617853,12 16.0637784,12 C16.164177,12 16.2645756,12 16.2645756,12 C18.0717507,11.5 19.4773313,10.2 19.8789258,8.4 C20.5817161,5.6 18.9753383,2.8 16.2645756,2.2 Z" id="path-17"></path>
        <path d="M18.0717507,19 L18.0717507,21 C18.0717507,21.6 17.6701563,22 17.0677646,22 C16.4653729,22 16.0637784,21.6 16.0637784,21 L16.0637784,19 C16.0637784,17.3 14.7585964,16 13.05182,16 L5.01993076,16 C3.3131543,16 2.0079723,17.3 2.0079723,19 L2.0079723,21 C2.0079723,21.6 1.60637784,22 1.00398615,22 C0.40159446,22 0,21.6 0,21 L0,19 C0,16.2 2.20876953,14 5.01993076,14 L13.05182,14 C15.8629812,14 18.0717507,16.2 18.0717507,19 Z M4.0159446,7 C4.0159446,4.2 6.22471414,2 9.03587536,2 C11.8470366,2 14.0558061,4.2 14.0558061,7 C14.0558061,9.8 11.8470366,12 9.03587536,12 C6.22471414,12 4.0159446,9.8 4.0159446,7 Z M6.02391691,7 C6.02391691,8.7 7.3290989,10 9.03587536,10 C10.7426518,10 12.0478338,8.7 12.0478338,7 C12.0478338,5.3 10.7426518,4 9.03587536,4 C7.3290989,4 6.02391691,5.3 6.02391691,7 Z M20.2805203,14.2 C19.7785272,14.1 19.1761355,14.4 19.0757369,14.9 C18.9753383,15.4 19.2765341,16 19.7785272,16.1 C21.0837092,16.4 21.9872967,17.6 21.9872967,19 L21.9872967,21 C21.9872967,21.6 22.3888912,22 22.9912829,22 C23.5936746,22 23.995269,21.6 23.995269,21 L23.995269,19 C24.0956676,16.7 22.5896884,14.7 20.2805203,14.2 Z M16.2645756,2.2 C15.7625826,2 15.2605895,2.3 15.0597923,2.9 C14.9593937,3.4 15.2605895,4 15.7625826,4.1 C17.3689604,4.5 18.3729466,6.1 17.9713521,7.8 C17.6701563,8.9 16.8669673,9.7 15.7625826,10 C15.2605895,10.1 14.858995,10.7 15.0597923,11.2 C15.1601909,11.7 15.5617853,12 16.0637784,12 C16.164177,12 16.2645756,12 16.2645756,12 C18.0717507,11.5 19.4773313,10.2 19.8789258,8.4 C20.5817161,5.6 18.9753383,2.8 16.2645756,2.2 Z" id="path-19"></path>
        <path d="M18.0717507,19 L18.0717507,21 C18.0717507,21.6 17.6701563,22 17.0677646,22 C16.4653729,22 16.0637784,21.6 16.0637784,21 L16.0637784,19 C16.0637784,17.3 14.7585964,16 13.05182,16 L5.01993076,16 C3.3131543,16 2.0079723,17.3 2.0079723,19 L2.0079723,21 C2.0079723,21.6 1.60637784,22 1.00398615,22 C0.40159446,22 0,21.6 0,21 L0,19 C0,16.2 2.20876953,14 5.01993076,14 L13.05182,14 C15.8629812,14 18.0717507,16.2 18.0717507,19 Z M4.0159446,7 C4.0159446,4.2 6.22471414,2 9.03587536,2 C11.8470366,2 14.0558061,4.2 14.0558061,7 C14.0558061,9.8 11.8470366,12 9.03587536,12 C6.22471414,12 4.0159446,9.8 4.0159446,7 Z M6.02391691,7 C6.02391691,8.7 7.3290989,10 9.03587536,10 C10.7426518,10 12.0478338,8.7 12.0478338,7 C12.0478338,5.3 10.7426518,4 9.03587536,4 C7.3290989,4 6.02391691,5.3 6.02391691,7 Z M20.2805203,14.2 C19.7785272,14.1 19.1761355,14.4 19.0757369,14.9 C18.9753383,15.4 19.2765341,16 19.7785272,16.1 C21.0837092,16.4 21.9872967,17.6 21.9872967,19 L21.9872967,21 C21.9872967,21.6 22.3888912,22 22.9912829,22 C23.5936746,22 23.995269,21.6 23.995269,21 L23.995269,19 C24.0956676,16.7 22.5896884,14.7 20.2805203,14.2 Z M16.2645756,2.2 C15.7625826,2 15.2605895,2.3 15.0597923,2.9 C14.9593937,3.4 15.2605895,4 15.7625826,4.1 C17.3689604,4.5 18.3729466,6.1 17.9713521,7.8 C17.6701563,8.9 16.8669673,9.7 15.7625826,10 C15.2605895,10.1 14.858995,10.7 15.0597923,11.2 C15.1601909,11.7 15.5617853,12 16.0637784,12 C16.164177,12 16.2645756,12 16.2645756,12 C18.0717507,11.5 19.4773313,10.2 19.8789258,8.4 C20.5817161,5.6 18.9753383,2.8 16.2645756,2.2 Z" id="path-21"></path>
        <path d="M18.0717507,19 L18.0717507,21 C18.0717507,21.6 17.6701563,22 17.0677646,22 C16.4653729,22 16.0637784,21.6 16.0637784,21 L16.0637784,19 C16.0637784,17.3 14.7585964,16 13.05182,16 L5.01993076,16 C3.3131543,16 2.0079723,17.3 2.0079723,19 L2.0079723,21 C2.0079723,21.6 1.60637784,22 1.00398615,22 C0.40159446,22 0,21.6 0,21 L0,19 C0,16.2 2.20876953,14 5.01993076,14 L13.05182,14 C15.8629812,14 18.0717507,16.2 18.0717507,19 Z M4.0159446,7 C4.0159446,4.2 6.22471414,2 9.03587536,2 C11.8470366,2 14.0558061,4.2 14.0558061,7 C14.0558061,9.8 11.8470366,12 9.03587536,12 C6.22471414,12 4.0159446,9.8 4.0159446,7 Z M6.02391691,7 C6.02391691,8.7 7.3290989,10 9.03587536,10 C10.7426518,10 12.0478338,8.7 12.0478338,7 C12.0478338,5.3 10.7426518,4 9.03587536,4 C7.3290989,4 6.02391691,5.3 6.02391691,7 Z M20.2805203,14.2 C19.7785272,14.1 19.1761355,14.4 19.0757369,14.9 C18.9753383,15.4 19.2765341,16 19.7785272,16.1 C21.0837092,16.4 21.9872967,17.6 21.9872967,19 L21.9872967,21 C21.9872967,21.6 22.3888912,22 22.9912829,22 C23.5936746,22 23.995269,21.6 23.995269,21 L23.995269,19 C24.0956676,16.7 22.5896884,14.7 20.2805203,14.2 Z M16.2645756,2.2 C15.7625826,2 15.2605895,2.3 15.0597923,2.9 C14.9593937,3.4 15.2605895,4 15.7625826,4.1 C17.3689604,4.5 18.3729466,6.1 17.9713521,7.8 C17.6701563,8.9 16.8669673,9.7 15.7625826,10 C15.2605895,10.1 14.858995,10.7 15.0597923,11.2 C15.1601909,11.7 15.5617853,12 16.0637784,12 C16.164177,12 16.2645756,12 16.2645756,12 C18.0717507,11.5 19.4773313,10.2 19.8789258,8.4 C20.5817161,5.6 18.9753383,2.8 16.2645756,2.2 Z" id="path-23"></path>
        <path d="M18.0717507,19 L18.0717507,21 C18.0717507,21.6 17.6701563,22 17.0677646,22 C16.4653729,22 16.0637784,21.6 16.0637784,21 L16.0637784,19 C16.0637784,17.3 14.7585964,16 13.05182,16 L5.01993076,16 C3.3131543,16 2.0079723,17.3 2.0079723,19 L2.0079723,21 C2.0079723,21.6 1.60637784,22 1.00398615,22 C0.40159446,22 0,21.6 0,21 L0,19 C0,16.2 2.20876953,14 5.01993076,14 L13.05182,14 C15.8629812,14 18.0717507,16.2 18.0717507,19 Z M4.0159446,7 C4.0159446,4.2 6.22471414,2 9.03587536,2 C11.8470366,2 14.0558061,4.2 14.0558061,7 C14.0558061,9.8 11.8470366,12 9.03587536,12 C6.22471414,12 4.0159446,9.8 4.0159446,7 Z M6.02391691,7 C6.02391691,8.7 7.3290989,10 9.03587536,10 C10.7426518,10 12.0478338,8.7 12.0478338,7 C12.0478338,5.3 10.7426518,4 9.03587536,4 C7.3290989,4 6.02391691,5.3 6.02391691,7 Z M20.2805203,14.2 C19.7785272,14.1 19.1761355,14.4 19.0757369,14.9 C18.9753383,15.4 19.2765341,16 19.7785272,16.1 C21.0837092,16.4 21.9872967,17.6 21.9872967,19 L21.9872967,21 C21.9872967,21.6 22.3888912,22 22.9912829,22 C23.5936746,22 23.995269,21.6 23.995269,21 L23.995269,19 C24.0956676,16.7 22.5896884,14.7 20.2805203,14.2 Z M16.2645756,2.2 C15.7625826,2 15.2605895,2.3 15.0597923,2.9 C14.9593937,3.4 15.2605895,4 15.7625826,4.1 C17.3689604,4.5 18.3729466,6.1 17.9713521,7.8 C17.6701563,8.9 16.8669673,9.7 15.7625826,10 C15.2605895,10.1 14.858995,10.7 15.0597923,11.2 C15.1601909,11.7 15.5617853,12 16.0637784,12 C16.164177,12 16.2645756,12 16.2645756,12 C18.0717507,11.5 19.4773313,10.2 19.8789258,8.4 C20.5817161,5.6 18.9753383,2.8 16.2645756,2.2 Z" id="path-25"></path>
        <path d="M18.0717507,19 L18.0717507,21 C18.0717507,21.6 17.6701563,22 17.0677646,22 C16.4653729,22 16.0637784,21.6 16.0637784,21 L16.0637784,19 C16.0637784,17.3 14.7585964,16 13.05182,16 L5.01993076,16 C3.3131543,16 2.0079723,17.3 2.0079723,19 L2.0079723,21 C2.0079723,21.6 1.60637784,22 1.00398615,22 C0.40159446,22 0,21.6 0,21 L0,19 C0,16.2 2.20876953,14 5.01993076,14 L13.05182,14 C15.8629812,14 18.0717507,16.2 18.0717507,19 Z M4.0159446,7 C4.0159446,4.2 6.22471414,2 9.03587536,2 C11.8470366,2 14.0558061,4.2 14.0558061,7 C14.0558061,9.8 11.8470366,12 9.03587536,12 C6.22471414,12 4.0159446,9.8 4.0159446,7 Z M6.02391691,7 C6.02391691,8.7 7.3290989,10 9.03587536,10 C10.7426518,10 12.0478338,8.7 12.0478338,7 C12.0478338,5.3 10.7426518,4 9.03587536,4 C7.3290989,4 6.02391691,5.3 6.02391691,7 Z M20.2805203,14.2 C19.7785272,14.1 19.1761355,14.4 19.0757369,14.9 C18.9753383,15.4 19.2765341,16 19.7785272,16.1 C21.0837092,16.4 21.9872967,17.6 21.9872967,19 L21.9872967,21 C21.9872967,21.6 22.3888912,22 22.9912829,22 C23.5936746,22 23.995269,21.6 23.995269,21 L23.995269,19 C24.0956676,16.7 22.5896884,14.7 20.2805203,14.2 Z M16.2645756,2.2 C15.7625826,2 15.2605895,2.3 15.0597923,2.9 C14.9593937,3.4 15.2605895,4 15.7625826,4.1 C17.3689604,4.5 18.3729466,6.1 17.9713521,7.8 C17.6701563,8.9 16.8669673,9.7 15.7625826,10 C15.2605895,10.1 14.858995,10.7 15.0597923,11.2 C15.1601909,11.7 15.5617853,12 16.0637784,12 C16.164177,12 16.2645756,12 16.2645756,12 C18.0717507,11.5 19.4773313,10.2 19.8789258,8.4 C20.5817161,5.6 18.9753383,2.8 16.2645756,2.2 Z" id="path-27"></path>
        <path d="M18.0717507,19 L18.0717507,21 C18.0717507,21.6 17.6701563,22 17.0677646,22 C16.4653729,22 16.0637784,21.6 16.0637784,21 L16.0637784,19 C16.0637784,17.3 14.7585964,16 13.05182,16 L5.01993076,16 C3.3131543,16 2.0079723,17.3 2.0079723,19 L2.0079723,21 C2.0079723,21.6 1.60637784,22 1.00398615,22 C0.40159446,22 0,21.6 0,21 L0,19 C0,16.2 2.20876953,14 5.01993076,14 L13.05182,14 C15.8629812,14 18.0717507,16.2 18.0717507,19 Z M4.0159446,7 C4.0159446,4.2 6.22471414,2 9.03587536,2 C11.8470366,2 14.0558061,4.2 14.0558061,7 C14.0558061,9.8 11.8470366,12 9.03587536,12 C6.22471414,12 4.0159446,9.8 4.0159446,7 Z M6.02391691,7 C6.02391691,8.7 7.3290989,10 9.03587536,10 C10.7426518,10 12.0478338,8.7 12.0478338,7 C12.0478338,5.3 10.7426518,4 9.03587536,4 C7.3290989,4 6.02391691,5.3 6.02391691,7 Z M20.2805203,14.2 C19.7785272,14.1 19.1761355,14.4 19.0757369,14.9 C18.9753383,15.4 19.2765341,16 19.7785272,16.1 C21.0837092,16.4 21.9872967,17.6 21.9872967,19 L21.9872967,21 C21.9872967,21.6 22.3888912,22 22.9912829,22 C23.5936746,22 23.995269,21.6 23.995269,21 L23.995269,19 C24.0956676,16.7 22.5896884,14.7 20.2805203,14.2 Z M16.2645756,2.2 C15.7625826,2 15.2605895,2.3 15.0597923,2.9 C14.9593937,3.4 15.2605895,4 15.7625826,4.1 C17.3689604,4.5 18.3729466,6.1 17.9713521,7.8 C17.6701563,8.9 16.8669673,9.7 15.7625826,10 C15.2605895,10.1 14.858995,10.7 15.0597923,11.2 C15.1601909,11.7 15.5617853,12 16.0637784,12 C16.164177,12 16.2645756,12 16.2645756,12 C18.0717507,11.5 19.4773313,10.2 19.8789258,8.4 C20.5817161,5.6 18.9753383,2.8 16.2645756,2.2 Z" id="path-29"></path>
        <path d="M18.0717507,19 L18.0717507,21 C18.0717507,21.6 17.6701563,22 17.0677646,22 C16.4653729,22 16.0637784,21.6 16.0637784,21 L16.0637784,19 C16.0637784,17.3 14.7585964,16 13.05182,16 L5.01993076,16 C3.3131543,16 2.0079723,17.3 2.0079723,19 L2.0079723,21 C2.0079723,21.6 1.60637784,22 1.00398615,22 C0.40159446,22 0,21.6 0,21 L0,19 C0,16.2 2.20876953,14 5.01993076,14 L13.05182,14 C15.8629812,14 18.0717507,16.2 18.0717507,19 Z M4.0159446,7 C4.0159446,4.2 6.22471414,2 9.03587536,2 C11.8470366,2 14.0558061,4.2 14.0558061,7 C14.0558061,9.8 11.8470366,12 9.03587536,12 C6.22471414,12 4.0159446,9.8 4.0159446,7 Z M6.02391691,7 C6.02391691,8.7 7.3290989,10 9.03587536,10 C10.7426518,10 12.0478338,8.7 12.0478338,7 C12.0478338,5.3 10.7426518,4 9.03587536,4 C7.3290989,4 6.02391691,5.3 6.02391691,7 Z M20.2805203,14.2 C19.7785272,14.1 19.1761355,14.4 19.0757369,14.9 C18.9753383,15.4 19.2765341,16 19.7785272,16.1 C21.0837092,16.4 21.9872967,17.6 21.9872967,19 L21.9872967,21 C21.9872967,21.6 22.3888912,22 22.9912829,22 C23.5936746,22 23.995269,21.6 23.995269,21 L23.995269,19 C24.0956676,16.7 22.5896884,14.7 20.2805203,14.2 Z M16.2645756,2.2 C15.7625826,2 15.2605895,2.3 15.0597923,2.9 C14.9593937,3.4 15.2605895,4 15.7625826,4.1 C17.3689604,4.5 18.3729466,6.1 17.9713521,7.8 C17.6701563,8.9 16.8669673,9.7 15.7625826,10 C15.2605895,10.1 14.858995,10.7 15.0597923,11.2 C15.1601909,11.7 15.5617853,12 16.0637784,12 C16.164177,12 16.2645756,12 16.2645756,12 C18.0717507,11.5 19.4773313,10.2 19.8789258,8.4 C20.5817161,5.6 18.9753383,2.8 16.2645756,2.2 Z" id="path-31"></path>
        <path d="M18.0717507,19 L18.0717507,21 C18.0717507,21.6 17.6701563,22 17.0677646,22 C16.4653729,22 16.0637784,21.6 16.0637784,21 L16.0637784,19 C16.0637784,17.3 14.7585964,16 13.05182,16 L5.01993076,16 C3.3131543,16 2.0079723,17.3 2.0079723,19 L2.0079723,21 C2.0079723,21.6 1.60637784,22 1.00398615,22 C0.40159446,22 0,21.6 0,21 L0,19 C0,16.2 2.20876953,14 5.01993076,14 L13.05182,14 C15.8629812,14 18.0717507,16.2 18.0717507,19 Z M4.0159446,7 C4.0159446,4.2 6.22471414,2 9.03587536,2 C11.8470366,2 14.0558061,4.2 14.0558061,7 C14.0558061,9.8 11.8470366,12 9.03587536,12 C6.22471414,12 4.0159446,9.8 4.0159446,7 Z M6.02391691,7 C6.02391691,8.7 7.3290989,10 9.03587536,10 C10.7426518,10 12.0478338,8.7 12.0478338,7 C12.0478338,5.3 10.7426518,4 9.03587536,4 C7.3290989,4 6.02391691,5.3 6.02391691,7 Z M20.2805203,14.2 C19.7785272,14.1 19.1761355,14.4 19.0757369,14.9 C18.9753383,15.4 19.2765341,16 19.7785272,16.1 C21.0837092,16.4 21.9872967,17.6 21.9872967,19 L21.9872967,21 C21.9872967,21.6 22.3888912,22 22.9912829,22 C23.5936746,22 23.995269,21.6 23.995269,21 L23.995269,19 C24.0956676,16.7 22.5896884,14.7 20.2805203,14.2 Z M16.2645756,2.2 C15.7625826,2 15.2605895,2.3 15.0597923,2.9 C14.9593937,3.4 15.2605895,4 15.7625826,4.1 C17.3689604,4.5 18.3729466,6.1 17.9713521,7.8 C17.6701563,8.9 16.8669673,9.7 15.7625826,10 C15.2605895,10.1 14.858995,10.7 15.0597923,11.2 C15.1601909,11.7 15.5617853,12 16.0637784,12 C16.164177,12 16.2645756,12 16.2645756,12 C18.0717507,11.5 19.4773313,10.2 19.8789258,8.4 C20.5817161,5.6 18.9753383,2.8 16.2645756,2.2 Z" id="path-33"></path>
        <path d="M18.0717507,19 L18.0717507,21 C18.0717507,21.6 17.6701563,22 17.0677646,22 C16.4653729,22 16.0637784,21.6 16.0637784,21 L16.0637784,19 C16.0637784,17.3 14.7585964,16 13.05182,16 L5.01993076,16 C3.3131543,16 2.0079723,17.3 2.0079723,19 L2.0079723,21 C2.0079723,21.6 1.60637784,22 1.00398615,22 C0.40159446,22 0,21.6 0,21 L0,19 C0,16.2 2.20876953,14 5.01993076,14 L13.05182,14 C15.8629812,14 18.0717507,16.2 18.0717507,19 Z M4.0159446,7 C4.0159446,4.2 6.22471414,2 9.03587536,2 C11.8470366,2 14.0558061,4.2 14.0558061,7 C14.0558061,9.8 11.8470366,12 9.03587536,12 C6.22471414,12 4.0159446,9.8 4.0159446,7 Z M6.02391691,7 C6.02391691,8.7 7.3290989,10 9.03587536,10 C10.7426518,10 12.0478338,8.7 12.0478338,7 C12.0478338,5.3 10.7426518,4 9.03587536,4 C7.3290989,4 6.02391691,5.3 6.02391691,7 Z M20.2805203,14.2 C19.7785272,14.1 19.1761355,14.4 19.0757369,14.9 C18.9753383,15.4 19.2765341,16 19.7785272,16.1 C21.0837092,16.4 21.9872967,17.6 21.9872967,19 L21.9872967,21 C21.9872967,21.6 22.3888912,22 22.9912829,22 C23.5936746,22 23.995269,21.6 23.995269,21 L23.995269,19 C24.0956676,16.7 22.5896884,14.7 20.2805203,14.2 Z M16.2645756,2.2 C15.7625826,2 15.2605895,2.3 15.0597923,2.9 C14.9593937,3.4 15.2605895,4 15.7625826,4.1 C17.3689604,4.5 18.3729466,6.1 17.9713521,7.8 C17.6701563,8.9 16.8669673,9.7 15.7625826,10 C15.2605895,10.1 14.858995,10.7 15.0597923,11.2 C15.1601909,11.7 15.5617853,12 16.0637784,12 C16.164177,12 16.2645756,12 16.2645756,12 C18.0717507,11.5 19.4773313,10.2 19.8789258,8.4 C20.5817161,5.6 18.9753383,2.8 16.2645756,2.2 Z" id="path-35"></path>
        <path d="M18.0717507,19 L18.0717507,21 C18.0717507,21.6 17.6701563,22 17.0677646,22 C16.4653729,22 16.0637784,21.6 16.0637784,21 L16.0637784,19 C16.0637784,17.3 14.7585964,16 13.05182,16 L5.01993076,16 C3.3131543,16 2.0079723,17.3 2.0079723,19 L2.0079723,21 C2.0079723,21.6 1.60637784,22 1.00398615,22 C0.40159446,22 0,21.6 0,21 L0,19 C0,16.2 2.20876953,14 5.01993076,14 L13.05182,14 C15.8629812,14 18.0717507,16.2 18.0717507,19 Z M4.0159446,7 C4.0159446,4.2 6.22471414,2 9.03587536,2 C11.8470366,2 14.0558061,4.2 14.0558061,7 C14.0558061,9.8 11.8470366,12 9.03587536,12 C6.22471414,12 4.0159446,9.8 4.0159446,7 Z M6.02391691,7 C6.02391691,8.7 7.3290989,10 9.03587536,10 C10.7426518,10 12.0478338,8.7 12.0478338,7 C12.0478338,5.3 10.7426518,4 9.03587536,4 C7.3290989,4 6.02391691,5.3 6.02391691,7 Z M20.2805203,14.2 C19.7785272,14.1 19.1761355,14.4 19.0757369,14.9 C18.9753383,15.4 19.2765341,16 19.7785272,16.1 C21.0837092,16.4 21.9872967,17.6 21.9872967,19 L21.9872967,21 C21.9872967,21.6 22.3888912,22 22.9912829,22 C23.5936746,22 23.995269,21.6 23.995269,21 L23.995269,19 C24.0956676,16.7 22.5896884,14.7 20.2805203,14.2 Z M16.2645756,2.2 C15.7625826,2 15.2605895,2.3 15.0597923,2.9 C14.9593937,3.4 15.2605895,4 15.7625826,4.1 C17.3689604,4.5 18.3729466,6.1 17.9713521,7.8 C17.6701563,8.9 16.8669673,9.7 15.7625826,10 C15.2605895,10.1 14.858995,10.7 15.0597923,11.2 C15.1601909,11.7 15.5617853,12 16.0637784,12 C16.164177,12 16.2645756,12 16.2645756,12 C18.0717507,11.5 19.4773313,10.2 19.8789258,8.4 C20.5817161,5.6 18.9753383,2.8 16.2645756,2.2 Z" id="path-37"></path>
        <path d="M18.0717507,19 L18.0717507,21 C18.0717507,21.6 17.6701563,22 17.0677646,22 C16.4653729,22 16.0637784,21.6 16.0637784,21 L16.0637784,19 C16.0637784,17.3 14.7585964,16 13.05182,16 L5.01993076,16 C3.3131543,16 2.0079723,17.3 2.0079723,19 L2.0079723,21 C2.0079723,21.6 1.60637784,22 1.00398615,22 C0.40159446,22 0,21.6 0,21 L0,19 C0,16.2 2.20876953,14 5.01993076,14 L13.05182,14 C15.8629812,14 18.0717507,16.2 18.0717507,19 Z M4.0159446,7 C4.0159446,4.2 6.22471414,2 9.03587536,2 C11.8470366,2 14.0558061,4.2 14.0558061,7 C14.0558061,9.8 11.8470366,12 9.03587536,12 C6.22471414,12 4.0159446,9.8 4.0159446,7 Z M6.02391691,7 C6.02391691,8.7 7.3290989,10 9.03587536,10 C10.7426518,10 12.0478338,8.7 12.0478338,7 C12.0478338,5.3 10.7426518,4 9.03587536,4 C7.3290989,4 6.02391691,5.3 6.02391691,7 Z M20.2805203,14.2 C19.7785272,14.1 19.1761355,14.4 19.0757369,14.9 C18.9753383,15.4 19.2765341,16 19.7785272,16.1 C21.0837092,16.4 21.9872967,17.6 21.9872967,19 L21.9872967,21 C21.9872967,21.6 22.3888912,22 22.9912829,22 C23.5936746,22 23.995269,21.6 23.995269,21 L23.995269,19 C24.0956676,16.7 22.5896884,14.7 20.2805203,14.2 Z M16.2645756,2.2 C15.7625826,2 15.2605895,2.3 15.0597923,2.9 C14.9593937,3.4 15.2605895,4 15.7625826,4.1 C17.3689604,4.5 18.3729466,6.1 17.9713521,7.8 C17.6701563,8.9 16.8669673,9.7 15.7625826,10 C15.2605895,10.1 14.858995,10.7 15.0597923,11.2 C15.1601909,11.7 15.5617853,12 16.0637784,12 C16.164177,12 16.2645756,12 16.2645756,12 C18.0717507,11.5 19.4773313,10.2 19.8789258,8.4 C20.5817161,5.6 18.9753383,2.8 16.2645756,2.2 Z" id="path-39"></path>
        <path d="M18.0717507,19 L18.0717507,21 C18.0717507,21.6 17.6701563,22 17.0677646,22 C16.4653729,22 16.0637784,21.6 16.0637784,21 L16.0637784,19 C16.0637784,17.3 14.7585964,16 13.05182,16 L5.01993076,16 C3.3131543,16 2.0079723,17.3 2.0079723,19 L2.0079723,21 C2.0079723,21.6 1.60637784,22 1.00398615,22 C0.40159446,22 0,21.6 0,21 L0,19 C0,16.2 2.20876953,14 5.01993076,14 L13.05182,14 C15.8629812,14 18.0717507,16.2 18.0717507,19 Z M4.0159446,7 C4.0159446,4.2 6.22471414,2 9.03587536,2 C11.8470366,2 14.0558061,4.2 14.0558061,7 C14.0558061,9.8 11.8470366,12 9.03587536,12 C6.22471414,12 4.0159446,9.8 4.0159446,7 Z M6.02391691,7 C6.02391691,8.7 7.3290989,10 9.03587536,10 C10.7426518,10 12.0478338,8.7 12.0478338,7 C12.0478338,5.3 10.7426518,4 9.03587536,4 C7.3290989,4 6.02391691,5.3 6.02391691,7 Z M20.2805203,14.2 C19.7785272,14.1 19.1761355,14.4 19.0757369,14.9 C18.9753383,15.4 19.2765341,16 19.7785272,16.1 C21.0837092,16.4 21.9872967,17.6 21.9872967,19 L21.9872967,21 C21.9872967,21.6 22.3888912,22 22.9912829,22 C23.5936746,22 23.995269,21.6 23.995269,21 L23.995269,19 C24.0956676,16.7 22.5896884,14.7 20.2805203,14.2 Z M16.2645756,2.2 C15.7625826,2 15.2605895,2.3 15.0597923,2.9 C14.9593937,3.4 15.2605895,4 15.7625826,4.1 C17.3689604,4.5 18.3729466,6.1 17.9713521,7.8 C17.6701563,8.9 16.8669673,9.7 15.7625826,10 C15.2605895,10.1 14.858995,10.7 15.0597923,11.2 C15.1601909,11.7 15.5617853,12 16.0637784,12 C16.164177,12 16.2645756,12 16.2645756,12 C18.0717507,11.5 19.4773313,10.2 19.8789258,8.4 C20.5817161,5.6 18.9753383,2.8 16.2645756,2.2 Z" id="path-41"></path>
    </defs>
    <g id="Website" stroke="none" stroke-width="1" fill="none" fill-rule="evenodd">
        <g id="Desktop" transform="translate(-16.000000, -3597.000000)">
            <g id="Verkündiger" transform="translate(0.000000, 3595.000000)">
                <g id="Icon-Pattern" transform="translate(16.000000, 0.000000)">
                    <g id="icon-/-users" transform="translate(0.000000, 40.000000)">
                        <mask id="mask-2" fill="white">
                            <use xlink:href="#path-1"></use>
                        </mask>
                        <use id="Mask" fill="#000000" fill-rule="nonzero" xlink:href="#path-1"></use>
                        <g id="Colors/Monochrome/gray--2" mask="url(#mask-2)" fill="#313233" fill-rule="evenodd">
                            <rect id="Rectangle" x="0" y="0" width="24" height="24"></rect>
                        </g>
                    </g>
                    <g id="icon-/-users" opacity="0.75" transform="translate(64.000000, 80.000000)">
                        <mask id="mask-4" fill="white">
                            <use xlink:href="#path-3"></use>
                        </mask>
                        <use id="Mask" fill="#000000" fill-rule="nonzero" xlink:href="#path-3"></use>
                        <g id="Colors/Monochrome/gray--2" mask="url(#mask-4)" fill="#313233" fill-rule="evenodd">
                            <rect id="Rectangle" x="0" y="0" width="24" height="24"></rect>
                        </g>
                    </g>
                    <g id="icon-/-users" opacity="0.25" transform="translate(192.000000, 80.000000)">
                        <mask id="mask-6" fill="white">
                            <use xlink:href="#path-5"></use>
                        </mask>
                        <use id="Mask" fill="#000000" fill-rule="nonzero" xlink:href="#path-5"></use>
                        <g id="Colors/Monochrome/gray--2" mask="url(#mask-6)" fill="#313233" fill-rule="evenodd">
                            <rect id="Rectangle" x="0" y="0" width="24" height="24"></rect>
                        </g>
                    </g>
                    <g id="icon-/-users" opacity="0.75" transform="translate(64.000000, 0.000000)">
                        <mask id="mask-8" fill="white">
                            <use xlink:href="#path-7"></use>
                        </mask>
                        <use id="Mask" fill="#000000" fill-rule="nonzero" xlink:href="#path-7"></use>
                        <g id="Colors/Monochrome/gray--2" mask="url(#mask-8)" fill="#313233" fill-rule="evenodd">
                            <rect id="Rectangle" x="0" y="0" width="24" height="24"></rect>
                        </g>
                    </g>
                    <g id="icon-/-users" opacity="0.5" transform="translate(128.000000, 120.000000)">
                        <mask id="mask-10" fill="white">
                            <use xlink:href="#path-9"></use>
                        </mask>
                        <use id="Mask" fill="#000000" fill-rule="nonzero" xlink:href="#path-9"></use>
                        <g id="Colors/Monochrome/gray--2" mask="url(#mask-10)" fill="#313233" fill-rule="evenodd">
                            <rect id="Rectangle" x="0" y="0" width="24" height="24"></rect>
                        </g>
                    </g>
                    <g id="icon-/-users" transform="translate(0.000000, 120.000000)">
                        <mask id="mask-12" fill="white">
                            <use xlink:href="#path-11"></use>
                        </mask>
                        <use id="Mask" fill="#000000" fill-rule="nonzero" xlink:href="#path-11"></use>
                        <g id="Colors/Monochrome/gray--2" mask="url(#mask-12)" fill="#313233" fill-rule="evenodd">
                            <rect id="Rectangle" x="0" y="0" width="24" height="24"></rect>
                        </g>
                    </g>
                    <g id="icon-/-users" opacity="0.75" transform="translate(64.000000, 160.000000)">
                        <mask id="mask-14" fill="white">
                            <use xlink:href="#path-13"></use>
                        </mask>
                        <use id="Mask" fill="#000000" fill-rule="nonzero" xlink:href="#path-13"></use>
                        <g id="Colors/Monochrome/gray--2" mask="url(#mask-14)" fill="#313233" fill-rule="evenodd">
                            <rect id="Rectangle" x="0" y="0" width="24" height="24"></rect>
                        </g>
                    </g>
                    <g id="icon-/-users" opacity="0.25" transform="translate(192.000000, 160.000000)">
                        <mask id="mask-16" fill="white">
                            <use xlink:href="#path-15"></use>
                        </mask>
                        <use id="Mask" fill="#000000" fill-rule="nonzero" xlink:href="#path-15"></use>
                        <g id="Colors/Monochrome/gray--2" mask="url(#mask-16)" fill="#313233" fill-rule="evenodd">
                            <rect id="Rectangle" x="0" y="0" width="24" height="24"></rect>
                        </g>
                    </g>
                    <g id="icon-/-users" opacity="0.5" transform="translate(128.000000, 200.000000)">
                        <mask id="mask-18" fill="white">
                            <use xlink:href="#path-17"></use>
                        </mask>
                        <use id="Mask" fill="#000000" fill-rule="nonzero" xlink:href="#path-17"></use>
                        <g id="Colors/Monochrome/gray--2" mask="url(#mask-18)" fill="#313233" fill-rule="evenodd">
                            <rect id="Rectangle" x="0" y="0" width="24" height="24"></rect>
                        </g>
                    </g>
                    <g id="icon-/-users" transform="translate(0.000000, 200.000000)">
                        <mask id="mask-20" fill="white">
                            <use xlink:href="#path-19"></use>
                        </mask>
                        <use id="Mask" fill="#000000" fill-rule="nonzero" xlink:href="#path-19"></use>
                        <g id="Colors/Monochrome/gray--2" mask="url(#mask-20)" fill="#313233" fill-rule="evenodd">
                            <rect id="Rectangle" x="0" y="0" width="24" height="24"></rect>
                        </g>
                    </g>
                    <g id="icon-/-users" opacity="0.75" transform="translate(64.000000, 240.000000)">
                        <mask id="mask-22" fill="white">
                            <use xlink:href="#path-21"></use>
                        </mask>
                        <use id="Mask" fill="#000000" fill-rule="nonzero" xlink:href="#path-21"></use>
                        <g id="Colors/Monochrome/gray--2" mask="url(#mask-22)" fill="#313233" fill-rule="evenodd">
                            <rect id="Rectangle" x="0" y="0" width="24" height="24"></rect>
                        </g>
                    </g>
                    <g id="icon-/-users" opacity="0.25" transform="translate(192.000000, 240.000000)">
                        <mask id="mask-24" fill="white">
                            <use xlink:href="#path-23"></use>
                        </mask>
                        <use id="Mask" fill="#000000" fill-rule="nonzero" xlink:href="#path-23"></use>
                        <g id="Colors/Monochrome/gray--2" mask="url(#mask-24)" fill="#313233" fill-rule="evenodd">
                            <rect id="Rectangle" x="0" y="0" width="24" height="24"></rect>
                        </g>
                    </g>
                    <g id="icon-/-users" opacity="0.5" transform="translate(128.000000, 280.000000)">
                        <mask id="mask-26" fill="white">
                            <use xlink:href="#path-25"></use>
                        </mask>
                        <use id="Mask" fill="#000000" fill-rule="nonzero" xlink:href="#path-25"></use>
                        <g id="Colors/Monochrome/gray--2" mask="url(#mask-26)" fill="#313233" fill-rule="evenodd">
                            <rect id="Rectangle" x="0" y="0" width="24" height="24"></rect>
                        </g>
                    </g>
                    <g id="icon-/-users" transform="translate(0.000000, 280.000000)">
                        <mask id="mask-28" fill="white">
                            <use xlink:href="#path-27"></use>
                        </mask>
                        <use id="Mask" fill="#000000" fill-rule="nonzero" xlink:href="#path-27"></use>
                        <g id="Colors/Monochrome/gray--2" mask="url(#mask-28)" fill="#313233" fill-rule="evenodd">
                            <rect id="Rectangle" x="0" y="0" width="24" height="24"></rect>
                        </g>
                    </g>
                    <g id="icon-/-users" opacity="0.75" transform="translate(64.000000, 320.000000)">
                        <mask id="mask-30" fill="white">
                            <use xlink:href="#path-29"></use>
                        </mask>
                        <use id="Mask" fill="#000000" fill-rule="nonzero" xlink:href="#path-29"></use>
                        <g id="Colors/Monochrome/gray--2" mask="url(#mask-30)" fill="#313233" fill-rule="evenodd">
                            <rect id="Rectangle" x="0" y="0" width="24" height="24"></rect>
                        </g>
                    </g>
                    <g id="icon-/-users" opacity="0.25" transform="translate(192.000000, 320.000000)">
                        <mask id="mask-32" fill="white">
                            <use xlink:href="#path-31"></use>
                        </mask>
                        <use id="Mask" fill="#000000" fill-rule="nonzero" xlink:href="#path-31"></use>
                        <g id="Colors/Monochrome/gray--2" mask="url(#mask-32)" fill="#313233" fill-rule="evenodd">
                            <rect id="Rectangle" x="0" y="0" width="24" height="24"></rect>
                        </g>
                    </g>
                    <g id="icon-/-users" opacity="0.5" transform="translate(128.000000, 360.000000)">
                        <mask id="mask-34" fill="white">
                            <use xlink:href="#path-33"></use>
                        </mask>
                        <use id="Mask" fill="#000000" fill-rule="nonzero" xlink:href="#path-33"></use>
                        <g id="Colors/Monochrome/gray--2" mask="url(#mask-34)" fill="#313233" fill-rule="evenodd">
                            <rect id="Rectangle" x="0" y="0" width="24" height="24"></rect>
                        </g>
                    </g>
                    <g id="icon-/-users" opacity="0.5" transform="translate(128.000000, 440.000000)">
                        <mask id="mask-36" fill="white">
                            <use xlink:href="#path-35"></use>
                        </mask>
                        <use id="Mask" fill="#000000" fill-rule="nonzero" xlink:href="#path-35"></use>
                        <g id="Colors/Monochrome/gray--2" mask="url(#mask-36)" fill="#313233" fill-rule="evenodd">
                            <rect id="Rectangle" x="0" y="0" width="24" height="24"></rect>
                        </g>
                    </g>
                    <g id="icon-/-users" transform="translate(0.000000, 360.000000)">
                        <mask id="mask-38" fill="white">
                            <use xlink:href="#path-37"></use>
                        </mask>
                        <use id="Mask" fill="#000000" fill-rule="nonzero" xlink:href="#path-37"></use>
                        <g id="Colors/Monochrome/gray--2" mask="url(#mask-38)" fill="#313233" fill-rule="evenodd">
                            <rect id="Rectangle" x="0" y="0" width="24" height="24"></rect>
                        </g>
                    </g>
                    <g id="icon-/-users" opacity="0.75" transform="translate(64.000000, 400.000000)">
                        <mask id="mask-40" fill="white">
                            <use xlink:href="#path-39"></use>
                        </mask>
                        <use id="Mask" fill="#000000" fill-rule="nonzero" xlink:href="#path-39"></use>
                        <g id="Colors/Monochrome/gray--2" mask="url(#mask-40)" fill="#313233" fill-rule="evenodd">
                            <rect id="Rectangle" x="0" y="0" width="24" height="24"></rect>
                        </g>
                    </g>
                    <g id="icon-/-users" transform="translate(0.000000, 440.000000)">
                        <mask id="mask-42" fill="white">
                            <use xlink:href="#path-41"></use>
                        </mask>
                        <use id="Mask" fill="#000000" fill-rule="nonzero" xlink:href="#path-41"></use>
                        <g id="Colors/Monochrome/gray--2" mask="url(#mask-42)" fill="#313233" fill-rule="evenodd">
                            <rect id="Rectangle" x="0" y="0" width="24" height="24"></rect>
                        </g>
                    </g>
                </g>
            </g>
        </g>
    </g>
</svg>