<?xml version="1.0" encoding="UTF-8"?>
<svg width="212px" height="462px" viewBox="0 0 212 462" version="1.1" xmlns="http://www.w3.org/2000/svg" xmlns:xlink="http://www.w3.org/1999/xlink">
    <!-- Generator: Sketch 54.1 (76490) - https://sketchapp.com -->
    <title>Icon Pattern</title>
    <desc>Created with Sketch.</desc>
    <defs>
        <path d="M21.6,8.21679909 L12.6,1.22474461 C12.2,0.925085131 11.7,0.925085131 11.4,1.22474461 L2.4,8.21679909 C2.1,8.41657208 2,8.71623156 2,9.01589103 L2,20.0034052 C2,21.7014756 3.3,23 5,23 L19,23 C20.7,23 22,21.7014756 22,20.0034052 L22,9.01589103 C22,8.71623156 21.9,8.41657208 21.6,8.21679909 Z M14,21.0022701 L10,21.0022701 L10,13.0113507 L14,13.0113507 L14,21.0022701 Z M20,20.0034052 C20,20.6027242 19.6,21.0022701 19,21.0022701 L16,21.0022701 L16,12.0124858 C16,11.4131669 15.6,11.0136209 15,11.0136209 L9,11.0136209 C8.4,11.0136209 8,11.4131669 8,12.0124858 L8,21.0022701 L5,21.0022701 C4.4,21.0022701 4,20.6027242 4,20.0034052 L4,9.5153235 L12,3.32236095 L20,9.5153235 L20,20.0034052 Z" id="path-1"></path>
        <path d="M21.6,8.21679909 L12.6,1.22474461 C12.2,0.925085131 11.7,0.925085131 11.4,1.22474461 L2.4,8.21679909 C2.1,8.41657208 2,8.71623156 2,9.01589103 L2,20.0034052 C2,21.7014756 3.3,23 5,23 L19,23 C20.7,23 22,21.7014756 22,20.0034052 L22,9.01589103 C22,8.71623156 21.9,8.41657208 21.6,8.21679909 Z M14,21.0022701 L10,21.0022701 L10,13.0113507 L14,13.0113507 L14,21.0022701 Z M20,20.0034052 C20,20.6027242 19.6,21.0022701 19,21.0022701 L16,21.0022701 L16,12.0124858 C16,11.4131669 15.6,11.0136209 15,11.0136209 L9,11.0136209 C8.4,11.0136209 8,11.4131669 8,12.0124858 L8,21.0022701 L5,21.0022701 C4.4,21.0022701 4,20.6027242 4,20.0034052 L4,9.5153235 L12,3.32236095 L20,9.5153235 L20,20.0034052 Z" id="path-3"></path>
        <path d="M21.6,8.21679909 L12.6,1.22474461 C12.2,0.925085131 11.7,0.925085131 11.4,1.22474461 L2.4,8.21679909 C2.1,8.41657208 2,8.71623156 2,9.01589103 L2,20.0034052 C2,21.7014756 3.3,23 5,23 L19,23 C20.7,23 22,21.7014756 22,20.0034052 L22,9.01589103 C22,8.71623156 21.9,8.41657208 21.6,8.21679909 Z M14,21.0022701 L10,21.0022701 L10,13.0113507 L14,13.0113507 L14,21.0022701 Z M20,20.0034052 C20,20.6027242 19.6,21.0022701 19,21.0022701 L16,21.0022701 L16,12.0124858 C16,11.4131669 15.6,11.0136209 15,11.0136209 L9,11.0136209 C8.4,11.0136209 8,11.4131669 8,12.0124858 L8,21.0022701 L5,21.0022701 C4.4,21.0022701 4,20.6027242 4,20.0034052 L4,9.5153235 L12,3.32236095 L20,9.5153235 L20,20.0034052 Z" id="path-5"></path>
        <path d="M21.6,8.21679909 L12.6,1.22474461 C12.2,0.925085131 11.7,0.925085131 11.4,1.22474461 L2.4,8.21679909 C2.1,8.41657208 2,8.71623156 2,9.01589103 L2,20.0034052 C2,21.7014756 3.3,23 5,23 L19,23 C20.7,23 22,21.7014756 22,20.0034052 L22,9.01589103 C22,8.71623156 21.9,8.41657208 21.6,8.21679909 Z M14,21.0022701 L10,21.0022701 L10,13.0113507 L14,13.0113507 L14,21.0022701 Z M20,20.0034052 C20,20.6027242 19.6,21.0022701 19,21.0022701 L16,21.0022701 L16,12.0124858 C16,11.4131669 15.6,11.0136209 15,11.0136209 L9,11.0136209 C8.4,11.0136209 8,11.4131669 8,12.0124858 L8,21.0022701 L5,21.0022701 C4.4,21.0022701 4,20.6027242 4,20.0034052 L4,9.5153235 L12,3.32236095 L20,9.5153235 L20,20.0034052 Z" id="path-7"></path>
        <path d="M21.6,8.21679909 L12.6,1.22474461 C12.2,0.925085131 11.7,0.925085131 11.4,1.22474461 L2.4,8.21679909 C2.1,8.41657208 2,8.71623156 2,9.01589103 L2,20.0034052 C2,21.7014756 3.3,23 5,23 L19,23 C20.7,23 22,21.7014756 22,20.0034052 L22,9.01589103 C22,8.71623156 21.9,8.41657208 21.6,8.21679909 Z M14,21.0022701 L10,21.0022701 L10,13.0113507 L14,13.0113507 L14,21.0022701 Z M20,20.0034052 C20,20.6027242 19.6,21.0022701 19,21.0022701 L16,21.0022701 L16,12.0124858 C16,11.4131669 15.6,11.0136209 15,11.0136209 L9,11.0136209 C8.4,11.0136209 8,11.4131669 8,12.0124858 L8,21.0022701 L5,21.0022701 C4.4,21.0022701 4,20.6027242 4,20.0034052 L4,9.5153235 L12,3.32236095 L20,9.5153235 L20,20.0034052 Z" id="path-9"></path>
        <path d="M21.6,8.21679909 L12.6,1.22474461 C12.2,0.925085131 11.7,0.925085131 11.4,1.22474461 L2.4,8.21679909 C2.1,8.41657208 2,8.71623156 2,9.01589103 L2,20.0034052 C2,21.7014756 3.3,23 5,23 L19,23 C20.7,23 22,21.7014756 22,20.0034052 L22,9.01589103 C22,8.71623156 21.9,8.41657208 21.6,8.21679909 Z M14,21.0022701 L10,21.0022701 L10,13.0113507 L14,13.0113507 L14,21.0022701 Z M20,20.0034052 C20,20.6027242 19.6,21.0022701 19,21.0022701 L16,21.0022701 L16,12.0124858 C16,11.4131669 15.6,11.0136209 15,11.0136209 L9,11.0136209 C8.4,11.0136209 8,11.4131669 8,12.0124858 L8,21.0022701 L5,21.0022701 C4.4,21.0022701 4,20.6027242 4,20.0034052 L4,9.5153235 L12,3.32236095 L20,9.5153235 L20,20.0034052 Z" id="path-11"></path>
        <path d="M21.6,8.21679909 L12.6,1.22474461 C12.2,0.925085131 11.7,0.925085131 11.4,1.22474461 L2.4,8.21679909 C2.1,8.41657208 2,8.71623156 2,9.01589103 L2,20.0034052 C2,21.7014756 3.3,23 5,23 L19,23 C20.7,23 22,21.7014756 22,20.0034052 L22,9.01589103 C22,8.71623156 21.9,8.41657208 21.6,8.21679909 Z M14,21.0022701 L10,21.0022701 L10,13.0113507 L14,13.0113507 L14,21.0022701 Z M20,20.0034052 C20,20.6027242 19.6,21.0022701 19,21.0022701 L16,21.0022701 L16,12.0124858 C16,11.4131669 15.6,11.0136209 15,11.0136209 L9,11.0136209 C8.4,11.0136209 8,11.4131669 8,12.0124858 L8,21.0022701 L5,21.0022701 C4.4,21.0022701 4,20.6027242 4,20.0034052 L4,9.5153235 L12,3.32236095 L20,9.5153235 L20,20.0034052 Z" id="path-13"></path>
        <path d="M21.6,8.21679909 L12.6,1.22474461 C12.2,0.925085131 11.7,0.925085131 11.4,1.22474461 L2.4,8.21679909 C2.1,8.41657208 2,8.71623156 2,9.01589103 L2,20.0034052 C2,21.7014756 3.3,23 5,23 L19,23 C20.7,23 22,21.7014756 22,20.0034052 L22,9.01589103 C22,8.71623156 21.9,8.41657208 21.6,8.21679909 Z M14,21.0022701 L10,21.0022701 L10,13.0113507 L14,13.0113507 L14,21.0022701 Z M20,20.0034052 C20,20.6027242 19.6,21.0022701 19,21.0022701 L16,21.0022701 L16,12.0124858 C16,11.4131669 15.6,11.0136209 15,11.0136209 L9,11.0136209 C8.4,11.0136209 8,11.4131669 8,12.0124858 L8,21.0022701 L5,21.0022701 C4.4,21.0022701 4,20.6027242 4,20.0034052 L4,9.5153235 L12,3.32236095 L20,9.5153235 L20,20.0034052 Z" id="path-15"></path>
        <path d="M21.6,8.21679909 L12.6,1.22474461 C12.2,0.925085131 11.7,0.925085131 11.4,1.22474461 L2.4,8.21679909 C2.1,8.41657208 2,8.71623156 2,9.01589103 L2,20.0034052 C2,21.7014756 3.3,23 5,23 L19,23 C20.7,23 22,21.7014756 22,20.0034052 L22,9.01589103 C22,8.71623156 21.9,8.41657208 21.6,8.21679909 Z M14,21.0022701 L10,21.0022701 L10,13.0113507 L14,13.0113507 L14,21.0022701 Z M20,20.0034052 C20,20.6027242 19.6,21.0022701 19,21.0022701 L16,21.0022701 L16,12.0124858 C16,11.4131669 15.6,11.0136209 15,11.0136209 L9,11.0136209 C8.4,11.0136209 8,11.4131669 8,12.0124858 L8,21.0022701 L5,21.0022701 C4.4,21.0022701 4,20.6027242 4,20.0034052 L4,9.5153235 L12,3.32236095 L20,9.5153235 L20,20.0034052 Z" id="path-17"></path>
        <path d="M21.6,8.21679909 L12.6,1.22474461 C12.2,0.925085131 11.7,0.925085131 11.4,1.22474461 L2.4,8.21679909 C2.1,8.41657208 2,8.71623156 2,9.01589103 L2,20.0034052 C2,21.7014756 3.3,23 5,23 L19,23 C20.7,23 22,21.7014756 22,20.0034052 L22,9.01589103 C22,8.71623156 21.9,8.41657208 21.6,8.21679909 Z M14,21.0022701 L10,21.0022701 L10,13.0113507 L14,13.0113507 L14,21.0022701 Z M20,20.0034052 C20,20.6027242 19.6,21.0022701 19,21.0022701 L16,21.0022701 L16,12.0124858 C16,11.4131669 15.6,11.0136209 15,11.0136209 L9,11.0136209 C8.4,11.0136209 8,11.4131669 8,12.0124858 L8,21.0022701 L5,21.0022701 C4.4,21.0022701 4,20.6027242 4,20.0034052 L4,9.5153235 L12,3.32236095 L20,9.5153235 L20,20.0034052 Z" id="path-19"></path>
        <path d="M21.6,8.21679909 L12.6,1.22474461 C12.2,0.925085131 11.7,0.925085131 11.4,1.22474461 L2.4,8.21679909 C2.1,8.41657208 2,8.71623156 2,9.01589103 L2,20.0034052 C2,21.7014756 3.3,23 5,23 L19,23 C20.7,23 22,21.7014756 22,20.0034052 L22,9.01589103 C22,8.71623156 21.9,8.41657208 21.6,8.21679909 Z M14,21.0022701 L10,21.0022701 L10,13.0113507 L14,13.0113507 L14,21.0022701 Z M20,20.0034052 C20,20.6027242 19.6,21.0022701 19,21.0022701 L16,21.0022701 L16,12.0124858 C16,11.4131669 15.6,11.0136209 15,11.0136209 L9,11.0136209 C8.4,11.0136209 8,11.4131669 8,12.0124858 L8,21.0022701 L5,21.0022701 C4.4,21.0022701 4,20.6027242 4,20.0034052 L4,9.5153235 L12,3.32236095 L20,9.5153235 L20,20.0034052 Z" id="path-21"></path>
        <path d="M21.6,8.21679909 L12.6,1.22474461 C12.2,0.925085131 11.7,0.925085131 11.4,1.22474461 L2.4,8.21679909 C2.1,8.41657208 2,8.71623156 2,9.01589103 L2,20.0034052 C2,21.7014756 3.3,23 5,23 L19,23 C20.7,23 22,21.7014756 22,20.0034052 L22,9.01589103 C22,8.71623156 21.9,8.41657208 21.6,8.21679909 Z M14,21.0022701 L10,21.0022701 L10,13.0113507 L14,13.0113507 L14,21.0022701 Z M20,20.0034052 C20,20.6027242 19.6,21.0022701 19,21.0022701 L16,21.0022701 L16,12.0124858 C16,11.4131669 15.6,11.0136209 15,11.0136209 L9,11.0136209 C8.4,11.0136209 8,11.4131669 8,12.0124858 L8,21.0022701 L5,21.0022701 C4.4,21.0022701 4,20.6027242 4,20.0034052 L4,9.5153235 L12,3.32236095 L20,9.5153235 L20,20.0034052 Z" id="path-23"></path>
        <path d="M21.6,8.21679909 L12.6,1.22474461 C12.2,0.925085131 11.7,0.925085131 11.4,1.22474461 L2.4,8.21679909 C2.1,8.41657208 2,8.71623156 2,9.01589103 L2,20.0034052 C2,21.7014756 3.3,23 5,23 L19,23 C20.7,23 22,21.7014756 22,20.0034052 L22,9.01589103 C22,8.71623156 21.9,8.41657208 21.6,8.21679909 Z M14,21.0022701 L10,21.0022701 L10,13.0113507 L14,13.0113507 L14,21.0022701 Z M20,20.0034052 C20,20.6027242 19.6,21.0022701 19,21.0022701 L16,21.0022701 L16,12.0124858 C16,11.4131669 15.6,11.0136209 15,11.0136209 L9,11.0136209 C8.4,11.0136209 8,11.4131669 8,12.0124858 L8,21.0022701 L5,21.0022701 C4.4,21.0022701 4,20.6027242 4,20.0034052 L4,9.5153235 L12,3.32236095 L20,9.5153235 L20,20.0034052 Z" id="path-25"></path>
        <path d="M21.6,8.21679909 L12.6,1.22474461 C12.2,0.925085131 11.7,0.925085131 11.4,1.22474461 L2.4,8.21679909 C2.1,8.41657208 2,8.71623156 2,9.01589103 L2,20.0034052 C2,21.7014756 3.3,23 5,23 L19,23 C20.7,23 22,21.7014756 22,20.0034052 L22,9.01589103 C22,8.71623156 21.9,8.41657208 21.6,8.21679909 Z M14,21.0022701 L10,21.0022701 L10,13.0113507 L14,13.0113507 L14,21.0022701 Z M20,20.0034052 C20,20.6027242 19.6,21.0022701 19,21.0022701 L16,21.0022701 L16,12.0124858 C16,11.4131669 15.6,11.0136209 15,11.0136209 L9,11.0136209 C8.4,11.0136209 8,11.4131669 8,12.0124858 L8,21.0022701 L5,21.0022701 C4.4,21.0022701 4,20.6027242 4,20.0034052 L4,9.5153235 L12,3.32236095 L20,9.5153235 L20,20.0034052 Z" id="path-27"></path>
        <path d="M21.6,8.21679909 L12.6,1.22474461 C12.2,0.925085131 11.7,0.925085131 11.4,1.22474461 L2.4,8.21679909 C2.1,8.41657208 2,8.71623156 2,9.01589103 L2,20.0034052 C2,21.7014756 3.3,23 5,23 L19,23 C20.7,23 22,21.7014756 22,20.0034052 L22,9.01589103 C22,8.71623156 21.9,8.41657208 21.6,8.21679909 Z M14,21.0022701 L10,21.0022701 L10,13.0113507 L14,13.0113507 L14,21.0022701 Z M20,20.0034052 C20,20.6027242 19.6,21.0022701 19,21.0022701 L16,21.0022701 L16,12.0124858 C16,11.4131669 15.6,11.0136209 15,11.0136209 L9,11.0136209 C8.4,11.0136209 8,11.4131669 8,12.0124858 L8,21.0022701 L5,21.0022701 C4.4,21.0022701 4,20.6027242 4,20.0034052 L4,9.5153235 L12,3.32236095 L20,9.5153235 L20,20.0034052 Z" id="path-29"></path>
        <path d="M21.6,8.21679909 L12.6,1.22474461 C12.2,0.925085131 11.7,0.925085131 11.4,1.22474461 L2.4,8.21679909 C2.1,8.41657208 2,8.71623156 2,9.01589103 L2,20.0034052 C2,21.7014756 3.3,23 5,23 L19,23 C20.7,23 22,21.7014756 22,20.0034052 L22,9.01589103 C22,8.71623156 21.9,8.41657208 21.6,8.21679909 Z M14,21.0022701 L10,21.0022701 L10,13.0113507 L14,13.0113507 L14,21.0022701 Z M20,20.0034052 C20,20.6027242 19.6,21.0022701 19,21.0022701 L16,21.0022701 L16,12.0124858 C16,11.4131669 15.6,11.0136209 15,11.0136209 L9,11.0136209 C8.4,11.0136209 8,11.4131669 8,12.0124858 L8,21.0022701 L5,21.0022701 C4.4,21.0022701 4,20.6027242 4,20.0034052 L4,9.5153235 L12,3.32236095 L20,9.5153235 L20,20.0034052 Z" id="path-31"></path>
        <path d="M21.6,8.21679909 L12.6,1.22474461 C12.2,0.925085131 11.7,0.925085131 11.4,1.22474461 L2.4,8.21679909 C2.1,8.41657208 2,8.71623156 2,9.01589103 L2,20.0034052 C2,21.7014756 3.3,23 5,23 L19,23 C20.7,23 22,21.7014756 22,20.0034052 L22,9.01589103 C22,8.71623156 21.9,8.41657208 21.6,8.21679909 Z M14,21.0022701 L10,21.0022701 L10,13.0113507 L14,13.0113507 L14,21.0022701 Z M20,20.0034052 C20,20.6027242 19.6,21.0022701 19,21.0022701 L16,21.0022701 L16,12.0124858 C16,11.4131669 15.6,11.0136209 15,11.0136209 L9,11.0136209 C8.4,11.0136209 8,11.4131669 8,12.0124858 L8,21.0022701 L5,21.0022701 C4.4,21.0022701 4,20.6027242 4,20.0034052 L4,9.5153235 L12,3.32236095 L20,9.5153235 L20,20.0034052 Z" id="path-33"></path>
        <path d="M21.6,8.21679909 L12.6,1.22474461 C12.2,0.925085131 11.7,0.925085131 11.4,1.22474461 L2.4,8.21679909 C2.1,8.41657208 2,8.71623156 2,9.01589103 L2,20.0034052 C2,21.7014756 3.3,23 5,23 L19,23 C20.7,23 22,21.7014756 22,20.0034052 L22,9.01589103 C22,8.71623156 21.9,8.41657208 21.6,8.21679909 Z M14,21.0022701 L10,21.0022701 L10,13.0113507 L14,13.0113507 L14,21.0022701 Z M20,20.0034052 C20,20.6027242 19.6,21.0022701 19,21.0022701 L16,21.0022701 L16,12.0124858 C16,11.4131669 15.6,11.0136209 15,11.0136209 L9,11.0136209 C8.4,11.0136209 8,11.4131669 8,12.0124858 L8,21.0022701 L5,21.0022701 C4.4,21.0022701 4,20.6027242 4,20.0034052 L4,9.5153235 L12,3.32236095 L20,9.5153235 L20,20.0034052 Z" id="path-35"></path>
        <path d="M21.6,8.21679909 L12.6,1.22474461 C12.2,0.925085131 11.7,0.925085131 11.4,1.22474461 L2.4,8.21679909 C2.1,8.41657208 2,8.71623156 2,9.01589103 L2,20.0034052 C2,21.7014756 3.3,23 5,23 L19,23 C20.7,23 22,21.7014756 22,20.0034052 L22,9.01589103 C22,8.71623156 21.9,8.41657208 21.6,8.21679909 Z M14,21.0022701 L10,21.0022701 L10,13.0113507 L14,13.0113507 L14,21.0022701 Z M20,20.0034052 C20,20.6027242 19.6,21.0022701 19,21.0022701 L16,21.0022701 L16,12.0124858 C16,11.4131669 15.6,11.0136209 15,11.0136209 L9,11.0136209 C8.4,11.0136209 8,11.4131669 8,12.0124858 L8,21.0022701 L5,21.0022701 C4.4,21.0022701 4,20.6027242 4,20.0034052 L4,9.5153235 L12,3.32236095 L20,9.5153235 L20,20.0034052 Z" id="path-37"></path>
        <path d="M21.6,8.21679909 L12.6,1.22474461 C12.2,0.925085131 11.7,0.925085131 11.4,1.22474461 L2.4,8.21679909 C2.1,8.41657208 2,8.71623156 2,9.01589103 L2,20.0034052 C2,21.7014756 3.3,23 5,23 L19,23 C20.7,23 22,21.7014756 22,20.0034052 L22,9.01589103 C22,8.71623156 21.9,8.41657208 21.6,8.21679909 Z M14,21.0022701 L10,21.0022701 L10,13.0113507 L14,13.0113507 L14,21.0022701 Z M20,20.0034052 C20,20.6027242 19.6,21.0022701 19,21.0022701 L16,21.0022701 L16,12.0124858 C16,11.4131669 15.6,11.0136209 15,11.0136209 L9,11.0136209 C8.4,11.0136209 8,11.4131669 8,12.0124858 L8,21.0022701 L5,21.0022701 C4.4,21.0022701 4,20.6027242 4,20.0034052 L4,9.5153235 L12,3.32236095 L20,9.5153235 L20,20.0034052 Z" id="path-39"></path>
        <path d="M21.6,8.21679909 L12.6,1.22474461 C12.2,0.925085131 11.7,0.925085131 11.4,1.22474461 L2.4,8.21679909 C2.1,8.41657208 2,8.71623156 2,9.01589103 L2,20.0034052 C2,21.7014756 3.3,23 5,23 L19,23 C20.7,23 22,21.7014756 22,20.0034052 L22,9.01589103 C22,8.71623156 21.9,8.41657208 21.6,8.21679909 Z M14,21.0022701 L10,21.0022701 L10,13.0113507 L14,13.0113507 L14,21.0022701 Z M20,20.0034052 C20,20.6027242 19.6,21.0022701 19,21.0022701 L16,21.0022701 L16,12.0124858 C16,11.4131669 15.6,11.0136209 15,11.0136209 L9,11.0136209 C8.4,11.0136209 8,11.4131669 8,12.0124858 L8,21.0022701 L5,21.0022701 C4.4,21.0022701 4,20.6027242 4,20.0034052 L4,9.5153235 L12,3.32236095 L20,9.5153235 L20,20.0034052 Z" id="path-41"></path>
    </defs>
    <g id="Website" stroke="none" stroke-width="1" fill="none" fill-rule="evenodd">
        <g id="Desktop" transform="translate(-1210.000000, -4321.000000)">
            <g id="Adressen" transform="translate(0.000000, 4320.000000)">
                <g id="Icon-Pattern" transform="translate(1208.000000, 0.000000)">
                    <g id="icon-/-home" transform="translate(192.000000, 40.000000)">
                        <mask id="mask-2" fill="white">
                            <use xlink:href="#path-1"></use>
                        </mask>
                        <use id="Mask" fill="#000000" fill-rule="nonzero" xlink:href="#path-1"></use>
                        <g id="Colors/Monochrome/gray--2" mask="url(#mask-2)" fill="#313233" fill-rule="evenodd">
                            <rect id="Rectangle" x="0" y="0" width="24" height="24"></rect>
                        </g>
                    </g>
                    <g id="icon-/-home" opacity="0.75" transform="translate(128.000000, 80.000000)">
                        <mask id="mask-4" fill="white">
                            <use xlink:href="#path-3"></use>
                        </mask>
                        <use id="Mask" fill="#000000" fill-rule="nonzero" xlink:href="#path-3"></use>
                        <g id="Colors/Monochrome/gray--2" mask="url(#mask-4)" fill="#313233" fill-rule="evenodd">
                            <rect id="Rectangle" x="0" y="0" width="24" height="24"></rect>
                        </g>
                    </g>
                    <g id="icon-/-home" opacity="0.25" transform="translate(0.000000, 80.000000)">
                        <mask id="mask-6" fill="white">
                            <use xlink:href="#path-5"></use>
                        </mask>
                        <use id="Mask" fill="#000000" fill-rule="nonzero" xlink:href="#path-5"></use>
                        <g id="Colors/Monochrome/gray--2" mask="url(#mask-6)" fill="#313233" fill-rule="evenodd">
                            <rect id="Rectangle" x="0" y="0" width="24" height="24"></rect>
                        </g>
                    </g>
                    <g id="icon-/-home" opacity="0.75" transform="translate(128.000000, 0.000000)">
                        <mask id="mask-8" fill="white">
                            <use xlink:href="#path-7"></use>
                        </mask>
                        <use id="Mask" fill="#000000" fill-rule="nonzero" xlink:href="#path-7"></use>
                        <g id="Colors/Monochrome/gray--2" mask="url(#mask-8)" fill="#313233" fill-rule="evenodd">
                            <rect id="Rectangle" x="0" y="0" width="24" height="24"></rect>
                        </g>
                    </g>
                    <g id="icon-/-home" opacity="0.5" transform="translate(64.000000, 120.000000)">
                        <mask id="mask-10" fill="white">
                            <use xlink:href="#path-9"></use>
                        </mask>
                        <use id="Mask" fill="#000000" fill-rule="nonzero" xlink:href="#path-9"></use>
                        <g id="Colors/Monochrome/gray--2" mask="url(#mask-10)" fill="#313233" fill-rule="evenodd">
                            <rect id="Rectangle" x="0" y="0" width="24" height="24"></rect>
                        </g>
                    </g>
                    <g id="icon-/-home" transform="translate(192.000000, 120.000000)">
                        <mask id="mask-12" fill="white">
                            <use xlink:href="#path-11"></use>
                        </mask>
                        <use id="Mask" fill="#000000" fill-rule="nonzero" xlink:href="#path-11"></use>
                        <g id="Colors/Monochrome/gray--2" mask="url(#mask-12)" fill="#313233" fill-rule="evenodd">
                            <rect id="Rectangle" x="0" y="0" width="24" height="24"></rect>
                        </g>
                    </g>
                    <g id="icon-/-home" opacity="0.75" transform="translate(128.000000, 160.000000)">
                        <mask id="mask-14" fill="white">
                            <use xlink:href="#path-13"></use>
                        </mask>
                        <use id="Mask" fill="#000000" fill-rule="nonzero" xlink:href="#path-13"></use>
                        <g id="Colors/Monochrome/gray--2" mask="url(#mask-14)" fill="#313233" fill-rule="evenodd">
                            <rect id="Rectangle" x="0" y="0" width="24" height="24"></rect>
                        </g>
                    </g>
                    <g id="icon-/-home" opacity="0.25" transform="translate(0.000000, 160.000000)">
                        <mask id="mask-16" fill="white">
                            <use xlink:href="#path-15"></use>
                        </mask>
                        <use id="Mask" fill="#000000" fill-rule="nonzero" xlink:href="#path-15"></use>
                        <g id="Colors/Monochrome/gray--2" mask="url(#mask-16)" fill="#313233" fill-rule="evenodd">
                            <rect id="Rectangle" x="0" y="0" width="24" height="24"></rect>
                        </g>
                    </g>
                    <g id="icon-/-home" opacity="0.5" transform="translate(64.000000, 200.000000)">
                        <mask id="mask-18" fill="white">
                            <use xlink:href="#path-17"></use>
                        </mask>
                        <use id="Mask" fill="#000000" fill-rule="nonzero" xlink:href="#path-17"></use>
                        <g id="Colors/Monochrome/gray--2" mask="url(#mask-18)" fill="#313233" fill-rule="evenodd">
                            <rect id="Rectangle" x="0" y="0" width="24" height="24"></rect>
                        </g>
                    </g>
                    <g id="icon-/-home" transform="translate(192.000000, 200.000000)">
                        <mask id="mask-20" fill="white">
                            <use xlink:href="#path-19"></use>
                        </mask>
                        <use id="Mask" fill="#000000" fill-rule="nonzero" xlink:href="#path-19"></use>
                        <g id="Colors/Monochrome/gray--2" mask="url(#mask-20)" fill="#313233" fill-rule="evenodd">
                            <rect id="Rectangle" x="0" y="0" width="24" height="24"></rect>
                        </g>
                    </g>
                    <g id="icon-/-home" opacity="0.75" transform="translate(128.000000, 240.000000)">
                        <mask id="mask-22" fill="white">
                            <use xlink:href="#path-21"></use>
                        </mask>
                        <use id="Mask" fill="#000000" fill-rule="nonzero" xlink:href="#path-21"></use>
                        <g id="Colors/Monochrome/gray--2" mask="url(#mask-22)" fill="#313233" fill-rule="evenodd">
                            <rect id="Rectangle" x="0" y="0" width="24" height="24"></rect>
                        </g>
                    </g>
                    <g id="icon-/-home" opacity="0.25" transform="translate(0.000000, 240.000000)">
                        <mask id="mask-24" fill="white">
                            <use xlink:href="#path-23"></use>
                        </mask>
                        <use id="Mask" fill="#000000" fill-rule="nonzero" xlink:href="#path-23"></use>
                        <g id="Colors/Monochrome/gray--2" mask="url(#mask-24)" fill="#313233" fill-rule="evenodd">
                            <rect id="Rectangle" x="0" y="0" width="24" height="24"></rect>
                        </g>
                    </g>
                    <g id="icon-/-home" opacity="0.5" transform="translate(64.000000, 280.000000)">
                        <mask id="mask-26" fill="white">
                            <use xlink:href="#path-25"></use>
                        </mask>
                        <use id="Mask" fill="#000000" fill-rule="nonzero" xlink:href="#path-25"></use>
                        <g id="Colors/Monochrome/gray--2" mask="url(#mask-26)" fill="#313233" fill-rule="evenodd">
                            <rect id="Rectangle" x="0" y="0" width="24" height="24"></rect>
                        </g>
                    </g>
                    <g id="icon-/-home" transform="translate(192.000000, 280.000000)">
                        <mask id="mask-28" fill="white">
                            <use xlink:href="#path-27"></use>
                        </mask>
                        <use id="Mask" fill="#000000" fill-rule="nonzero" xlink:href="#path-27"></use>
                        <g id="Colors/Monochrome/gray--2" mask="url(#mask-28)" fill="#313233" fill-rule="evenodd">
                            <rect id="Rectangle" x="0" y="0" width="24" height="24"></rect>
                        </g>
                    </g>
                    <g id="icon-/-home" opacity="0.75" transform="translate(128.000000, 320.000000)">
                        <mask id="mask-30" fill="white">
                            <use xlink:href="#path-29"></use>
                        </mask>
                        <use id="Mask" fill="#000000" fill-rule="nonzero" xlink:href="#path-29"></use>
                        <g id="Colors/Monochrome/gray--2" mask="url(#mask-30)" fill="#313233" fill-rule="evenodd">
                            <rect id="Rectangle" x="0" y="0" width="24" height="24"></rect>
                        </g>
                    </g>
                    <g id="icon-/-home" opacity="0.25" transform="translate(0.000000, 320.000000)">
                        <mask id="mask-32" fill="white">
                            <use xlink:href="#path-31"></use>
                        </mask>
                        <use id="Mask" fill="#000000" fill-rule="nonzero" xlink:href="#path-31"></use>
                        <g id="Colors/Monochrome/gray--2" mask="url(#mask-32)" fill="#313233" fill-rule="evenodd">
                            <rect id="Rectangle" x="0" y="0" width="24" height="24"></rect>
                        </g>
                    </g>
                    <g id="icon-/-home" opacity="0.5" transform="translate(64.000000, 360.000000)">
                        <mask id="mask-34" fill="white">
                            <use xlink:href="#path-33"></use>
                        </mask>
                        <use id="Mask" fill="#000000" fill-rule="nonzero" xlink:href="#path-33"></use>
                        <g id="Colors/Monochrome/gray--2" mask="url(#mask-34)" fill="#313233" fill-rule="evenodd">
                            <rect id="Rectangle" x="0" y="0" width="24" height="24"></rect>
                        </g>
                    </g>
                    <g id="icon-/-home" opacity="0.5" transform="translate(64.000000, 440.000000)">
                        <mask id="mask-36" fill="white">
                            <use xlink:href="#path-35"></use>
                        </mask>
                        <use id="Mask" fill="#000000" fill-rule="nonzero" xlink:href="#path-35"></use>
                        <g id="Colors/Monochrome/gray--2" mask="url(#mask-36)" fill="#313233" fill-rule="evenodd">
                            <rect id="Rectangle" x="0" y="0" width="24" height="24"></rect>
                        </g>
                    </g>
                    <g id="icon-/-home" transform="translate(192.000000, 360.000000)">
                        <mask id="mask-38" fill="white">
                            <use xlink:href="#path-37"></use>
                        </mask>
                        <use id="Mask" fill="#000000" fill-rule="nonzero" xlink:href="#path-37"></use>
                        <g id="Colors/Monochrome/gray--2" mask="url(#mask-38)" fill="#313233" fill-rule="evenodd">
                            <rect id="Rectangle" x="0" y="0" width="24" height="24"></rect>
                        </g>
                    </g>
                    <g id="icon-/-home" opacity="0.75" transform="translate(128.000000, 400.000000)">
                        <mask id="mask-40" fill="white">
                            <use xlink:href="#path-39"></use>
                        </mask>
                        <use id="Mask" fill="#000000" fill-rule="nonzero" xlink:href="#path-39"></use>
                        <g id="Colors/Monochrome/gray--2" mask="url(#mask-40)" fill="#313233" fill-rule="evenodd">
                            <rect id="Rectangle" x="0" y="0" width="24" height="24"></rect>
                        </g>
                    </g>
                    <g id="icon-/-home" transform="translate(192.000000, 440.000000)">
                        <mask id="mask-42" fill="white">
                            <use xlink:href="#path-41"></use>
                        </mask>
                        <use id="Mask" fill="#000000" fill-rule="nonzero" xlink:href="#path-41"></use>
                        <g id="Colors/Monochrome/gray--2" mask="url(#mask-42)" fill="#313233" fill-rule="evenodd">
                            <rect id="Rectangle" x="0" y="0" width="24" height="24"></rect>
                        </g>
                    </g>
                </g>
            </g>
        </g>
    </g>
</svg>