<?xml version="1.0" encoding="UTF-8"?>
<svg width="210px" height="462px" viewBox="0 0 210 462" version="1.1" xmlns="http://www.w3.org/2000/svg" xmlns:xlink="http://www.w3.org/1999/xlink">
    <!-- Generator: Sketch 54.1 (76490) - https://sketchapp.com -->
    <title>Icon Pattern</title>
    <desc>Created with Sketch.</desc>
    <defs>
        <path d="M21,11.9874858 L21,19.996587 C21,21.698521 19.7,23 18,23 L6,23 C4.3,23 3,21.698521 3,19.996587 L3,11.9874858 C3,11.3868032 3.4,10.9863481 4,10.9863481 C4.6,10.9863481 5,11.3868032 5,11.9874858 L5,19.996587 C5,20.5972696 5.4,20.9977247 6,20.9977247 L18,20.9977247 C18.6,20.9977247 19,20.5972696 19,19.996587 L19,11.9874858 C19,11.3868032 19.4,10.9863481 20,10.9863481 C20.6,10.9863481 21,11.3868032 21,11.9874858 Z M8.7,6.6814562 L11,4.37883959 L11,14.9908987 C11,15.5915813 11.4,15.9920364 12,15.9920364 C12.6,15.9920364 13,15.5915813 13,14.9908987 L13,4.37883959 L15.3,6.6814562 C15.5,6.88168373 15.7,6.9817975 16,6.9817975 C16.3,6.9817975 16.5,6.88168373 16.7,6.6814562 C17.1,6.28100114 17.1,5.68031854 16.7,5.27986348 L12.7,1.27531286 C12.6,1.17519909 12.5,1.07508532 12.4,1.07508532 C12.2,0.974971559 11.9,0.974971559 11.6,1.07508532 C11.5,1.17519909 11.4,1.17519909 11.3,1.27531286 L7.3,5.27986348 C6.9,5.68031854 6.9,6.28100114 7.3,6.6814562 C7.7,7.08191126 8.3,7.08191126 8.7,6.6814562 Z" id="path-1"></path>
        <path d="M21,11.9874858 L21,19.996587 C21,21.698521 19.7,23 18,23 L6,23 C4.3,23 3,21.698521 3,19.996587 L3,11.9874858 C3,11.3868032 3.4,10.9863481 4,10.9863481 C4.6,10.9863481 5,11.3868032 5,11.9874858 L5,19.996587 C5,20.5972696 5.4,20.9977247 6,20.9977247 L18,20.9977247 C18.6,20.9977247 19,20.5972696 19,19.996587 L19,11.9874858 C19,11.3868032 19.4,10.9863481 20,10.9863481 C20.6,10.9863481 21,11.3868032 21,11.9874858 Z M8.7,6.6814562 L11,4.37883959 L11,14.9908987 C11,15.5915813 11.4,15.9920364 12,15.9920364 C12.6,15.9920364 13,15.5915813 13,14.9908987 L13,4.37883959 L15.3,6.6814562 C15.5,6.88168373 15.7,6.9817975 16,6.9817975 C16.3,6.9817975 16.5,6.88168373 16.7,6.6814562 C17.1,6.28100114 17.1,5.68031854 16.7,5.27986348 L12.7,1.27531286 C12.6,1.17519909 12.5,1.07508532 12.4,1.07508532 C12.2,0.974971559 11.9,0.974971559 11.6,1.07508532 C11.5,1.17519909 11.4,1.17519909 11.3,1.27531286 L7.3,5.27986348 C6.9,5.68031854 6.9,6.28100114 7.3,6.6814562 C7.7,7.08191126 8.3,7.08191126 8.7,6.6814562 Z" id="path-3"></path>
        <path d="M21,11.9874858 L21,19.996587 C21,21.698521 19.7,23 18,23 L6,23 C4.3,23 3,21.698521 3,19.996587 L3,11.9874858 C3,11.3868032 3.4,10.9863481 4,10.9863481 C4.6,10.9863481 5,11.3868032 5,11.9874858 L5,19.996587 C5,20.5972696 5.4,20.9977247 6,20.9977247 L18,20.9977247 C18.6,20.9977247 19,20.5972696 19,19.996587 L19,11.9874858 C19,11.3868032 19.4,10.9863481 20,10.9863481 C20.6,10.9863481 21,11.3868032 21,11.9874858 Z M8.7,6.6814562 L11,4.37883959 L11,14.9908987 C11,15.5915813 11.4,15.9920364 12,15.9920364 C12.6,15.9920364 13,15.5915813 13,14.9908987 L13,4.37883959 L15.3,6.6814562 C15.5,6.88168373 15.7,6.9817975 16,6.9817975 C16.3,6.9817975 16.5,6.88168373 16.7,6.6814562 C17.1,6.28100114 17.1,5.68031854 16.7,5.27986348 L12.7,1.27531286 C12.6,1.17519909 12.5,1.07508532 12.4,1.07508532 C12.2,0.974971559 11.9,0.974971559 11.6,1.07508532 C11.5,1.17519909 11.4,1.17519909 11.3,1.27531286 L7.3,5.27986348 C6.9,5.68031854 6.9,6.28100114 7.3,6.6814562 C7.7,7.08191126 8.3,7.08191126 8.7,6.6814562 Z" id="path-5"></path>
        <path d="M21,11.9874858 L21,19.996587 C21,21.698521 19.7,23 18,23 L6,23 C4.3,23 3,21.698521 3,19.996587 L3,11.9874858 C3,11.3868032 3.4,10.9863481 4,10.9863481 C4.6,10.9863481 5,11.3868032 5,11.9874858 L5,19.996587 C5,20.5972696 5.4,20.9977247 6,20.9977247 L18,20.9977247 C18.6,20.9977247 19,20.5972696 19,19.996587 L19,11.9874858 C19,11.3868032 19.4,10.9863481 20,10.9863481 C20.6,10.9863481 21,11.3868032 21,11.9874858 Z M8.7,6.6814562 L11,4.37883959 L11,14.9908987 C11,15.5915813 11.4,15.9920364 12,15.9920364 C12.6,15.9920364 13,15.5915813 13,14.9908987 L13,4.37883959 L15.3,6.6814562 C15.5,6.88168373 15.7,6.9817975 16,6.9817975 C16.3,6.9817975 16.5,6.88168373 16.7,6.6814562 C17.1,6.28100114 17.1,5.68031854 16.7,5.27986348 L12.7,1.27531286 C12.6,1.17519909 12.5,1.07508532 12.4,1.07508532 C12.2,0.974971559 11.9,0.974971559 11.6,1.07508532 C11.5,1.17519909 11.4,1.17519909 11.3,1.27531286 L7.3,5.27986348 C6.9,5.68031854 6.9,6.28100114 7.3,6.6814562 C7.7,7.08191126 8.3,7.08191126 8.7,6.6814562 Z" id="path-7"></path>
        <path d="M21,11.9874858 L21,19.996587 C21,21.698521 19.7,23 18,23 L6,23 C4.3,23 3,21.698521 3,19.996587 L3,11.9874858 C3,11.3868032 3.4,10.9863481 4,10.9863481 C4.6,10.9863481 5,11.3868032 5,11.9874858 L5,19.996587 C5,20.5972696 5.4,20.9977247 6,20.9977247 L18,20.9977247 C18.6,20.9977247 19,20.5972696 19,19.996587 L19,11.9874858 C19,11.3868032 19.4,10.9863481 20,10.9863481 C20.6,10.9863481 21,11.3868032 21,11.9874858 Z M8.7,6.6814562 L11,4.37883959 L11,14.9908987 C11,15.5915813 11.4,15.9920364 12,15.9920364 C12.6,15.9920364 13,15.5915813 13,14.9908987 L13,4.37883959 L15.3,6.6814562 C15.5,6.88168373 15.7,6.9817975 16,6.9817975 C16.3,6.9817975 16.5,6.88168373 16.7,6.6814562 C17.1,6.28100114 17.1,5.68031854 16.7,5.27986348 L12.7,1.27531286 C12.6,1.17519909 12.5,1.07508532 12.4,1.07508532 C12.2,0.974971559 11.9,0.974971559 11.6,1.07508532 C11.5,1.17519909 11.4,1.17519909 11.3,1.27531286 L7.3,5.27986348 C6.9,5.68031854 6.9,6.28100114 7.3,6.6814562 C7.7,7.08191126 8.3,7.08191126 8.7,6.6814562 Z" id="path-9"></path>
        <path d="M21,11.9874858 L21,19.996587 C21,21.698521 19.7,23 18,23 L6,23 C4.3,23 3,21.698521 3,19.996587 L3,11.9874858 C3,11.3868032 3.4,10.9863481 4,10.9863481 C4.6,10.9863481 5,11.3868032 5,11.9874858 L5,19.996587 C5,20.5972696 5.4,20.9977247 6,20.9977247 L18,20.9977247 C18.6,20.9977247 19,20.5972696 19,19.996587 L19,11.9874858 C19,11.3868032 19.4,10.9863481 20,10.9863481 C20.6,10.9863481 21,11.3868032 21,11.9874858 Z M8.7,6.6814562 L11,4.37883959 L11,14.9908987 C11,15.5915813 11.4,15.9920364 12,15.9920364 C12.6,15.9920364 13,15.5915813 13,14.9908987 L13,4.37883959 L15.3,6.6814562 C15.5,6.88168373 15.7,6.9817975 16,6.9817975 C16.3,6.9817975 16.5,6.88168373 16.7,6.6814562 C17.1,6.28100114 17.1,5.68031854 16.7,5.27986348 L12.7,1.27531286 C12.6,1.17519909 12.5,1.07508532 12.4,1.07508532 C12.2,0.974971559 11.9,0.974971559 11.6,1.07508532 C11.5,1.17519909 11.4,1.17519909 11.3,1.27531286 L7.3,5.27986348 C6.9,5.68031854 6.9,6.28100114 7.3,6.6814562 C7.7,7.08191126 8.3,7.08191126 8.7,6.6814562 Z" id="path-11"></path>
        <path d="M21,11.9874858 L21,19.996587 C21,21.698521 19.7,23 18,23 L6,23 C4.3,23 3,21.698521 3,19.996587 L3,11.9874858 C3,11.3868032 3.4,10.9863481 4,10.9863481 C4.6,10.9863481 5,11.3868032 5,11.9874858 L5,19.996587 C5,20.5972696 5.4,20.9977247 6,20.9977247 L18,20.9977247 C18.6,20.9977247 19,20.5972696 19,19.996587 L19,11.9874858 C19,11.3868032 19.4,10.9863481 20,10.9863481 C20.6,10.9863481 21,11.3868032 21,11.9874858 Z M8.7,6.6814562 L11,4.37883959 L11,14.9908987 C11,15.5915813 11.4,15.9920364 12,15.9920364 C12.6,15.9920364 13,15.5915813 13,14.9908987 L13,4.37883959 L15.3,6.6814562 C15.5,6.88168373 15.7,6.9817975 16,6.9817975 C16.3,6.9817975 16.5,6.88168373 16.7,6.6814562 C17.1,6.28100114 17.1,5.68031854 16.7,5.27986348 L12.7,1.27531286 C12.6,1.17519909 12.5,1.07508532 12.4,1.07508532 C12.2,0.974971559 11.9,0.974971559 11.6,1.07508532 C11.5,1.17519909 11.4,1.17519909 11.3,1.27531286 L7.3,5.27986348 C6.9,5.68031854 6.9,6.28100114 7.3,6.6814562 C7.7,7.08191126 8.3,7.08191126 8.7,6.6814562 Z" id="path-13"></path>
        <path d="M21,11.9874858 L21,19.996587 C21,21.698521 19.7,23 18,23 L6,23 C4.3,23 3,21.698521 3,19.996587 L3,11.9874858 C3,11.3868032 3.4,10.9863481 4,10.9863481 C4.6,10.9863481 5,11.3868032 5,11.9874858 L5,19.996587 C5,20.5972696 5.4,20.9977247 6,20.9977247 L18,20.9977247 C18.6,20.9977247 19,20.5972696 19,19.996587 L19,11.9874858 C19,11.3868032 19.4,10.9863481 20,10.9863481 C20.6,10.9863481 21,11.3868032 21,11.9874858 Z M8.7,6.6814562 L11,4.37883959 L11,14.9908987 C11,15.5915813 11.4,15.9920364 12,15.9920364 C12.6,15.9920364 13,15.5915813 13,14.9908987 L13,4.37883959 L15.3,6.6814562 C15.5,6.88168373 15.7,6.9817975 16,6.9817975 C16.3,6.9817975 16.5,6.88168373 16.7,6.6814562 C17.1,6.28100114 17.1,5.68031854 16.7,5.27986348 L12.7,1.27531286 C12.6,1.17519909 12.5,1.07508532 12.4,1.07508532 C12.2,0.974971559 11.9,0.974971559 11.6,1.07508532 C11.5,1.17519909 11.4,1.17519909 11.3,1.27531286 L7.3,5.27986348 C6.9,5.68031854 6.9,6.28100114 7.3,6.6814562 C7.7,7.08191126 8.3,7.08191126 8.7,6.6814562 Z" id="path-15"></path>
        <path d="M21,11.9874858 L21,19.996587 C21,21.698521 19.7,23 18,23 L6,23 C4.3,23 3,21.698521 3,19.996587 L3,11.9874858 C3,11.3868032 3.4,10.9863481 4,10.9863481 C4.6,10.9863481 5,11.3868032 5,11.9874858 L5,19.996587 C5,20.5972696 5.4,20.9977247 6,20.9977247 L18,20.9977247 C18.6,20.9977247 19,20.5972696 19,19.996587 L19,11.9874858 C19,11.3868032 19.4,10.9863481 20,10.9863481 C20.6,10.9863481 21,11.3868032 21,11.9874858 Z M8.7,6.6814562 L11,4.37883959 L11,14.9908987 C11,15.5915813 11.4,15.9920364 12,15.9920364 C12.6,15.9920364 13,15.5915813 13,14.9908987 L13,4.37883959 L15.3,6.6814562 C15.5,6.88168373 15.7,6.9817975 16,6.9817975 C16.3,6.9817975 16.5,6.88168373 16.7,6.6814562 C17.1,6.28100114 17.1,5.68031854 16.7,5.27986348 L12.7,1.27531286 C12.6,1.17519909 12.5,1.07508532 12.4,1.07508532 C12.2,0.974971559 11.9,0.974971559 11.6,1.07508532 C11.5,1.17519909 11.4,1.17519909 11.3,1.27531286 L7.3,5.27986348 C6.9,5.68031854 6.9,6.28100114 7.3,6.6814562 C7.7,7.08191126 8.3,7.08191126 8.7,6.6814562 Z" id="path-17"></path>
        <path d="M21,11.9874858 L21,19.996587 C21,21.698521 19.7,23 18,23 L6,23 C4.3,23 3,21.698521 3,19.996587 L3,11.9874858 C3,11.3868032 3.4,10.9863481 4,10.9863481 C4.6,10.9863481 5,11.3868032 5,11.9874858 L5,19.996587 C5,20.5972696 5.4,20.9977247 6,20.9977247 L18,20.9977247 C18.6,20.9977247 19,20.5972696 19,19.996587 L19,11.9874858 C19,11.3868032 19.4,10.9863481 20,10.9863481 C20.6,10.9863481 21,11.3868032 21,11.9874858 Z M8.7,6.6814562 L11,4.37883959 L11,14.9908987 C11,15.5915813 11.4,15.9920364 12,15.9920364 C12.6,15.9920364 13,15.5915813 13,14.9908987 L13,4.37883959 L15.3,6.6814562 C15.5,6.88168373 15.7,6.9817975 16,6.9817975 C16.3,6.9817975 16.5,6.88168373 16.7,6.6814562 C17.1,6.28100114 17.1,5.68031854 16.7,5.27986348 L12.7,1.27531286 C12.6,1.17519909 12.5,1.07508532 12.4,1.07508532 C12.2,0.974971559 11.9,0.974971559 11.6,1.07508532 C11.5,1.17519909 11.4,1.17519909 11.3,1.27531286 L7.3,5.27986348 C6.9,5.68031854 6.9,6.28100114 7.3,6.6814562 C7.7,7.08191126 8.3,7.08191126 8.7,6.6814562 Z" id="path-19"></path>
        <path d="M21,11.9874858 L21,19.996587 C21,21.698521 19.7,23 18,23 L6,23 C4.3,23 3,21.698521 3,19.996587 L3,11.9874858 C3,11.3868032 3.4,10.9863481 4,10.9863481 C4.6,10.9863481 5,11.3868032 5,11.9874858 L5,19.996587 C5,20.5972696 5.4,20.9977247 6,20.9977247 L18,20.9977247 C18.6,20.9977247 19,20.5972696 19,19.996587 L19,11.9874858 C19,11.3868032 19.4,10.9863481 20,10.9863481 C20.6,10.9863481 21,11.3868032 21,11.9874858 Z M8.7,6.6814562 L11,4.37883959 L11,14.9908987 C11,15.5915813 11.4,15.9920364 12,15.9920364 C12.6,15.9920364 13,15.5915813 13,14.9908987 L13,4.37883959 L15.3,6.6814562 C15.5,6.88168373 15.7,6.9817975 16,6.9817975 C16.3,6.9817975 16.5,6.88168373 16.7,6.6814562 C17.1,6.28100114 17.1,5.68031854 16.7,5.27986348 L12.7,1.27531286 C12.6,1.17519909 12.5,1.07508532 12.4,1.07508532 C12.2,0.974971559 11.9,0.974971559 11.6,1.07508532 C11.5,1.17519909 11.4,1.17519909 11.3,1.27531286 L7.3,5.27986348 C6.9,5.68031854 6.9,6.28100114 7.3,6.6814562 C7.7,7.08191126 8.3,7.08191126 8.7,6.6814562 Z" id="path-21"></path>
        <path d="M21,11.9874858 L21,19.996587 C21,21.698521 19.7,23 18,23 L6,23 C4.3,23 3,21.698521 3,19.996587 L3,11.9874858 C3,11.3868032 3.4,10.9863481 4,10.9863481 C4.6,10.9863481 5,11.3868032 5,11.9874858 L5,19.996587 C5,20.5972696 5.4,20.9977247 6,20.9977247 L18,20.9977247 C18.6,20.9977247 19,20.5972696 19,19.996587 L19,11.9874858 C19,11.3868032 19.4,10.9863481 20,10.9863481 C20.6,10.9863481 21,11.3868032 21,11.9874858 Z M8.7,6.6814562 L11,4.37883959 L11,14.9908987 C11,15.5915813 11.4,15.9920364 12,15.9920364 C12.6,15.9920364 13,15.5915813 13,14.9908987 L13,4.37883959 L15.3,6.6814562 C15.5,6.88168373 15.7,6.9817975 16,6.9817975 C16.3,6.9817975 16.5,6.88168373 16.7,6.6814562 C17.1,6.28100114 17.1,5.68031854 16.7,5.27986348 L12.7,1.27531286 C12.6,1.17519909 12.5,1.07508532 12.4,1.07508532 C12.2,0.974971559 11.9,0.974971559 11.6,1.07508532 C11.5,1.17519909 11.4,1.17519909 11.3,1.27531286 L7.3,5.27986348 C6.9,5.68031854 6.9,6.28100114 7.3,6.6814562 C7.7,7.08191126 8.3,7.08191126 8.7,6.6814562 Z" id="path-23"></path>
        <path d="M21,11.9874858 L21,19.996587 C21,21.698521 19.7,23 18,23 L6,23 C4.3,23 3,21.698521 3,19.996587 L3,11.9874858 C3,11.3868032 3.4,10.9863481 4,10.9863481 C4.6,10.9863481 5,11.3868032 5,11.9874858 L5,19.996587 C5,20.5972696 5.4,20.9977247 6,20.9977247 L18,20.9977247 C18.6,20.9977247 19,20.5972696 19,19.996587 L19,11.9874858 C19,11.3868032 19.4,10.9863481 20,10.9863481 C20.6,10.9863481 21,11.3868032 21,11.9874858 Z M8.7,6.6814562 L11,4.37883959 L11,14.9908987 C11,15.5915813 11.4,15.9920364 12,15.9920364 C12.6,15.9920364 13,15.5915813 13,14.9908987 L13,4.37883959 L15.3,6.6814562 C15.5,6.88168373 15.7,6.9817975 16,6.9817975 C16.3,6.9817975 16.5,6.88168373 16.7,6.6814562 C17.1,6.28100114 17.1,5.68031854 16.7,5.27986348 L12.7,1.27531286 C12.6,1.17519909 12.5,1.07508532 12.4,1.07508532 C12.2,0.974971559 11.9,0.974971559 11.6,1.07508532 C11.5,1.17519909 11.4,1.17519909 11.3,1.27531286 L7.3,5.27986348 C6.9,5.68031854 6.9,6.28100114 7.3,6.6814562 C7.7,7.08191126 8.3,7.08191126 8.7,6.6814562 Z" id="path-25"></path>
        <path d="M21,11.9874858 L21,19.996587 C21,21.698521 19.7,23 18,23 L6,23 C4.3,23 3,21.698521 3,19.996587 L3,11.9874858 C3,11.3868032 3.4,10.9863481 4,10.9863481 C4.6,10.9863481 5,11.3868032 5,11.9874858 L5,19.996587 C5,20.5972696 5.4,20.9977247 6,20.9977247 L18,20.9977247 C18.6,20.9977247 19,20.5972696 19,19.996587 L19,11.9874858 C19,11.3868032 19.4,10.9863481 20,10.9863481 C20.6,10.9863481 21,11.3868032 21,11.9874858 Z M8.7,6.6814562 L11,4.37883959 L11,14.9908987 C11,15.5915813 11.4,15.9920364 12,15.9920364 C12.6,15.9920364 13,15.5915813 13,14.9908987 L13,4.37883959 L15.3,6.6814562 C15.5,6.88168373 15.7,6.9817975 16,6.9817975 C16.3,6.9817975 16.5,6.88168373 16.7,6.6814562 C17.1,6.28100114 17.1,5.68031854 16.7,5.27986348 L12.7,1.27531286 C12.6,1.17519909 12.5,1.07508532 12.4,1.07508532 C12.2,0.974971559 11.9,0.974971559 11.6,1.07508532 C11.5,1.17519909 11.4,1.17519909 11.3,1.27531286 L7.3,5.27986348 C6.9,5.68031854 6.9,6.28100114 7.3,6.6814562 C7.7,7.08191126 8.3,7.08191126 8.7,6.6814562 Z" id="path-27"></path>
        <path d="M21,11.9874858 L21,19.996587 C21,21.698521 19.7,23 18,23 L6,23 C4.3,23 3,21.698521 3,19.996587 L3,11.9874858 C3,11.3868032 3.4,10.9863481 4,10.9863481 C4.6,10.9863481 5,11.3868032 5,11.9874858 L5,19.996587 C5,20.5972696 5.4,20.9977247 6,20.9977247 L18,20.9977247 C18.6,20.9977247 19,20.5972696 19,19.996587 L19,11.9874858 C19,11.3868032 19.4,10.9863481 20,10.9863481 C20.6,10.9863481 21,11.3868032 21,11.9874858 Z M8.7,6.6814562 L11,4.37883959 L11,14.9908987 C11,15.5915813 11.4,15.9920364 12,15.9920364 C12.6,15.9920364 13,15.5915813 13,14.9908987 L13,4.37883959 L15.3,6.6814562 C15.5,6.88168373 15.7,6.9817975 16,6.9817975 C16.3,6.9817975 16.5,6.88168373 16.7,6.6814562 C17.1,6.28100114 17.1,5.68031854 16.7,5.27986348 L12.7,1.27531286 C12.6,1.17519909 12.5,1.07508532 12.4,1.07508532 C12.2,0.974971559 11.9,0.974971559 11.6,1.07508532 C11.5,1.17519909 11.4,1.17519909 11.3,1.27531286 L7.3,5.27986348 C6.9,5.68031854 6.9,6.28100114 7.3,6.6814562 C7.7,7.08191126 8.3,7.08191126 8.7,6.6814562 Z" id="path-29"></path>
        <path d="M21,11.9874858 L21,19.996587 C21,21.698521 19.7,23 18,23 L6,23 C4.3,23 3,21.698521 3,19.996587 L3,11.9874858 C3,11.3868032 3.4,10.9863481 4,10.9863481 C4.6,10.9863481 5,11.3868032 5,11.9874858 L5,19.996587 C5,20.5972696 5.4,20.9977247 6,20.9977247 L18,20.9977247 C18.6,20.9977247 19,20.5972696 19,19.996587 L19,11.9874858 C19,11.3868032 19.4,10.9863481 20,10.9863481 C20.6,10.9863481 21,11.3868032 21,11.9874858 Z M8.7,6.6814562 L11,4.37883959 L11,14.9908987 C11,15.5915813 11.4,15.9920364 12,15.9920364 C12.6,15.9920364 13,15.5915813 13,14.9908987 L13,4.37883959 L15.3,6.6814562 C15.5,6.88168373 15.7,6.9817975 16,6.9817975 C16.3,6.9817975 16.5,6.88168373 16.7,6.6814562 C17.1,6.28100114 17.1,5.68031854 16.7,5.27986348 L12.7,1.27531286 C12.6,1.17519909 12.5,1.07508532 12.4,1.07508532 C12.2,0.974971559 11.9,0.974971559 11.6,1.07508532 C11.5,1.17519909 11.4,1.17519909 11.3,1.27531286 L7.3,5.27986348 C6.9,5.68031854 6.9,6.28100114 7.3,6.6814562 C7.7,7.08191126 8.3,7.08191126 8.7,6.6814562 Z" id="path-31"></path>
        <path d="M21,11.9874858 L21,19.996587 C21,21.698521 19.7,23 18,23 L6,23 C4.3,23 3,21.698521 3,19.996587 L3,11.9874858 C3,11.3868032 3.4,10.9863481 4,10.9863481 C4.6,10.9863481 5,11.3868032 5,11.9874858 L5,19.996587 C5,20.5972696 5.4,20.9977247 6,20.9977247 L18,20.9977247 C18.6,20.9977247 19,20.5972696 19,19.996587 L19,11.9874858 C19,11.3868032 19.4,10.9863481 20,10.9863481 C20.6,10.9863481 21,11.3868032 21,11.9874858 Z M8.7,6.6814562 L11,4.37883959 L11,14.9908987 C11,15.5915813 11.4,15.9920364 12,15.9920364 C12.6,15.9920364 13,15.5915813 13,14.9908987 L13,4.37883959 L15.3,6.6814562 C15.5,6.88168373 15.7,6.9817975 16,6.9817975 C16.3,6.9817975 16.5,6.88168373 16.7,6.6814562 C17.1,6.28100114 17.1,5.68031854 16.7,5.27986348 L12.7,1.27531286 C12.6,1.17519909 12.5,1.07508532 12.4,1.07508532 C12.2,0.974971559 11.9,0.974971559 11.6,1.07508532 C11.5,1.17519909 11.4,1.17519909 11.3,1.27531286 L7.3,5.27986348 C6.9,5.68031854 6.9,6.28100114 7.3,6.6814562 C7.7,7.08191126 8.3,7.08191126 8.7,6.6814562 Z" id="path-33"></path>
        <path d="M21,11.9874858 L21,19.996587 C21,21.698521 19.7,23 18,23 L6,23 C4.3,23 3,21.698521 3,19.996587 L3,11.9874858 C3,11.3868032 3.4,10.9863481 4,10.9863481 C4.6,10.9863481 5,11.3868032 5,11.9874858 L5,19.996587 C5,20.5972696 5.4,20.9977247 6,20.9977247 L18,20.9977247 C18.6,20.9977247 19,20.5972696 19,19.996587 L19,11.9874858 C19,11.3868032 19.4,10.9863481 20,10.9863481 C20.6,10.9863481 21,11.3868032 21,11.9874858 Z M8.7,6.6814562 L11,4.37883959 L11,14.9908987 C11,15.5915813 11.4,15.9920364 12,15.9920364 C12.6,15.9920364 13,15.5915813 13,14.9908987 L13,4.37883959 L15.3,6.6814562 C15.5,6.88168373 15.7,6.9817975 16,6.9817975 C16.3,6.9817975 16.5,6.88168373 16.7,6.6814562 C17.1,6.28100114 17.1,5.68031854 16.7,5.27986348 L12.7,1.27531286 C12.6,1.17519909 12.5,1.07508532 12.4,1.07508532 C12.2,0.974971559 11.9,0.974971559 11.6,1.07508532 C11.5,1.17519909 11.4,1.17519909 11.3,1.27531286 L7.3,5.27986348 C6.9,5.68031854 6.9,6.28100114 7.3,6.6814562 C7.7,7.08191126 8.3,7.08191126 8.7,6.6814562 Z" id="path-35"></path>
        <path d="M21,11.9874858 L21,19.996587 C21,21.698521 19.7,23 18,23 L6,23 C4.3,23 3,21.698521 3,19.996587 L3,11.9874858 C3,11.3868032 3.4,10.9863481 4,10.9863481 C4.6,10.9863481 5,11.3868032 5,11.9874858 L5,19.996587 C5,20.5972696 5.4,20.9977247 6,20.9977247 L18,20.9977247 C18.6,20.9977247 19,20.5972696 19,19.996587 L19,11.9874858 C19,11.3868032 19.4,10.9863481 20,10.9863481 C20.6,10.9863481 21,11.3868032 21,11.9874858 Z M8.7,6.6814562 L11,4.37883959 L11,14.9908987 C11,15.5915813 11.4,15.9920364 12,15.9920364 C12.6,15.9920364 13,15.5915813 13,14.9908987 L13,4.37883959 L15.3,6.6814562 C15.5,6.88168373 15.7,6.9817975 16,6.9817975 C16.3,6.9817975 16.5,6.88168373 16.7,6.6814562 C17.1,6.28100114 17.1,5.68031854 16.7,5.27986348 L12.7,1.27531286 C12.6,1.17519909 12.5,1.07508532 12.4,1.07508532 C12.2,0.974971559 11.9,0.974971559 11.6,1.07508532 C11.5,1.17519909 11.4,1.17519909 11.3,1.27531286 L7.3,5.27986348 C6.9,5.68031854 6.9,6.28100114 7.3,6.6814562 C7.7,7.08191126 8.3,7.08191126 8.7,6.6814562 Z" id="path-37"></path>
        <path d="M21,11.9874858 L21,19.996587 C21,21.698521 19.7,23 18,23 L6,23 C4.3,23 3,21.698521 3,19.996587 L3,11.9874858 C3,11.3868032 3.4,10.9863481 4,10.9863481 C4.6,10.9863481 5,11.3868032 5,11.9874858 L5,19.996587 C5,20.5972696 5.4,20.9977247 6,20.9977247 L18,20.9977247 C18.6,20.9977247 19,20.5972696 19,19.996587 L19,11.9874858 C19,11.3868032 19.4,10.9863481 20,10.9863481 C20.6,10.9863481 21,11.3868032 21,11.9874858 Z M8.7,6.6814562 L11,4.37883959 L11,14.9908987 C11,15.5915813 11.4,15.9920364 12,15.9920364 C12.6,15.9920364 13,15.5915813 13,14.9908987 L13,4.37883959 L15.3,6.6814562 C15.5,6.88168373 15.7,6.9817975 16,6.9817975 C16.3,6.9817975 16.5,6.88168373 16.7,6.6814562 C17.1,6.28100114 17.1,5.68031854 16.7,5.27986348 L12.7,1.27531286 C12.6,1.17519909 12.5,1.07508532 12.4,1.07508532 C12.2,0.974971559 11.9,0.974971559 11.6,1.07508532 C11.5,1.17519909 11.4,1.17519909 11.3,1.27531286 L7.3,5.27986348 C6.9,5.68031854 6.9,6.28100114 7.3,6.6814562 C7.7,7.08191126 8.3,7.08191126 8.7,6.6814562 Z" id="path-39"></path>
        <path d="M21,11.9874858 L21,19.996587 C21,21.698521 19.7,23 18,23 L6,23 C4.3,23 3,21.698521 3,19.996587 L3,11.9874858 C3,11.3868032 3.4,10.9863481 4,10.9863481 C4.6,10.9863481 5,11.3868032 5,11.9874858 L5,19.996587 C5,20.5972696 5.4,20.9977247 6,20.9977247 L18,20.9977247 C18.6,20.9977247 19,20.5972696 19,19.996587 L19,11.9874858 C19,11.3868032 19.4,10.9863481 20,10.9863481 C20.6,10.9863481 21,11.3868032 21,11.9874858 Z M8.7,6.6814562 L11,4.37883959 L11,14.9908987 C11,15.5915813 11.4,15.9920364 12,15.9920364 C12.6,15.9920364 13,15.5915813 13,14.9908987 L13,4.37883959 L15.3,6.6814562 C15.5,6.88168373 15.7,6.9817975 16,6.9817975 C16.3,6.9817975 16.5,6.88168373 16.7,6.6814562 C17.1,6.28100114 17.1,5.68031854 16.7,5.27986348 L12.7,1.27531286 C12.6,1.17519909 12.5,1.07508532 12.4,1.07508532 C12.2,0.974971559 11.9,0.974971559 11.6,1.07508532 C11.5,1.17519909 11.4,1.17519909 11.3,1.27531286 L7.3,5.27986348 C6.9,5.68031854 6.9,6.28100114 7.3,6.6814562 C7.7,7.08191126 8.3,7.08191126 8.7,6.6814562 Z" id="path-41"></path>
    </defs>
    <g id="Website" stroke="none" stroke-width="1" fill="none" fill-rule="evenodd">
        <g id="Desktop" transform="translate(-19.000000, -5046.000000)">
            <g id="Verkündiger" transform="translate(0.000000, 5045.000000)">
                <g id="Icon-Pattern" transform="translate(16.000000, 0.000000)">
                    <g id="icon-/-share" transform="translate(0.000000, 40.000000)">
                        <mask id="mask-2" fill="white">
                            <use xlink:href="#path-1"></use>
                        </mask>
                        <use id="Mask" fill="#000000" fill-rule="nonzero" xlink:href="#path-1"></use>
                        <g id="Colors/Monochrome/gray--2" mask="url(#mask-2)" fill="#313233" fill-rule="evenodd">
                            <rect id="Rectangle" x="0" y="0" width="24" height="24"></rect>
                        </g>
                    </g>
                    <g id="icon-/-share" opacity="0.75" transform="translate(64.000000, 80.000000)">
                        <mask id="mask-4" fill="white">
                            <use xlink:href="#path-3"></use>
                        </mask>
                        <use id="Mask" fill="#000000" fill-rule="nonzero" xlink:href="#path-3"></use>
                        <g id="Colors/Monochrome/gray--2" mask="url(#mask-4)" fill="#313233" fill-rule="evenodd">
                            <rect id="Rectangle" x="0" y="0" width="24" height="24"></rect>
                        </g>
                    </g>
                    <g id="icon-/-share" opacity="0.25" transform="translate(192.000000, 80.000000)">
                        <mask id="mask-6" fill="white">
                            <use xlink:href="#path-5"></use>
                        </mask>
                        <use id="Mask" fill="#000000" fill-rule="nonzero" xlink:href="#path-5"></use>
                        <g id="Colors/Monochrome/gray--2" mask="url(#mask-6)" fill="#313233" fill-rule="evenodd">
                            <rect id="Rectangle" x="0" y="0" width="24" height="24"></rect>
                        </g>
                    </g>
                    <g id="icon-/-share" opacity="0.75" transform="translate(64.000000, 0.000000)">
                        <mask id="mask-8" fill="white">
                            <use xlink:href="#path-7"></use>
                        </mask>
                        <use id="Mask" fill="#000000" fill-rule="nonzero" xlink:href="#path-7"></use>
                        <g id="Colors/Monochrome/gray--2" mask="url(#mask-8)" fill="#313233" fill-rule="evenodd">
                            <rect id="Rectangle" x="0" y="0" width="24" height="24"></rect>
                        </g>
                    </g>
                    <g id="icon-/-share" opacity="0.5" transform="translate(128.000000, 120.000000)">
                        <mask id="mask-10" fill="white">
                            <use xlink:href="#path-9"></use>
                        </mask>
                        <use id="Mask" fill="#000000" fill-rule="nonzero" xlink:href="#path-9"></use>
                        <g id="Colors/Monochrome/gray--2" mask="url(#mask-10)" fill="#313233" fill-rule="evenodd">
                            <rect id="Rectangle" x="0" y="0" width="24" height="24"></rect>
                        </g>
                    </g>
                    <g id="icon-/-share" transform="translate(0.000000, 120.000000)">
                        <mask id="mask-12" fill="white">
                            <use xlink:href="#path-11"></use>
                        </mask>
                        <use id="Mask" fill="#000000" fill-rule="nonzero" xlink:href="#path-11"></use>
                        <g id="Colors/Monochrome/gray--2" mask="url(#mask-12)" fill="#313233" fill-rule="evenodd">
                            <rect id="Rectangle" x="0" y="0" width="24" height="24"></rect>
                        </g>
                    </g>
                    <g id="icon-/-share" opacity="0.75" transform="translate(64.000000, 160.000000)">
                        <mask id="mask-14" fill="white">
                            <use xlink:href="#path-13"></use>
                        </mask>
                        <use id="Mask" fill="#000000" fill-rule="nonzero" xlink:href="#path-13"></use>
                        <g id="Colors/Monochrome/gray--2" mask="url(#mask-14)" fill="#313233" fill-rule="evenodd">
                            <rect id="Rectangle" x="0" y="0" width="24" height="24"></rect>
                        </g>
                    </g>
                    <g id="icon-/-share" opacity="0.25" transform="translate(192.000000, 160.000000)">
                        <mask id="mask-16" fill="white">
                            <use xlink:href="#path-15"></use>
                        </mask>
                        <use id="Mask" fill="#000000" fill-rule="nonzero" xlink:href="#path-15"></use>
                        <g id="Colors/Monochrome/gray--2" mask="url(#mask-16)" fill="#313233" fill-rule="evenodd">
                            <rect id="Rectangle" x="0" y="0" width="24" height="24"></rect>
                        </g>
                    </g>
                    <g id="icon-/-share" opacity="0.5" transform="translate(128.000000, 200.000000)">
                        <mask id="mask-18" fill="white">
                            <use xlink:href="#path-17"></use>
                        </mask>
                        <use id="Mask" fill="#000000" fill-rule="nonzero" xlink:href="#path-17"></use>
                        <g id="Colors/Monochrome/gray--2" mask="url(#mask-18)" fill="#313233" fill-rule="evenodd">
                            <rect id="Rectangle" x="0" y="0" width="24" height="24"></rect>
                        </g>
                    </g>
                    <g id="icon-/-share" transform="translate(0.000000, 200.000000)">
                        <mask id="mask-20" fill="white">
                            <use xlink:href="#path-19"></use>
                        </mask>
                        <use id="Mask" fill="#000000" fill-rule="nonzero" xlink:href="#path-19"></use>
                        <g id="Colors/Monochrome/gray--2" mask="url(#mask-20)" fill="#313233" fill-rule="evenodd">
                            <rect id="Rectangle" x="0" y="0" width="24" height="24"></rect>
                        </g>
                    </g>
                    <g id="icon-/-share" opacity="0.75" transform="translate(64.000000, 240.000000)">
                        <mask id="mask-22" fill="white">
                            <use xlink:href="#path-21"></use>
                        </mask>
                        <use id="Mask" fill="#000000" fill-rule="nonzero" xlink:href="#path-21"></use>
                        <g id="Colors/Monochrome/gray--2" mask="url(#mask-22)" fill="#313233" fill-rule="evenodd">
                            <rect id="Rectangle" x="0" y="0" width="24" height="24"></rect>
                        </g>
                    </g>
                    <g id="icon-/-share" opacity="0.25" transform="translate(192.000000, 240.000000)">
                        <mask id="mask-24" fill="white">
                            <use xlink:href="#path-23"></use>
                        </mask>
                        <use id="Mask" fill="#000000" fill-rule="nonzero" xlink:href="#path-23"></use>
                        <g id="Colors/Monochrome/gray--2" mask="url(#mask-24)" fill="#313233" fill-rule="evenodd">
                            <rect id="Rectangle" x="0" y="0" width="24" height="24"></rect>
                        </g>
                    </g>
                    <g id="icon-/-share" opacity="0.5" transform="translate(128.000000, 280.000000)">
                        <mask id="mask-26" fill="white">
                            <use xlink:href="#path-25"></use>
                        </mask>
                        <use id="Mask" fill="#000000" fill-rule="nonzero" xlink:href="#path-25"></use>
                        <g id="Colors/Monochrome/gray--2" mask="url(#mask-26)" fill="#313233" fill-rule="evenodd">
                            <rect id="Rectangle" x="0" y="0" width="24" height="24"></rect>
                        </g>
                    </g>
                    <g id="icon-/-share" transform="translate(0.000000, 280.000000)">
                        <mask id="mask-28" fill="white">
                            <use xlink:href="#path-27"></use>
                        </mask>
                        <use id="Mask" fill="#000000" fill-rule="nonzero" xlink:href="#path-27"></use>
                        <g id="Colors/Monochrome/gray--2" mask="url(#mask-28)" fill="#313233" fill-rule="evenodd">
                            <rect id="Rectangle" x="0" y="0" width="24" height="24"></rect>
                        </g>
                    </g>
                    <g id="icon-/-share" opacity="0.75" transform="translate(64.000000, 320.000000)">
                        <mask id="mask-30" fill="white">
                            <use xlink:href="#path-29"></use>
                        </mask>
                        <use id="Mask" fill="#000000" fill-rule="nonzero" xlink:href="#path-29"></use>
                        <g id="Colors/Monochrome/gray--2" mask="url(#mask-30)" fill="#313233" fill-rule="evenodd">
                            <rect id="Rectangle" x="0" y="0" width="24" height="24"></rect>
                        </g>
                    </g>
                    <g id="icon-/-share" opacity="0.25" transform="translate(192.000000, 320.000000)">
                        <mask id="mask-32" fill="white">
                            <use xlink:href="#path-31"></use>
                        </mask>
                        <use id="Mask" fill="#000000" fill-rule="nonzero" xlink:href="#path-31"></use>
                        <g id="Colors/Monochrome/gray--2" mask="url(#mask-32)" fill="#313233" fill-rule="evenodd">
                            <rect id="Rectangle" x="0" y="0" width="24" height="24"></rect>
                        </g>
                    </g>
                    <g id="icon-/-share" opacity="0.5" transform="translate(128.000000, 360.000000)">
                        <mask id="mask-34" fill="white">
                            <use xlink:href="#path-33"></use>
                        </mask>
                        <use id="Mask" fill="#000000" fill-rule="nonzero" xlink:href="#path-33"></use>
                        <g id="Colors/Monochrome/gray--2" mask="url(#mask-34)" fill="#313233" fill-rule="evenodd">
                            <rect id="Rectangle" x="0" y="0" width="24" height="24"></rect>
                        </g>
                    </g>
                    <g id="icon-/-share" opacity="0.5" transform="translate(128.000000, 440.000000)">
                        <mask id="mask-36" fill="white">
                            <use xlink:href="#path-35"></use>
                        </mask>
                        <use id="Mask" fill="#000000" fill-rule="nonzero" xlink:href="#path-35"></use>
                        <g id="Colors/Monochrome/gray--2" mask="url(#mask-36)" fill="#313233" fill-rule="evenodd">
                            <rect id="Rectangle" x="0" y="0" width="24" height="24"></rect>
                        </g>
                    </g>
                    <g id="icon-/-share" transform="translate(0.000000, 360.000000)">
                        <mask id="mask-38" fill="white">
                            <use xlink:href="#path-37"></use>
                        </mask>
                        <use id="Mask" fill="#000000" fill-rule="nonzero" xlink:href="#path-37"></use>
                        <g id="Colors/Monochrome/gray--2" mask="url(#mask-38)" fill="#313233" fill-rule="evenodd">
                            <rect id="Rectangle" x="0" y="0" width="24" height="24"></rect>
                        </g>
                    </g>
                    <g id="icon-/-share" opacity="0.75" transform="translate(64.000000, 400.000000)">
                        <mask id="mask-40" fill="white">
                            <use xlink:href="#path-39"></use>
                        </mask>
                        <use id="Mask" fill="#000000" fill-rule="nonzero" xlink:href="#path-39"></use>
                        <g id="Colors/Monochrome/gray--2" mask="url(#mask-40)" fill="#313233" fill-rule="evenodd">
                            <rect id="Rectangle" x="0" y="0" width="24" height="24"></rect>
                        </g>
                    </g>
                    <g id="icon-/-share" transform="translate(0.000000, 440.000000)">
                        <mask id="mask-42" fill="white">
                            <use xlink:href="#path-41"></use>
                        </mask>
                        <use id="Mask" fill="#000000" fill-rule="nonzero" xlink:href="#path-41"></use>
                        <g id="Colors/Monochrome/gray--2" mask="url(#mask-42)" fill="#313233" fill-rule="evenodd">
                            <rect id="Rectangle" x="0" y="0" width="24" height="24"></rect>
                        </g>
                    </g>
                </g>
            </g>
        </g>
    </g>
</svg>