<?xml version="1.0" encoding="UTF-8"?>
<svg width="213px" height="461px" viewBox="0 0 213 461" version="1.1" xmlns="http://www.w3.org/2000/svg" xmlns:xlink="http://www.w3.org/1999/xlink">
    <!-- Generator: Sketch 54.1 (76490) - https://sketchapp.com -->
    <title>Icon Pattern</title>
    <desc>Created with Sketch.</desc>
    <defs>
        <path d="M22.1084906,10.8160377 L13.5896226,2.29716981 C13.3915094,2.0990566 13.1933962,2 12.8962264,2 L2.99056604,2 C2.39622642,2 2,2.39622642 2,2.99056604 L2,12.8962264 C2,13.1933962 2.0990566,13.3915094 2.29716981,13.5896226 L10.8160377,22.1084906 C11.4103774,22.7028302 12.1037736,23 12.8962264,23 C12.8962264,23 12.8962264,23 12.8962264,23 C13.6886792,23 14.4811321,22.7028302 14.9764151,22.1084906 L22.1084906,14.9764151 C22.1084906,14.9764151 22.1084906,14.9764151 22.1084906,14.9764151 C23.2971698,13.7877358 23.2971698,12.004717 22.1084906,10.8160377 Z M20.7216981,13.5896226 L13.5896226,20.7216981 C13.1933962,21.1179245 12.5990566,21.1179245 12.2028302,20.7216981 L3.98113208,12.5 L3.98113208,3.98113208 L12.5,3.98113208 L20.7216981,12.2028302 C21.1179245,12.5990566 21.1179245,13.1933962 20.7216981,13.5896226 Z M8.63679245,7.25 C8.83490566,7.44811321 8.93396226,7.64622642 8.93396226,7.94339623 C8.93396226,8.24056604 8.83490566,8.43867925 8.63679245,8.63679245 C8.43867925,8.83490566 8.24056604,8.93396226 7.94339623,8.93396226 C7.64622642,8.93396226 7.44811321,8.83490566 7.25,8.63679245 C7.1509434,8.53773585 7.05188679,8.43867925 7.05188679,8.33962264 C6.95283019,8.24056604 6.95283019,8.04245283 6.95283019,7.94339623 C6.95283019,7.64622642 7.05188679,7.44811321 7.25,7.25 C7.54716981,6.95283019 7.94339623,6.85377358 8.33962264,7.05188679 C8.43867925,7.05188679 8.53773585,7.1509434 8.63679245,7.25 Z" id="path-1"></path>
        <path d="M22.1084906,10.8160377 L13.5896226,2.29716981 C13.3915094,2.0990566 13.1933962,2 12.8962264,2 L2.99056604,2 C2.39622642,2 2,2.39622642 2,2.99056604 L2,12.8962264 C2,13.1933962 2.0990566,13.3915094 2.29716981,13.5896226 L10.8160377,22.1084906 C11.4103774,22.7028302 12.1037736,23 12.8962264,23 C12.8962264,23 12.8962264,23 12.8962264,23 C13.6886792,23 14.4811321,22.7028302 14.9764151,22.1084906 L22.1084906,14.9764151 C22.1084906,14.9764151 22.1084906,14.9764151 22.1084906,14.9764151 C23.2971698,13.7877358 23.2971698,12.004717 22.1084906,10.8160377 Z M20.7216981,13.5896226 L13.5896226,20.7216981 C13.1933962,21.1179245 12.5990566,21.1179245 12.2028302,20.7216981 L3.98113208,12.5 L3.98113208,3.98113208 L12.5,3.98113208 L20.7216981,12.2028302 C21.1179245,12.5990566 21.1179245,13.1933962 20.7216981,13.5896226 Z M8.63679245,7.25 C8.83490566,7.44811321 8.93396226,7.64622642 8.93396226,7.94339623 C8.93396226,8.24056604 8.83490566,8.43867925 8.63679245,8.63679245 C8.43867925,8.83490566 8.24056604,8.93396226 7.94339623,8.93396226 C7.64622642,8.93396226 7.44811321,8.83490566 7.25,8.63679245 C7.1509434,8.53773585 7.05188679,8.43867925 7.05188679,8.33962264 C6.95283019,8.24056604 6.95283019,8.04245283 6.95283019,7.94339623 C6.95283019,7.64622642 7.05188679,7.44811321 7.25,7.25 C7.54716981,6.95283019 7.94339623,6.85377358 8.33962264,7.05188679 C8.43867925,7.05188679 8.53773585,7.1509434 8.63679245,7.25 Z" id="path-3"></path>
        <path d="M22.1084906,10.8160377 L13.5896226,2.29716981 C13.3915094,2.0990566 13.1933962,2 12.8962264,2 L2.99056604,2 C2.39622642,2 2,2.39622642 2,2.99056604 L2,12.8962264 C2,13.1933962 2.0990566,13.3915094 2.29716981,13.5896226 L10.8160377,22.1084906 C11.4103774,22.7028302 12.1037736,23 12.8962264,23 C12.8962264,23 12.8962264,23 12.8962264,23 C13.6886792,23 14.4811321,22.7028302 14.9764151,22.1084906 L22.1084906,14.9764151 C22.1084906,14.9764151 22.1084906,14.9764151 22.1084906,14.9764151 C23.2971698,13.7877358 23.2971698,12.004717 22.1084906,10.8160377 Z M20.7216981,13.5896226 L13.5896226,20.7216981 C13.1933962,21.1179245 12.5990566,21.1179245 12.2028302,20.7216981 L3.98113208,12.5 L3.98113208,3.98113208 L12.5,3.98113208 L20.7216981,12.2028302 C21.1179245,12.5990566 21.1179245,13.1933962 20.7216981,13.5896226 Z M8.63679245,7.25 C8.83490566,7.44811321 8.93396226,7.64622642 8.93396226,7.94339623 C8.93396226,8.24056604 8.83490566,8.43867925 8.63679245,8.63679245 C8.43867925,8.83490566 8.24056604,8.93396226 7.94339623,8.93396226 C7.64622642,8.93396226 7.44811321,8.83490566 7.25,8.63679245 C7.1509434,8.53773585 7.05188679,8.43867925 7.05188679,8.33962264 C6.95283019,8.24056604 6.95283019,8.04245283 6.95283019,7.94339623 C6.95283019,7.64622642 7.05188679,7.44811321 7.25,7.25 C7.54716981,6.95283019 7.94339623,6.85377358 8.33962264,7.05188679 C8.43867925,7.05188679 8.53773585,7.1509434 8.63679245,7.25 Z" id="path-5"></path>
        <path d="M22.1084906,10.8160377 L13.5896226,2.29716981 C13.3915094,2.0990566 13.1933962,2 12.8962264,2 L2.99056604,2 C2.39622642,2 2,2.39622642 2,2.99056604 L2,12.8962264 C2,13.1933962 2.0990566,13.3915094 2.29716981,13.5896226 L10.8160377,22.1084906 C11.4103774,22.7028302 12.1037736,23 12.8962264,23 C12.8962264,23 12.8962264,23 12.8962264,23 C13.6886792,23 14.4811321,22.7028302 14.9764151,22.1084906 L22.1084906,14.9764151 C22.1084906,14.9764151 22.1084906,14.9764151 22.1084906,14.9764151 C23.2971698,13.7877358 23.2971698,12.004717 22.1084906,10.8160377 Z M20.7216981,13.5896226 L13.5896226,20.7216981 C13.1933962,21.1179245 12.5990566,21.1179245 12.2028302,20.7216981 L3.98113208,12.5 L3.98113208,3.98113208 L12.5,3.98113208 L20.7216981,12.2028302 C21.1179245,12.5990566 21.1179245,13.1933962 20.7216981,13.5896226 Z M8.63679245,7.25 C8.83490566,7.44811321 8.93396226,7.64622642 8.93396226,7.94339623 C8.93396226,8.24056604 8.83490566,8.43867925 8.63679245,8.63679245 C8.43867925,8.83490566 8.24056604,8.93396226 7.94339623,8.93396226 C7.64622642,8.93396226 7.44811321,8.83490566 7.25,8.63679245 C7.1509434,8.53773585 7.05188679,8.43867925 7.05188679,8.33962264 C6.95283019,8.24056604 6.95283019,8.04245283 6.95283019,7.94339623 C6.95283019,7.64622642 7.05188679,7.44811321 7.25,7.25 C7.54716981,6.95283019 7.94339623,6.85377358 8.33962264,7.05188679 C8.43867925,7.05188679 8.53773585,7.1509434 8.63679245,7.25 Z" id="path-7"></path>
        <path d="M22.1084906,10.8160377 L13.5896226,2.29716981 C13.3915094,2.0990566 13.1933962,2 12.8962264,2 L2.99056604,2 C2.39622642,2 2,2.39622642 2,2.99056604 L2,12.8962264 C2,13.1933962 2.0990566,13.3915094 2.29716981,13.5896226 L10.8160377,22.1084906 C11.4103774,22.7028302 12.1037736,23 12.8962264,23 C12.8962264,23 12.8962264,23 12.8962264,23 C13.6886792,23 14.4811321,22.7028302 14.9764151,22.1084906 L22.1084906,14.9764151 C22.1084906,14.9764151 22.1084906,14.9764151 22.1084906,14.9764151 C23.2971698,13.7877358 23.2971698,12.004717 22.1084906,10.8160377 Z M20.7216981,13.5896226 L13.5896226,20.7216981 C13.1933962,21.1179245 12.5990566,21.1179245 12.2028302,20.7216981 L3.98113208,12.5 L3.98113208,3.98113208 L12.5,3.98113208 L20.7216981,12.2028302 C21.1179245,12.5990566 21.1179245,13.1933962 20.7216981,13.5896226 Z M8.63679245,7.25 C8.83490566,7.44811321 8.93396226,7.64622642 8.93396226,7.94339623 C8.93396226,8.24056604 8.83490566,8.43867925 8.63679245,8.63679245 C8.43867925,8.83490566 8.24056604,8.93396226 7.94339623,8.93396226 C7.64622642,8.93396226 7.44811321,8.83490566 7.25,8.63679245 C7.1509434,8.53773585 7.05188679,8.43867925 7.05188679,8.33962264 C6.95283019,8.24056604 6.95283019,8.04245283 6.95283019,7.94339623 C6.95283019,7.64622642 7.05188679,7.44811321 7.25,7.25 C7.54716981,6.95283019 7.94339623,6.85377358 8.33962264,7.05188679 C8.43867925,7.05188679 8.53773585,7.1509434 8.63679245,7.25 Z" id="path-9"></path>
        <path d="M22.1084906,10.8160377 L13.5896226,2.29716981 C13.3915094,2.0990566 13.1933962,2 12.8962264,2 L2.99056604,2 C2.39622642,2 2,2.39622642 2,2.99056604 L2,12.8962264 C2,13.1933962 2.0990566,13.3915094 2.29716981,13.5896226 L10.8160377,22.1084906 C11.4103774,22.7028302 12.1037736,23 12.8962264,23 C12.8962264,23 12.8962264,23 12.8962264,23 C13.6886792,23 14.4811321,22.7028302 14.9764151,22.1084906 L22.1084906,14.9764151 C22.1084906,14.9764151 22.1084906,14.9764151 22.1084906,14.9764151 C23.2971698,13.7877358 23.2971698,12.004717 22.1084906,10.8160377 Z M20.7216981,13.5896226 L13.5896226,20.7216981 C13.1933962,21.1179245 12.5990566,21.1179245 12.2028302,20.7216981 L3.98113208,12.5 L3.98113208,3.98113208 L12.5,3.98113208 L20.7216981,12.2028302 C21.1179245,12.5990566 21.1179245,13.1933962 20.7216981,13.5896226 Z M8.63679245,7.25 C8.83490566,7.44811321 8.93396226,7.64622642 8.93396226,7.94339623 C8.93396226,8.24056604 8.83490566,8.43867925 8.63679245,8.63679245 C8.43867925,8.83490566 8.24056604,8.93396226 7.94339623,8.93396226 C7.64622642,8.93396226 7.44811321,8.83490566 7.25,8.63679245 C7.1509434,8.53773585 7.05188679,8.43867925 7.05188679,8.33962264 C6.95283019,8.24056604 6.95283019,8.04245283 6.95283019,7.94339623 C6.95283019,7.64622642 7.05188679,7.44811321 7.25,7.25 C7.54716981,6.95283019 7.94339623,6.85377358 8.33962264,7.05188679 C8.43867925,7.05188679 8.53773585,7.1509434 8.63679245,7.25 Z" id="path-11"></path>
        <path d="M22.1084906,10.8160377 L13.5896226,2.29716981 C13.3915094,2.0990566 13.1933962,2 12.8962264,2 L2.99056604,2 C2.39622642,2 2,2.39622642 2,2.99056604 L2,12.8962264 C2,13.1933962 2.0990566,13.3915094 2.29716981,13.5896226 L10.8160377,22.1084906 C11.4103774,22.7028302 12.1037736,23 12.8962264,23 C12.8962264,23 12.8962264,23 12.8962264,23 C13.6886792,23 14.4811321,22.7028302 14.9764151,22.1084906 L22.1084906,14.9764151 C22.1084906,14.9764151 22.1084906,14.9764151 22.1084906,14.9764151 C23.2971698,13.7877358 23.2971698,12.004717 22.1084906,10.8160377 Z M20.7216981,13.5896226 L13.5896226,20.7216981 C13.1933962,21.1179245 12.5990566,21.1179245 12.2028302,20.7216981 L3.98113208,12.5 L3.98113208,3.98113208 L12.5,3.98113208 L20.7216981,12.2028302 C21.1179245,12.5990566 21.1179245,13.1933962 20.7216981,13.5896226 Z M8.63679245,7.25 C8.83490566,7.44811321 8.93396226,7.64622642 8.93396226,7.94339623 C8.93396226,8.24056604 8.83490566,8.43867925 8.63679245,8.63679245 C8.43867925,8.83490566 8.24056604,8.93396226 7.94339623,8.93396226 C7.64622642,8.93396226 7.44811321,8.83490566 7.25,8.63679245 C7.1509434,8.53773585 7.05188679,8.43867925 7.05188679,8.33962264 C6.95283019,8.24056604 6.95283019,8.04245283 6.95283019,7.94339623 C6.95283019,7.64622642 7.05188679,7.44811321 7.25,7.25 C7.54716981,6.95283019 7.94339623,6.85377358 8.33962264,7.05188679 C8.43867925,7.05188679 8.53773585,7.1509434 8.63679245,7.25 Z" id="path-13"></path>
        <path d="M22.1084906,10.8160377 L13.5896226,2.29716981 C13.3915094,2.0990566 13.1933962,2 12.8962264,2 L2.99056604,2 C2.39622642,2 2,2.39622642 2,2.99056604 L2,12.8962264 C2,13.1933962 2.0990566,13.3915094 2.29716981,13.5896226 L10.8160377,22.1084906 C11.4103774,22.7028302 12.1037736,23 12.8962264,23 C12.8962264,23 12.8962264,23 12.8962264,23 C13.6886792,23 14.4811321,22.7028302 14.9764151,22.1084906 L22.1084906,14.9764151 C22.1084906,14.9764151 22.1084906,14.9764151 22.1084906,14.9764151 C23.2971698,13.7877358 23.2971698,12.004717 22.1084906,10.8160377 Z M20.7216981,13.5896226 L13.5896226,20.7216981 C13.1933962,21.1179245 12.5990566,21.1179245 12.2028302,20.7216981 L3.98113208,12.5 L3.98113208,3.98113208 L12.5,3.98113208 L20.7216981,12.2028302 C21.1179245,12.5990566 21.1179245,13.1933962 20.7216981,13.5896226 Z M8.63679245,7.25 C8.83490566,7.44811321 8.93396226,7.64622642 8.93396226,7.94339623 C8.93396226,8.24056604 8.83490566,8.43867925 8.63679245,8.63679245 C8.43867925,8.83490566 8.24056604,8.93396226 7.94339623,8.93396226 C7.64622642,8.93396226 7.44811321,8.83490566 7.25,8.63679245 C7.1509434,8.53773585 7.05188679,8.43867925 7.05188679,8.33962264 C6.95283019,8.24056604 6.95283019,8.04245283 6.95283019,7.94339623 C6.95283019,7.64622642 7.05188679,7.44811321 7.25,7.25 C7.54716981,6.95283019 7.94339623,6.85377358 8.33962264,7.05188679 C8.43867925,7.05188679 8.53773585,7.1509434 8.63679245,7.25 Z" id="path-15"></path>
        <path d="M22.1084906,10.8160377 L13.5896226,2.29716981 C13.3915094,2.0990566 13.1933962,2 12.8962264,2 L2.99056604,2 C2.39622642,2 2,2.39622642 2,2.99056604 L2,12.8962264 C2,13.1933962 2.0990566,13.3915094 2.29716981,13.5896226 L10.8160377,22.1084906 C11.4103774,22.7028302 12.1037736,23 12.8962264,23 C12.8962264,23 12.8962264,23 12.8962264,23 C13.6886792,23 14.4811321,22.7028302 14.9764151,22.1084906 L22.1084906,14.9764151 C22.1084906,14.9764151 22.1084906,14.9764151 22.1084906,14.9764151 C23.2971698,13.7877358 23.2971698,12.004717 22.1084906,10.8160377 Z M20.7216981,13.5896226 L13.5896226,20.7216981 C13.1933962,21.1179245 12.5990566,21.1179245 12.2028302,20.7216981 L3.98113208,12.5 L3.98113208,3.98113208 L12.5,3.98113208 L20.7216981,12.2028302 C21.1179245,12.5990566 21.1179245,13.1933962 20.7216981,13.5896226 Z M8.63679245,7.25 C8.83490566,7.44811321 8.93396226,7.64622642 8.93396226,7.94339623 C8.93396226,8.24056604 8.83490566,8.43867925 8.63679245,8.63679245 C8.43867925,8.83490566 8.24056604,8.93396226 7.94339623,8.93396226 C7.64622642,8.93396226 7.44811321,8.83490566 7.25,8.63679245 C7.1509434,8.53773585 7.05188679,8.43867925 7.05188679,8.33962264 C6.95283019,8.24056604 6.95283019,8.04245283 6.95283019,7.94339623 C6.95283019,7.64622642 7.05188679,7.44811321 7.25,7.25 C7.54716981,6.95283019 7.94339623,6.85377358 8.33962264,7.05188679 C8.43867925,7.05188679 8.53773585,7.1509434 8.63679245,7.25 Z" id="path-17"></path>
        <path d="M22.1084906,10.8160377 L13.5896226,2.29716981 C13.3915094,2.0990566 13.1933962,2 12.8962264,2 L2.99056604,2 C2.39622642,2 2,2.39622642 2,2.99056604 L2,12.8962264 C2,13.1933962 2.0990566,13.3915094 2.29716981,13.5896226 L10.8160377,22.1084906 C11.4103774,22.7028302 12.1037736,23 12.8962264,23 C12.8962264,23 12.8962264,23 12.8962264,23 C13.6886792,23 14.4811321,22.7028302 14.9764151,22.1084906 L22.1084906,14.9764151 C22.1084906,14.9764151 22.1084906,14.9764151 22.1084906,14.9764151 C23.2971698,13.7877358 23.2971698,12.004717 22.1084906,10.8160377 Z M20.7216981,13.5896226 L13.5896226,20.7216981 C13.1933962,21.1179245 12.5990566,21.1179245 12.2028302,20.7216981 L3.98113208,12.5 L3.98113208,3.98113208 L12.5,3.98113208 L20.7216981,12.2028302 C21.1179245,12.5990566 21.1179245,13.1933962 20.7216981,13.5896226 Z M8.63679245,7.25 C8.83490566,7.44811321 8.93396226,7.64622642 8.93396226,7.94339623 C8.93396226,8.24056604 8.83490566,8.43867925 8.63679245,8.63679245 C8.43867925,8.83490566 8.24056604,8.93396226 7.94339623,8.93396226 C7.64622642,8.93396226 7.44811321,8.83490566 7.25,8.63679245 C7.1509434,8.53773585 7.05188679,8.43867925 7.05188679,8.33962264 C6.95283019,8.24056604 6.95283019,8.04245283 6.95283019,7.94339623 C6.95283019,7.64622642 7.05188679,7.44811321 7.25,7.25 C7.54716981,6.95283019 7.94339623,6.85377358 8.33962264,7.05188679 C8.43867925,7.05188679 8.53773585,7.1509434 8.63679245,7.25 Z" id="path-19"></path>
        <path d="M22.1084906,10.8160377 L13.5896226,2.29716981 C13.3915094,2.0990566 13.1933962,2 12.8962264,2 L2.99056604,2 C2.39622642,2 2,2.39622642 2,2.99056604 L2,12.8962264 C2,13.1933962 2.0990566,13.3915094 2.29716981,13.5896226 L10.8160377,22.1084906 C11.4103774,22.7028302 12.1037736,23 12.8962264,23 C12.8962264,23 12.8962264,23 12.8962264,23 C13.6886792,23 14.4811321,22.7028302 14.9764151,22.1084906 L22.1084906,14.9764151 C22.1084906,14.9764151 22.1084906,14.9764151 22.1084906,14.9764151 C23.2971698,13.7877358 23.2971698,12.004717 22.1084906,10.8160377 Z M20.7216981,13.5896226 L13.5896226,20.7216981 C13.1933962,21.1179245 12.5990566,21.1179245 12.2028302,20.7216981 L3.98113208,12.5 L3.98113208,3.98113208 L12.5,3.98113208 L20.7216981,12.2028302 C21.1179245,12.5990566 21.1179245,13.1933962 20.7216981,13.5896226 Z M8.63679245,7.25 C8.83490566,7.44811321 8.93396226,7.64622642 8.93396226,7.94339623 C8.93396226,8.24056604 8.83490566,8.43867925 8.63679245,8.63679245 C8.43867925,8.83490566 8.24056604,8.93396226 7.94339623,8.93396226 C7.64622642,8.93396226 7.44811321,8.83490566 7.25,8.63679245 C7.1509434,8.53773585 7.05188679,8.43867925 7.05188679,8.33962264 C6.95283019,8.24056604 6.95283019,8.04245283 6.95283019,7.94339623 C6.95283019,7.64622642 7.05188679,7.44811321 7.25,7.25 C7.54716981,6.95283019 7.94339623,6.85377358 8.33962264,7.05188679 C8.43867925,7.05188679 8.53773585,7.1509434 8.63679245,7.25 Z" id="path-21"></path>
        <path d="M22.1084906,10.8160377 L13.5896226,2.29716981 C13.3915094,2.0990566 13.1933962,2 12.8962264,2 L2.99056604,2 C2.39622642,2 2,2.39622642 2,2.99056604 L2,12.8962264 C2,13.1933962 2.0990566,13.3915094 2.29716981,13.5896226 L10.8160377,22.1084906 C11.4103774,22.7028302 12.1037736,23 12.8962264,23 C12.8962264,23 12.8962264,23 12.8962264,23 C13.6886792,23 14.4811321,22.7028302 14.9764151,22.1084906 L22.1084906,14.9764151 C22.1084906,14.9764151 22.1084906,14.9764151 22.1084906,14.9764151 C23.2971698,13.7877358 23.2971698,12.004717 22.1084906,10.8160377 Z M20.7216981,13.5896226 L13.5896226,20.7216981 C13.1933962,21.1179245 12.5990566,21.1179245 12.2028302,20.7216981 L3.98113208,12.5 L3.98113208,3.98113208 L12.5,3.98113208 L20.7216981,12.2028302 C21.1179245,12.5990566 21.1179245,13.1933962 20.7216981,13.5896226 Z M8.63679245,7.25 C8.83490566,7.44811321 8.93396226,7.64622642 8.93396226,7.94339623 C8.93396226,8.24056604 8.83490566,8.43867925 8.63679245,8.63679245 C8.43867925,8.83490566 8.24056604,8.93396226 7.94339623,8.93396226 C7.64622642,8.93396226 7.44811321,8.83490566 7.25,8.63679245 C7.1509434,8.53773585 7.05188679,8.43867925 7.05188679,8.33962264 C6.95283019,8.24056604 6.95283019,8.04245283 6.95283019,7.94339623 C6.95283019,7.64622642 7.05188679,7.44811321 7.25,7.25 C7.54716981,6.95283019 7.94339623,6.85377358 8.33962264,7.05188679 C8.43867925,7.05188679 8.53773585,7.1509434 8.63679245,7.25 Z" id="path-23"></path>
        <path d="M22.1084906,10.8160377 L13.5896226,2.29716981 C13.3915094,2.0990566 13.1933962,2 12.8962264,2 L2.99056604,2 C2.39622642,2 2,2.39622642 2,2.99056604 L2,12.8962264 C2,13.1933962 2.0990566,13.3915094 2.29716981,13.5896226 L10.8160377,22.1084906 C11.4103774,22.7028302 12.1037736,23 12.8962264,23 C12.8962264,23 12.8962264,23 12.8962264,23 C13.6886792,23 14.4811321,22.7028302 14.9764151,22.1084906 L22.1084906,14.9764151 C22.1084906,14.9764151 22.1084906,14.9764151 22.1084906,14.9764151 C23.2971698,13.7877358 23.2971698,12.004717 22.1084906,10.8160377 Z M20.7216981,13.5896226 L13.5896226,20.7216981 C13.1933962,21.1179245 12.5990566,21.1179245 12.2028302,20.7216981 L3.98113208,12.5 L3.98113208,3.98113208 L12.5,3.98113208 L20.7216981,12.2028302 C21.1179245,12.5990566 21.1179245,13.1933962 20.7216981,13.5896226 Z M8.63679245,7.25 C8.83490566,7.44811321 8.93396226,7.64622642 8.93396226,7.94339623 C8.93396226,8.24056604 8.83490566,8.43867925 8.63679245,8.63679245 C8.43867925,8.83490566 8.24056604,8.93396226 7.94339623,8.93396226 C7.64622642,8.93396226 7.44811321,8.83490566 7.25,8.63679245 C7.1509434,8.53773585 7.05188679,8.43867925 7.05188679,8.33962264 C6.95283019,8.24056604 6.95283019,8.04245283 6.95283019,7.94339623 C6.95283019,7.64622642 7.05188679,7.44811321 7.25,7.25 C7.54716981,6.95283019 7.94339623,6.85377358 8.33962264,7.05188679 C8.43867925,7.05188679 8.53773585,7.1509434 8.63679245,7.25 Z" id="path-25"></path>
        <path d="M22.1084906,10.8160377 L13.5896226,2.29716981 C13.3915094,2.0990566 13.1933962,2 12.8962264,2 L2.99056604,2 C2.39622642,2 2,2.39622642 2,2.99056604 L2,12.8962264 C2,13.1933962 2.0990566,13.3915094 2.29716981,13.5896226 L10.8160377,22.1084906 C11.4103774,22.7028302 12.1037736,23 12.8962264,23 C12.8962264,23 12.8962264,23 12.8962264,23 C13.6886792,23 14.4811321,22.7028302 14.9764151,22.1084906 L22.1084906,14.9764151 C22.1084906,14.9764151 22.1084906,14.9764151 22.1084906,14.9764151 C23.2971698,13.7877358 23.2971698,12.004717 22.1084906,10.8160377 Z M20.7216981,13.5896226 L13.5896226,20.7216981 C13.1933962,21.1179245 12.5990566,21.1179245 12.2028302,20.7216981 L3.98113208,12.5 L3.98113208,3.98113208 L12.5,3.98113208 L20.7216981,12.2028302 C21.1179245,12.5990566 21.1179245,13.1933962 20.7216981,13.5896226 Z M8.63679245,7.25 C8.83490566,7.44811321 8.93396226,7.64622642 8.93396226,7.94339623 C8.93396226,8.24056604 8.83490566,8.43867925 8.63679245,8.63679245 C8.43867925,8.83490566 8.24056604,8.93396226 7.94339623,8.93396226 C7.64622642,8.93396226 7.44811321,8.83490566 7.25,8.63679245 C7.1509434,8.53773585 7.05188679,8.43867925 7.05188679,8.33962264 C6.95283019,8.24056604 6.95283019,8.04245283 6.95283019,7.94339623 C6.95283019,7.64622642 7.05188679,7.44811321 7.25,7.25 C7.54716981,6.95283019 7.94339623,6.85377358 8.33962264,7.05188679 C8.43867925,7.05188679 8.53773585,7.1509434 8.63679245,7.25 Z" id="path-27"></path>
        <path d="M22.1084906,10.8160377 L13.5896226,2.29716981 C13.3915094,2.0990566 13.1933962,2 12.8962264,2 L2.99056604,2 C2.39622642,2 2,2.39622642 2,2.99056604 L2,12.8962264 C2,13.1933962 2.0990566,13.3915094 2.29716981,13.5896226 L10.8160377,22.1084906 C11.4103774,22.7028302 12.1037736,23 12.8962264,23 C12.8962264,23 12.8962264,23 12.8962264,23 C13.6886792,23 14.4811321,22.7028302 14.9764151,22.1084906 L22.1084906,14.9764151 C22.1084906,14.9764151 22.1084906,14.9764151 22.1084906,14.9764151 C23.2971698,13.7877358 23.2971698,12.004717 22.1084906,10.8160377 Z M20.7216981,13.5896226 L13.5896226,20.7216981 C13.1933962,21.1179245 12.5990566,21.1179245 12.2028302,20.7216981 L3.98113208,12.5 L3.98113208,3.98113208 L12.5,3.98113208 L20.7216981,12.2028302 C21.1179245,12.5990566 21.1179245,13.1933962 20.7216981,13.5896226 Z M8.63679245,7.25 C8.83490566,7.44811321 8.93396226,7.64622642 8.93396226,7.94339623 C8.93396226,8.24056604 8.83490566,8.43867925 8.63679245,8.63679245 C8.43867925,8.83490566 8.24056604,8.93396226 7.94339623,8.93396226 C7.64622642,8.93396226 7.44811321,8.83490566 7.25,8.63679245 C7.1509434,8.53773585 7.05188679,8.43867925 7.05188679,8.33962264 C6.95283019,8.24056604 6.95283019,8.04245283 6.95283019,7.94339623 C6.95283019,7.64622642 7.05188679,7.44811321 7.25,7.25 C7.54716981,6.95283019 7.94339623,6.85377358 8.33962264,7.05188679 C8.43867925,7.05188679 8.53773585,7.1509434 8.63679245,7.25 Z" id="path-29"></path>
        <path d="M22.1084906,10.8160377 L13.5896226,2.29716981 C13.3915094,2.0990566 13.1933962,2 12.8962264,2 L2.99056604,2 C2.39622642,2 2,2.39622642 2,2.99056604 L2,12.8962264 C2,13.1933962 2.0990566,13.3915094 2.29716981,13.5896226 L10.8160377,22.1084906 C11.4103774,22.7028302 12.1037736,23 12.8962264,23 C12.8962264,23 12.8962264,23 12.8962264,23 C13.6886792,23 14.4811321,22.7028302 14.9764151,22.1084906 L22.1084906,14.9764151 C22.1084906,14.9764151 22.1084906,14.9764151 22.1084906,14.9764151 C23.2971698,13.7877358 23.2971698,12.004717 22.1084906,10.8160377 Z M20.7216981,13.5896226 L13.5896226,20.7216981 C13.1933962,21.1179245 12.5990566,21.1179245 12.2028302,20.7216981 L3.98113208,12.5 L3.98113208,3.98113208 L12.5,3.98113208 L20.7216981,12.2028302 C21.1179245,12.5990566 21.1179245,13.1933962 20.7216981,13.5896226 Z M8.63679245,7.25 C8.83490566,7.44811321 8.93396226,7.64622642 8.93396226,7.94339623 C8.93396226,8.24056604 8.83490566,8.43867925 8.63679245,8.63679245 C8.43867925,8.83490566 8.24056604,8.93396226 7.94339623,8.93396226 C7.64622642,8.93396226 7.44811321,8.83490566 7.25,8.63679245 C7.1509434,8.53773585 7.05188679,8.43867925 7.05188679,8.33962264 C6.95283019,8.24056604 6.95283019,8.04245283 6.95283019,7.94339623 C6.95283019,7.64622642 7.05188679,7.44811321 7.25,7.25 C7.54716981,6.95283019 7.94339623,6.85377358 8.33962264,7.05188679 C8.43867925,7.05188679 8.53773585,7.1509434 8.63679245,7.25 Z" id="path-31"></path>
        <path d="M22.1084906,10.8160377 L13.5896226,2.29716981 C13.3915094,2.0990566 13.1933962,2 12.8962264,2 L2.99056604,2 C2.39622642,2 2,2.39622642 2,2.99056604 L2,12.8962264 C2,13.1933962 2.0990566,13.3915094 2.29716981,13.5896226 L10.8160377,22.1084906 C11.4103774,22.7028302 12.1037736,23 12.8962264,23 C12.8962264,23 12.8962264,23 12.8962264,23 C13.6886792,23 14.4811321,22.7028302 14.9764151,22.1084906 L22.1084906,14.9764151 C22.1084906,14.9764151 22.1084906,14.9764151 22.1084906,14.9764151 C23.2971698,13.7877358 23.2971698,12.004717 22.1084906,10.8160377 Z M20.7216981,13.5896226 L13.5896226,20.7216981 C13.1933962,21.1179245 12.5990566,21.1179245 12.2028302,20.7216981 L3.98113208,12.5 L3.98113208,3.98113208 L12.5,3.98113208 L20.7216981,12.2028302 C21.1179245,12.5990566 21.1179245,13.1933962 20.7216981,13.5896226 Z M8.63679245,7.25 C8.83490566,7.44811321 8.93396226,7.64622642 8.93396226,7.94339623 C8.93396226,8.24056604 8.83490566,8.43867925 8.63679245,8.63679245 C8.43867925,8.83490566 8.24056604,8.93396226 7.94339623,8.93396226 C7.64622642,8.93396226 7.44811321,8.83490566 7.25,8.63679245 C7.1509434,8.53773585 7.05188679,8.43867925 7.05188679,8.33962264 C6.95283019,8.24056604 6.95283019,8.04245283 6.95283019,7.94339623 C6.95283019,7.64622642 7.05188679,7.44811321 7.25,7.25 C7.54716981,6.95283019 7.94339623,6.85377358 8.33962264,7.05188679 C8.43867925,7.05188679 8.53773585,7.1509434 8.63679245,7.25 Z" id="path-33"></path>
        <path d="M22.1084906,10.8160377 L13.5896226,2.29716981 C13.3915094,2.0990566 13.1933962,2 12.8962264,2 L2.99056604,2 C2.39622642,2 2,2.39622642 2,2.99056604 L2,12.8962264 C2,13.1933962 2.0990566,13.3915094 2.29716981,13.5896226 L10.8160377,22.1084906 C11.4103774,22.7028302 12.1037736,23 12.8962264,23 C12.8962264,23 12.8962264,23 12.8962264,23 C13.6886792,23 14.4811321,22.7028302 14.9764151,22.1084906 L22.1084906,14.9764151 C22.1084906,14.9764151 22.1084906,14.9764151 22.1084906,14.9764151 C23.2971698,13.7877358 23.2971698,12.004717 22.1084906,10.8160377 Z M20.7216981,13.5896226 L13.5896226,20.7216981 C13.1933962,21.1179245 12.5990566,21.1179245 12.2028302,20.7216981 L3.98113208,12.5 L3.98113208,3.98113208 L12.5,3.98113208 L20.7216981,12.2028302 C21.1179245,12.5990566 21.1179245,13.1933962 20.7216981,13.5896226 Z M8.63679245,7.25 C8.83490566,7.44811321 8.93396226,7.64622642 8.93396226,7.94339623 C8.93396226,8.24056604 8.83490566,8.43867925 8.63679245,8.63679245 C8.43867925,8.83490566 8.24056604,8.93396226 7.94339623,8.93396226 C7.64622642,8.93396226 7.44811321,8.83490566 7.25,8.63679245 C7.1509434,8.53773585 7.05188679,8.43867925 7.05188679,8.33962264 C6.95283019,8.24056604 6.95283019,8.04245283 6.95283019,7.94339623 C6.95283019,7.64622642 7.05188679,7.44811321 7.25,7.25 C7.54716981,6.95283019 7.94339623,6.85377358 8.33962264,7.05188679 C8.43867925,7.05188679 8.53773585,7.1509434 8.63679245,7.25 Z" id="path-35"></path>
        <path d="M22.1084906,10.8160377 L13.5896226,2.29716981 C13.3915094,2.0990566 13.1933962,2 12.8962264,2 L2.99056604,2 C2.39622642,2 2,2.39622642 2,2.99056604 L2,12.8962264 C2,13.1933962 2.0990566,13.3915094 2.29716981,13.5896226 L10.8160377,22.1084906 C11.4103774,22.7028302 12.1037736,23 12.8962264,23 C12.8962264,23 12.8962264,23 12.8962264,23 C13.6886792,23 14.4811321,22.7028302 14.9764151,22.1084906 L22.1084906,14.9764151 C22.1084906,14.9764151 22.1084906,14.9764151 22.1084906,14.9764151 C23.2971698,13.7877358 23.2971698,12.004717 22.1084906,10.8160377 Z M20.7216981,13.5896226 L13.5896226,20.7216981 C13.1933962,21.1179245 12.5990566,21.1179245 12.2028302,20.7216981 L3.98113208,12.5 L3.98113208,3.98113208 L12.5,3.98113208 L20.7216981,12.2028302 C21.1179245,12.5990566 21.1179245,13.1933962 20.7216981,13.5896226 Z M8.63679245,7.25 C8.83490566,7.44811321 8.93396226,7.64622642 8.93396226,7.94339623 C8.93396226,8.24056604 8.83490566,8.43867925 8.63679245,8.63679245 C8.43867925,8.83490566 8.24056604,8.93396226 7.94339623,8.93396226 C7.64622642,8.93396226 7.44811321,8.83490566 7.25,8.63679245 C7.1509434,8.53773585 7.05188679,8.43867925 7.05188679,8.33962264 C6.95283019,8.24056604 6.95283019,8.04245283 6.95283019,7.94339623 C6.95283019,7.64622642 7.05188679,7.44811321 7.25,7.25 C7.54716981,6.95283019 7.94339623,6.85377358 8.33962264,7.05188679 C8.43867925,7.05188679 8.53773585,7.1509434 8.63679245,7.25 Z" id="path-37"></path>
        <path d="M22.1084906,10.8160377 L13.5896226,2.29716981 C13.3915094,2.0990566 13.1933962,2 12.8962264,2 L2.99056604,2 C2.39622642,2 2,2.39622642 2,2.99056604 L2,12.8962264 C2,13.1933962 2.0990566,13.3915094 2.29716981,13.5896226 L10.8160377,22.1084906 C11.4103774,22.7028302 12.1037736,23 12.8962264,23 C12.8962264,23 12.8962264,23 12.8962264,23 C13.6886792,23 14.4811321,22.7028302 14.9764151,22.1084906 L22.1084906,14.9764151 C22.1084906,14.9764151 22.1084906,14.9764151 22.1084906,14.9764151 C23.2971698,13.7877358 23.2971698,12.004717 22.1084906,10.8160377 Z M20.7216981,13.5896226 L13.5896226,20.7216981 C13.1933962,21.1179245 12.5990566,21.1179245 12.2028302,20.7216981 L3.98113208,12.5 L3.98113208,3.98113208 L12.5,3.98113208 L20.7216981,12.2028302 C21.1179245,12.5990566 21.1179245,13.1933962 20.7216981,13.5896226 Z M8.63679245,7.25 C8.83490566,7.44811321 8.93396226,7.64622642 8.93396226,7.94339623 C8.93396226,8.24056604 8.83490566,8.43867925 8.63679245,8.63679245 C8.43867925,8.83490566 8.24056604,8.93396226 7.94339623,8.93396226 C7.64622642,8.93396226 7.44811321,8.83490566 7.25,8.63679245 C7.1509434,8.53773585 7.05188679,8.43867925 7.05188679,8.33962264 C6.95283019,8.24056604 6.95283019,8.04245283 6.95283019,7.94339623 C6.95283019,7.64622642 7.05188679,7.44811321 7.25,7.25 C7.54716981,6.95283019 7.94339623,6.85377358 8.33962264,7.05188679 C8.43867925,7.05188679 8.53773585,7.1509434 8.63679245,7.25 Z" id="path-39"></path>
        <path d="M22.1084906,10.8160377 L13.5896226,2.29716981 C13.3915094,2.0990566 13.1933962,2 12.8962264,2 L2.99056604,2 C2.39622642,2 2,2.39622642 2,2.99056604 L2,12.8962264 C2,13.1933962 2.0990566,13.3915094 2.29716981,13.5896226 L10.8160377,22.1084906 C11.4103774,22.7028302 12.1037736,23 12.8962264,23 C12.8962264,23 12.8962264,23 12.8962264,23 C13.6886792,23 14.4811321,22.7028302 14.9764151,22.1084906 L22.1084906,14.9764151 C22.1084906,14.9764151 22.1084906,14.9764151 22.1084906,14.9764151 C23.2971698,13.7877358 23.2971698,12.004717 22.1084906,10.8160377 Z M20.7216981,13.5896226 L13.5896226,20.7216981 C13.1933962,21.1179245 12.5990566,21.1179245 12.2028302,20.7216981 L3.98113208,12.5 L3.98113208,3.98113208 L12.5,3.98113208 L20.7216981,12.2028302 C21.1179245,12.5990566 21.1179245,13.1933962 20.7216981,13.5896226 Z M8.63679245,7.25 C8.83490566,7.44811321 8.93396226,7.64622642 8.93396226,7.94339623 C8.93396226,8.24056604 8.83490566,8.43867925 8.63679245,8.63679245 C8.43867925,8.83490566 8.24056604,8.93396226 7.94339623,8.93396226 C7.64622642,8.93396226 7.44811321,8.83490566 7.25,8.63679245 C7.1509434,8.53773585 7.05188679,8.43867925 7.05188679,8.33962264 C6.95283019,8.24056604 6.95283019,8.04245283 6.95283019,7.94339623 C6.95283019,7.64622642 7.05188679,7.44811321 7.25,7.25 C7.54716981,6.95283019 7.94339623,6.85377358 8.33962264,7.05188679 C8.43867925,7.05188679 8.53773585,7.1509434 8.63679245,7.25 Z" id="path-41"></path>
    </defs>
    <g id="Website" stroke="none" stroke-width="1" fill="none" fill-rule="evenodd">
        <g id="Desktop" transform="translate(-1210.000000, -5772.000000)">
            <g id="Adressen" transform="translate(80.000000, 5770.000000)">
                <g id="Icon-Pattern" transform="translate(1128.000000, 0.000000)">
                    <g id="icon-/-tag" transform="translate(192.000000, 40.000000)">
                        <mask id="mask-2" fill="white">
                            <use xlink:href="#path-1"></use>
                        </mask>
                        <use id="Mask" fill="#000000" fill-rule="nonzero" xlink:href="#path-1"></use>
                        <g id="Colors/Monochrome/gray--2" mask="url(#mask-2)" fill="#313233" fill-rule="evenodd">
                            <rect id="Rectangle" x="0" y="0" width="24" height="24"></rect>
                        </g>
                    </g>
                    <g id="icon-/-tag" opacity="0.75" transform="translate(128.000000, 80.000000)">
                        <mask id="mask-4" fill="white">
                            <use xlink:href="#path-3"></use>
                        </mask>
                        <use id="Mask" fill="#000000" fill-rule="nonzero" xlink:href="#path-3"></use>
                        <g id="Colors/Monochrome/gray--2" mask="url(#mask-4)" fill="#313233" fill-rule="evenodd">
                            <rect id="Rectangle" x="0" y="0" width="24" height="24"></rect>
                        </g>
                    </g>
                    <g id="icon-/-tag" opacity="0.25" transform="translate(0.000000, 80.000000)">
                        <mask id="mask-6" fill="white">
                            <use xlink:href="#path-5"></use>
                        </mask>
                        <use id="Mask" fill="#000000" fill-rule="nonzero" xlink:href="#path-5"></use>
                        <g id="Colors/Monochrome/gray--2" mask="url(#mask-6)" fill="#313233" fill-rule="evenodd">
                            <rect id="Rectangle" x="0" y="0" width="24" height="24"></rect>
                        </g>
                    </g>
                    <g id="icon-/-tag" opacity="0.75" transform="translate(128.000000, 0.000000)">
                        <mask id="mask-8" fill="white">
                            <use xlink:href="#path-7"></use>
                        </mask>
                        <use id="Mask" fill="#000000" fill-rule="nonzero" xlink:href="#path-7"></use>
                        <g id="Colors/Monochrome/gray--2" mask="url(#mask-8)" fill="#313233" fill-rule="evenodd">
                            <rect id="Rectangle" x="0" y="0" width="24" height="24"></rect>
                        </g>
                    </g>
                    <g id="icon-/-tag" opacity="0.5" transform="translate(64.000000, 120.000000)">
                        <mask id="mask-10" fill="white">
                            <use xlink:href="#path-9"></use>
                        </mask>
                        <use id="Mask" fill="#000000" fill-rule="nonzero" xlink:href="#path-9"></use>
                        <g id="Colors/Monochrome/gray--2" mask="url(#mask-10)" fill="#313233" fill-rule="evenodd">
                            <rect id="Rectangle" x="0" y="0" width="24" height="24"></rect>
                        </g>
                    </g>
                    <g id="icon-/-tag" transform="translate(192.000000, 120.000000)">
                        <mask id="mask-12" fill="white">
                            <use xlink:href="#path-11"></use>
                        </mask>
                        <use id="Mask" fill="#000000" fill-rule="nonzero" xlink:href="#path-11"></use>
                        <g id="Colors/Monochrome/gray--2" mask="url(#mask-12)" fill="#313233" fill-rule="evenodd">
                            <rect id="Rectangle" x="0" y="0" width="24" height="24"></rect>
                        </g>
                    </g>
                    <g id="icon-/-tag" opacity="0.75" transform="translate(128.000000, 160.000000)">
                        <mask id="mask-14" fill="white">
                            <use xlink:href="#path-13"></use>
                        </mask>
                        <use id="Mask" fill="#000000" fill-rule="nonzero" xlink:href="#path-13"></use>
                        <g id="Colors/Monochrome/gray--2" mask="url(#mask-14)" fill="#313233" fill-rule="evenodd">
                            <rect id="Rectangle" x="0" y="0" width="24" height="24"></rect>
                        </g>
                    </g>
                    <g id="icon-/-tag" opacity="0.25" transform="translate(0.000000, 160.000000)">
                        <mask id="mask-16" fill="white">
                            <use xlink:href="#path-15"></use>
                        </mask>
                        <use id="Mask" fill="#000000" fill-rule="nonzero" xlink:href="#path-15"></use>
                        <g id="Colors/Monochrome/gray--2" mask="url(#mask-16)" fill="#313233" fill-rule="evenodd">
                            <rect id="Rectangle" x="0" y="0" width="24" height="24"></rect>
                        </g>
                    </g>
                    <g id="icon-/-tag" opacity="0.5" transform="translate(64.000000, 200.000000)">
                        <mask id="mask-18" fill="white">
                            <use xlink:href="#path-17"></use>
                        </mask>
                        <use id="Mask" fill="#000000" fill-rule="nonzero" xlink:href="#path-17"></use>
                        <g id="Colors/Monochrome/gray--2" mask="url(#mask-18)" fill="#313233" fill-rule="evenodd">
                            <rect id="Rectangle" x="0" y="0" width="24" height="24"></rect>
                        </g>
                    </g>
                    <g id="icon-/-tag" transform="translate(192.000000, 200.000000)">
                        <mask id="mask-20" fill="white">
                            <use xlink:href="#path-19"></use>
                        </mask>
                        <use id="Mask" fill="#000000" fill-rule="nonzero" xlink:href="#path-19"></use>
                        <g id="Colors/Monochrome/gray--2" mask="url(#mask-20)" fill="#313233" fill-rule="evenodd">
                            <rect id="Rectangle" x="0" y="0" width="24" height="24"></rect>
                        </g>
                    </g>
                    <g id="icon-/-tag" opacity="0.75" transform="translate(128.000000, 240.000000)">
                        <mask id="mask-22" fill="white">
                            <use xlink:href="#path-21"></use>
                        </mask>
                        <use id="Mask" fill="#000000" fill-rule="nonzero" xlink:href="#path-21"></use>
                        <g id="Colors/Monochrome/gray--2" mask="url(#mask-22)" fill="#313233" fill-rule="evenodd">
                            <rect id="Rectangle" x="0" y="0" width="24" height="24"></rect>
                        </g>
                    </g>
                    <g id="icon-/-tag" opacity="0.25" transform="translate(0.000000, 240.000000)">
                        <mask id="mask-24" fill="white">
                            <use xlink:href="#path-23"></use>
                        </mask>
                        <use id="Mask" fill="#000000" fill-rule="nonzero" xlink:href="#path-23"></use>
                        <g id="Colors/Monochrome/gray--2" mask="url(#mask-24)" fill="#313233" fill-rule="evenodd">
                            <rect id="Rectangle" x="0" y="0" width="24" height="24"></rect>
                        </g>
                    </g>
                    <g id="icon-/-tag" opacity="0.5" transform="translate(64.000000, 280.000000)">
                        <mask id="mask-26" fill="white">
                            <use xlink:href="#path-25"></use>
                        </mask>
                        <use id="Mask" fill="#000000" fill-rule="nonzero" xlink:href="#path-25"></use>
                        <g id="Colors/Monochrome/gray--2" mask="url(#mask-26)" fill="#313233" fill-rule="evenodd">
                            <rect id="Rectangle" x="0" y="0" width="24" height="24"></rect>
                        </g>
                    </g>
                    <g id="icon-/-tag" transform="translate(192.000000, 280.000000)">
                        <mask id="mask-28" fill="white">
                            <use xlink:href="#path-27"></use>
                        </mask>
                        <use id="Mask" fill="#000000" fill-rule="nonzero" xlink:href="#path-27"></use>
                        <g id="Colors/Monochrome/gray--2" mask="url(#mask-28)" fill="#313233" fill-rule="evenodd">
                            <rect id="Rectangle" x="0" y="0" width="24" height="24"></rect>
                        </g>
                    </g>
                    <g id="icon-/-tag" opacity="0.75" transform="translate(128.000000, 320.000000)">
                        <mask id="mask-30" fill="white">
                            <use xlink:href="#path-29"></use>
                        </mask>
                        <use id="Mask" fill="#000000" fill-rule="nonzero" xlink:href="#path-29"></use>
                        <g id="Colors/Monochrome/gray--2" mask="url(#mask-30)" fill="#313233" fill-rule="evenodd">
                            <rect id="Rectangle" x="0" y="0" width="24" height="24"></rect>
                        </g>
                    </g>
                    <g id="icon-/-tag" opacity="0.25" transform="translate(0.000000, 320.000000)">
                        <mask id="mask-32" fill="white">
                            <use xlink:href="#path-31"></use>
                        </mask>
                        <use id="Mask" fill="#000000" fill-rule="nonzero" xlink:href="#path-31"></use>
                        <g id="Colors/Monochrome/gray--2" mask="url(#mask-32)" fill="#313233" fill-rule="evenodd">
                            <rect id="Rectangle" x="0" y="0" width="24" height="24"></rect>
                        </g>
                    </g>
                    <g id="icon-/-tag" opacity="0.5" transform="translate(64.000000, 360.000000)">
                        <mask id="mask-34" fill="white">
                            <use xlink:href="#path-33"></use>
                        </mask>
                        <use id="Mask" fill="#000000" fill-rule="nonzero" xlink:href="#path-33"></use>
                        <g id="Colors/Monochrome/gray--2" mask="url(#mask-34)" fill="#313233" fill-rule="evenodd">
                            <rect id="Rectangle" x="0" y="0" width="24" height="24"></rect>
                        </g>
                    </g>
                    <g id="icon-/-tag" opacity="0.5" transform="translate(64.000000, 440.000000)">
                        <mask id="mask-36" fill="white">
                            <use xlink:href="#path-35"></use>
                        </mask>
                        <use id="Mask" fill="#000000" fill-rule="nonzero" xlink:href="#path-35"></use>
                        <g id="Colors/Monochrome/gray--2" mask="url(#mask-36)" fill="#313233" fill-rule="evenodd">
                            <rect id="Rectangle" x="0" y="0" width="24" height="24"></rect>
                        </g>
                    </g>
                    <g id="icon-/-tag" transform="translate(192.000000, 360.000000)">
                        <mask id="mask-38" fill="white">
                            <use xlink:href="#path-37"></use>
                        </mask>
                        <use id="Mask" fill="#000000" fill-rule="nonzero" xlink:href="#path-37"></use>
                        <g id="Colors/Monochrome/gray--2" mask="url(#mask-38)" fill="#313233" fill-rule="evenodd">
                            <rect id="Rectangle" x="0" y="0" width="24" height="24"></rect>
                        </g>
                    </g>
                    <g id="icon-/-tag" opacity="0.75" transform="translate(128.000000, 400.000000)">
                        <mask id="mask-40" fill="white">
                            <use xlink:href="#path-39"></use>
                        </mask>
                        <use id="Mask" fill="#000000" fill-rule="nonzero" xlink:href="#path-39"></use>
                        <g id="Colors/Monochrome/gray--2" mask="url(#mask-40)" fill="#313233" fill-rule="evenodd">
                            <rect id="Rectangle" x="0" y="0" width="24" height="24"></rect>
                        </g>
                    </g>
                    <g id="icon-/-tag" transform="translate(192.000000, 440.000000)">
                        <mask id="mask-42" fill="white">
                            <use xlink:href="#path-41"></use>
                        </mask>
                        <use id="Mask" fill="#000000" fill-rule="nonzero" xlink:href="#path-41"></use>
                        <g id="Colors/Monochrome/gray--2" mask="url(#mask-42)" fill="#313233" fill-rule="evenodd">
                            <rect id="Rectangle" x="0" y="0" width="24" height="24"></rect>
                        </g>
                    </g>
                </g>
            </g>
        </g>
    </g>
</svg>