<?xml version="1.0" encoding="UTF-8"?>
<svg width="212px" height="462px" viewBox="0 0 212 462" version="1.1" xmlns="http://www.w3.org/2000/svg" xmlns:xlink="http://www.w3.org/1999/xlink">
    <!-- Generator: Sketch 54.1 (76490) - https://sketchapp.com -->
    <title>Icon Pattern</title>
    <desc>Created with Sketch.</desc>
    <defs>
        <path d="M18,15 C16.9,15 15.9,15.5 15.2,16.2 L9.9,13.1 C9.9,12.7 10,12.4 10,12 C10,11.6 9.9,11.3 9.8,10.9 L15.1,7.8 C15.9,8.5 16.9,9 18,9 C20.2,9 22,7.2 22,5 C22,2.8 20.2,1 18,1 C15.8,1 14,2.8 14,5 C14,5.4 14.1,5.7 14.2,6.1 L8.8,9.2 C8.1,8.5 7.1,8 6,8 C3.8,8 2,9.8 2,12 C2,14.2 3.8,16 6,16 C7.1,16 8.1,15.5 8.8,14.8 L14.1,17.9 C14.1,18.3 14,18.6 14,19 C14,21.2 15.8,23 18,23 C20.2,23 22,21.2 22,19 C22,16.8 20.2,15 18,15 Z M18,3 C19.1,3 20,3.9 20,5 C20,6.1 19.1,7 18,7 C16.9,7 16,6.1 16,5 C16,3.9 16.9,3 18,3 Z M6,14 C4.9,14 4,13.1 4,12 C4,10.9 4.9,10 6,10 C7.1,10 8,10.9 8,12 C8,13.1 7.1,14 6,14 Z M18,21 C16.9,21 16,20.1 16,19 C16,18.6 16.1,18.3 16.3,18 C16.3,18 16.3,18 16.3,18 C16.3,18 16.3,18 16.3,18 C16.6,17.4 17.3,17 18,17 C19.1,17 20,17.9 20,19 C20,20.1 19.1,21 18,21 Z" id="path-1"></path>
        <path d="M18,15 C16.9,15 15.9,15.5 15.2,16.2 L9.9,13.1 C9.9,12.7 10,12.4 10,12 C10,11.6 9.9,11.3 9.8,10.9 L15.1,7.8 C15.9,8.5 16.9,9 18,9 C20.2,9 22,7.2 22,5 C22,2.8 20.2,1 18,1 C15.8,1 14,2.8 14,5 C14,5.4 14.1,5.7 14.2,6.1 L8.8,9.2 C8.1,8.5 7.1,8 6,8 C3.8,8 2,9.8 2,12 C2,14.2 3.8,16 6,16 C7.1,16 8.1,15.5 8.8,14.8 L14.1,17.9 C14.1,18.3 14,18.6 14,19 C14,21.2 15.8,23 18,23 C20.2,23 22,21.2 22,19 C22,16.8 20.2,15 18,15 Z M18,3 C19.1,3 20,3.9 20,5 C20,6.1 19.1,7 18,7 C16.9,7 16,6.1 16,5 C16,3.9 16.9,3 18,3 Z M6,14 C4.9,14 4,13.1 4,12 C4,10.9 4.9,10 6,10 C7.1,10 8,10.9 8,12 C8,13.1 7.1,14 6,14 Z M18,21 C16.9,21 16,20.1 16,19 C16,18.6 16.1,18.3 16.3,18 C16.3,18 16.3,18 16.3,18 C16.3,18 16.3,18 16.3,18 C16.6,17.4 17.3,17 18,17 C19.1,17 20,17.9 20,19 C20,20.1 19.1,21 18,21 Z" id="path-3"></path>
        <path d="M18,15 C16.9,15 15.9,15.5 15.2,16.2 L9.9,13.1 C9.9,12.7 10,12.4 10,12 C10,11.6 9.9,11.3 9.8,10.9 L15.1,7.8 C15.9,8.5 16.9,9 18,9 C20.2,9 22,7.2 22,5 C22,2.8 20.2,1 18,1 C15.8,1 14,2.8 14,5 C14,5.4 14.1,5.7 14.2,6.1 L8.8,9.2 C8.1,8.5 7.1,8 6,8 C3.8,8 2,9.8 2,12 C2,14.2 3.8,16 6,16 C7.1,16 8.1,15.5 8.8,14.8 L14.1,17.9 C14.1,18.3 14,18.6 14,19 C14,21.2 15.8,23 18,23 C20.2,23 22,21.2 22,19 C22,16.8 20.2,15 18,15 Z M18,3 C19.1,3 20,3.9 20,5 C20,6.1 19.1,7 18,7 C16.9,7 16,6.1 16,5 C16,3.9 16.9,3 18,3 Z M6,14 C4.9,14 4,13.1 4,12 C4,10.9 4.9,10 6,10 C7.1,10 8,10.9 8,12 C8,13.1 7.1,14 6,14 Z M18,21 C16.9,21 16,20.1 16,19 C16,18.6 16.1,18.3 16.3,18 C16.3,18 16.3,18 16.3,18 C16.3,18 16.3,18 16.3,18 C16.6,17.4 17.3,17 18,17 C19.1,17 20,17.9 20,19 C20,20.1 19.1,21 18,21 Z" id="path-5"></path>
        <path d="M18,15 C16.9,15 15.9,15.5 15.2,16.2 L9.9,13.1 C9.9,12.7 10,12.4 10,12 C10,11.6 9.9,11.3 9.8,10.9 L15.1,7.8 C15.9,8.5 16.9,9 18,9 C20.2,9 22,7.2 22,5 C22,2.8 20.2,1 18,1 C15.8,1 14,2.8 14,5 C14,5.4 14.1,5.7 14.2,6.1 L8.8,9.2 C8.1,8.5 7.1,8 6,8 C3.8,8 2,9.8 2,12 C2,14.2 3.8,16 6,16 C7.1,16 8.1,15.5 8.8,14.8 L14.1,17.9 C14.1,18.3 14,18.6 14,19 C14,21.2 15.8,23 18,23 C20.2,23 22,21.2 22,19 C22,16.8 20.2,15 18,15 Z M18,3 C19.1,3 20,3.9 20,5 C20,6.1 19.1,7 18,7 C16.9,7 16,6.1 16,5 C16,3.9 16.9,3 18,3 Z M6,14 C4.9,14 4,13.1 4,12 C4,10.9 4.9,10 6,10 C7.1,10 8,10.9 8,12 C8,13.1 7.1,14 6,14 Z M18,21 C16.9,21 16,20.1 16,19 C16,18.6 16.1,18.3 16.3,18 C16.3,18 16.3,18 16.3,18 C16.3,18 16.3,18 16.3,18 C16.6,17.4 17.3,17 18,17 C19.1,17 20,17.9 20,19 C20,20.1 19.1,21 18,21 Z" id="path-7"></path>
        <path d="M18,15 C16.9,15 15.9,15.5 15.2,16.2 L9.9,13.1 C9.9,12.7 10,12.4 10,12 C10,11.6 9.9,11.3 9.8,10.9 L15.1,7.8 C15.9,8.5 16.9,9 18,9 C20.2,9 22,7.2 22,5 C22,2.8 20.2,1 18,1 C15.8,1 14,2.8 14,5 C14,5.4 14.1,5.7 14.2,6.1 L8.8,9.2 C8.1,8.5 7.1,8 6,8 C3.8,8 2,9.8 2,12 C2,14.2 3.8,16 6,16 C7.1,16 8.1,15.5 8.8,14.8 L14.1,17.9 C14.1,18.3 14,18.6 14,19 C14,21.2 15.8,23 18,23 C20.2,23 22,21.2 22,19 C22,16.8 20.2,15 18,15 Z M18,3 C19.1,3 20,3.9 20,5 C20,6.1 19.1,7 18,7 C16.9,7 16,6.1 16,5 C16,3.9 16.9,3 18,3 Z M6,14 C4.9,14 4,13.1 4,12 C4,10.9 4.9,10 6,10 C7.1,10 8,10.9 8,12 C8,13.1 7.1,14 6,14 Z M18,21 C16.9,21 16,20.1 16,19 C16,18.6 16.1,18.3 16.3,18 C16.3,18 16.3,18 16.3,18 C16.3,18 16.3,18 16.3,18 C16.6,17.4 17.3,17 18,17 C19.1,17 20,17.9 20,19 C20,20.1 19.1,21 18,21 Z" id="path-9"></path>
        <path d="M18,15 C16.9,15 15.9,15.5 15.2,16.2 L9.9,13.1 C9.9,12.7 10,12.4 10,12 C10,11.6 9.9,11.3 9.8,10.9 L15.1,7.8 C15.9,8.5 16.9,9 18,9 C20.2,9 22,7.2 22,5 C22,2.8 20.2,1 18,1 C15.8,1 14,2.8 14,5 C14,5.4 14.1,5.7 14.2,6.1 L8.8,9.2 C8.1,8.5 7.1,8 6,8 C3.8,8 2,9.8 2,12 C2,14.2 3.8,16 6,16 C7.1,16 8.1,15.5 8.8,14.8 L14.1,17.9 C14.1,18.3 14,18.6 14,19 C14,21.2 15.8,23 18,23 C20.2,23 22,21.2 22,19 C22,16.8 20.2,15 18,15 Z M18,3 C19.1,3 20,3.9 20,5 C20,6.1 19.1,7 18,7 C16.9,7 16,6.1 16,5 C16,3.9 16.9,3 18,3 Z M6,14 C4.9,14 4,13.1 4,12 C4,10.9 4.9,10 6,10 C7.1,10 8,10.9 8,12 C8,13.1 7.1,14 6,14 Z M18,21 C16.9,21 16,20.1 16,19 C16,18.6 16.1,18.3 16.3,18 C16.3,18 16.3,18 16.3,18 C16.3,18 16.3,18 16.3,18 C16.6,17.4 17.3,17 18,17 C19.1,17 20,17.9 20,19 C20,20.1 19.1,21 18,21 Z" id="path-11"></path>
        <path d="M18,15 C16.9,15 15.9,15.5 15.2,16.2 L9.9,13.1 C9.9,12.7 10,12.4 10,12 C10,11.6 9.9,11.3 9.8,10.9 L15.1,7.8 C15.9,8.5 16.9,9 18,9 C20.2,9 22,7.2 22,5 C22,2.8 20.2,1 18,1 C15.8,1 14,2.8 14,5 C14,5.4 14.1,5.7 14.2,6.1 L8.8,9.2 C8.1,8.5 7.1,8 6,8 C3.8,8 2,9.8 2,12 C2,14.2 3.8,16 6,16 C7.1,16 8.1,15.5 8.8,14.8 L14.1,17.9 C14.1,18.3 14,18.6 14,19 C14,21.2 15.8,23 18,23 C20.2,23 22,21.2 22,19 C22,16.8 20.2,15 18,15 Z M18,3 C19.1,3 20,3.9 20,5 C20,6.1 19.1,7 18,7 C16.9,7 16,6.1 16,5 C16,3.9 16.9,3 18,3 Z M6,14 C4.9,14 4,13.1 4,12 C4,10.9 4.9,10 6,10 C7.1,10 8,10.9 8,12 C8,13.1 7.1,14 6,14 Z M18,21 C16.9,21 16,20.1 16,19 C16,18.6 16.1,18.3 16.3,18 C16.3,18 16.3,18 16.3,18 C16.3,18 16.3,18 16.3,18 C16.6,17.4 17.3,17 18,17 C19.1,17 20,17.9 20,19 C20,20.1 19.1,21 18,21 Z" id="path-13"></path>
        <path d="M18,15 C16.9,15 15.9,15.5 15.2,16.2 L9.9,13.1 C9.9,12.7 10,12.4 10,12 C10,11.6 9.9,11.3 9.8,10.9 L15.1,7.8 C15.9,8.5 16.9,9 18,9 C20.2,9 22,7.2 22,5 C22,2.8 20.2,1 18,1 C15.8,1 14,2.8 14,5 C14,5.4 14.1,5.7 14.2,6.1 L8.8,9.2 C8.1,8.5 7.1,8 6,8 C3.8,8 2,9.8 2,12 C2,14.2 3.8,16 6,16 C7.1,16 8.1,15.5 8.8,14.8 L14.1,17.9 C14.1,18.3 14,18.6 14,19 C14,21.2 15.8,23 18,23 C20.2,23 22,21.2 22,19 C22,16.8 20.2,15 18,15 Z M18,3 C19.1,3 20,3.9 20,5 C20,6.1 19.1,7 18,7 C16.9,7 16,6.1 16,5 C16,3.9 16.9,3 18,3 Z M6,14 C4.9,14 4,13.1 4,12 C4,10.9 4.9,10 6,10 C7.1,10 8,10.9 8,12 C8,13.1 7.1,14 6,14 Z M18,21 C16.9,21 16,20.1 16,19 C16,18.6 16.1,18.3 16.3,18 C16.3,18 16.3,18 16.3,18 C16.3,18 16.3,18 16.3,18 C16.6,17.4 17.3,17 18,17 C19.1,17 20,17.9 20,19 C20,20.1 19.1,21 18,21 Z" id="path-15"></path>
        <path d="M18,15 C16.9,15 15.9,15.5 15.2,16.2 L9.9,13.1 C9.9,12.7 10,12.4 10,12 C10,11.6 9.9,11.3 9.8,10.9 L15.1,7.8 C15.9,8.5 16.9,9 18,9 C20.2,9 22,7.2 22,5 C22,2.8 20.2,1 18,1 C15.8,1 14,2.8 14,5 C14,5.4 14.1,5.7 14.2,6.1 L8.8,9.2 C8.1,8.5 7.1,8 6,8 C3.8,8 2,9.8 2,12 C2,14.2 3.8,16 6,16 C7.1,16 8.1,15.5 8.8,14.8 L14.1,17.9 C14.1,18.3 14,18.6 14,19 C14,21.2 15.8,23 18,23 C20.2,23 22,21.2 22,19 C22,16.8 20.2,15 18,15 Z M18,3 C19.1,3 20,3.9 20,5 C20,6.1 19.1,7 18,7 C16.9,7 16,6.1 16,5 C16,3.9 16.9,3 18,3 Z M6,14 C4.9,14 4,13.1 4,12 C4,10.9 4.9,10 6,10 C7.1,10 8,10.9 8,12 C8,13.1 7.1,14 6,14 Z M18,21 C16.9,21 16,20.1 16,19 C16,18.6 16.1,18.3 16.3,18 C16.3,18 16.3,18 16.3,18 C16.3,18 16.3,18 16.3,18 C16.6,17.4 17.3,17 18,17 C19.1,17 20,17.9 20,19 C20,20.1 19.1,21 18,21 Z" id="path-17"></path>
        <path d="M18,15 C16.9,15 15.9,15.5 15.2,16.2 L9.9,13.1 C9.9,12.7 10,12.4 10,12 C10,11.6 9.9,11.3 9.8,10.9 L15.1,7.8 C15.9,8.5 16.9,9 18,9 C20.2,9 22,7.2 22,5 C22,2.8 20.2,1 18,1 C15.8,1 14,2.8 14,5 C14,5.4 14.1,5.7 14.2,6.1 L8.8,9.2 C8.1,8.5 7.1,8 6,8 C3.8,8 2,9.8 2,12 C2,14.2 3.8,16 6,16 C7.1,16 8.1,15.5 8.8,14.8 L14.1,17.9 C14.1,18.3 14,18.6 14,19 C14,21.2 15.8,23 18,23 C20.2,23 22,21.2 22,19 C22,16.8 20.2,15 18,15 Z M18,3 C19.1,3 20,3.9 20,5 C20,6.1 19.1,7 18,7 C16.9,7 16,6.1 16,5 C16,3.9 16.9,3 18,3 Z M6,14 C4.9,14 4,13.1 4,12 C4,10.9 4.9,10 6,10 C7.1,10 8,10.9 8,12 C8,13.1 7.1,14 6,14 Z M18,21 C16.9,21 16,20.1 16,19 C16,18.6 16.1,18.3 16.3,18 C16.3,18 16.3,18 16.3,18 C16.3,18 16.3,18 16.3,18 C16.6,17.4 17.3,17 18,17 C19.1,17 20,17.9 20,19 C20,20.1 19.1,21 18,21 Z" id="path-19"></path>
        <path d="M18,15 C16.9,15 15.9,15.5 15.2,16.2 L9.9,13.1 C9.9,12.7 10,12.4 10,12 C10,11.6 9.9,11.3 9.8,10.9 L15.1,7.8 C15.9,8.5 16.9,9 18,9 C20.2,9 22,7.2 22,5 C22,2.8 20.2,1 18,1 C15.8,1 14,2.8 14,5 C14,5.4 14.1,5.7 14.2,6.1 L8.8,9.2 C8.1,8.5 7.1,8 6,8 C3.8,8 2,9.8 2,12 C2,14.2 3.8,16 6,16 C7.1,16 8.1,15.5 8.8,14.8 L14.1,17.9 C14.1,18.3 14,18.6 14,19 C14,21.2 15.8,23 18,23 C20.2,23 22,21.2 22,19 C22,16.8 20.2,15 18,15 Z M18,3 C19.1,3 20,3.9 20,5 C20,6.1 19.1,7 18,7 C16.9,7 16,6.1 16,5 C16,3.9 16.9,3 18,3 Z M6,14 C4.9,14 4,13.1 4,12 C4,10.9 4.9,10 6,10 C7.1,10 8,10.9 8,12 C8,13.1 7.1,14 6,14 Z M18,21 C16.9,21 16,20.1 16,19 C16,18.6 16.1,18.3 16.3,18 C16.3,18 16.3,18 16.3,18 C16.3,18 16.3,18 16.3,18 C16.6,17.4 17.3,17 18,17 C19.1,17 20,17.9 20,19 C20,20.1 19.1,21 18,21 Z" id="path-21"></path>
        <path d="M18,15 C16.9,15 15.9,15.5 15.2,16.2 L9.9,13.1 C9.9,12.7 10,12.4 10,12 C10,11.6 9.9,11.3 9.8,10.9 L15.1,7.8 C15.9,8.5 16.9,9 18,9 C20.2,9 22,7.2 22,5 C22,2.8 20.2,1 18,1 C15.8,1 14,2.8 14,5 C14,5.4 14.1,5.7 14.2,6.1 L8.8,9.2 C8.1,8.5 7.1,8 6,8 C3.8,8 2,9.8 2,12 C2,14.2 3.8,16 6,16 C7.1,16 8.1,15.5 8.8,14.8 L14.1,17.9 C14.1,18.3 14,18.6 14,19 C14,21.2 15.8,23 18,23 C20.2,23 22,21.2 22,19 C22,16.8 20.2,15 18,15 Z M18,3 C19.1,3 20,3.9 20,5 C20,6.1 19.1,7 18,7 C16.9,7 16,6.1 16,5 C16,3.9 16.9,3 18,3 Z M6,14 C4.9,14 4,13.1 4,12 C4,10.9 4.9,10 6,10 C7.1,10 8,10.9 8,12 C8,13.1 7.1,14 6,14 Z M18,21 C16.9,21 16,20.1 16,19 C16,18.6 16.1,18.3 16.3,18 C16.3,18 16.3,18 16.3,18 C16.3,18 16.3,18 16.3,18 C16.6,17.4 17.3,17 18,17 C19.1,17 20,17.9 20,19 C20,20.1 19.1,21 18,21 Z" id="path-23"></path>
        <path d="M18,15 C16.9,15 15.9,15.5 15.2,16.2 L9.9,13.1 C9.9,12.7 10,12.4 10,12 C10,11.6 9.9,11.3 9.8,10.9 L15.1,7.8 C15.9,8.5 16.9,9 18,9 C20.2,9 22,7.2 22,5 C22,2.8 20.2,1 18,1 C15.8,1 14,2.8 14,5 C14,5.4 14.1,5.7 14.2,6.1 L8.8,9.2 C8.1,8.5 7.1,8 6,8 C3.8,8 2,9.8 2,12 C2,14.2 3.8,16 6,16 C7.1,16 8.1,15.5 8.8,14.8 L14.1,17.9 C14.1,18.3 14,18.6 14,19 C14,21.2 15.8,23 18,23 C20.2,23 22,21.2 22,19 C22,16.8 20.2,15 18,15 Z M18,3 C19.1,3 20,3.9 20,5 C20,6.1 19.1,7 18,7 C16.9,7 16,6.1 16,5 C16,3.9 16.9,3 18,3 Z M6,14 C4.9,14 4,13.1 4,12 C4,10.9 4.9,10 6,10 C7.1,10 8,10.9 8,12 C8,13.1 7.1,14 6,14 Z M18,21 C16.9,21 16,20.1 16,19 C16,18.6 16.1,18.3 16.3,18 C16.3,18 16.3,18 16.3,18 C16.3,18 16.3,18 16.3,18 C16.6,17.4 17.3,17 18,17 C19.1,17 20,17.9 20,19 C20,20.1 19.1,21 18,21 Z" id="path-25"></path>
        <path d="M18,15 C16.9,15 15.9,15.5 15.2,16.2 L9.9,13.1 C9.9,12.7 10,12.4 10,12 C10,11.6 9.9,11.3 9.8,10.9 L15.1,7.8 C15.9,8.5 16.9,9 18,9 C20.2,9 22,7.2 22,5 C22,2.8 20.2,1 18,1 C15.8,1 14,2.8 14,5 C14,5.4 14.1,5.7 14.2,6.1 L8.8,9.2 C8.1,8.5 7.1,8 6,8 C3.8,8 2,9.8 2,12 C2,14.2 3.8,16 6,16 C7.1,16 8.1,15.5 8.8,14.8 L14.1,17.9 C14.1,18.3 14,18.6 14,19 C14,21.2 15.8,23 18,23 C20.2,23 22,21.2 22,19 C22,16.8 20.2,15 18,15 Z M18,3 C19.1,3 20,3.9 20,5 C20,6.1 19.1,7 18,7 C16.9,7 16,6.1 16,5 C16,3.9 16.9,3 18,3 Z M6,14 C4.9,14 4,13.1 4,12 C4,10.9 4.9,10 6,10 C7.1,10 8,10.9 8,12 C8,13.1 7.1,14 6,14 Z M18,21 C16.9,21 16,20.1 16,19 C16,18.6 16.1,18.3 16.3,18 C16.3,18 16.3,18 16.3,18 C16.3,18 16.3,18 16.3,18 C16.6,17.4 17.3,17 18,17 C19.1,17 20,17.9 20,19 C20,20.1 19.1,21 18,21 Z" id="path-27"></path>
        <path d="M18,15 C16.9,15 15.9,15.5 15.2,16.2 L9.9,13.1 C9.9,12.7 10,12.4 10,12 C10,11.6 9.9,11.3 9.8,10.9 L15.1,7.8 C15.9,8.5 16.9,9 18,9 C20.2,9 22,7.2 22,5 C22,2.8 20.2,1 18,1 C15.8,1 14,2.8 14,5 C14,5.4 14.1,5.7 14.2,6.1 L8.8,9.2 C8.1,8.5 7.1,8 6,8 C3.8,8 2,9.8 2,12 C2,14.2 3.8,16 6,16 C7.1,16 8.1,15.5 8.8,14.8 L14.1,17.9 C14.1,18.3 14,18.6 14,19 C14,21.2 15.8,23 18,23 C20.2,23 22,21.2 22,19 C22,16.8 20.2,15 18,15 Z M18,3 C19.1,3 20,3.9 20,5 C20,6.1 19.1,7 18,7 C16.9,7 16,6.1 16,5 C16,3.9 16.9,3 18,3 Z M6,14 C4.9,14 4,13.1 4,12 C4,10.9 4.9,10 6,10 C7.1,10 8,10.9 8,12 C8,13.1 7.1,14 6,14 Z M18,21 C16.9,21 16,20.1 16,19 C16,18.6 16.1,18.3 16.3,18 C16.3,18 16.3,18 16.3,18 C16.3,18 16.3,18 16.3,18 C16.6,17.4 17.3,17 18,17 C19.1,17 20,17.9 20,19 C20,20.1 19.1,21 18,21 Z" id="path-29"></path>
        <path d="M18,15 C16.9,15 15.9,15.5 15.2,16.2 L9.9,13.1 C9.9,12.7 10,12.4 10,12 C10,11.6 9.9,11.3 9.8,10.9 L15.1,7.8 C15.9,8.5 16.9,9 18,9 C20.2,9 22,7.2 22,5 C22,2.8 20.2,1 18,1 C15.8,1 14,2.8 14,5 C14,5.4 14.1,5.7 14.2,6.1 L8.8,9.2 C8.1,8.5 7.1,8 6,8 C3.8,8 2,9.8 2,12 C2,14.2 3.8,16 6,16 C7.1,16 8.1,15.5 8.8,14.8 L14.1,17.9 C14.1,18.3 14,18.6 14,19 C14,21.2 15.8,23 18,23 C20.2,23 22,21.2 22,19 C22,16.8 20.2,15 18,15 Z M18,3 C19.1,3 20,3.9 20,5 C20,6.1 19.1,7 18,7 C16.9,7 16,6.1 16,5 C16,3.9 16.9,3 18,3 Z M6,14 C4.9,14 4,13.1 4,12 C4,10.9 4.9,10 6,10 C7.1,10 8,10.9 8,12 C8,13.1 7.1,14 6,14 Z M18,21 C16.9,21 16,20.1 16,19 C16,18.6 16.1,18.3 16.3,18 C16.3,18 16.3,18 16.3,18 C16.3,18 16.3,18 16.3,18 C16.6,17.4 17.3,17 18,17 C19.1,17 20,17.9 20,19 C20,20.1 19.1,21 18,21 Z" id="path-31"></path>
        <path d="M18,15 C16.9,15 15.9,15.5 15.2,16.2 L9.9,13.1 C9.9,12.7 10,12.4 10,12 C10,11.6 9.9,11.3 9.8,10.9 L15.1,7.8 C15.9,8.5 16.9,9 18,9 C20.2,9 22,7.2 22,5 C22,2.8 20.2,1 18,1 C15.8,1 14,2.8 14,5 C14,5.4 14.1,5.7 14.2,6.1 L8.8,9.2 C8.1,8.5 7.1,8 6,8 C3.8,8 2,9.8 2,12 C2,14.2 3.8,16 6,16 C7.1,16 8.1,15.5 8.8,14.8 L14.1,17.9 C14.1,18.3 14,18.6 14,19 C14,21.2 15.8,23 18,23 C20.2,23 22,21.2 22,19 C22,16.8 20.2,15 18,15 Z M18,3 C19.1,3 20,3.9 20,5 C20,6.1 19.1,7 18,7 C16.9,7 16,6.1 16,5 C16,3.9 16.9,3 18,3 Z M6,14 C4.9,14 4,13.1 4,12 C4,10.9 4.9,10 6,10 C7.1,10 8,10.9 8,12 C8,13.1 7.1,14 6,14 Z M18,21 C16.9,21 16,20.1 16,19 C16,18.6 16.1,18.3 16.3,18 C16.3,18 16.3,18 16.3,18 C16.3,18 16.3,18 16.3,18 C16.6,17.4 17.3,17 18,17 C19.1,17 20,17.9 20,19 C20,20.1 19.1,21 18,21 Z" id="path-33"></path>
        <path d="M18,15 C16.9,15 15.9,15.5 15.2,16.2 L9.9,13.1 C9.9,12.7 10,12.4 10,12 C10,11.6 9.9,11.3 9.8,10.9 L15.1,7.8 C15.9,8.5 16.9,9 18,9 C20.2,9 22,7.2 22,5 C22,2.8 20.2,1 18,1 C15.8,1 14,2.8 14,5 C14,5.4 14.1,5.7 14.2,6.1 L8.8,9.2 C8.1,8.5 7.1,8 6,8 C3.8,8 2,9.8 2,12 C2,14.2 3.8,16 6,16 C7.1,16 8.1,15.5 8.8,14.8 L14.1,17.9 C14.1,18.3 14,18.6 14,19 C14,21.2 15.8,23 18,23 C20.2,23 22,21.2 22,19 C22,16.8 20.2,15 18,15 Z M18,3 C19.1,3 20,3.9 20,5 C20,6.1 19.1,7 18,7 C16.9,7 16,6.1 16,5 C16,3.9 16.9,3 18,3 Z M6,14 C4.9,14 4,13.1 4,12 C4,10.9 4.9,10 6,10 C7.1,10 8,10.9 8,12 C8,13.1 7.1,14 6,14 Z M18,21 C16.9,21 16,20.1 16,19 C16,18.6 16.1,18.3 16.3,18 C16.3,18 16.3,18 16.3,18 C16.3,18 16.3,18 16.3,18 C16.6,17.4 17.3,17 18,17 C19.1,17 20,17.9 20,19 C20,20.1 19.1,21 18,21 Z" id="path-35"></path>
        <path d="M18,15 C16.9,15 15.9,15.5 15.2,16.2 L9.9,13.1 C9.9,12.7 10,12.4 10,12 C10,11.6 9.9,11.3 9.8,10.9 L15.1,7.8 C15.9,8.5 16.9,9 18,9 C20.2,9 22,7.2 22,5 C22,2.8 20.2,1 18,1 C15.8,1 14,2.8 14,5 C14,5.4 14.1,5.7 14.2,6.1 L8.8,9.2 C8.1,8.5 7.1,8 6,8 C3.8,8 2,9.8 2,12 C2,14.2 3.8,16 6,16 C7.1,16 8.1,15.5 8.8,14.8 L14.1,17.9 C14.1,18.3 14,18.6 14,19 C14,21.2 15.8,23 18,23 C20.2,23 22,21.2 22,19 C22,16.8 20.2,15 18,15 Z M18,3 C19.1,3 20,3.9 20,5 C20,6.1 19.1,7 18,7 C16.9,7 16,6.1 16,5 C16,3.9 16.9,3 18,3 Z M6,14 C4.9,14 4,13.1 4,12 C4,10.9 4.9,10 6,10 C7.1,10 8,10.9 8,12 C8,13.1 7.1,14 6,14 Z M18,21 C16.9,21 16,20.1 16,19 C16,18.6 16.1,18.3 16.3,18 C16.3,18 16.3,18 16.3,18 C16.3,18 16.3,18 16.3,18 C16.6,17.4 17.3,17 18,17 C19.1,17 20,17.9 20,19 C20,20.1 19.1,21 18,21 Z" id="path-37"></path>
        <path d="M18,15 C16.9,15 15.9,15.5 15.2,16.2 L9.9,13.1 C9.9,12.7 10,12.4 10,12 C10,11.6 9.9,11.3 9.8,10.9 L15.1,7.8 C15.9,8.5 16.9,9 18,9 C20.2,9 22,7.2 22,5 C22,2.8 20.2,1 18,1 C15.8,1 14,2.8 14,5 C14,5.4 14.1,5.7 14.2,6.1 L8.8,9.2 C8.1,8.5 7.1,8 6,8 C3.8,8 2,9.8 2,12 C2,14.2 3.8,16 6,16 C7.1,16 8.1,15.5 8.8,14.8 L14.1,17.9 C14.1,18.3 14,18.6 14,19 C14,21.2 15.8,23 18,23 C20.2,23 22,21.2 22,19 C22,16.8 20.2,15 18,15 Z M18,3 C19.1,3 20,3.9 20,5 C20,6.1 19.1,7 18,7 C16.9,7 16,6.1 16,5 C16,3.9 16.9,3 18,3 Z M6,14 C4.9,14 4,13.1 4,12 C4,10.9 4.9,10 6,10 C7.1,10 8,10.9 8,12 C8,13.1 7.1,14 6,14 Z M18,21 C16.9,21 16,20.1 16,19 C16,18.6 16.1,18.3 16.3,18 C16.3,18 16.3,18 16.3,18 C16.3,18 16.3,18 16.3,18 C16.6,17.4 17.3,17 18,17 C19.1,17 20,17.9 20,19 C20,20.1 19.1,21 18,21 Z" id="path-39"></path>
        <path d="M18,15 C16.9,15 15.9,15.5 15.2,16.2 L9.9,13.1 C9.9,12.7 10,12.4 10,12 C10,11.6 9.9,11.3 9.8,10.9 L15.1,7.8 C15.9,8.5 16.9,9 18,9 C20.2,9 22,7.2 22,5 C22,2.8 20.2,1 18,1 C15.8,1 14,2.8 14,5 C14,5.4 14.1,5.7 14.2,6.1 L8.8,9.2 C8.1,8.5 7.1,8 6,8 C3.8,8 2,9.8 2,12 C2,14.2 3.8,16 6,16 C7.1,16 8.1,15.5 8.8,14.8 L14.1,17.9 C14.1,18.3 14,18.6 14,19 C14,21.2 15.8,23 18,23 C20.2,23 22,21.2 22,19 C22,16.8 20.2,15 18,15 Z M18,3 C19.1,3 20,3.9 20,5 C20,6.1 19.1,7 18,7 C16.9,7 16,6.1 16,5 C16,3.9 16.9,3 18,3 Z M6,14 C4.9,14 4,13.1 4,12 C4,10.9 4.9,10 6,10 C7.1,10 8,10.9 8,12 C8,13.1 7.1,14 6,14 Z M18,21 C16.9,21 16,20.1 16,19 C16,18.6 16.1,18.3 16.3,18 C16.3,18 16.3,18 16.3,18 C16.3,18 16.3,18 16.3,18 C16.6,17.4 17.3,17 18,17 C19.1,17 20,17.9 20,19 C20,20.1 19.1,21 18,21 Z" id="path-41"></path>
    </defs>
    <g id="Website" stroke="none" stroke-width="1" fill="none" fill-rule="evenodd">
        <g id="Desktop" transform="translate(-18.000000, -2146.000000)">
            <g id="Zuteilungen" transform="translate(0.000000, 2145.000000)">
                <g id="Icon-Pattern" transform="translate(16.000000, 0.000000)">
                    <g id="icon-/-share-2" transform="translate(0.000000, 40.000000)">
                        <mask id="mask-2" fill="white">
                            <use xlink:href="#path-1"></use>
                        </mask>
                        <use id="Mask" fill="#000000" fill-rule="nonzero" xlink:href="#path-1"></use>
                        <g id="Colors/Monochrome/gray--2" mask="url(#mask-2)" fill="#313233" fill-rule="evenodd">
                            <rect id="Rectangle" x="0" y="0" width="24" height="24"></rect>
                        </g>
                    </g>
                    <g id="icon-/-share-2" opacity="0.75" transform="translate(64.000000, 80.000000)">
                        <mask id="mask-4" fill="white">
                            <use xlink:href="#path-3"></use>
                        </mask>
                        <use id="Mask" fill="#000000" fill-rule="nonzero" xlink:href="#path-3"></use>
                        <g id="Colors/Monochrome/gray--2" mask="url(#mask-4)" fill="#313233" fill-rule="evenodd">
                            <rect id="Rectangle" x="0" y="0" width="24" height="24"></rect>
                        </g>
                    </g>
                    <g id="icon-/-share-2" opacity="0.25" transform="translate(192.000000, 80.000000)">
                        <mask id="mask-6" fill="white">
                            <use xlink:href="#path-5"></use>
                        </mask>
                        <use id="Mask" fill="#000000" fill-rule="nonzero" xlink:href="#path-5"></use>
                        <g id="Colors/Monochrome/gray--2" mask="url(#mask-6)" fill="#313233" fill-rule="evenodd">
                            <rect id="Rectangle" x="0" y="0" width="24" height="24"></rect>
                        </g>
                    </g>
                    <g id="icon-/-share-2" opacity="0.75" transform="translate(64.000000, 0.000000)">
                        <mask id="mask-8" fill="white">
                            <use xlink:href="#path-7"></use>
                        </mask>
                        <use id="Mask" fill="#000000" fill-rule="nonzero" xlink:href="#path-7"></use>
                        <g id="Colors/Monochrome/gray--2" mask="url(#mask-8)" fill="#313233" fill-rule="evenodd">
                            <rect id="Rectangle" x="0" y="0" width="24" height="24"></rect>
                        </g>
                    </g>
                    <g id="icon-/-share-2" opacity="0.5" transform="translate(128.000000, 120.000000)">
                        <mask id="mask-10" fill="white">
                            <use xlink:href="#path-9"></use>
                        </mask>
                        <use id="Mask" fill="#000000" fill-rule="nonzero" xlink:href="#path-9"></use>
                        <g id="Colors/Monochrome/gray--2" mask="url(#mask-10)" fill="#313233" fill-rule="evenodd">
                            <rect id="Rectangle" x="0" y="0" width="24" height="24"></rect>
                        </g>
                    </g>
                    <g id="icon-/-share-2" transform="translate(0.000000, 120.000000)">
                        <mask id="mask-12" fill="white">
                            <use xlink:href="#path-11"></use>
                        </mask>
                        <use id="Mask" fill="#000000" fill-rule="nonzero" xlink:href="#path-11"></use>
                        <g id="Colors/Monochrome/gray--2" mask="url(#mask-12)" fill="#313233" fill-rule="evenodd">
                            <rect id="Rectangle" x="0" y="0" width="24" height="24"></rect>
                        </g>
                    </g>
                    <g id="icon-/-share-2" opacity="0.75" transform="translate(64.000000, 160.000000)">
                        <mask id="mask-14" fill="white">
                            <use xlink:href="#path-13"></use>
                        </mask>
                        <use id="Mask" fill="#000000" fill-rule="nonzero" xlink:href="#path-13"></use>
                        <g id="Colors/Monochrome/gray--2" mask="url(#mask-14)" fill="#313233" fill-rule="evenodd">
                            <rect id="Rectangle" x="0" y="0" width="24" height="24"></rect>
                        </g>
                    </g>
                    <g id="icon-/-share-2" opacity="0.25" transform="translate(192.000000, 160.000000)">
                        <mask id="mask-16" fill="white">
                            <use xlink:href="#path-15"></use>
                        </mask>
                        <use id="Mask" fill="#000000" fill-rule="nonzero" xlink:href="#path-15"></use>
                        <g id="Colors/Monochrome/gray--2" mask="url(#mask-16)" fill="#313233" fill-rule="evenodd">
                            <rect id="Rectangle" x="0" y="0" width="24" height="24"></rect>
                        </g>
                    </g>
                    <g id="icon-/-share-2" opacity="0.5" transform="translate(128.000000, 200.000000)">
                        <mask id="mask-18" fill="white">
                            <use xlink:href="#path-17"></use>
                        </mask>
                        <use id="Mask" fill="#000000" fill-rule="nonzero" xlink:href="#path-17"></use>
                        <g id="Colors/Monochrome/gray--2" mask="url(#mask-18)" fill="#313233" fill-rule="evenodd">
                            <rect id="Rectangle" x="0" y="0" width="24" height="24"></rect>
                        </g>
                    </g>
                    <g id="icon-/-share-2" transform="translate(0.000000, 200.000000)">
                        <mask id="mask-20" fill="white">
                            <use xlink:href="#path-19"></use>
                        </mask>
                        <use id="Mask" fill="#000000" fill-rule="nonzero" xlink:href="#path-19"></use>
                        <g id="Colors/Monochrome/gray--2" mask="url(#mask-20)" fill="#313233" fill-rule="evenodd">
                            <rect id="Rectangle" x="0" y="0" width="24" height="24"></rect>
                        </g>
                    </g>
                    <g id="icon-/-share-2" opacity="0.75" transform="translate(64.000000, 240.000000)">
                        <mask id="mask-22" fill="white">
                            <use xlink:href="#path-21"></use>
                        </mask>
                        <use id="Mask" fill="#000000" fill-rule="nonzero" xlink:href="#path-21"></use>
                        <g id="Colors/Monochrome/gray--2" mask="url(#mask-22)" fill="#313233" fill-rule="evenodd">
                            <rect id="Rectangle" x="0" y="0" width="24" height="24"></rect>
                        </g>
                    </g>
                    <g id="icon-/-share-2" opacity="0.25" transform="translate(192.000000, 240.000000)">
                        <mask id="mask-24" fill="white">
                            <use xlink:href="#path-23"></use>
                        </mask>
                        <use id="Mask" fill="#000000" fill-rule="nonzero" xlink:href="#path-23"></use>
                        <g id="Colors/Monochrome/gray--2" mask="url(#mask-24)" fill="#313233" fill-rule="evenodd">
                            <rect id="Rectangle" x="0" y="0" width="24" height="24"></rect>
                        </g>
                    </g>
                    <g id="icon-/-share-2" opacity="0.5" transform="translate(128.000000, 280.000000)">
                        <mask id="mask-26" fill="white">
                            <use xlink:href="#path-25"></use>
                        </mask>
                        <use id="Mask" fill="#000000" fill-rule="nonzero" xlink:href="#path-25"></use>
                        <g id="Colors/Monochrome/gray--2" mask="url(#mask-26)" fill="#313233" fill-rule="evenodd">
                            <rect id="Rectangle" x="0" y="0" width="24" height="24"></rect>
                        </g>
                    </g>
                    <g id="icon-/-share-2" transform="translate(0.000000, 280.000000)">
                        <mask id="mask-28" fill="white">
                            <use xlink:href="#path-27"></use>
                        </mask>
                        <use id="Mask" fill="#000000" fill-rule="nonzero" xlink:href="#path-27"></use>
                        <g id="Colors/Monochrome/gray--2" mask="url(#mask-28)" fill="#313233" fill-rule="evenodd">
                            <rect id="Rectangle" x="0" y="0" width="24" height="24"></rect>
                        </g>
                    </g>
                    <g id="icon-/-share-2" opacity="0.75" transform="translate(64.000000, 320.000000)">
                        <mask id="mask-30" fill="white">
                            <use xlink:href="#path-29"></use>
                        </mask>
                        <use id="Mask" fill="#000000" fill-rule="nonzero" xlink:href="#path-29"></use>
                        <g id="Colors/Monochrome/gray--2" mask="url(#mask-30)" fill="#313233" fill-rule="evenodd">
                            <rect id="Rectangle" x="0" y="0" width="24" height="24"></rect>
                        </g>
                    </g>
                    <g id="icon-/-share-2" opacity="0.25" transform="translate(192.000000, 320.000000)">
                        <mask id="mask-32" fill="white">
                            <use xlink:href="#path-31"></use>
                        </mask>
                        <use id="Mask" fill="#000000" fill-rule="nonzero" xlink:href="#path-31"></use>
                        <g id="Colors/Monochrome/gray--2" mask="url(#mask-32)" fill="#313233" fill-rule="evenodd">
                            <rect id="Rectangle" x="0" y="0" width="24" height="24"></rect>
                        </g>
                    </g>
                    <g id="icon-/-share-2" opacity="0.5" transform="translate(128.000000, 360.000000)">
                        <mask id="mask-34" fill="white">
                            <use xlink:href="#path-33"></use>
                        </mask>
                        <use id="Mask" fill="#000000" fill-rule="nonzero" xlink:href="#path-33"></use>
                        <g id="Colors/Monochrome/gray--2" mask="url(#mask-34)" fill="#313233" fill-rule="evenodd">
                            <rect id="Rectangle" x="0" y="0" width="24" height="24"></rect>
                        </g>
                    </g>
                    <g id="icon-/-share-2" opacity="0.5" transform="translate(128.000000, 440.000000)">
                        <mask id="mask-36" fill="white">
                            <use xlink:href="#path-35"></use>
                        </mask>
                        <use id="Mask" fill="#000000" fill-rule="nonzero" xlink:href="#path-35"></use>
                        <g id="Colors/Monochrome/gray--2" mask="url(#mask-36)" fill="#313233" fill-rule="evenodd">
                            <rect id="Rectangle" x="0" y="0" width="24" height="24"></rect>
                        </g>
                    </g>
                    <g id="icon-/-share-2" transform="translate(0.000000, 360.000000)">
                        <mask id="mask-38" fill="white">
                            <use xlink:href="#path-37"></use>
                        </mask>
                        <use id="Mask" fill="#000000" fill-rule="nonzero" xlink:href="#path-37"></use>
                        <g id="Colors/Monochrome/gray--2" mask="url(#mask-38)" fill="#313233" fill-rule="evenodd">
                            <rect id="Rectangle" x="0" y="0" width="24" height="24"></rect>
                        </g>
                    </g>
                    <g id="icon-/-share-2" opacity="0.75" transform="translate(64.000000, 400.000000)">
                        <mask id="mask-40" fill="white">
                            <use xlink:href="#path-39"></use>
                        </mask>
                        <use id="Mask" fill="#000000" fill-rule="nonzero" xlink:href="#path-39"></use>
                        <g id="Colors/Monochrome/gray--2" mask="url(#mask-40)" fill="#313233" fill-rule="evenodd">
                            <rect id="Rectangle" x="0" y="0" width="24" height="24"></rect>
                        </g>
                    </g>
                    <g id="icon-/-share-2" transform="translate(0.000000, 440.000000)">
                        <mask id="mask-42" fill="white">
                            <use xlink:href="#path-41"></use>
                        </mask>
                        <use id="Mask" fill="#000000" fill-rule="nonzero" xlink:href="#path-41"></use>
                        <g id="Colors/Monochrome/gray--2" mask="url(#mask-42)" fill="#313233" fill-rule="evenodd">
                            <rect id="Rectangle" x="0" y="0" width="24" height="24"></rect>
                        </g>
                    </g>
                </g>
            </g>
        </g>
    </g>
</svg>