<?xml version="1.0" encoding="UTF-8"?>
<svg width="214px" height="462px" viewBox="0 0 214 462" version="1.1" xmlns="http://www.w3.org/2000/svg" xmlns:xlink="http://www.w3.org/1999/xlink">
    <!-- Generator: Sketch 54.1 (76490) - https://sketchapp.com -->
    <title>Icon Pattern</title>
    <desc>Created with Sketch.</desc>
    <defs>
        <path d="M1.6,7.88282139 L11.6,12.8885097 C11.7,12.9886234 11.8,12.9886234 12,12.9886234 C12.2,12.9886234 12.3,12.9886234 12.4,12.8885097 L22.4,7.88282139 C22.8,7.68259386 23,7.38225256 23,6.9817975 C23,6.58134243 22.8,6.28100114 22.4,6.08077361 L12.4,1.07508532 C12.1,0.974971559 11.8,0.974971559 11.5,1.07508532 L1.5,6.08077361 C1.2,6.28100114 1,6.58134243 1,6.9817975 C1,7.38225256 1.2,7.68259386 1.6,7.88282139 Z M12,3.07736064 L19.8,6.9817975 L12,10.8862344 L4.2,6.9817975 L12,3.07736064 Z M22.9,16.592719 C23.1,17.0932878 22.9,17.6939704 22.5,17.894198 L12.5,22.8998862 C12.3,23 12.2,23 12,23 C11.8,23 11.7,23 11.6,22.8998862 L1.6,17.894198 C1.1,17.6939704 0.9,17.0932878 1.2,16.592719 C1.4,16.0921502 2,15.8919226 2.5,16.1922639 L12.1,20.9977247 L21.7,16.1922639 C22,15.8919226 22.6,16.0921502 22.9,16.592719 Z M22.9,11.5870307 C23.1,12.0875995 22.9,12.6882821 22.5,12.8885097 L12.5,17.894198 C12.3,17.9943117 12.2,17.9943117 12,17.9943117 C11.8,17.9943117 11.7,17.9943117 11.6,17.894198 L1.6,12.8885097 C1.1,12.6882821 0.9,12.0875995 1.2,11.5870307 C1.4,11.0864619 2,10.8862344 2.5,11.1865757 L12.1,15.9920364 L21.7,11.1865757 C22,10.8862344 22.6,11.0864619 22.9,11.5870307 Z" id="path-1"></path>
        <path d="M1.6,7.88282139 L11.6,12.8885097 C11.7,12.9886234 11.8,12.9886234 12,12.9886234 C12.2,12.9886234 12.3,12.9886234 12.4,12.8885097 L22.4,7.88282139 C22.8,7.68259386 23,7.38225256 23,6.9817975 C23,6.58134243 22.8,6.28100114 22.4,6.08077361 L12.4,1.07508532 C12.1,0.974971559 11.8,0.974971559 11.5,1.07508532 L1.5,6.08077361 C1.2,6.28100114 1,6.58134243 1,6.9817975 C1,7.38225256 1.2,7.68259386 1.6,7.88282139 Z M12,3.07736064 L19.8,6.9817975 L12,10.8862344 L4.2,6.9817975 L12,3.07736064 Z M22.9,16.592719 C23.1,17.0932878 22.9,17.6939704 22.5,17.894198 L12.5,22.8998862 C12.3,23 12.2,23 12,23 C11.8,23 11.7,23 11.6,22.8998862 L1.6,17.894198 C1.1,17.6939704 0.9,17.0932878 1.2,16.592719 C1.4,16.0921502 2,15.8919226 2.5,16.1922639 L12.1,20.9977247 L21.7,16.1922639 C22,15.8919226 22.6,16.0921502 22.9,16.592719 Z M22.9,11.5870307 C23.1,12.0875995 22.9,12.6882821 22.5,12.8885097 L12.5,17.894198 C12.3,17.9943117 12.2,17.9943117 12,17.9943117 C11.8,17.9943117 11.7,17.9943117 11.6,17.894198 L1.6,12.8885097 C1.1,12.6882821 0.9,12.0875995 1.2,11.5870307 C1.4,11.0864619 2,10.8862344 2.5,11.1865757 L12.1,15.9920364 L21.7,11.1865757 C22,10.8862344 22.6,11.0864619 22.9,11.5870307 Z" id="path-3"></path>
        <path d="M1.6,7.88282139 L11.6,12.8885097 C11.7,12.9886234 11.8,12.9886234 12,12.9886234 C12.2,12.9886234 12.3,12.9886234 12.4,12.8885097 L22.4,7.88282139 C22.8,7.68259386 23,7.38225256 23,6.9817975 C23,6.58134243 22.8,6.28100114 22.4,6.08077361 L12.4,1.07508532 C12.1,0.974971559 11.8,0.974971559 11.5,1.07508532 L1.5,6.08077361 C1.2,6.28100114 1,6.58134243 1,6.9817975 C1,7.38225256 1.2,7.68259386 1.6,7.88282139 Z M12,3.07736064 L19.8,6.9817975 L12,10.8862344 L4.2,6.9817975 L12,3.07736064 Z M22.9,16.592719 C23.1,17.0932878 22.9,17.6939704 22.5,17.894198 L12.5,22.8998862 C12.3,23 12.2,23 12,23 C11.8,23 11.7,23 11.6,22.8998862 L1.6,17.894198 C1.1,17.6939704 0.9,17.0932878 1.2,16.592719 C1.4,16.0921502 2,15.8919226 2.5,16.1922639 L12.1,20.9977247 L21.7,16.1922639 C22,15.8919226 22.6,16.0921502 22.9,16.592719 Z M22.9,11.5870307 C23.1,12.0875995 22.9,12.6882821 22.5,12.8885097 L12.5,17.894198 C12.3,17.9943117 12.2,17.9943117 12,17.9943117 C11.8,17.9943117 11.7,17.9943117 11.6,17.894198 L1.6,12.8885097 C1.1,12.6882821 0.9,12.0875995 1.2,11.5870307 C1.4,11.0864619 2,10.8862344 2.5,11.1865757 L12.1,15.9920364 L21.7,11.1865757 C22,10.8862344 22.6,11.0864619 22.9,11.5870307 Z" id="path-5"></path>
        <path d="M1.6,7.88282139 L11.6,12.8885097 C11.7,12.9886234 11.8,12.9886234 12,12.9886234 C12.2,12.9886234 12.3,12.9886234 12.4,12.8885097 L22.4,7.88282139 C22.8,7.68259386 23,7.38225256 23,6.9817975 C23,6.58134243 22.8,6.28100114 22.4,6.08077361 L12.4,1.07508532 C12.1,0.974971559 11.8,0.974971559 11.5,1.07508532 L1.5,6.08077361 C1.2,6.28100114 1,6.58134243 1,6.9817975 C1,7.38225256 1.2,7.68259386 1.6,7.88282139 Z M12,3.07736064 L19.8,6.9817975 L12,10.8862344 L4.2,6.9817975 L12,3.07736064 Z M22.9,16.592719 C23.1,17.0932878 22.9,17.6939704 22.5,17.894198 L12.5,22.8998862 C12.3,23 12.2,23 12,23 C11.8,23 11.7,23 11.6,22.8998862 L1.6,17.894198 C1.1,17.6939704 0.9,17.0932878 1.2,16.592719 C1.4,16.0921502 2,15.8919226 2.5,16.1922639 L12.1,20.9977247 L21.7,16.1922639 C22,15.8919226 22.6,16.0921502 22.9,16.592719 Z M22.9,11.5870307 C23.1,12.0875995 22.9,12.6882821 22.5,12.8885097 L12.5,17.894198 C12.3,17.9943117 12.2,17.9943117 12,17.9943117 C11.8,17.9943117 11.7,17.9943117 11.6,17.894198 L1.6,12.8885097 C1.1,12.6882821 0.9,12.0875995 1.2,11.5870307 C1.4,11.0864619 2,10.8862344 2.5,11.1865757 L12.1,15.9920364 L21.7,11.1865757 C22,10.8862344 22.6,11.0864619 22.9,11.5870307 Z" id="path-7"></path>
        <path d="M1.6,7.88282139 L11.6,12.8885097 C11.7,12.9886234 11.8,12.9886234 12,12.9886234 C12.2,12.9886234 12.3,12.9886234 12.4,12.8885097 L22.4,7.88282139 C22.8,7.68259386 23,7.38225256 23,6.9817975 C23,6.58134243 22.8,6.28100114 22.4,6.08077361 L12.4,1.07508532 C12.1,0.974971559 11.8,0.974971559 11.5,1.07508532 L1.5,6.08077361 C1.2,6.28100114 1,6.58134243 1,6.9817975 C1,7.38225256 1.2,7.68259386 1.6,7.88282139 Z M12,3.07736064 L19.8,6.9817975 L12,10.8862344 L4.2,6.9817975 L12,3.07736064 Z M22.9,16.592719 C23.1,17.0932878 22.9,17.6939704 22.5,17.894198 L12.5,22.8998862 C12.3,23 12.2,23 12,23 C11.8,23 11.7,23 11.6,22.8998862 L1.6,17.894198 C1.1,17.6939704 0.9,17.0932878 1.2,16.592719 C1.4,16.0921502 2,15.8919226 2.5,16.1922639 L12.1,20.9977247 L21.7,16.1922639 C22,15.8919226 22.6,16.0921502 22.9,16.592719 Z M22.9,11.5870307 C23.1,12.0875995 22.9,12.6882821 22.5,12.8885097 L12.5,17.894198 C12.3,17.9943117 12.2,17.9943117 12,17.9943117 C11.8,17.9943117 11.7,17.9943117 11.6,17.894198 L1.6,12.8885097 C1.1,12.6882821 0.9,12.0875995 1.2,11.5870307 C1.4,11.0864619 2,10.8862344 2.5,11.1865757 L12.1,15.9920364 L21.7,11.1865757 C22,10.8862344 22.6,11.0864619 22.9,11.5870307 Z" id="path-9"></path>
        <path d="M1.6,7.88282139 L11.6,12.8885097 C11.7,12.9886234 11.8,12.9886234 12,12.9886234 C12.2,12.9886234 12.3,12.9886234 12.4,12.8885097 L22.4,7.88282139 C22.8,7.68259386 23,7.38225256 23,6.9817975 C23,6.58134243 22.8,6.28100114 22.4,6.08077361 L12.4,1.07508532 C12.1,0.974971559 11.8,0.974971559 11.5,1.07508532 L1.5,6.08077361 C1.2,6.28100114 1,6.58134243 1,6.9817975 C1,7.38225256 1.2,7.68259386 1.6,7.88282139 Z M12,3.07736064 L19.8,6.9817975 L12,10.8862344 L4.2,6.9817975 L12,3.07736064 Z M22.9,16.592719 C23.1,17.0932878 22.9,17.6939704 22.5,17.894198 L12.5,22.8998862 C12.3,23 12.2,23 12,23 C11.8,23 11.7,23 11.6,22.8998862 L1.6,17.894198 C1.1,17.6939704 0.9,17.0932878 1.2,16.592719 C1.4,16.0921502 2,15.8919226 2.5,16.1922639 L12.1,20.9977247 L21.7,16.1922639 C22,15.8919226 22.6,16.0921502 22.9,16.592719 Z M22.9,11.5870307 C23.1,12.0875995 22.9,12.6882821 22.5,12.8885097 L12.5,17.894198 C12.3,17.9943117 12.2,17.9943117 12,17.9943117 C11.8,17.9943117 11.7,17.9943117 11.6,17.894198 L1.6,12.8885097 C1.1,12.6882821 0.9,12.0875995 1.2,11.5870307 C1.4,11.0864619 2,10.8862344 2.5,11.1865757 L12.1,15.9920364 L21.7,11.1865757 C22,10.8862344 22.6,11.0864619 22.9,11.5870307 Z" id="path-11"></path>
        <path d="M1.6,7.88282139 L11.6,12.8885097 C11.7,12.9886234 11.8,12.9886234 12,12.9886234 C12.2,12.9886234 12.3,12.9886234 12.4,12.8885097 L22.4,7.88282139 C22.8,7.68259386 23,7.38225256 23,6.9817975 C23,6.58134243 22.8,6.28100114 22.4,6.08077361 L12.4,1.07508532 C12.1,0.974971559 11.8,0.974971559 11.5,1.07508532 L1.5,6.08077361 C1.2,6.28100114 1,6.58134243 1,6.9817975 C1,7.38225256 1.2,7.68259386 1.6,7.88282139 Z M12,3.07736064 L19.8,6.9817975 L12,10.8862344 L4.2,6.9817975 L12,3.07736064 Z M22.9,16.592719 C23.1,17.0932878 22.9,17.6939704 22.5,17.894198 L12.5,22.8998862 C12.3,23 12.2,23 12,23 C11.8,23 11.7,23 11.6,22.8998862 L1.6,17.894198 C1.1,17.6939704 0.9,17.0932878 1.2,16.592719 C1.4,16.0921502 2,15.8919226 2.5,16.1922639 L12.1,20.9977247 L21.7,16.1922639 C22,15.8919226 22.6,16.0921502 22.9,16.592719 Z M22.9,11.5870307 C23.1,12.0875995 22.9,12.6882821 22.5,12.8885097 L12.5,17.894198 C12.3,17.9943117 12.2,17.9943117 12,17.9943117 C11.8,17.9943117 11.7,17.9943117 11.6,17.894198 L1.6,12.8885097 C1.1,12.6882821 0.9,12.0875995 1.2,11.5870307 C1.4,11.0864619 2,10.8862344 2.5,11.1865757 L12.1,15.9920364 L21.7,11.1865757 C22,10.8862344 22.6,11.0864619 22.9,11.5870307 Z" id="path-13"></path>
        <path d="M1.6,7.88282139 L11.6,12.8885097 C11.7,12.9886234 11.8,12.9886234 12,12.9886234 C12.2,12.9886234 12.3,12.9886234 12.4,12.8885097 L22.4,7.88282139 C22.8,7.68259386 23,7.38225256 23,6.9817975 C23,6.58134243 22.8,6.28100114 22.4,6.08077361 L12.4,1.07508532 C12.1,0.974971559 11.8,0.974971559 11.5,1.07508532 L1.5,6.08077361 C1.2,6.28100114 1,6.58134243 1,6.9817975 C1,7.38225256 1.2,7.68259386 1.6,7.88282139 Z M12,3.07736064 L19.8,6.9817975 L12,10.8862344 L4.2,6.9817975 L12,3.07736064 Z M22.9,16.592719 C23.1,17.0932878 22.9,17.6939704 22.5,17.894198 L12.5,22.8998862 C12.3,23 12.2,23 12,23 C11.8,23 11.7,23 11.6,22.8998862 L1.6,17.894198 C1.1,17.6939704 0.9,17.0932878 1.2,16.592719 C1.4,16.0921502 2,15.8919226 2.5,16.1922639 L12.1,20.9977247 L21.7,16.1922639 C22,15.8919226 22.6,16.0921502 22.9,16.592719 Z M22.9,11.5870307 C23.1,12.0875995 22.9,12.6882821 22.5,12.8885097 L12.5,17.894198 C12.3,17.9943117 12.2,17.9943117 12,17.9943117 C11.8,17.9943117 11.7,17.9943117 11.6,17.894198 L1.6,12.8885097 C1.1,12.6882821 0.9,12.0875995 1.2,11.5870307 C1.4,11.0864619 2,10.8862344 2.5,11.1865757 L12.1,15.9920364 L21.7,11.1865757 C22,10.8862344 22.6,11.0864619 22.9,11.5870307 Z" id="path-15"></path>
        <path d="M1.6,7.88282139 L11.6,12.8885097 C11.7,12.9886234 11.8,12.9886234 12,12.9886234 C12.2,12.9886234 12.3,12.9886234 12.4,12.8885097 L22.4,7.88282139 C22.8,7.68259386 23,7.38225256 23,6.9817975 C23,6.58134243 22.8,6.28100114 22.4,6.08077361 L12.4,1.07508532 C12.1,0.974971559 11.8,0.974971559 11.5,1.07508532 L1.5,6.08077361 C1.2,6.28100114 1,6.58134243 1,6.9817975 C1,7.38225256 1.2,7.68259386 1.6,7.88282139 Z M12,3.07736064 L19.8,6.9817975 L12,10.8862344 L4.2,6.9817975 L12,3.07736064 Z M22.9,16.592719 C23.1,17.0932878 22.9,17.6939704 22.5,17.894198 L12.5,22.8998862 C12.3,23 12.2,23 12,23 C11.8,23 11.7,23 11.6,22.8998862 L1.6,17.894198 C1.1,17.6939704 0.9,17.0932878 1.2,16.592719 C1.4,16.0921502 2,15.8919226 2.5,16.1922639 L12.1,20.9977247 L21.7,16.1922639 C22,15.8919226 22.6,16.0921502 22.9,16.592719 Z M22.9,11.5870307 C23.1,12.0875995 22.9,12.6882821 22.5,12.8885097 L12.5,17.894198 C12.3,17.9943117 12.2,17.9943117 12,17.9943117 C11.8,17.9943117 11.7,17.9943117 11.6,17.894198 L1.6,12.8885097 C1.1,12.6882821 0.9,12.0875995 1.2,11.5870307 C1.4,11.0864619 2,10.8862344 2.5,11.1865757 L12.1,15.9920364 L21.7,11.1865757 C22,10.8862344 22.6,11.0864619 22.9,11.5870307 Z" id="path-17"></path>
        <path d="M1.6,7.88282139 L11.6,12.8885097 C11.7,12.9886234 11.8,12.9886234 12,12.9886234 C12.2,12.9886234 12.3,12.9886234 12.4,12.8885097 L22.4,7.88282139 C22.8,7.68259386 23,7.38225256 23,6.9817975 C23,6.58134243 22.8,6.28100114 22.4,6.08077361 L12.4,1.07508532 C12.1,0.974971559 11.8,0.974971559 11.5,1.07508532 L1.5,6.08077361 C1.2,6.28100114 1,6.58134243 1,6.9817975 C1,7.38225256 1.2,7.68259386 1.6,7.88282139 Z M12,3.07736064 L19.8,6.9817975 L12,10.8862344 L4.2,6.9817975 L12,3.07736064 Z M22.9,16.592719 C23.1,17.0932878 22.9,17.6939704 22.5,17.894198 L12.5,22.8998862 C12.3,23 12.2,23 12,23 C11.8,23 11.7,23 11.6,22.8998862 L1.6,17.894198 C1.1,17.6939704 0.9,17.0932878 1.2,16.592719 C1.4,16.0921502 2,15.8919226 2.5,16.1922639 L12.1,20.9977247 L21.7,16.1922639 C22,15.8919226 22.6,16.0921502 22.9,16.592719 Z M22.9,11.5870307 C23.1,12.0875995 22.9,12.6882821 22.5,12.8885097 L12.5,17.894198 C12.3,17.9943117 12.2,17.9943117 12,17.9943117 C11.8,17.9943117 11.7,17.9943117 11.6,17.894198 L1.6,12.8885097 C1.1,12.6882821 0.9,12.0875995 1.2,11.5870307 C1.4,11.0864619 2,10.8862344 2.5,11.1865757 L12.1,15.9920364 L21.7,11.1865757 C22,10.8862344 22.6,11.0864619 22.9,11.5870307 Z" id="path-19"></path>
        <path d="M1.6,7.88282139 L11.6,12.8885097 C11.7,12.9886234 11.8,12.9886234 12,12.9886234 C12.2,12.9886234 12.3,12.9886234 12.4,12.8885097 L22.4,7.88282139 C22.8,7.68259386 23,7.38225256 23,6.9817975 C23,6.58134243 22.8,6.28100114 22.4,6.08077361 L12.4,1.07508532 C12.1,0.974971559 11.8,0.974971559 11.5,1.07508532 L1.5,6.08077361 C1.2,6.28100114 1,6.58134243 1,6.9817975 C1,7.38225256 1.2,7.68259386 1.6,7.88282139 Z M12,3.07736064 L19.8,6.9817975 L12,10.8862344 L4.2,6.9817975 L12,3.07736064 Z M22.9,16.592719 C23.1,17.0932878 22.9,17.6939704 22.5,17.894198 L12.5,22.8998862 C12.3,23 12.2,23 12,23 C11.8,23 11.7,23 11.6,22.8998862 L1.6,17.894198 C1.1,17.6939704 0.9,17.0932878 1.2,16.592719 C1.4,16.0921502 2,15.8919226 2.5,16.1922639 L12.1,20.9977247 L21.7,16.1922639 C22,15.8919226 22.6,16.0921502 22.9,16.592719 Z M22.9,11.5870307 C23.1,12.0875995 22.9,12.6882821 22.5,12.8885097 L12.5,17.894198 C12.3,17.9943117 12.2,17.9943117 12,17.9943117 C11.8,17.9943117 11.7,17.9943117 11.6,17.894198 L1.6,12.8885097 C1.1,12.6882821 0.9,12.0875995 1.2,11.5870307 C1.4,11.0864619 2,10.8862344 2.5,11.1865757 L12.1,15.9920364 L21.7,11.1865757 C22,10.8862344 22.6,11.0864619 22.9,11.5870307 Z" id="path-21"></path>
        <path d="M1.6,7.88282139 L11.6,12.8885097 C11.7,12.9886234 11.8,12.9886234 12,12.9886234 C12.2,12.9886234 12.3,12.9886234 12.4,12.8885097 L22.4,7.88282139 C22.8,7.68259386 23,7.38225256 23,6.9817975 C23,6.58134243 22.8,6.28100114 22.4,6.08077361 L12.4,1.07508532 C12.1,0.974971559 11.8,0.974971559 11.5,1.07508532 L1.5,6.08077361 C1.2,6.28100114 1,6.58134243 1,6.9817975 C1,7.38225256 1.2,7.68259386 1.6,7.88282139 Z M12,3.07736064 L19.8,6.9817975 L12,10.8862344 L4.2,6.9817975 L12,3.07736064 Z M22.9,16.592719 C23.1,17.0932878 22.9,17.6939704 22.5,17.894198 L12.5,22.8998862 C12.3,23 12.2,23 12,23 C11.8,23 11.7,23 11.6,22.8998862 L1.6,17.894198 C1.1,17.6939704 0.9,17.0932878 1.2,16.592719 C1.4,16.0921502 2,15.8919226 2.5,16.1922639 L12.1,20.9977247 L21.7,16.1922639 C22,15.8919226 22.6,16.0921502 22.9,16.592719 Z M22.9,11.5870307 C23.1,12.0875995 22.9,12.6882821 22.5,12.8885097 L12.5,17.894198 C12.3,17.9943117 12.2,17.9943117 12,17.9943117 C11.8,17.9943117 11.7,17.9943117 11.6,17.894198 L1.6,12.8885097 C1.1,12.6882821 0.9,12.0875995 1.2,11.5870307 C1.4,11.0864619 2,10.8862344 2.5,11.1865757 L12.1,15.9920364 L21.7,11.1865757 C22,10.8862344 22.6,11.0864619 22.9,11.5870307 Z" id="path-23"></path>
        <path d="M1.6,7.88282139 L11.6,12.8885097 C11.7,12.9886234 11.8,12.9886234 12,12.9886234 C12.2,12.9886234 12.3,12.9886234 12.4,12.8885097 L22.4,7.88282139 C22.8,7.68259386 23,7.38225256 23,6.9817975 C23,6.58134243 22.8,6.28100114 22.4,6.08077361 L12.4,1.07508532 C12.1,0.974971559 11.8,0.974971559 11.5,1.07508532 L1.5,6.08077361 C1.2,6.28100114 1,6.58134243 1,6.9817975 C1,7.38225256 1.2,7.68259386 1.6,7.88282139 Z M12,3.07736064 L19.8,6.9817975 L12,10.8862344 L4.2,6.9817975 L12,3.07736064 Z M22.9,16.592719 C23.1,17.0932878 22.9,17.6939704 22.5,17.894198 L12.5,22.8998862 C12.3,23 12.2,23 12,23 C11.8,23 11.7,23 11.6,22.8998862 L1.6,17.894198 C1.1,17.6939704 0.9,17.0932878 1.2,16.592719 C1.4,16.0921502 2,15.8919226 2.5,16.1922639 L12.1,20.9977247 L21.7,16.1922639 C22,15.8919226 22.6,16.0921502 22.9,16.592719 Z M22.9,11.5870307 C23.1,12.0875995 22.9,12.6882821 22.5,12.8885097 L12.5,17.894198 C12.3,17.9943117 12.2,17.9943117 12,17.9943117 C11.8,17.9943117 11.7,17.9943117 11.6,17.894198 L1.6,12.8885097 C1.1,12.6882821 0.9,12.0875995 1.2,11.5870307 C1.4,11.0864619 2,10.8862344 2.5,11.1865757 L12.1,15.9920364 L21.7,11.1865757 C22,10.8862344 22.6,11.0864619 22.9,11.5870307 Z" id="path-25"></path>
        <path d="M1.6,7.88282139 L11.6,12.8885097 C11.7,12.9886234 11.8,12.9886234 12,12.9886234 C12.2,12.9886234 12.3,12.9886234 12.4,12.8885097 L22.4,7.88282139 C22.8,7.68259386 23,7.38225256 23,6.9817975 C23,6.58134243 22.8,6.28100114 22.4,6.08077361 L12.4,1.07508532 C12.1,0.974971559 11.8,0.974971559 11.5,1.07508532 L1.5,6.08077361 C1.2,6.28100114 1,6.58134243 1,6.9817975 C1,7.38225256 1.2,7.68259386 1.6,7.88282139 Z M12,3.07736064 L19.8,6.9817975 L12,10.8862344 L4.2,6.9817975 L12,3.07736064 Z M22.9,16.592719 C23.1,17.0932878 22.9,17.6939704 22.5,17.894198 L12.5,22.8998862 C12.3,23 12.2,23 12,23 C11.8,23 11.7,23 11.6,22.8998862 L1.6,17.894198 C1.1,17.6939704 0.9,17.0932878 1.2,16.592719 C1.4,16.0921502 2,15.8919226 2.5,16.1922639 L12.1,20.9977247 L21.7,16.1922639 C22,15.8919226 22.6,16.0921502 22.9,16.592719 Z M22.9,11.5870307 C23.1,12.0875995 22.9,12.6882821 22.5,12.8885097 L12.5,17.894198 C12.3,17.9943117 12.2,17.9943117 12,17.9943117 C11.8,17.9943117 11.7,17.9943117 11.6,17.894198 L1.6,12.8885097 C1.1,12.6882821 0.9,12.0875995 1.2,11.5870307 C1.4,11.0864619 2,10.8862344 2.5,11.1865757 L12.1,15.9920364 L21.7,11.1865757 C22,10.8862344 22.6,11.0864619 22.9,11.5870307 Z" id="path-27"></path>
        <path d="M1.6,7.88282139 L11.6,12.8885097 C11.7,12.9886234 11.8,12.9886234 12,12.9886234 C12.2,12.9886234 12.3,12.9886234 12.4,12.8885097 L22.4,7.88282139 C22.8,7.68259386 23,7.38225256 23,6.9817975 C23,6.58134243 22.8,6.28100114 22.4,6.08077361 L12.4,1.07508532 C12.1,0.974971559 11.8,0.974971559 11.5,1.07508532 L1.5,6.08077361 C1.2,6.28100114 1,6.58134243 1,6.9817975 C1,7.38225256 1.2,7.68259386 1.6,7.88282139 Z M12,3.07736064 L19.8,6.9817975 L12,10.8862344 L4.2,6.9817975 L12,3.07736064 Z M22.9,16.592719 C23.1,17.0932878 22.9,17.6939704 22.5,17.894198 L12.5,22.8998862 C12.3,23 12.2,23 12,23 C11.8,23 11.7,23 11.6,22.8998862 L1.6,17.894198 C1.1,17.6939704 0.9,17.0932878 1.2,16.592719 C1.4,16.0921502 2,15.8919226 2.5,16.1922639 L12.1,20.9977247 L21.7,16.1922639 C22,15.8919226 22.6,16.0921502 22.9,16.592719 Z M22.9,11.5870307 C23.1,12.0875995 22.9,12.6882821 22.5,12.8885097 L12.5,17.894198 C12.3,17.9943117 12.2,17.9943117 12,17.9943117 C11.8,17.9943117 11.7,17.9943117 11.6,17.894198 L1.6,12.8885097 C1.1,12.6882821 0.9,12.0875995 1.2,11.5870307 C1.4,11.0864619 2,10.8862344 2.5,11.1865757 L12.1,15.9920364 L21.7,11.1865757 C22,10.8862344 22.6,11.0864619 22.9,11.5870307 Z" id="path-29"></path>
        <path d="M1.6,7.88282139 L11.6,12.8885097 C11.7,12.9886234 11.8,12.9886234 12,12.9886234 C12.2,12.9886234 12.3,12.9886234 12.4,12.8885097 L22.4,7.88282139 C22.8,7.68259386 23,7.38225256 23,6.9817975 C23,6.58134243 22.8,6.28100114 22.4,6.08077361 L12.4,1.07508532 C12.1,0.974971559 11.8,0.974971559 11.5,1.07508532 L1.5,6.08077361 C1.2,6.28100114 1,6.58134243 1,6.9817975 C1,7.38225256 1.2,7.68259386 1.6,7.88282139 Z M12,3.07736064 L19.8,6.9817975 L12,10.8862344 L4.2,6.9817975 L12,3.07736064 Z M22.9,16.592719 C23.1,17.0932878 22.9,17.6939704 22.5,17.894198 L12.5,22.8998862 C12.3,23 12.2,23 12,23 C11.8,23 11.7,23 11.6,22.8998862 L1.6,17.894198 C1.1,17.6939704 0.9,17.0932878 1.2,16.592719 C1.4,16.0921502 2,15.8919226 2.5,16.1922639 L12.1,20.9977247 L21.7,16.1922639 C22,15.8919226 22.6,16.0921502 22.9,16.592719 Z M22.9,11.5870307 C23.1,12.0875995 22.9,12.6882821 22.5,12.8885097 L12.5,17.894198 C12.3,17.9943117 12.2,17.9943117 12,17.9943117 C11.8,17.9943117 11.7,17.9943117 11.6,17.894198 L1.6,12.8885097 C1.1,12.6882821 0.9,12.0875995 1.2,11.5870307 C1.4,11.0864619 2,10.8862344 2.5,11.1865757 L12.1,15.9920364 L21.7,11.1865757 C22,10.8862344 22.6,11.0864619 22.9,11.5870307 Z" id="path-31"></path>
        <path d="M1.6,7.88282139 L11.6,12.8885097 C11.7,12.9886234 11.8,12.9886234 12,12.9886234 C12.2,12.9886234 12.3,12.9886234 12.4,12.8885097 L22.4,7.88282139 C22.8,7.68259386 23,7.38225256 23,6.9817975 C23,6.58134243 22.8,6.28100114 22.4,6.08077361 L12.4,1.07508532 C12.1,0.974971559 11.8,0.974971559 11.5,1.07508532 L1.5,6.08077361 C1.2,6.28100114 1,6.58134243 1,6.9817975 C1,7.38225256 1.2,7.68259386 1.6,7.88282139 Z M12,3.07736064 L19.8,6.9817975 L12,10.8862344 L4.2,6.9817975 L12,3.07736064 Z M22.9,16.592719 C23.1,17.0932878 22.9,17.6939704 22.5,17.894198 L12.5,22.8998862 C12.3,23 12.2,23 12,23 C11.8,23 11.7,23 11.6,22.8998862 L1.6,17.894198 C1.1,17.6939704 0.9,17.0932878 1.2,16.592719 C1.4,16.0921502 2,15.8919226 2.5,16.1922639 L12.1,20.9977247 L21.7,16.1922639 C22,15.8919226 22.6,16.0921502 22.9,16.592719 Z M22.9,11.5870307 C23.1,12.0875995 22.9,12.6882821 22.5,12.8885097 L12.5,17.894198 C12.3,17.9943117 12.2,17.9943117 12,17.9943117 C11.8,17.9943117 11.7,17.9943117 11.6,17.894198 L1.6,12.8885097 C1.1,12.6882821 0.9,12.0875995 1.2,11.5870307 C1.4,11.0864619 2,10.8862344 2.5,11.1865757 L12.1,15.9920364 L21.7,11.1865757 C22,10.8862344 22.6,11.0864619 22.9,11.5870307 Z" id="path-33"></path>
        <path d="M1.6,7.88282139 L11.6,12.8885097 C11.7,12.9886234 11.8,12.9886234 12,12.9886234 C12.2,12.9886234 12.3,12.9886234 12.4,12.8885097 L22.4,7.88282139 C22.8,7.68259386 23,7.38225256 23,6.9817975 C23,6.58134243 22.8,6.28100114 22.4,6.08077361 L12.4,1.07508532 C12.1,0.974971559 11.8,0.974971559 11.5,1.07508532 L1.5,6.08077361 C1.2,6.28100114 1,6.58134243 1,6.9817975 C1,7.38225256 1.2,7.68259386 1.6,7.88282139 Z M12,3.07736064 L19.8,6.9817975 L12,10.8862344 L4.2,6.9817975 L12,3.07736064 Z M22.9,16.592719 C23.1,17.0932878 22.9,17.6939704 22.5,17.894198 L12.5,22.8998862 C12.3,23 12.2,23 12,23 C11.8,23 11.7,23 11.6,22.8998862 L1.6,17.894198 C1.1,17.6939704 0.9,17.0932878 1.2,16.592719 C1.4,16.0921502 2,15.8919226 2.5,16.1922639 L12.1,20.9977247 L21.7,16.1922639 C22,15.8919226 22.6,16.0921502 22.9,16.592719 Z M22.9,11.5870307 C23.1,12.0875995 22.9,12.6882821 22.5,12.8885097 L12.5,17.894198 C12.3,17.9943117 12.2,17.9943117 12,17.9943117 C11.8,17.9943117 11.7,17.9943117 11.6,17.894198 L1.6,12.8885097 C1.1,12.6882821 0.9,12.0875995 1.2,11.5870307 C1.4,11.0864619 2,10.8862344 2.5,11.1865757 L12.1,15.9920364 L21.7,11.1865757 C22,10.8862344 22.6,11.0864619 22.9,11.5870307 Z" id="path-35"></path>
        <path d="M1.6,7.88282139 L11.6,12.8885097 C11.7,12.9886234 11.8,12.9886234 12,12.9886234 C12.2,12.9886234 12.3,12.9886234 12.4,12.8885097 L22.4,7.88282139 C22.8,7.68259386 23,7.38225256 23,6.9817975 C23,6.58134243 22.8,6.28100114 22.4,6.08077361 L12.4,1.07508532 C12.1,0.974971559 11.8,0.974971559 11.5,1.07508532 L1.5,6.08077361 C1.2,6.28100114 1,6.58134243 1,6.9817975 C1,7.38225256 1.2,7.68259386 1.6,7.88282139 Z M12,3.07736064 L19.8,6.9817975 L12,10.8862344 L4.2,6.9817975 L12,3.07736064 Z M22.9,16.592719 C23.1,17.0932878 22.9,17.6939704 22.5,17.894198 L12.5,22.8998862 C12.3,23 12.2,23 12,23 C11.8,23 11.7,23 11.6,22.8998862 L1.6,17.894198 C1.1,17.6939704 0.9,17.0932878 1.2,16.592719 C1.4,16.0921502 2,15.8919226 2.5,16.1922639 L12.1,20.9977247 L21.7,16.1922639 C22,15.8919226 22.6,16.0921502 22.9,16.592719 Z M22.9,11.5870307 C23.1,12.0875995 22.9,12.6882821 22.5,12.8885097 L12.5,17.894198 C12.3,17.9943117 12.2,17.9943117 12,17.9943117 C11.8,17.9943117 11.7,17.9943117 11.6,17.894198 L1.6,12.8885097 C1.1,12.6882821 0.9,12.0875995 1.2,11.5870307 C1.4,11.0864619 2,10.8862344 2.5,11.1865757 L12.1,15.9920364 L21.7,11.1865757 C22,10.8862344 22.6,11.0864619 22.9,11.5870307 Z" id="path-37"></path>
        <path d="M1.6,7.88282139 L11.6,12.8885097 C11.7,12.9886234 11.8,12.9886234 12,12.9886234 C12.2,12.9886234 12.3,12.9886234 12.4,12.8885097 L22.4,7.88282139 C22.8,7.68259386 23,7.38225256 23,6.9817975 C23,6.58134243 22.8,6.28100114 22.4,6.08077361 L12.4,1.07508532 C12.1,0.974971559 11.8,0.974971559 11.5,1.07508532 L1.5,6.08077361 C1.2,6.28100114 1,6.58134243 1,6.9817975 C1,7.38225256 1.2,7.68259386 1.6,7.88282139 Z M12,3.07736064 L19.8,6.9817975 L12,10.8862344 L4.2,6.9817975 L12,3.07736064 Z M22.9,16.592719 C23.1,17.0932878 22.9,17.6939704 22.5,17.894198 L12.5,22.8998862 C12.3,23 12.2,23 12,23 C11.8,23 11.7,23 11.6,22.8998862 L1.6,17.894198 C1.1,17.6939704 0.9,17.0932878 1.2,16.592719 C1.4,16.0921502 2,15.8919226 2.5,16.1922639 L12.1,20.9977247 L21.7,16.1922639 C22,15.8919226 22.6,16.0921502 22.9,16.592719 Z M22.9,11.5870307 C23.1,12.0875995 22.9,12.6882821 22.5,12.8885097 L12.5,17.894198 C12.3,17.9943117 12.2,17.9943117 12,17.9943117 C11.8,17.9943117 11.7,17.9943117 11.6,17.894198 L1.6,12.8885097 C1.1,12.6882821 0.9,12.0875995 1.2,11.5870307 C1.4,11.0864619 2,10.8862344 2.5,11.1865757 L12.1,15.9920364 L21.7,11.1865757 C22,10.8862344 22.6,11.0864619 22.9,11.5870307 Z" id="path-39"></path>
        <path d="M1.6,7.88282139 L11.6,12.8885097 C11.7,12.9886234 11.8,12.9886234 12,12.9886234 C12.2,12.9886234 12.3,12.9886234 12.4,12.8885097 L22.4,7.88282139 C22.8,7.68259386 23,7.38225256 23,6.9817975 C23,6.58134243 22.8,6.28100114 22.4,6.08077361 L12.4,1.07508532 C12.1,0.974971559 11.8,0.974971559 11.5,1.07508532 L1.5,6.08077361 C1.2,6.28100114 1,6.58134243 1,6.9817975 C1,7.38225256 1.2,7.68259386 1.6,7.88282139 Z M12,3.07736064 L19.8,6.9817975 L12,10.8862344 L4.2,6.9817975 L12,3.07736064 Z M22.9,16.592719 C23.1,17.0932878 22.9,17.6939704 22.5,17.894198 L12.5,22.8998862 C12.3,23 12.2,23 12,23 C11.8,23 11.7,23 11.6,22.8998862 L1.6,17.894198 C1.1,17.6939704 0.9,17.0932878 1.2,16.592719 C1.4,16.0921502 2,15.8919226 2.5,16.1922639 L12.1,20.9977247 L21.7,16.1922639 C22,15.8919226 22.6,16.0921502 22.9,16.592719 Z M22.9,11.5870307 C23.1,12.0875995 22.9,12.6882821 22.5,12.8885097 L12.5,17.894198 C12.3,17.9943117 12.2,17.9943117 12,17.9943117 C11.8,17.9943117 11.7,17.9943117 11.6,17.894198 L1.6,12.8885097 C1.1,12.6882821 0.9,12.0875995 1.2,11.5870307 C1.4,11.0864619 2,10.8862344 2.5,11.1865757 L12.1,15.9920364 L21.7,11.1865757 C22,10.8862344 22.6,11.0864619 22.9,11.5870307 Z" id="path-41"></path>
    </defs>
    <g id="Website" stroke="none" stroke-width="1" fill="none" fill-rule="evenodd">
        <g id="Desktop" transform="translate(-1209.000000, -2871.000000)">
            <g id="Gebiete" transform="translate(0.000000, 2870.000000)">
                <g id="Icon-Pattern" transform="translate(1208.000000, 0.000000)">
                    <g id="icon-/-layers" transform="translate(192.000000, 40.000000)">
                        <mask id="mask-2" fill="white">
                            <use xlink:href="#path-1"></use>
                        </mask>
                        <use id="Mask" fill="#000000" fill-rule="nonzero" xlink:href="#path-1"></use>
                        <g id="Colors/Monochrome/gray--2" mask="url(#mask-2)" fill="#313233" fill-rule="evenodd">
                            <rect id="Rectangle" x="0" y="0" width="24" height="24"></rect>
                        </g>
                    </g>
                    <g id="icon-/-layers" opacity="0.75" transform="translate(128.000000, 80.000000)">
                        <mask id="mask-4" fill="white">
                            <use xlink:href="#path-3"></use>
                        </mask>
                        <use id="Mask" fill="#000000" fill-rule="nonzero" xlink:href="#path-3"></use>
                        <g id="Colors/Monochrome/gray--2" mask="url(#mask-4)" fill="#313233" fill-rule="evenodd">
                            <rect id="Rectangle" x="0" y="0" width="24" height="24"></rect>
                        </g>
                    </g>
                    <g id="icon-/-layers" opacity="0.25" transform="translate(0.000000, 80.000000)">
                        <mask id="mask-6" fill="white">
                            <use xlink:href="#path-5"></use>
                        </mask>
                        <use id="Mask" fill="#000000" fill-rule="nonzero" xlink:href="#path-5"></use>
                        <g id="Colors/Monochrome/gray--2" mask="url(#mask-6)" fill="#313233" fill-rule="evenodd">
                            <rect id="Rectangle" x="0" y="0" width="24" height="24"></rect>
                        </g>
                    </g>
                    <g id="icon-/-layers" opacity="0.75" transform="translate(128.000000, 0.000000)">
                        <mask id="mask-8" fill="white">
                            <use xlink:href="#path-7"></use>
                        </mask>
                        <use id="Mask" fill="#000000" fill-rule="nonzero" xlink:href="#path-7"></use>
                        <g id="Colors/Monochrome/gray--2" mask="url(#mask-8)" fill="#313233" fill-rule="evenodd">
                            <rect id="Rectangle" x="0" y="0" width="24" height="24"></rect>
                        </g>
                    </g>
                    <g id="icon-/-layers" opacity="0.5" transform="translate(64.000000, 120.000000)">
                        <mask id="mask-10" fill="white">
                            <use xlink:href="#path-9"></use>
                        </mask>
                        <use id="Mask" fill="#000000" fill-rule="nonzero" xlink:href="#path-9"></use>
                        <g id="Colors/Monochrome/gray--2" mask="url(#mask-10)" fill="#313233" fill-rule="evenodd">
                            <rect id="Rectangle" x="0" y="0" width="24" height="24"></rect>
                        </g>
                    </g>
                    <g id="icon-/-layers" transform="translate(192.000000, 120.000000)">
                        <mask id="mask-12" fill="white">
                            <use xlink:href="#path-11"></use>
                        </mask>
                        <use id="Mask" fill="#000000" fill-rule="nonzero" xlink:href="#path-11"></use>
                        <g id="Colors/Monochrome/gray--2" mask="url(#mask-12)" fill="#313233" fill-rule="evenodd">
                            <rect id="Rectangle" x="0" y="0" width="24" height="24"></rect>
                        </g>
                    </g>
                    <g id="icon-/-layers" opacity="0.75" transform="translate(128.000000, 160.000000)">
                        <mask id="mask-14" fill="white">
                            <use xlink:href="#path-13"></use>
                        </mask>
                        <use id="Mask" fill="#000000" fill-rule="nonzero" xlink:href="#path-13"></use>
                        <g id="Colors/Monochrome/gray--2" mask="url(#mask-14)" fill="#313233" fill-rule="evenodd">
                            <rect id="Rectangle" x="0" y="0" width="24" height="24"></rect>
                        </g>
                    </g>
                    <g id="icon-/-layers" opacity="0.25" transform="translate(0.000000, 160.000000)">
                        <mask id="mask-16" fill="white">
                            <use xlink:href="#path-15"></use>
                        </mask>
                        <use id="Mask" fill="#000000" fill-rule="nonzero" xlink:href="#path-15"></use>
                        <g id="Colors/Monochrome/gray--2" mask="url(#mask-16)" fill="#313233" fill-rule="evenodd">
                            <rect id="Rectangle" x="0" y="0" width="24" height="24"></rect>
                        </g>
                    </g>
                    <g id="icon-/-layers" opacity="0.5" transform="translate(64.000000, 200.000000)">
                        <mask id="mask-18" fill="white">
                            <use xlink:href="#path-17"></use>
                        </mask>
                        <use id="Mask" fill="#000000" fill-rule="nonzero" xlink:href="#path-17"></use>
                        <g id="Colors/Monochrome/gray--2" mask="url(#mask-18)" fill="#313233" fill-rule="evenodd">
                            <rect id="Rectangle" x="0" y="0" width="24" height="24"></rect>
                        </g>
                    </g>
                    <g id="icon-/-layers" transform="translate(192.000000, 200.000000)">
                        <mask id="mask-20" fill="white">
                            <use xlink:href="#path-19"></use>
                        </mask>
                        <use id="Mask" fill="#000000" fill-rule="nonzero" xlink:href="#path-19"></use>
                        <g id="Colors/Monochrome/gray--2" mask="url(#mask-20)" fill="#313233" fill-rule="evenodd">
                            <rect id="Rectangle" x="0" y="0" width="24" height="24"></rect>
                        </g>
                    </g>
                    <g id="icon-/-layers" opacity="0.75" transform="translate(128.000000, 240.000000)">
                        <mask id="mask-22" fill="white">
                            <use xlink:href="#path-21"></use>
                        </mask>
                        <use id="Mask" fill="#000000" fill-rule="nonzero" xlink:href="#path-21"></use>
                        <g id="Colors/Monochrome/gray--2" mask="url(#mask-22)" fill="#313233" fill-rule="evenodd">
                            <rect id="Rectangle" x="0" y="0" width="24" height="24"></rect>
                        </g>
                    </g>
                    <g id="icon-/-layers" opacity="0.25" transform="translate(0.000000, 240.000000)">
                        <mask id="mask-24" fill="white">
                            <use xlink:href="#path-23"></use>
                        </mask>
                        <use id="Mask" fill="#000000" fill-rule="nonzero" xlink:href="#path-23"></use>
                        <g id="Colors/Monochrome/gray--2" mask="url(#mask-24)" fill="#313233" fill-rule="evenodd">
                            <rect id="Rectangle" x="0" y="0" width="24" height="24"></rect>
                        </g>
                    </g>
                    <g id="icon-/-layers" opacity="0.5" transform="translate(64.000000, 280.000000)">
                        <mask id="mask-26" fill="white">
                            <use xlink:href="#path-25"></use>
                        </mask>
                        <use id="Mask" fill="#000000" fill-rule="nonzero" xlink:href="#path-25"></use>
                        <g id="Colors/Monochrome/gray--2" mask="url(#mask-26)" fill="#313233" fill-rule="evenodd">
                            <rect id="Rectangle" x="0" y="0" width="24" height="24"></rect>
                        </g>
                    </g>
                    <g id="icon-/-layers" transform="translate(192.000000, 280.000000)">
                        <mask id="mask-28" fill="white">
                            <use xlink:href="#path-27"></use>
                        </mask>
                        <use id="Mask" fill="#000000" fill-rule="nonzero" xlink:href="#path-27"></use>
                        <g id="Colors/Monochrome/gray--2" mask="url(#mask-28)" fill="#313233" fill-rule="evenodd">
                            <rect id="Rectangle" x="0" y="0" width="24" height="24"></rect>
                        </g>
                    </g>
                    <g id="icon-/-layers" opacity="0.75" transform="translate(128.000000, 320.000000)">
                        <mask id="mask-30" fill="white">
                            <use xlink:href="#path-29"></use>
                        </mask>
                        <use id="Mask" fill="#000000" fill-rule="nonzero" xlink:href="#path-29"></use>
                        <g id="Colors/Monochrome/gray--2" mask="url(#mask-30)" fill="#313233" fill-rule="evenodd">
                            <rect id="Rectangle" x="0" y="0" width="24" height="24"></rect>
                        </g>
                    </g>
                    <g id="icon-/-layers" opacity="0.25" transform="translate(0.000000, 320.000000)">
                        <mask id="mask-32" fill="white">
                            <use xlink:href="#path-31"></use>
                        </mask>
                        <use id="Mask" fill="#000000" fill-rule="nonzero" xlink:href="#path-31"></use>
                        <g id="Colors/Monochrome/gray--2" mask="url(#mask-32)" fill="#313233" fill-rule="evenodd">
                            <rect id="Rectangle" x="0" y="0" width="24" height="24"></rect>
                        </g>
                    </g>
                    <g id="icon-/-layers" opacity="0.5" transform="translate(64.000000, 360.000000)">
                        <mask id="mask-34" fill="white">
                            <use xlink:href="#path-33"></use>
                        </mask>
                        <use id="Mask" fill="#000000" fill-rule="nonzero" xlink:href="#path-33"></use>
                        <g id="Colors/Monochrome/gray--2" mask="url(#mask-34)" fill="#313233" fill-rule="evenodd">
                            <rect id="Rectangle" x="0" y="0" width="24" height="24"></rect>
                        </g>
                    </g>
                    <g id="icon-/-layers" opacity="0.5" transform="translate(64.000000, 440.000000)">
                        <mask id="mask-36" fill="white">
                            <use xlink:href="#path-35"></use>
                        </mask>
                        <use id="Mask" fill="#000000" fill-rule="nonzero" xlink:href="#path-35"></use>
                        <g id="Colors/Monochrome/gray--2" mask="url(#mask-36)" fill="#313233" fill-rule="evenodd">
                            <rect id="Rectangle" x="0" y="0" width="24" height="24"></rect>
                        </g>
                    </g>
                    <g id="icon-/-layers" transform="translate(192.000000, 360.000000)">
                        <mask id="mask-38" fill="white">
                            <use xlink:href="#path-37"></use>
                        </mask>
                        <use id="Mask" fill="#000000" fill-rule="nonzero" xlink:href="#path-37"></use>
                        <g id="Colors/Monochrome/gray--2" mask="url(#mask-38)" fill="#313233" fill-rule="evenodd">
                            <rect id="Rectangle" x="0" y="0" width="24" height="24"></rect>
                        </g>
                    </g>
                    <g id="icon-/-layers" opacity="0.75" transform="translate(128.000000, 400.000000)">
                        <mask id="mask-40" fill="white">
                            <use xlink:href="#path-39"></use>
                        </mask>
                        <use id="Mask" fill="#000000" fill-rule="nonzero" xlink:href="#path-39"></use>
                        <g id="Colors/Monochrome/gray--2" mask="url(#mask-40)" fill="#313233" fill-rule="evenodd">
                            <rect id="Rectangle" x="0" y="0" width="24" height="24"></rect>
                        </g>
                    </g>
                    <g id="icon-/-layers" transform="translate(192.000000, 440.000000)">
                        <mask id="mask-42" fill="white">
                            <use xlink:href="#path-41"></use>
                        </mask>
                        <use id="Mask" fill="#000000" fill-rule="nonzero" xlink:href="#path-41"></use>
                        <g id="Colors/Monochrome/gray--2" mask="url(#mask-42)" fill="#313233" fill-rule="evenodd">
                            <rect id="Rectangle" x="0" y="0" width="24" height="24"></rect>
                        </g>
                    </g>
                </g>
            </g>
        </g>
    </g>
</svg>