<?xml version="1.0" encoding="UTF-8"?>
<svg width="212px" height="462px" viewBox="0 0 212 462" version="1.1" xmlns="http://www.w3.org/2000/svg" xmlns:xlink="http://www.w3.org/1999/xlink">
    <!-- Generator: Sketch 54.1 (76490) - https://sketchapp.com -->
    <title>Icon Pattern</title>
    <desc>Created with Sketch.</desc>
    <defs>
        <path d="M21.8910812,9.6 C21.6912614,9.2 21.3915317,9 20.991892,9 L13.099009,9 L13.9981982,2.1 C14.0981081,1.7 13.7983784,1.2 13.3987388,1.1 C12.9990991,0.9 12.4995496,1 12.1998198,1.4 L2.20882869,13.4 C2.00900887,13.7 1.90909896,14.1 2.10891878,14.5 C2.3087386,14.8 2.60846834,15 3.00810798,15 L10.900991,15 L10.0018018,21.9 C9.90189186,22.3 10.2016216,22.8 10.6012612,22.9 C10.7011712,23 10.900991,23 11.0009009,23 C11.3006306,23 11.6003604,22.9 11.8001802,22.6 L21.7911713,10.6 C21.9909911,10.3 22.090901,9.9 21.8910812,9.6 Z M12.3996396,18.7 L12.9990991,14.1 C12.9990991,13.8 12.8991892,13.5 12.7992793,13.3 C12.5994595,13.1 12.2997297,13 12,13 L5.10621612,13 L11.5004504,5.3 L11.0009009,9.9 C11.0009009,10.2 11.1008108,10.5 11.2007207,10.7 C11.4005405,10.9 11.7002703,11 11.9000901,11 L18.793874,11 L12.3996396,18.7 Z" id="path-1"></path>
        <path d="M21.8910812,9.6 C21.6912614,9.2 21.3915317,9 20.991892,9 L13.099009,9 L13.9981982,2.1 C14.0981081,1.7 13.7983784,1.2 13.3987388,1.1 C12.9990991,0.9 12.4995496,1 12.1998198,1.4 L2.20882869,13.4 C2.00900887,13.7 1.90909896,14.1 2.10891878,14.5 C2.3087386,14.8 2.60846834,15 3.00810798,15 L10.900991,15 L10.0018018,21.9 C9.90189186,22.3 10.2016216,22.8 10.6012612,22.9 C10.7011712,23 10.900991,23 11.0009009,23 C11.3006306,23 11.6003604,22.9 11.8001802,22.6 L21.7911713,10.6 C21.9909911,10.3 22.090901,9.9 21.8910812,9.6 Z M12.3996396,18.7 L12.9990991,14.1 C12.9990991,13.8 12.8991892,13.5 12.7992793,13.3 C12.5994595,13.1 12.2997297,13 12,13 L5.10621612,13 L11.5004504,5.3 L11.0009009,9.9 C11.0009009,10.2 11.1008108,10.5 11.2007207,10.7 C11.4005405,10.9 11.7002703,11 11.9000901,11 L18.793874,11 L12.3996396,18.7 Z" id="path-3"></path>
        <path d="M21.8910812,9.6 C21.6912614,9.2 21.3915317,9 20.991892,9 L13.099009,9 L13.9981982,2.1 C14.0981081,1.7 13.7983784,1.2 13.3987388,1.1 C12.9990991,0.9 12.4995496,1 12.1998198,1.4 L2.20882869,13.4 C2.00900887,13.7 1.90909896,14.1 2.10891878,14.5 C2.3087386,14.8 2.60846834,15 3.00810798,15 L10.900991,15 L10.0018018,21.9 C9.90189186,22.3 10.2016216,22.8 10.6012612,22.9 C10.7011712,23 10.900991,23 11.0009009,23 C11.3006306,23 11.6003604,22.9 11.8001802,22.6 L21.7911713,10.6 C21.9909911,10.3 22.090901,9.9 21.8910812,9.6 Z M12.3996396,18.7 L12.9990991,14.1 C12.9990991,13.8 12.8991892,13.5 12.7992793,13.3 C12.5994595,13.1 12.2997297,13 12,13 L5.10621612,13 L11.5004504,5.3 L11.0009009,9.9 C11.0009009,10.2 11.1008108,10.5 11.2007207,10.7 C11.4005405,10.9 11.7002703,11 11.9000901,11 L18.793874,11 L12.3996396,18.7 Z" id="path-5"></path>
        <path d="M21.8910812,9.6 C21.6912614,9.2 21.3915317,9 20.991892,9 L13.099009,9 L13.9981982,2.1 C14.0981081,1.7 13.7983784,1.2 13.3987388,1.1 C12.9990991,0.9 12.4995496,1 12.1998198,1.4 L2.20882869,13.4 C2.00900887,13.7 1.90909896,14.1 2.10891878,14.5 C2.3087386,14.8 2.60846834,15 3.00810798,15 L10.900991,15 L10.0018018,21.9 C9.90189186,22.3 10.2016216,22.8 10.6012612,22.9 C10.7011712,23 10.900991,23 11.0009009,23 C11.3006306,23 11.6003604,22.9 11.8001802,22.6 L21.7911713,10.6 C21.9909911,10.3 22.090901,9.9 21.8910812,9.6 Z M12.3996396,18.7 L12.9990991,14.1 C12.9990991,13.8 12.8991892,13.5 12.7992793,13.3 C12.5994595,13.1 12.2997297,13 12,13 L5.10621612,13 L11.5004504,5.3 L11.0009009,9.9 C11.0009009,10.2 11.1008108,10.5 11.2007207,10.7 C11.4005405,10.9 11.7002703,11 11.9000901,11 L18.793874,11 L12.3996396,18.7 Z" id="path-7"></path>
        <path d="M21.8910812,9.6 C21.6912614,9.2 21.3915317,9 20.991892,9 L13.099009,9 L13.9981982,2.1 C14.0981081,1.7 13.7983784,1.2 13.3987388,1.1 C12.9990991,0.9 12.4995496,1 12.1998198,1.4 L2.20882869,13.4 C2.00900887,13.7 1.90909896,14.1 2.10891878,14.5 C2.3087386,14.8 2.60846834,15 3.00810798,15 L10.900991,15 L10.0018018,21.9 C9.90189186,22.3 10.2016216,22.8 10.6012612,22.9 C10.7011712,23 10.900991,23 11.0009009,23 C11.3006306,23 11.6003604,22.9 11.8001802,22.6 L21.7911713,10.6 C21.9909911,10.3 22.090901,9.9 21.8910812,9.6 Z M12.3996396,18.7 L12.9990991,14.1 C12.9990991,13.8 12.8991892,13.5 12.7992793,13.3 C12.5994595,13.1 12.2997297,13 12,13 L5.10621612,13 L11.5004504,5.3 L11.0009009,9.9 C11.0009009,10.2 11.1008108,10.5 11.2007207,10.7 C11.4005405,10.9 11.7002703,11 11.9000901,11 L18.793874,11 L12.3996396,18.7 Z" id="path-9"></path>
        <path d="M21.8910812,9.6 C21.6912614,9.2 21.3915317,9 20.991892,9 L13.099009,9 L13.9981982,2.1 C14.0981081,1.7 13.7983784,1.2 13.3987388,1.1 C12.9990991,0.9 12.4995496,1 12.1998198,1.4 L2.20882869,13.4 C2.00900887,13.7 1.90909896,14.1 2.10891878,14.5 C2.3087386,14.8 2.60846834,15 3.00810798,15 L10.900991,15 L10.0018018,21.9 C9.90189186,22.3 10.2016216,22.8 10.6012612,22.9 C10.7011712,23 10.900991,23 11.0009009,23 C11.3006306,23 11.6003604,22.9 11.8001802,22.6 L21.7911713,10.6 C21.9909911,10.3 22.090901,9.9 21.8910812,9.6 Z M12.3996396,18.7 L12.9990991,14.1 C12.9990991,13.8 12.8991892,13.5 12.7992793,13.3 C12.5994595,13.1 12.2997297,13 12,13 L5.10621612,13 L11.5004504,5.3 L11.0009009,9.9 C11.0009009,10.2 11.1008108,10.5 11.2007207,10.7 C11.4005405,10.9 11.7002703,11 11.9000901,11 L18.793874,11 L12.3996396,18.7 Z" id="path-11"></path>
        <path d="M21.8910812,9.6 C21.6912614,9.2 21.3915317,9 20.991892,9 L13.099009,9 L13.9981982,2.1 C14.0981081,1.7 13.7983784,1.2 13.3987388,1.1 C12.9990991,0.9 12.4995496,1 12.1998198,1.4 L2.20882869,13.4 C2.00900887,13.7 1.90909896,14.1 2.10891878,14.5 C2.3087386,14.8 2.60846834,15 3.00810798,15 L10.900991,15 L10.0018018,21.9 C9.90189186,22.3 10.2016216,22.8 10.6012612,22.9 C10.7011712,23 10.900991,23 11.0009009,23 C11.3006306,23 11.6003604,22.9 11.8001802,22.6 L21.7911713,10.6 C21.9909911,10.3 22.090901,9.9 21.8910812,9.6 Z M12.3996396,18.7 L12.9990991,14.1 C12.9990991,13.8 12.8991892,13.5 12.7992793,13.3 C12.5994595,13.1 12.2997297,13 12,13 L5.10621612,13 L11.5004504,5.3 L11.0009009,9.9 C11.0009009,10.2 11.1008108,10.5 11.2007207,10.7 C11.4005405,10.9 11.7002703,11 11.9000901,11 L18.793874,11 L12.3996396,18.7 Z" id="path-13"></path>
        <path d="M21.8910812,9.6 C21.6912614,9.2 21.3915317,9 20.991892,9 L13.099009,9 L13.9981982,2.1 C14.0981081,1.7 13.7983784,1.2 13.3987388,1.1 C12.9990991,0.9 12.4995496,1 12.1998198,1.4 L2.20882869,13.4 C2.00900887,13.7 1.90909896,14.1 2.10891878,14.5 C2.3087386,14.8 2.60846834,15 3.00810798,15 L10.900991,15 L10.0018018,21.9 C9.90189186,22.3 10.2016216,22.8 10.6012612,22.9 C10.7011712,23 10.900991,23 11.0009009,23 C11.3006306,23 11.6003604,22.9 11.8001802,22.6 L21.7911713,10.6 C21.9909911,10.3 22.090901,9.9 21.8910812,9.6 Z M12.3996396,18.7 L12.9990991,14.1 C12.9990991,13.8 12.8991892,13.5 12.7992793,13.3 C12.5994595,13.1 12.2997297,13 12,13 L5.10621612,13 L11.5004504,5.3 L11.0009009,9.9 C11.0009009,10.2 11.1008108,10.5 11.2007207,10.7 C11.4005405,10.9 11.7002703,11 11.9000901,11 L18.793874,11 L12.3996396,18.7 Z" id="path-15"></path>
        <path d="M21.8910812,9.6 C21.6912614,9.2 21.3915317,9 20.991892,9 L13.099009,9 L13.9981982,2.1 C14.0981081,1.7 13.7983784,1.2 13.3987388,1.1 C12.9990991,0.9 12.4995496,1 12.1998198,1.4 L2.20882869,13.4 C2.00900887,13.7 1.90909896,14.1 2.10891878,14.5 C2.3087386,14.8 2.60846834,15 3.00810798,15 L10.900991,15 L10.0018018,21.9 C9.90189186,22.3 10.2016216,22.8 10.6012612,22.9 C10.7011712,23 10.900991,23 11.0009009,23 C11.3006306,23 11.6003604,22.9 11.8001802,22.6 L21.7911713,10.6 C21.9909911,10.3 22.090901,9.9 21.8910812,9.6 Z M12.3996396,18.7 L12.9990991,14.1 C12.9990991,13.8 12.8991892,13.5 12.7992793,13.3 C12.5994595,13.1 12.2997297,13 12,13 L5.10621612,13 L11.5004504,5.3 L11.0009009,9.9 C11.0009009,10.2 11.1008108,10.5 11.2007207,10.7 C11.4005405,10.9 11.7002703,11 11.9000901,11 L18.793874,11 L12.3996396,18.7 Z" id="path-17"></path>
        <path d="M21.8910812,9.6 C21.6912614,9.2 21.3915317,9 20.991892,9 L13.099009,9 L13.9981982,2.1 C14.0981081,1.7 13.7983784,1.2 13.3987388,1.1 C12.9990991,0.9 12.4995496,1 12.1998198,1.4 L2.20882869,13.4 C2.00900887,13.7 1.90909896,14.1 2.10891878,14.5 C2.3087386,14.8 2.60846834,15 3.00810798,15 L10.900991,15 L10.0018018,21.9 C9.90189186,22.3 10.2016216,22.8 10.6012612,22.9 C10.7011712,23 10.900991,23 11.0009009,23 C11.3006306,23 11.6003604,22.9 11.8001802,22.6 L21.7911713,10.6 C21.9909911,10.3 22.090901,9.9 21.8910812,9.6 Z M12.3996396,18.7 L12.9990991,14.1 C12.9990991,13.8 12.8991892,13.5 12.7992793,13.3 C12.5994595,13.1 12.2997297,13 12,13 L5.10621612,13 L11.5004504,5.3 L11.0009009,9.9 C11.0009009,10.2 11.1008108,10.5 11.2007207,10.7 C11.4005405,10.9 11.7002703,11 11.9000901,11 L18.793874,11 L12.3996396,18.7 Z" id="path-19"></path>
        <path d="M21.8910812,9.6 C21.6912614,9.2 21.3915317,9 20.991892,9 L13.099009,9 L13.9981982,2.1 C14.0981081,1.7 13.7983784,1.2 13.3987388,1.1 C12.9990991,0.9 12.4995496,1 12.1998198,1.4 L2.20882869,13.4 C2.00900887,13.7 1.90909896,14.1 2.10891878,14.5 C2.3087386,14.8 2.60846834,15 3.00810798,15 L10.900991,15 L10.0018018,21.9 C9.90189186,22.3 10.2016216,22.8 10.6012612,22.9 C10.7011712,23 10.900991,23 11.0009009,23 C11.3006306,23 11.6003604,22.9 11.8001802,22.6 L21.7911713,10.6 C21.9909911,10.3 22.090901,9.9 21.8910812,9.6 Z M12.3996396,18.7 L12.9990991,14.1 C12.9990991,13.8 12.8991892,13.5 12.7992793,13.3 C12.5994595,13.1 12.2997297,13 12,13 L5.10621612,13 L11.5004504,5.3 L11.0009009,9.9 C11.0009009,10.2 11.1008108,10.5 11.2007207,10.7 C11.4005405,10.9 11.7002703,11 11.9000901,11 L18.793874,11 L12.3996396,18.7 Z" id="path-21"></path>
        <path d="M21.8910812,9.6 C21.6912614,9.2 21.3915317,9 20.991892,9 L13.099009,9 L13.9981982,2.1 C14.0981081,1.7 13.7983784,1.2 13.3987388,1.1 C12.9990991,0.9 12.4995496,1 12.1998198,1.4 L2.20882869,13.4 C2.00900887,13.7 1.90909896,14.1 2.10891878,14.5 C2.3087386,14.8 2.60846834,15 3.00810798,15 L10.900991,15 L10.0018018,21.9 C9.90189186,22.3 10.2016216,22.8 10.6012612,22.9 C10.7011712,23 10.900991,23 11.0009009,23 C11.3006306,23 11.6003604,22.9 11.8001802,22.6 L21.7911713,10.6 C21.9909911,10.3 22.090901,9.9 21.8910812,9.6 Z M12.3996396,18.7 L12.9990991,14.1 C12.9990991,13.8 12.8991892,13.5 12.7992793,13.3 C12.5994595,13.1 12.2997297,13 12,13 L5.10621612,13 L11.5004504,5.3 L11.0009009,9.9 C11.0009009,10.2 11.1008108,10.5 11.2007207,10.7 C11.4005405,10.9 11.7002703,11 11.9000901,11 L18.793874,11 L12.3996396,18.7 Z" id="path-23"></path>
        <path d="M21.8910812,9.6 C21.6912614,9.2 21.3915317,9 20.991892,9 L13.099009,9 L13.9981982,2.1 C14.0981081,1.7 13.7983784,1.2 13.3987388,1.1 C12.9990991,0.9 12.4995496,1 12.1998198,1.4 L2.20882869,13.4 C2.00900887,13.7 1.90909896,14.1 2.10891878,14.5 C2.3087386,14.8 2.60846834,15 3.00810798,15 L10.900991,15 L10.0018018,21.9 C9.90189186,22.3 10.2016216,22.8 10.6012612,22.9 C10.7011712,23 10.900991,23 11.0009009,23 C11.3006306,23 11.6003604,22.9 11.8001802,22.6 L21.7911713,10.6 C21.9909911,10.3 22.090901,9.9 21.8910812,9.6 Z M12.3996396,18.7 L12.9990991,14.1 C12.9990991,13.8 12.8991892,13.5 12.7992793,13.3 C12.5994595,13.1 12.2997297,13 12,13 L5.10621612,13 L11.5004504,5.3 L11.0009009,9.9 C11.0009009,10.2 11.1008108,10.5 11.2007207,10.7 C11.4005405,10.9 11.7002703,11 11.9000901,11 L18.793874,11 L12.3996396,18.7 Z" id="path-25"></path>
        <path d="M21.8910812,9.6 C21.6912614,9.2 21.3915317,9 20.991892,9 L13.099009,9 L13.9981982,2.1 C14.0981081,1.7 13.7983784,1.2 13.3987388,1.1 C12.9990991,0.9 12.4995496,1 12.1998198,1.4 L2.20882869,13.4 C2.00900887,13.7 1.90909896,14.1 2.10891878,14.5 C2.3087386,14.8 2.60846834,15 3.00810798,15 L10.900991,15 L10.0018018,21.9 C9.90189186,22.3 10.2016216,22.8 10.6012612,22.9 C10.7011712,23 10.900991,23 11.0009009,23 C11.3006306,23 11.6003604,22.9 11.8001802,22.6 L21.7911713,10.6 C21.9909911,10.3 22.090901,9.9 21.8910812,9.6 Z M12.3996396,18.7 L12.9990991,14.1 C12.9990991,13.8 12.8991892,13.5 12.7992793,13.3 C12.5994595,13.1 12.2997297,13 12,13 L5.10621612,13 L11.5004504,5.3 L11.0009009,9.9 C11.0009009,10.2 11.1008108,10.5 11.2007207,10.7 C11.4005405,10.9 11.7002703,11 11.9000901,11 L18.793874,11 L12.3996396,18.7 Z" id="path-27"></path>
        <path d="M21.8910812,9.6 C21.6912614,9.2 21.3915317,9 20.991892,9 L13.099009,9 L13.9981982,2.1 C14.0981081,1.7 13.7983784,1.2 13.3987388,1.1 C12.9990991,0.9 12.4995496,1 12.1998198,1.4 L2.20882869,13.4 C2.00900887,13.7 1.90909896,14.1 2.10891878,14.5 C2.3087386,14.8 2.60846834,15 3.00810798,15 L10.900991,15 L10.0018018,21.9 C9.90189186,22.3 10.2016216,22.8 10.6012612,22.9 C10.7011712,23 10.900991,23 11.0009009,23 C11.3006306,23 11.6003604,22.9 11.8001802,22.6 L21.7911713,10.6 C21.9909911,10.3 22.090901,9.9 21.8910812,9.6 Z M12.3996396,18.7 L12.9990991,14.1 C12.9990991,13.8 12.8991892,13.5 12.7992793,13.3 C12.5994595,13.1 12.2997297,13 12,13 L5.10621612,13 L11.5004504,5.3 L11.0009009,9.9 C11.0009009,10.2 11.1008108,10.5 11.2007207,10.7 C11.4005405,10.9 11.7002703,11 11.9000901,11 L18.793874,11 L12.3996396,18.7 Z" id="path-29"></path>
        <path d="M21.8910812,9.6 C21.6912614,9.2 21.3915317,9 20.991892,9 L13.099009,9 L13.9981982,2.1 C14.0981081,1.7 13.7983784,1.2 13.3987388,1.1 C12.9990991,0.9 12.4995496,1 12.1998198,1.4 L2.20882869,13.4 C2.00900887,13.7 1.90909896,14.1 2.10891878,14.5 C2.3087386,14.8 2.60846834,15 3.00810798,15 L10.900991,15 L10.0018018,21.9 C9.90189186,22.3 10.2016216,22.8 10.6012612,22.9 C10.7011712,23 10.900991,23 11.0009009,23 C11.3006306,23 11.6003604,22.9 11.8001802,22.6 L21.7911713,10.6 C21.9909911,10.3 22.090901,9.9 21.8910812,9.6 Z M12.3996396,18.7 L12.9990991,14.1 C12.9990991,13.8 12.8991892,13.5 12.7992793,13.3 C12.5994595,13.1 12.2997297,13 12,13 L5.10621612,13 L11.5004504,5.3 L11.0009009,9.9 C11.0009009,10.2 11.1008108,10.5 11.2007207,10.7 C11.4005405,10.9 11.7002703,11 11.9000901,11 L18.793874,11 L12.3996396,18.7 Z" id="path-31"></path>
        <path d="M21.8910812,9.6 C21.6912614,9.2 21.3915317,9 20.991892,9 L13.099009,9 L13.9981982,2.1 C14.0981081,1.7 13.7983784,1.2 13.3987388,1.1 C12.9990991,0.9 12.4995496,1 12.1998198,1.4 L2.20882869,13.4 C2.00900887,13.7 1.90909896,14.1 2.10891878,14.5 C2.3087386,14.8 2.60846834,15 3.00810798,15 L10.900991,15 L10.0018018,21.9 C9.90189186,22.3 10.2016216,22.8 10.6012612,22.9 C10.7011712,23 10.900991,23 11.0009009,23 C11.3006306,23 11.6003604,22.9 11.8001802,22.6 L21.7911713,10.6 C21.9909911,10.3 22.090901,9.9 21.8910812,9.6 Z M12.3996396,18.7 L12.9990991,14.1 C12.9990991,13.8 12.8991892,13.5 12.7992793,13.3 C12.5994595,13.1 12.2997297,13 12,13 L5.10621612,13 L11.5004504,5.3 L11.0009009,9.9 C11.0009009,10.2 11.1008108,10.5 11.2007207,10.7 C11.4005405,10.9 11.7002703,11 11.9000901,11 L18.793874,11 L12.3996396,18.7 Z" id="path-33"></path>
        <path d="M21.8910812,9.6 C21.6912614,9.2 21.3915317,9 20.991892,9 L13.099009,9 L13.9981982,2.1 C14.0981081,1.7 13.7983784,1.2 13.3987388,1.1 C12.9990991,0.9 12.4995496,1 12.1998198,1.4 L2.20882869,13.4 C2.00900887,13.7 1.90909896,14.1 2.10891878,14.5 C2.3087386,14.8 2.60846834,15 3.00810798,15 L10.900991,15 L10.0018018,21.9 C9.90189186,22.3 10.2016216,22.8 10.6012612,22.9 C10.7011712,23 10.900991,23 11.0009009,23 C11.3006306,23 11.6003604,22.9 11.8001802,22.6 L21.7911713,10.6 C21.9909911,10.3 22.090901,9.9 21.8910812,9.6 Z M12.3996396,18.7 L12.9990991,14.1 C12.9990991,13.8 12.8991892,13.5 12.7992793,13.3 C12.5994595,13.1 12.2997297,13 12,13 L5.10621612,13 L11.5004504,5.3 L11.0009009,9.9 C11.0009009,10.2 11.1008108,10.5 11.2007207,10.7 C11.4005405,10.9 11.7002703,11 11.9000901,11 L18.793874,11 L12.3996396,18.7 Z" id="path-35"></path>
        <path d="M21.8910812,9.6 C21.6912614,9.2 21.3915317,9 20.991892,9 L13.099009,9 L13.9981982,2.1 C14.0981081,1.7 13.7983784,1.2 13.3987388,1.1 C12.9990991,0.9 12.4995496,1 12.1998198,1.4 L2.20882869,13.4 C2.00900887,13.7 1.90909896,14.1 2.10891878,14.5 C2.3087386,14.8 2.60846834,15 3.00810798,15 L10.900991,15 L10.0018018,21.9 C9.90189186,22.3 10.2016216,22.8 10.6012612,22.9 C10.7011712,23 10.900991,23 11.0009009,23 C11.3006306,23 11.6003604,22.9 11.8001802,22.6 L21.7911713,10.6 C21.9909911,10.3 22.090901,9.9 21.8910812,9.6 Z M12.3996396,18.7 L12.9990991,14.1 C12.9990991,13.8 12.8991892,13.5 12.7992793,13.3 C12.5994595,13.1 12.2997297,13 12,13 L5.10621612,13 L11.5004504,5.3 L11.0009009,9.9 C11.0009009,10.2 11.1008108,10.5 11.2007207,10.7 C11.4005405,10.9 11.7002703,11 11.9000901,11 L18.793874,11 L12.3996396,18.7 Z" id="path-37"></path>
        <path d="M21.8910812,9.6 C21.6912614,9.2 21.3915317,9 20.991892,9 L13.099009,9 L13.9981982,2.1 C14.0981081,1.7 13.7983784,1.2 13.3987388,1.1 C12.9990991,0.9 12.4995496,1 12.1998198,1.4 L2.20882869,13.4 C2.00900887,13.7 1.90909896,14.1 2.10891878,14.5 C2.3087386,14.8 2.60846834,15 3.00810798,15 L10.900991,15 L10.0018018,21.9 C9.90189186,22.3 10.2016216,22.8 10.6012612,22.9 C10.7011712,23 10.900991,23 11.0009009,23 C11.3006306,23 11.6003604,22.9 11.8001802,22.6 L21.7911713,10.6 C21.9909911,10.3 22.090901,9.9 21.8910812,9.6 Z M12.3996396,18.7 L12.9990991,14.1 C12.9990991,13.8 12.8991892,13.5 12.7992793,13.3 C12.5994595,13.1 12.2997297,13 12,13 L5.10621612,13 L11.5004504,5.3 L11.0009009,9.9 C11.0009009,10.2 11.1008108,10.5 11.2007207,10.7 C11.4005405,10.9 11.7002703,11 11.9000901,11 L18.793874,11 L12.3996396,18.7 Z" id="path-39"></path>
        <path d="M21.8910812,9.6 C21.6912614,9.2 21.3915317,9 20.991892,9 L13.099009,9 L13.9981982,2.1 C14.0981081,1.7 13.7983784,1.2 13.3987388,1.1 C12.9990991,0.9 12.4995496,1 12.1998198,1.4 L2.20882869,13.4 C2.00900887,13.7 1.90909896,14.1 2.10891878,14.5 C2.3087386,14.8 2.60846834,15 3.00810798,15 L10.900991,15 L10.0018018,21.9 C9.90189186,22.3 10.2016216,22.8 10.6012612,22.9 C10.7011712,23 10.900991,23 11.0009009,23 C11.3006306,23 11.6003604,22.9 11.8001802,22.6 L21.7911713,10.6 C21.9909911,10.3 22.090901,9.9 21.8910812,9.6 Z M12.3996396,18.7 L12.9990991,14.1 C12.9990991,13.8 12.8991892,13.5 12.7992793,13.3 C12.5994595,13.1 12.2997297,13 12,13 L5.10621612,13 L11.5004504,5.3 L11.0009009,9.9 C11.0009009,10.2 11.1008108,10.5 11.2007207,10.7 C11.4005405,10.9 11.7002703,11 11.9000901,11 L18.793874,11 L12.3996396,18.7 Z" id="path-41"></path>
    </defs>
    <g id="Website" stroke="none" stroke-width="1" fill="none" fill-rule="evenodd">
        <g id="Desktop" transform="translate(-1210.000000, -1421.000000)">
            <g id="Dashboard" transform="translate(0.000000, 1420.000000)">
                <g id="Icon-Pattern" transform="translate(1208.000000, 0.000000)">
                    <g id="icon-/-zap" transform="translate(192.000000, 40.000000)">
                        <mask id="mask-2" fill="white">
                            <use xlink:href="#path-1"></use>
                        </mask>
                        <use id="Mask" fill="#000000" fill-rule="nonzero" xlink:href="#path-1"></use>
                        <g id="Colors/Monochrome/gray--2" mask="url(#mask-2)" fill="#313233" fill-rule="evenodd">
                            <rect id="Rectangle" x="0" y="0" width="24" height="24"></rect>
                        </g>
                    </g>
                    <g id="icon-/-zap" opacity="0.75" transform="translate(128.000000, 80.000000)">
                        <mask id="mask-4" fill="white">
                            <use xlink:href="#path-3"></use>
                        </mask>
                        <use id="Mask" fill="#000000" fill-rule="nonzero" xlink:href="#path-3"></use>
                        <g id="Colors/Monochrome/gray--2" mask="url(#mask-4)" fill="#313233" fill-rule="evenodd">
                            <rect id="Rectangle" x="0" y="0" width="24" height="24"></rect>
                        </g>
                    </g>
                    <g id="icon-/-zap" opacity="0.25" transform="translate(0.000000, 80.000000)">
                        <mask id="mask-6" fill="white">
                            <use xlink:href="#path-5"></use>
                        </mask>
                        <use id="Mask" fill="#000000" fill-rule="nonzero" xlink:href="#path-5"></use>
                        <g id="Colors/Monochrome/gray--2" mask="url(#mask-6)" fill="#313233" fill-rule="evenodd">
                            <rect id="Rectangle" x="0" y="0" width="24" height="24"></rect>
                        </g>
                    </g>
                    <g id="icon-/-zap" opacity="0.75" transform="translate(128.000000, 0.000000)">
                        <mask id="mask-8" fill="white">
                            <use xlink:href="#path-7"></use>
                        </mask>
                        <use id="Mask" fill="#000000" fill-rule="nonzero" xlink:href="#path-7"></use>
                        <g id="Colors/Monochrome/gray--2" mask="url(#mask-8)" fill="#313233" fill-rule="evenodd">
                            <rect id="Rectangle" x="0" y="0" width="24" height="24"></rect>
                        </g>
                    </g>
                    <g id="icon-/-zap" opacity="0.5" transform="translate(64.000000, 120.000000)">
                        <mask id="mask-10" fill="white">
                            <use xlink:href="#path-9"></use>
                        </mask>
                        <use id="Mask" fill="#000000" fill-rule="nonzero" xlink:href="#path-9"></use>
                        <g id="Colors/Monochrome/gray--2" mask="url(#mask-10)" fill="#313233" fill-rule="evenodd">
                            <rect id="Rectangle" x="0" y="0" width="24" height="24"></rect>
                        </g>
                    </g>
                    <g id="icon-/-zap" transform="translate(192.000000, 120.000000)">
                        <mask id="mask-12" fill="white">
                            <use xlink:href="#path-11"></use>
                        </mask>
                        <use id="Mask" fill="#000000" fill-rule="nonzero" xlink:href="#path-11"></use>
                        <g id="Colors/Monochrome/gray--2" mask="url(#mask-12)" fill="#313233" fill-rule="evenodd">
                            <rect id="Rectangle" x="0" y="0" width="24" height="24"></rect>
                        </g>
                    </g>
                    <g id="icon-/-zap" opacity="0.75" transform="translate(128.000000, 160.000000)">
                        <mask id="mask-14" fill="white">
                            <use xlink:href="#path-13"></use>
                        </mask>
                        <use id="Mask" fill="#000000" fill-rule="nonzero" xlink:href="#path-13"></use>
                        <g id="Colors/Monochrome/gray--2" mask="url(#mask-14)" fill="#313233" fill-rule="evenodd">
                            <rect id="Rectangle" x="0" y="0" width="24" height="24"></rect>
                        </g>
                    </g>
                    <g id="icon-/-zap" opacity="0.25" transform="translate(0.000000, 160.000000)">
                        <mask id="mask-16" fill="white">
                            <use xlink:href="#path-15"></use>
                        </mask>
                        <use id="Mask" fill="#000000" fill-rule="nonzero" xlink:href="#path-15"></use>
                        <g id="Colors/Monochrome/gray--2" mask="url(#mask-16)" fill="#313233" fill-rule="evenodd">
                            <rect id="Rectangle" x="0" y="0" width="24" height="24"></rect>
                        </g>
                    </g>
                    <g id="icon-/-zap" opacity="0.5" transform="translate(64.000000, 200.000000)">
                        <mask id="mask-18" fill="white">
                            <use xlink:href="#path-17"></use>
                        </mask>
                        <use id="Mask" fill="#000000" fill-rule="nonzero" xlink:href="#path-17"></use>
                        <g id="Colors/Monochrome/gray--2" mask="url(#mask-18)" fill="#313233" fill-rule="evenodd">
                            <rect id="Rectangle" x="0" y="0" width="24" height="24"></rect>
                        </g>
                    </g>
                    <g id="icon-/-zap" transform="translate(192.000000, 200.000000)">
                        <mask id="mask-20" fill="white">
                            <use xlink:href="#path-19"></use>
                        </mask>
                        <use id="Mask" fill="#000000" fill-rule="nonzero" xlink:href="#path-19"></use>
                        <g id="Colors/Monochrome/gray--2" mask="url(#mask-20)" fill="#313233" fill-rule="evenodd">
                            <rect id="Rectangle" x="0" y="0" width="24" height="24"></rect>
                        </g>
                    </g>
                    <g id="icon-/-zap" opacity="0.75" transform="translate(128.000000, 240.000000)">
                        <mask id="mask-22" fill="white">
                            <use xlink:href="#path-21"></use>
                        </mask>
                        <use id="Mask" fill="#000000" fill-rule="nonzero" xlink:href="#path-21"></use>
                        <g id="Colors/Monochrome/gray--2" mask="url(#mask-22)" fill="#313233" fill-rule="evenodd">
                            <rect id="Rectangle" x="0" y="0" width="24" height="24"></rect>
                        </g>
                    </g>
                    <g id="icon-/-zap" opacity="0.25" transform="translate(0.000000, 240.000000)">
                        <mask id="mask-24" fill="white">
                            <use xlink:href="#path-23"></use>
                        </mask>
                        <use id="Mask" fill="#000000" fill-rule="nonzero" xlink:href="#path-23"></use>
                        <g id="Colors/Monochrome/gray--2" mask="url(#mask-24)" fill="#313233" fill-rule="evenodd">
                            <rect id="Rectangle" x="0" y="0" width="24" height="24"></rect>
                        </g>
                    </g>
                    <g id="icon-/-zap" opacity="0.5" transform="translate(64.000000, 280.000000)">
                        <mask id="mask-26" fill="white">
                            <use xlink:href="#path-25"></use>
                        </mask>
                        <use id="Mask" fill="#000000" fill-rule="nonzero" xlink:href="#path-25"></use>
                        <g id="Colors/Monochrome/gray--2" mask="url(#mask-26)" fill="#313233" fill-rule="evenodd">
                            <rect id="Rectangle" x="0" y="0" width="24" height="24"></rect>
                        </g>
                    </g>
                    <g id="icon-/-zap" transform="translate(192.000000, 280.000000)">
                        <mask id="mask-28" fill="white">
                            <use xlink:href="#path-27"></use>
                        </mask>
                        <use id="Mask" fill="#000000" fill-rule="nonzero" xlink:href="#path-27"></use>
                        <g id="Colors/Monochrome/gray--2" mask="url(#mask-28)" fill="#313233" fill-rule="evenodd">
                            <rect id="Rectangle" x="0" y="0" width="24" height="24"></rect>
                        </g>
                    </g>
                    <g id="icon-/-zap" opacity="0.75" transform="translate(128.000000, 320.000000)">
                        <mask id="mask-30" fill="white">
                            <use xlink:href="#path-29"></use>
                        </mask>
                        <use id="Mask" fill="#000000" fill-rule="nonzero" xlink:href="#path-29"></use>
                        <g id="Colors/Monochrome/gray--2" mask="url(#mask-30)" fill="#313233" fill-rule="evenodd">
                            <rect id="Rectangle" x="0" y="0" width="24" height="24"></rect>
                        </g>
                    </g>
                    <g id="icon-/-zap" opacity="0.25" transform="translate(0.000000, 320.000000)">
                        <mask id="mask-32" fill="white">
                            <use xlink:href="#path-31"></use>
                        </mask>
                        <use id="Mask" fill="#000000" fill-rule="nonzero" xlink:href="#path-31"></use>
                        <g id="Colors/Monochrome/gray--2" mask="url(#mask-32)" fill="#313233" fill-rule="evenodd">
                            <rect id="Rectangle" x="0" y="0" width="24" height="24"></rect>
                        </g>
                    </g>
                    <g id="icon-/-zap" opacity="0.5" transform="translate(64.000000, 360.000000)">
                        <mask id="mask-34" fill="white">
                            <use xlink:href="#path-33"></use>
                        </mask>
                        <use id="Mask" fill="#000000" fill-rule="nonzero" xlink:href="#path-33"></use>
                        <g id="Colors/Monochrome/gray--2" mask="url(#mask-34)" fill="#313233" fill-rule="evenodd">
                            <rect id="Rectangle" x="0" y="0" width="24" height="24"></rect>
                        </g>
                    </g>
                    <g id="icon-/-zap" opacity="0.5" transform="translate(64.000000, 440.000000)">
                        <mask id="mask-36" fill="white">
                            <use xlink:href="#path-35"></use>
                        </mask>
                        <use id="Mask" fill="#000000" fill-rule="nonzero" xlink:href="#path-35"></use>
                        <g id="Colors/Monochrome/gray--2" mask="url(#mask-36)" fill="#313233" fill-rule="evenodd">
                            <rect id="Rectangle" x="0" y="0" width="24" height="24"></rect>
                        </g>
                    </g>
                    <g id="icon-/-zap" transform="translate(192.000000, 360.000000)">
                        <mask id="mask-38" fill="white">
                            <use xlink:href="#path-37"></use>
                        </mask>
                        <use id="Mask" fill="#000000" fill-rule="nonzero" xlink:href="#path-37"></use>
                        <g id="Colors/Monochrome/gray--2" mask="url(#mask-38)" fill="#313233" fill-rule="evenodd">
                            <rect id="Rectangle" x="0" y="0" width="24" height="24"></rect>
                        </g>
                    </g>
                    <g id="icon-/-zap" opacity="0.75" transform="translate(128.000000, 400.000000)">
                        <mask id="mask-40" fill="white">
                            <use xlink:href="#path-39"></use>
                        </mask>
                        <use id="Mask" fill="#000000" fill-rule="nonzero" xlink:href="#path-39"></use>
                        <g id="Colors/Monochrome/gray--2" mask="url(#mask-40)" fill="#313233" fill-rule="evenodd">
                            <rect id="Rectangle" x="0" y="0" width="24" height="24"></rect>
                        </g>
                    </g>
                    <g id="icon-/-zap" transform="translate(192.000000, 440.000000)">
                        <mask id="mask-42" fill="white">
                            <use xlink:href="#path-41"></use>
                        </mask>
                        <use id="Mask" fill="#000000" fill-rule="nonzero" xlink:href="#path-41"></use>
                        <g id="Colors/Monochrome/gray--2" mask="url(#mask-42)" fill="#313233" fill-rule="evenodd">
                            <rect id="Rectangle" x="0" y="0" width="24" height="24"></rect>
                        </g>
                    </g>
                </g>
            </g>
        </g>
    </g>
</svg>