<?xml version="1.0" encoding="UTF-8"?>
<svg width="1317px" height="288px" viewBox="0 0 1317 288" version="1.1" xmlns="http://www.w3.org/2000/svg" xmlns:xlink="http://www.w3.org/1999/xlink">
    <!-- Generator: Sketch 53.2 (72643) - https://sketchapp.com -->
    <title>Icon Pattern</title>
    <desc>Created with Sketch.</desc>
    <g id="Website" stroke="none" stroke-width="1" fill="none" fill-rule="evenodd">
        <g id="Desktop" transform="translate(-302.000000, -1600.000000)" fill-rule="nonzero">
            <g id="Alle-Features" transform="translate(302.000000, 1600.000000)">
                <g id="Icon-Pattern">
                    <g id="Group-12" transform="translate(898.000000, 1.000000)">
                        <g id="Group-7" transform="translate(399.000000, 129.000000)" fill="#EBECED">
                            <path d="M19.8910812,8.6 C19.6912614,8.2 19.3915317,8 18.991892,8 L11.099009,8 L11.9981982,1.1 C12.0981081,0.7 11.7983784,0.2 11.3987388,0.1 C10.9990991,-0.1 10.4995496,-4.16333634e-17 10.1998198,0.4 L0.208828694,12.4 C0.00900887108,12.7 -0.0909010402,13.1 0.108918782,13.5 C0.308738605,13.8 0.608468339,14 1.00810798,14 L8.90099098,14 L8.00180177,20.9 C7.90189186,21.3 8.2016216,21.8 8.60126124,21.9 C8.70117115,22 8.90099098,22 9.00090089,22 C9.30063062,22 9.60036035,21.9 9.80018018,21.6 L19.7911713,9.6 C19.9909911,9.3 20.090901,8.9 19.8910812,8.6 Z M10.3996396,17.7 L10.9990991,13.1 C10.9990991,12.8 10.8991892,12.5 10.7992793,12.3 C10.5994595,12.1 10.2997297,12 10,12 L3.10621612,12 L9.50045044,4.3 L9.00090089,8.9 C9.00090089,9.2 9.1008108,9.5 9.20072071,9.7 C9.40054053,9.9 9.70027027,10 9.90009009,10 L16.793874,10 L10.3996396,17.7 Z" id="Mask"></path>
                            <path d="M19.8910812,8.6 C19.6912614,8.2 19.3915317,8 18.991892,8 L11.099009,8 L11.9981982,1.1 C12.0981081,0.7 11.7983784,0.2 11.3987388,0.1 C10.9990991,-0.1 10.4995496,-4.16333634e-17 10.1998198,0.4 L0.208828694,12.4 C0.00900887108,12.7 -0.0909010402,13.1 0.108918782,13.5 C0.308738605,13.8 0.608468339,14 1.00810798,14 L8.90099098,14 L8.00180177,20.9 C7.90189186,21.3 8.2016216,21.8 8.60126124,21.9 C8.70117115,22 8.90099098,22 9.00090089,22 C9.30063062,22 9.60036035,21.9 9.80018018,21.6 L19.7911713,9.6 C19.9909911,9.3 20.090901,8.9 19.8910812,8.6 Z" id="Path" opacity="0.5"></path>
                        </g>
                        <g id="Group-2" transform="translate(159.000000, 49.000000)" fill="#C8CACC">
                            <path d="M16,14 C14.9,14 13.9,14.5 13.2,15.2 L7.9,12.1 C7.9,11.7 8,11.4 8,11 C8,10.6 7.9,10.3 7.8,9.9 L13.1,6.8 C13.9,7.5 14.9,8 16,8 C18.2,8 20,6.2 20,4 C20,1.8 18.2,0 16,0 C13.8,0 12,1.8 12,4 C12,4.4 12.1,4.7 12.2,5.1 L6.8,8.2 C6.1,7.5 5.1,7 4,7 C1.8,7 0,8.8 0,11 C0,13.2 1.8,15 4,15 C5.1,15 6.1,14.5 6.8,13.8 L12.1,16.9 C12.1,17.3 12,17.6 12,18 C12,20.2 13.8,22 16,22 C18.2,22 20,20.2 20,18 C20,15.8 18.2,14 16,14 Z M16,2 C17.1,2 18,2.9 18,4 C18,5.1 17.1,6 16,6 C14.9,6 14,5.1 14,4 C14,2.9 14.9,2 16,2 Z M4,13 C2.9,13 2,12.1 2,11 C2,9.9 2.9,9 4,9 C5.1,9 6,9.9 6,11 C6,12.1 5.1,13 4,13 Z M16,20 C14.9,20 14,19.1 14,18 C14,17.6 14.1,17.3 14.3,17 C14.3,17 14.3,17 14.3,17 C14.3,17 14.3,17 14.3,17 C14.6,16.4 15.3,16 16,16 C17.1,16 18,16.9 18,18 C18,19.1 17.1,20 16,20 Z" id="Mask"></path>
                            <path d="M16,14 C14.9,14 13.9,14.5 13.2,15.2 L7.9,12.1 C7.9,11.7 8,11.4 8,11 C8,10.6 7.9,10.3 7.8,9.9 L13.1,6.8 C13.9,7.5 14.9,8 16,8 C18.2,8 20,6.2 20,4 C20,1.8 18.2,0 16,0 C13.8,0 12,1.8 12,4 C12,4.4 12.1,4.7 12.2,5.1 L6.8,8.2 C6.1,7.5 5.1,7 4,7 C1.8,7 0,8.8 0,11 C0,13.2 1.8,15 4,15 C5.1,15 6.1,14.5 6.8,13.8 L12.1,16.9 C12.1,17.3 12,17.6 12,18 C12,20.2 13.8,22 16,22 C18.2,22 20,20.2 20,18 C20,15.8 18.2,14 16,14 Z" id="Path" opacity="0.3"></path>
                        </g>
                        <g id="Group-6" transform="translate(319.000000, 207.000000)" fill="#EBECED">
                            <path d="M0.6,6.88282139 L10.6,11.8885097 C10.7,11.9886234 10.8,11.9886234 11,11.9886234 C11.2,11.9886234 11.3,11.9886234 11.4,11.8885097 L21.4,6.88282139 C21.8,6.68259386 22,6.38225256 22,5.9817975 C22,5.58134243 21.8,5.28100114 21.4,5.08077361 L11.4,0.0750853242 C11.1,-0.0250284414 10.8,-0.0250284414 10.5,0.0750853242 L0.5,5.08077361 C0.2,5.28100114 0,5.58134243 0,5.9817975 C0,6.38225256 0.2,6.68259386 0.6,6.88282139 Z M11,2.07736064 L18.8,5.9817975 L11,9.88623436 L3.2,5.9817975 L11,2.07736064 Z M21.9,15.592719 C22.1,16.0932878 21.9,16.6939704 21.5,16.894198 L11.5,21.8998862 C11.3,22 11.2,22 11,22 C10.8,22 10.7,22 10.6,21.8998862 L0.6,16.894198 C0.1,16.6939704 -0.1,16.0932878 0.2,15.592719 C0.4,15.0921502 1,14.8919226 1.5,15.1922639 L11.1,19.9977247 L20.7,15.1922639 C21,14.8919226 21.6,15.0921502 21.9,15.592719 Z M21.9,10.5870307 C22.1,11.0875995 21.9,11.6882821 21.5,11.8885097 L11.5,16.894198 C11.3,16.9943117 11.2,16.9943117 11,16.9943117 C10.8,16.9943117 10.7,16.9943117 10.6,16.894198 L0.6,11.8885097 C0.1,11.6882821 -0.1,11.0875995 0.2,10.5870307 C0.4,10.0864619 1,9.88623436 1.5,10.1865757 L11.1,14.9920364 L20.7,10.1865757 C21,9.88623436 21.6,10.0864619 21.9,10.5870307 Z" id="Mask"></path>
                            <path d="M0.6,6.88282139 L10.6,11.8885097 C10.7,11.9886234 10.8,11.9886234 11,11.9886234 C11.2,11.9886234 11.3,11.9886234 11.4,11.8885097 L21.4,6.88282139 C21.8,6.68259386 22,6.38225256 22,5.9817975 C22,5.58134243 21.8,5.28100114 21.4,5.08077361 L11.4,0.0750853242 C11.1,-0.0250284414 10.8,-0.0250284414 10.5,0.0750853242 L0.5,5.08077361 C0.2,5.28100114 0,5.58134243 0,5.9817975 C0,6.38225256 0.2,6.68259386 0.6,6.88282139 Z" id="Path" opacity="0.3"></path>
                        </g>
                        <g id="Group-5" transform="translate(79.000000, 129.000000)" fill="#949799">
                            <path d="M19.6,7.21679909 L10.6,0.224744608 C10.2,-0.0749148695 9.7,-0.0749148695 9.4,0.224744608 L0.4,7.21679909 C0.1,7.41657208 0,7.71623156 0,8.01589103 L0,19.0034052 C0,20.7014756 1.3,22 3,22 L17,22 C18.7,22 20,20.7014756 20,19.0034052 L20,8.01589103 C20,7.71623156 19.9,7.41657208 19.6,7.21679909 Z M12,20.0022701 L8,20.0022701 L8,12.0113507 L12,12.0113507 L12,20.0022701 Z M18,19.0034052 C18,19.6027242 17.6,20.0022701 17,20.0022701 L14,20.0022701 L14,11.0124858 C14,10.4131669 13.6,10.0136209 13,10.0136209 L7,10.0136209 C6.4,10.0136209 6,10.4131669 6,11.0124858 L6,20.0022701 L3,20.0022701 C2.4,20.0022701 2,19.6027242 2,19.0034052 L2,8.5153235 L10,2.32236095 L18,8.5153235 L18,19.0034052 Z" id="Mask"></path>
                            <path d="M19.6,7.21679909 L10.6,0.224744608 C10.2,-0.0749148695 9.7,-0.0749148695 9.4,0.224744608 L0.4,7.21679909 C0.1,7.41657208 0,7.71623156 0,8.01589103 L0,19.0034052 C0,20.7014756 1.3,22 3,22 L17,22 C18.7,22 20,20.7014756 20,19.0034052 L20,8.01589103 C20,7.71623156 19.9,7.41657208 19.6,7.21679909 Z" id="Path" opacity="0.3"></path>
                        </g>
                        <g id="Group-4" transform="translate(319.000000, 49.000000)" fill="#EBECED">
                            <path d="M18,10.9874858 L18,18.996587 C18,20.698521 16.7,22 15,22 L3,22 C1.3,22 0,20.698521 0,18.996587 L0,10.9874858 C0,10.3868032 0.4,9.98634812 1,9.98634812 C1.6,9.98634812 2,10.3868032 2,10.9874858 L2,18.996587 C2,19.5972696 2.4,19.9977247 3,19.9977247 L15,19.9977247 C15.6,19.9977247 16,19.5972696 16,18.996587 L16,10.9874858 C16,10.3868032 16.4,9.98634812 17,9.98634812 C17.6,9.98634812 18,10.3868032 18,10.9874858 Z M5.7,5.6814562 L8,3.37883959 L8,13.9908987 C8,14.5915813 8.4,14.9920364 9,14.9920364 C9.6,14.9920364 10,14.5915813 10,13.9908987 L10,3.37883959 L12.3,5.6814562 C12.5,5.88168373 12.7,5.9817975 13,5.9817975 C13.3,5.9817975 13.5,5.88168373 13.7,5.6814562 C14.1,5.28100114 14.1,4.68031854 13.7,4.27986348 L9.7,0.275312856 C9.6,0.17519909 9.5,0.0750853242 9.4,0.0750853242 C9.2,-0.0250284414 8.9,-0.0250284414 8.6,0.0750853242 C8.5,0.17519909 8.4,0.17519909 8.3,0.275312856 L4.3,4.27986348 C3.9,4.68031854 3.9,5.28100114 4.3,5.6814562 C4.7,6.08191126 5.3,6.08191126 5.7,5.6814562 Z" id="Mask"></path>
                            <path d="M18,10.9874858 L18,18.996587 C18,20.698521 16.7,22 15,22 L3,22 C1.3,22 0,20.698521 0,18.996587 L0,10.9874858 C0,10.3868032 0.4,9.98634812 1,9.98634812 C1.6,9.98634812 2,10.3868032 2,10.9874858 L16,10.9874858 C16,10.3868032 16.4,9.98634812 17,9.98634812 C17.6,9.98634812 18,10.3868032 18,10.9874858 Z" id="Path" opacity="0.3"></path>
                        </g>
                        <g id="Group-11" transform="translate(159.000000, 210.000000)" fill="#C8CACC">
                            <path d="M20.1084906,8.81603774 L11.5896226,0.297169811 C11.3915094,0.0990566038 11.1933962,0 10.8962264,0 L0.990566038,0 C0.396226415,0 0,0.396226415 0,0.990566038 L0,10.8962264 C0,11.1933962 0.0990566038,11.3915094 0.297169811,11.5896226 L8.81603774,20.1084906 C9.41037736,20.7028302 10.1037736,21 10.8962264,21 C10.8962264,21 10.8962264,21 10.8962264,21 C11.6886792,21 12.4811321,20.7028302 12.9764151,20.1084906 L20.1084906,12.9764151 C20.1084906,12.9764151 20.1084906,12.9764151 20.1084906,12.9764151 C21.2971698,11.7877358 21.2971698,10.004717 20.1084906,8.81603774 Z M18.7216981,11.5896226 L11.5896226,18.7216981 C11.1933962,19.1179245 10.5990566,19.1179245 10.2028302,18.7216981 L1.98113208,10.5 L1.98113208,1.98113208 L10.5,1.98113208 L18.7216981,10.2028302 C19.1179245,10.5990566 19.1179245,11.1933962 18.7216981,11.5896226 Z M6.63679245,5.25 C6.83490566,5.44811321 6.93396226,5.64622642 6.93396226,5.94339623 C6.93396226,6.24056604 6.83490566,6.43867925 6.63679245,6.63679245 C6.43867925,6.83490566 6.24056604,6.93396226 5.94339623,6.93396226 C5.64622642,6.93396226 5.44811321,6.83490566 5.25,6.63679245 C5.1509434,6.53773585 5.05188679,6.43867925 5.05188679,6.33962264 C4.95283019,6.24056604 4.95283019,6.04245283 4.95283019,5.94339623 C4.95283019,5.64622642 5.05188679,5.44811321 5.25,5.25 C5.54716981,4.95283019 5.94339623,4.85377358 6.33962264,5.05188679 C6.43867925,5.05188679 6.53773585,5.1509434 6.63679245,5.25 Z" id="Mask"></path>
                            <path d="M20.1084906,8.81603774 L11.5896226,0.297169811 C11.3915094,0.0990566038 11.1933962,0 10.8962264,0 L0.990566038,0 C0.396226415,0 0,0.396226415 0,0.990566038 L0,10.8962264 C0,11.1933962 0.0990566038,11.3915094 0.297169811,11.5896226 L8.81603774,20.1084906 C9.41037736,20.7028302 10.1037736,21 10.8962264,21 C10.8962264,21 10.8962264,21 10.8962264,21 C11.6886792,21 12.4811321,20.7028302 12.9764151,20.1084906 L20.1084906,12.9764151 C20.1084906,12.9764151 20.1084906,12.9764151 20.1084906,12.9764151 C21.2971698,11.7877358 21.2971698,10.004717 20.1084906,8.81603774 Z" id="Path" opacity="0.3"></path>
                        </g>
                        <g id="Group-8" transform="translate(239.000000, 129.000000)" fill="#C8CACC">
                            <path d="M20,13.7 L20,19 C20,20.7 18.7,22 17,22 L3,22 C1.3,22 0,20.7 0,19 L0,5 C0,3.3 1.3,2 3,2 L8.3,2 C8.9,2 9.3,2.4 9.3,3 C9.3,3.6 8.9,4 8.3,4 L3,4 C2.4,4 2,4.4 2,5 L2,19 C2,19.6 2.4,20 3,20 L17,20 C17.6,20 18,19.6 18,19 L18,13.7 C18,13.1 18.4,12.7 19,12.7 C19.6,12.7 20,13.1 20,13.7 Z M21.7,5.7 L11.7,15.7 C11.5,15.9 11.3,16 11,16 L7,16 C6.4,16 6,15.6 6,15 L6,11 C6,10.7 6.1,10.5 6.3,10.3 L16.3,0.3 C16.7,-0.1 17.3,-0.1 17.7,0.3 L21.7,4.3 C22.1,4.7 22.1,5.3 21.7,5.7 Z M19.6,5 L17,2.4 L8,11.4 L8,14 L10.6,14 L19.6,5 Z" id="Mask"></path>
                            <path d="M21.7,5.7 L11.7,15.7 C11.5,15.9 11.3,16 11,16 L7,16 C6.4,16 6,15.6 6,15 L6,11 C6,10.7 6.1,10.5 6.3,10.3 L16.3,0.3 C16.7,-0.1 17.3,-0.1 17.7,0.3 L21.7,4.3 C22.1,4.7 22.1,5.3 21.7,5.7 Z" id="Path" opacity="0.3"></path>
                        </g>
                        <g id="Group-10" fill="#949799">
                            <path d="M17.9,7.6 C17.8,7.5 17.8,7.4 17.7,7.3 L10.7,0.3 C10.6,0.2 10.5,0.1 10.4,0.1 C10.3,0 10.1,0 10,0 L3,0 C1.3,0 0,1.3 0,3 L0,19 C0,20.7 1.3,22 3,22 L15,22 C16.7,22 18,20.7 18,19 L18,8 C18,7.9 18,7.7 17.9,7.6 Z M11,3.4 L14.6,7 L11,7 L11,3.4 Z M15,20 L3,20 C2.4,20 2,19.6 2,19 L2,3 C2,2.4 2.4,2 3,2 L9,2 L9,8 C9,8.6 9.4,9 10,9 L16,9 L16,19 C16,19.6 15.6,20 15,20 Z" id="Mask"></path>
                            <path d="M15,20 L3,20 C2.4,20 2,19.6 2,19 L2,3 C2,2.4 2.4,2 3,2 L9,2 L9,8 C9,8.6 9.4,9 10,9 L16,9 L16,19 C16,19.6 15.6,20 15,20 Z" id="Path" opacity="0.3"></path>
                        </g>
                        <g id="Group-9" transform="translate(0.000000, 262.000000)" fill="#949799">
                            <path d="M23.5,0.149321267 C23.2,-0.0497737557 22.8,-0.0497737557 22.5,0.149321267 L16,3.9321267 L8.4,0.149321267 C8.4,0.149321267 8.4,0.149321267 8.4,0.149321267 C8.4,0.149321267 8.4,0.149321267 8.3,0.149321267 C8.2,0.0497737557 8.1,0.0497737557 8,0.0497737557 C8,0.0497737557 8,0.0497737557 8,0.0497737557 C8,0.0497737557 8,0.0497737557 8,0.0497737557 C7.9,0.0497737557 7.8,0.0497737557 7.6,0.149321267 C7.6,0.149321267 7.6,0.149321267 7.5,0.149321267 C7.5,0.149321267 7.4,0.149321267 7.4,0.149321267 L0.4,4.13122172 C0.2,4.33031674 0,4.62895928 0,5.02714932 L0,20.9547511 C0,21.3529412 0.2,21.6515837 0.5,21.8506787 C0.8,22.0497738 1.2,22.0497738 1.5,21.8506787 L8,18.0678733 L15.5,21.8506787 C15.5,21.8506787 15.5,21.8506787 15.5,21.8506787 C15.7,21.9502262 15.8,21.9502262 16,21.9502262 C16.1,21.9502262 16.2,21.9502262 16.3,21.8506787 C16.3,21.8506787 16.4,21.8506787 16.4,21.8506787 C16.4,21.8506787 16.4,21.8506787 16.5,21.8506787 L23.5,17.8687783 C23.8,17.6696833 24,17.3710407 24,16.9728507 L24,1.04524887 C24,0.647058824 23.8,0.34841629 23.5,0.149321267 Z M9,2.63800905 L15,5.62443439 L15,19.361991 L9,16.3755656 L9,2.63800905 Z M2,5.62443439 L7,2.73755656 L7,16.3755656 L2,19.2624434 L2,5.62443439 Z M22,16.3755656 L17,19.2624434 L17,5.62443439 L22,2.73755656 L22,16.3755656 Z" id="Mask"></path>
                            <path d="M23.5,0.149321267 C23.2,-0.0497737557 22.8,-0.0497737557 22.5,0.149321267 L16,3.9321267 L8.4,0.149321267 C8.4,0.149321267 8.4,0.149321267 8.4,0.149321267 C8.4,0.149321267 8.4,0.149321267 8.3,0.149321267 C8.2,0.0497737557 8.1,0.0497737557 8,0.0497737557 C8,0.0497737557 8,0.0497737557 8,0.0497737557 C8,0.0497737557 8,0.0497737557 8,0.0497737557 C7.9,0.0497737557 7.8,0.0497737557 7.6,0.149321267 C7.6,0.149321267 7.6,0.149321267 7.5,0.149321267 C7.5,0.149321267 7.4,0.149321267 7.4,0.149321267 L0.4,4.13122172 C0.2,4.33031674 0,4.62895928 0,5.02714932 L0,20.9547511 C0,21.3529412 0.2,21.6515837 0.5,21.8506787 C0.8,22.0497738 1.2,22.0497738 1.5,21.8506787 L8,18.0678733 L15.5,21.8506787 C15.5,21.8506787 15.5,21.8506787 15.5,21.8506787 C15.7,21.9502262 15.8,21.9502262 16,21.9502262 C16.1,21.9502262 16.2,21.9502262 16.3,21.8506787 C16.3,21.8506787 16.4,21.8506787 16.4,21.8506787 C16.4,21.8506787 16.4,21.8506787 16.5,21.8506787 L23.5,17.8687783 C23.8,17.6696833 24,17.3710407 24,16.9728507 L24,1.04524887 C24,0.647058824 23.8,0.34841629 23.5,0.149321267 Z" id="Path" opacity="0.3"></path>
                        </g>
                    </g>
                    <g id="Group-13">
                        <g id="Group-6-Copy-2" transform="translate(238.000000, 210.000000)" fill="#C8CACC">
                            <path d="M0.6,6.88282139 L10.6,11.8885097 C10.7,11.9886234 10.8,11.9886234 11,11.9886234 C11.2,11.9886234 11.3,11.9886234 11.4,11.8885097 L21.4,6.88282139 C21.8,6.68259386 22,6.38225256 22,5.9817975 C22,5.58134243 21.8,5.28100114 21.4,5.08077361 L11.4,0.0750853242 C11.1,-0.0250284414 10.8,-0.0250284414 10.5,0.0750853242 L0.5,5.08077361 C0.2,5.28100114 0,5.58134243 0,5.9817975 C0,6.38225256 0.2,6.68259386 0.6,6.88282139 Z M11,2.07736064 L18.8,5.9817975 L11,9.88623436 L3.2,5.9817975 L11,2.07736064 Z M21.9,15.592719 C22.1,16.0932878 21.9,16.6939704 21.5,16.894198 L11.5,21.8998862 C11.3,22 11.2,22 11,22 C10.8,22 10.7,22 10.6,21.8998862 L0.6,16.894198 C0.1,16.6939704 -0.1,16.0932878 0.2,15.592719 C0.4,15.0921502 1,14.8919226 1.5,15.1922639 L11.1,19.9977247 L20.7,15.1922639 C21,14.8919226 21.6,15.0921502 21.9,15.592719 Z M21.9,10.5870307 C22.1,11.0875995 21.9,11.6882821 21.5,11.8885097 L11.5,16.894198 C11.3,16.9943117 11.2,16.9943117 11,16.9943117 C10.8,16.9943117 10.7,16.9943117 10.6,16.894198 L0.6,11.8885097 C0.1,11.6882821 -0.1,11.0875995 0.2,10.5870307 C0.4,10.0864619 1,9.88623436 1.5,10.1865757 L11.1,14.9920364 L20.7,10.1865757 C21,9.88623436 21.6,10.0864619 21.9,10.5870307 Z" id="Mask"></path>
                            <path d="M0.6,6.88282139 L10.6,11.8885097 C10.7,11.9886234 10.8,11.9886234 11,11.9886234 C11.2,11.9886234 11.3,11.9886234 11.4,11.8885097 L21.4,6.88282139 C21.8,6.68259386 22,6.38225256 22,5.9817975 C22,5.58134243 21.8,5.28100114 21.4,5.08077361 L11.4,0.0750853242 C11.1,-0.0250284414 10.8,-0.0250284414 10.5,0.0750853242 L0.5,5.08077361 C0.2,5.28100114 0,5.58134243 0,5.9817975 C0,6.38225256 0.2,6.68259386 0.6,6.88282139 Z" id="Path" opacity="0.3"></path>
                        </g>
                        <g id="Group-6-Copy" transform="translate(318.000000, 130.000000)" fill="#949799">
                            <path d="M0.6,6.88282139 L10.6,11.8885097 C10.7,11.9886234 10.8,11.9886234 11,11.9886234 C11.2,11.9886234 11.3,11.9886234 11.4,11.8885097 L21.4,6.88282139 C21.8,6.68259386 22,6.38225256 22,5.9817975 C22,5.58134243 21.8,5.28100114 21.4,5.08077361 L11.4,0.0750853242 C11.1,-0.0250284414 10.8,-0.0250284414 10.5,0.0750853242 L0.5,5.08077361 C0.2,5.28100114 0,5.58134243 0,5.9817975 C0,6.38225256 0.2,6.68259386 0.6,6.88282139 Z M11,2.07736064 L18.8,5.9817975 L11,9.88623436 L3.2,5.9817975 L11,2.07736064 Z M21.9,15.592719 C22.1,16.0932878 21.9,16.6939704 21.5,16.894198 L11.5,21.8998862 C11.3,22 11.2,22 11,22 C10.8,22 10.7,22 10.6,21.8998862 L0.6,16.894198 C0.1,16.6939704 -0.1,16.0932878 0.2,15.592719 C0.4,15.0921502 1,14.8919226 1.5,15.1922639 L11.1,19.9977247 L20.7,15.1922639 C21,14.8919226 21.6,15.0921502 21.9,15.592719 Z M21.9,10.5870307 C22.1,11.0875995 21.9,11.6882821 21.5,11.8885097 L11.5,16.894198 C11.3,16.9943117 11.2,16.9943117 11,16.9943117 C10.8,16.9943117 10.7,16.9943117 10.6,16.894198 L0.6,11.8885097 C0.1,11.6882821 -0.1,11.0875995 0.2,10.5870307 C0.4,10.0864619 1,9.88623436 1.5,10.1865757 L11.1,14.9920364 L20.7,10.1865757 C21,9.88623436 21.6,10.0864619 21.9,10.5870307 Z" id="Mask"></path>
                            <path d="M0.6,6.88282139 L10.6,11.8885097 C10.7,11.9886234 10.8,11.9886234 11,11.9886234 C11.2,11.9886234 11.3,11.9886234 11.4,11.8885097 L21.4,6.88282139 C21.8,6.68259386 22,6.38225256 22,5.9817975 C22,5.58134243 21.8,5.28100114 21.4,5.08077361 L11.4,0.0750853242 C11.1,-0.0250284414 10.8,-0.0250284414 10.5,0.0750853242 L0.5,5.08077361 C0.2,5.28100114 0,5.58134243 0,5.9817975 C0,6.38225256 0.2,6.68259386 0.6,6.88282139 Z" id="Path" opacity="0.3"></path>
                        </g>
                        <g id="Group-3" transform="translate(396.000000, 0.000000)" fill="#949799">
                            <path d="M18.0717507,17 L18.0717507,19 C18.0717507,19.6 17.6701563,20 17.0677646,20 C16.4653729,20 16.0637784,19.6 16.0637784,19 L16.0637784,17 C16.0637784,15.3 14.7585964,14 13.05182,14 L5.01993076,14 C3.3131543,14 2.0079723,15.3 2.0079723,17 L2.0079723,19 C2.0079723,19.6 1.60637784,20 1.00398615,20 C0.40159446,20 0,19.6 0,19 L0,17 C0,14.2 2.20876953,12 5.01993076,12 L13.05182,12 C15.8629812,12 18.0717507,14.2 18.0717507,17 Z M4.0159446,5 C4.0159446,2.2 6.22471414,0 9.03587536,0 C11.8470366,0 14.0558061,2.2 14.0558061,5 C14.0558061,7.8 11.8470366,10 9.03587536,10 C6.22471414,10 4.0159446,7.8 4.0159446,5 Z M6.02391691,5 C6.02391691,6.7 7.3290989,8 9.03587536,8 C10.7426518,8 12.0478338,6.7 12.0478338,5 C12.0478338,3.3 10.7426518,2 9.03587536,2 C7.3290989,2 6.02391691,3.3 6.02391691,5 Z M20.2805203,12.2 C19.7785272,12.1 19.1761355,12.4 19.0757369,12.9 C18.9753383,13.4 19.2765341,14 19.7785272,14.1 C21.0837092,14.4 21.9872967,15.6 21.9872967,17 L21.9872967,19 C21.9872967,19.6 22.3888912,20 22.9912829,20 C23.5936746,20 23.995269,19.6 23.995269,19 L23.995269,17 C24.0956676,14.7 22.5896884,12.7 20.2805203,12.2 Z M16.2645756,0.2 C15.7625826,0 15.2605895,0.3 15.0597923,0.9 C14.9593937,1.4 15.2605895,2 15.7625826,2.1 C17.3689604,2.5 18.3729466,4.1 17.9713521,5.8 C17.6701563,6.9 16.8669673,7.7 15.7625826,8 C15.2605895,8.1 14.858995,8.7 15.0597923,9.2 C15.1601909,9.7 15.5617853,10 16.0637784,10 C16.164177,10 16.2645756,10 16.2645756,10 C18.0717507,9.5 19.4773313,8.2 19.8789258,6.4 C20.5817161,3.6 18.9753383,0.8 16.2645756,0.2 Z" id="Mask"></path>
                            <path d="M4.0159446,5 C4.0159446,2.2 6.22471414,0 9.03587536,0 C11.8470366,0 14.0558061,2.2 14.0558061,5 C14.0558061,7.8 11.8470366,10 9.03587536,10 C6.22471414,10 4.0159446,7.8 4.0159446,5 Z" id="Path" opacity="0.3"></path>
                            <path d="M18.0717507,17 L18.0717507,19 C18.0717507,19.6 17.6701563,20 17.0677646,20 C16.4653729,20 16.0637784,19.6 16.0637784,19 L2.0079723,19 C2.0079723,19.6 1.60637784,20 1.00398615,20 C0.40159446,20 -3.60600438e-13,19.6 -3.60600438e-13,19 L-3.60600438e-13,17 C-3.60600438e-13,14.2 2.20876953,12 5.01993076,12 L13.05182,12 C15.8629812,12 18.0717507,14.2 18.0717507,17 Z" id="Path" opacity="0.3"></path>
                        </g>
                        <g id="Group-4-Copy-2" transform="translate(242.000000, 50.000000)" fill="#C8CACC">
                            <path d="M18,10.9874858 L18,18.996587 C18,20.698521 16.7,22 15,22 L3,22 C1.3,22 0,20.698521 0,18.996587 L0,10.9874858 C0,10.3868032 0.4,9.98634812 1,9.98634812 C1.6,9.98634812 2,10.3868032 2,10.9874858 L2,18.996587 C2,19.5972696 2.4,19.9977247 3,19.9977247 L15,19.9977247 C15.6,19.9977247 16,19.5972696 16,18.996587 L16,10.9874858 C16,10.3868032 16.4,9.98634812 17,9.98634812 C17.6,9.98634812 18,10.3868032 18,10.9874858 Z M5.7,5.6814562 L8,3.37883959 L8,13.9908987 C8,14.5915813 8.4,14.9920364 9,14.9920364 C9.6,14.9920364 10,14.5915813 10,13.9908987 L10,3.37883959 L12.3,5.6814562 C12.5,5.88168373 12.7,5.9817975 13,5.9817975 C13.3,5.9817975 13.5,5.88168373 13.7,5.6814562 C14.1,5.28100114 14.1,4.68031854 13.7,4.27986348 L9.7,0.275312856 C9.6,0.17519909 9.5,0.0750853242 9.4,0.0750853242 C9.2,-0.0250284414 8.9,-0.0250284414 8.6,0.0750853242 C8.5,0.17519909 8.4,0.17519909 8.3,0.275312856 L4.3,4.27986348 C3.9,4.68031854 3.9,5.28100114 4.3,5.6814562 C4.7,6.08191126 5.3,6.08191126 5.7,5.6814562 Z" id="Mask"></path>
                            <path d="M18,10.9874858 L18,18.996587 C18,20.698521 16.7,22 15,22 L3,22 C1.3,22 0,20.698521 0,18.996587 L0,10.9874858 C0,10.3868032 0.4,9.98634812 1,9.98634812 C1.6,9.98634812 2,10.3868032 2,10.9874858 L16,10.9874858 C16,10.3868032 16.4,9.98634812 17,9.98634812 C17.6,9.98634812 18,10.3868032 18,10.9874858 Z" id="Path" opacity="0.3"></path>
                        </g>
                        <g id="Group-4-Copy" transform="translate(402.000000, 266.000000)" fill="#949799">
                            <path d="M18,10.9874858 L18,18.996587 C18,20.698521 16.7,22 15,22 L3,22 C1.3,22 0,20.698521 0,18.996587 L0,10.9874858 C0,10.3868032 0.4,9.98634812 1,9.98634812 C1.6,9.98634812 2,10.3868032 2,10.9874858 L2,18.996587 C2,19.5972696 2.4,19.9977247 3,19.9977247 L15,19.9977247 C15.6,19.9977247 16,19.5972696 16,18.996587 L16,10.9874858 C16,10.3868032 16.4,9.98634812 17,9.98634812 C17.6,9.98634812 18,10.3868032 18,10.9874858 Z M5.7,5.6814562 L8,3.37883959 L8,13.9908987 C8,14.5915813 8.4,14.9920364 9,14.9920364 C9.6,14.9920364 10,14.5915813 10,13.9908987 L10,3.37883959 L12.3,5.6814562 C12.5,5.88168373 12.7,5.9817975 13,5.9817975 C13.3,5.9817975 13.5,5.88168373 13.7,5.6814562 C14.1,5.28100114 14.1,4.68031854 13.7,4.27986348 L9.7,0.275312856 C9.6,0.17519909 9.5,0.0750853242 9.4,0.0750853242 C9.2,-0.0250284414 8.9,-0.0250284414 8.6,0.0750853242 C8.5,0.17519909 8.4,0.17519909 8.3,0.275312856 L4.3,4.27986348 C3.9,4.68031854 3.9,5.28100114 4.3,5.6814562 C4.7,6.08191126 5.3,6.08191126 5.7,5.6814562 Z" id="Mask"></path>
                            <path d="M18,10.9874858 L18,18.996587 C18,20.698521 16.7,22 15,22 L3,22 C1.3,22 0,20.698521 0,18.996587 L0,10.9874858 C0,10.3868032 0.4,9.98634812 1,9.98634812 C1.6,9.98634812 2,10.3868032 2,10.9874858 L16,10.9874858 C16,10.3868032 16.4,9.98634812 17,9.98634812 C17.6,9.98634812 18,10.3868032 18,10.9874858 Z" id="Path" opacity="0.3"></path>
                        </g>
                        <g id="Group-8-Copy" transform="translate(158.000000, 130.000000)" fill="#C8CACC">
                            <path d="M20,13.7 L20,19 C20,20.7 18.7,22 17,22 L3,22 C1.3,22 0,20.7 0,19 L0,5 C0,3.3 1.3,2 3,2 L8.3,2 C8.9,2 9.3,2.4 9.3,3 C9.3,3.6 8.9,4 8.3,4 L3,4 C2.4,4 2,4.4 2,5 L2,19 C2,19.6 2.4,20 3,20 L17,20 C17.6,20 18,19.6 18,19 L18,13.7 C18,13.1 18.4,12.7 19,12.7 C19.6,12.7 20,13.1 20,13.7 Z M21.7,5.7 L11.7,15.7 C11.5,15.9 11.3,16 11,16 L7,16 C6.4,16 6,15.6 6,15 L6,11 C6,10.7 6.1,10.5 6.3,10.3 L16.3,0.3 C16.7,-0.1 17.3,-0.1 17.7,0.3 L21.7,4.3 C22.1,4.7 22.1,5.3 21.7,5.7 Z M19.6,5 L17,2.4 L8,11.4 L8,14 L10.6,14 L19.6,5 Z" id="Mask"></path>
                            <path d="M21.7,5.7 L11.7,15.7 C11.5,15.9 11.3,16 11,16 L7,16 C6.4,16 6,15.6 6,15 L6,11 C6,10.7 6.1,10.5 6.3,10.3 L16.3,0.3 C16.7,-0.1 17.3,-0.1 17.7,0.3 L21.7,4.3 C22.1,4.7 22.1,5.3 21.7,5.7 Z" id="Path" opacity="0.3"></path>
                        </g>
                        <g id="Group-2" transform="translate(80.000000, 50.000000)" fill="#EBECED">
                            <path d="M16,14 C14.9,14 13.9,14.5 13.2,15.2 L7.9,12.1 C7.9,11.7 8,11.4 8,11 C8,10.6 7.9,10.3 7.8,9.9 L13.1,6.8 C13.9,7.5 14.9,8 16,8 C18.2,8 20,6.2 20,4 C20,1.8 18.2,0 16,0 C13.8,0 12,1.8 12,4 C12,4.4 12.1,4.7 12.2,5.1 L6.8,8.2 C6.1,7.5 5.1,7 4,7 C1.8,7 0,8.8 0,11 C0,13.2 1.8,15 4,15 C5.1,15 6.1,14.5 6.8,13.8 L12.1,16.9 C12.1,17.3 12,17.6 12,18 C12,20.2 13.8,22 16,22 C18.2,22 20,20.2 20,18 C20,15.8 18.2,14 16,14 Z M16,2 C17.1,2 18,2.9 18,4 C18,5.1 17.1,6 16,6 C14.9,6 14,5.1 14,4 C14,2.9 14.9,2 16,2 Z M4,13 C2.9,13 2,12.1 2,11 C2,9.9 2.9,9 4,9 C5.1,9 6,9.9 6,11 C6,12.1 5.1,13 4,13 Z M16,20 C14.9,20 14,19.1 14,18 C14,17.6 14.1,17.3 14.3,17 C14.3,17 14.3,17 14.3,17 C14.3,17 14.3,17 14.3,17 C14.6,16.4 15.3,16 16,16 C17.1,16 18,16.9 18,18 C18,19.1 17.1,20 16,20 Z" id="Mask"></path>
                            <path d="M16,14 C14.9,14 13.9,14.5 13.2,15.2 L7.9,12.1 C7.9,11.7 8,11.4 8,11 C8,10.6 7.9,10.3 7.8,9.9 L13.1,6.8 C13.9,7.5 14.9,8 16,8 C18.2,8 20,6.2 20,4 C20,1.8 18.2,0 16,0 C13.8,0 12,1.8 12,4 C12,4.4 12.1,4.7 12.2,5.1 L6.8,8.2 C6.1,7.5 5.1,7 4,7 C1.8,7 0,8.8 0,11 C0,13.2 1.8,15 4,15 C5.1,15 6.1,14.5 6.8,13.8 L12.1,16.9 C12.1,17.3 12,17.6 12,18 C12,20.2 13.8,22 16,22 C18.2,22 20,20.2 20,18 C20,15.8 18.2,14 16,14 Z" id="Path" opacity="0.3"></path>
                        </g>
                        <g id="Group-5" transform="translate(0.000000, 130.000000)" fill="#EBECED">
                            <path d="M19.6,7.21679909 L10.6,0.224744608 C10.2,-0.0749148695 9.7,-0.0749148695 9.4,0.224744608 L0.4,7.21679909 C0.1,7.41657208 0,7.71623156 0,8.01589103 L0,19.0034052 C0,20.7014756 1.3,22 3,22 L17,22 C18.7,22 20,20.7014756 20,19.0034052 L20,8.01589103 C20,7.71623156 19.9,7.41657208 19.6,7.21679909 Z M12,20.0022701 L8,20.0022701 L8,12.0113507 L12,12.0113507 L12,20.0022701 Z M18,19.0034052 C18,19.6027242 17.6,20.0022701 17,20.0022701 L14,20.0022701 L14,11.0124858 C14,10.4131669 13.6,10.0136209 13,10.0136209 L7,10.0136209 C6.4,10.0136209 6,10.4131669 6,11.0124858 L6,20.0022701 L3,20.0022701 C2.4,20.0022701 2,19.6027242 2,19.0034052 L2,8.5153235 L10,2.32236095 L18,8.5153235 L18,19.0034052 Z" id="Mask"></path>
                            <path d="M19.6,7.21679909 L10.6,0.224744608 C10.2,-0.0749148695 9.7,-0.0749148695 9.4,0.224744608 L0.4,7.21679909 C0.1,7.41657208 0,7.71623156 0,8.01589103 L0,19.0034052 C0,20.7014756 1.3,22 3,22 L17,22 C18.7,22 20,20.7014756 20,19.0034052 L20,8.01589103 C20,7.71623156 19.9,7.41657208 19.6,7.21679909 Z" id="Path" opacity="0.3"></path>
                        </g>
                        <g id="Group-11" transform="translate(79.000000, 211.000000)" fill="#EBECED">
                            <path d="M20.1084906,8.81603774 L11.5896226,0.297169811 C11.3915094,0.0990566038 11.1933962,0 10.8962264,0 L0.990566038,0 C0.396226415,0 0,0.396226415 0,0.990566038 L0,10.8962264 C0,11.1933962 0.0990566038,11.3915094 0.297169811,11.5896226 L8.81603774,20.1084906 C9.41037736,20.7028302 10.1037736,21 10.8962264,21 C10.8962264,21 10.8962264,21 10.8962264,21 C11.6886792,21 12.4811321,20.7028302 12.9764151,20.1084906 L20.1084906,12.9764151 C20.1084906,12.9764151 20.1084906,12.9764151 20.1084906,12.9764151 C21.2971698,11.7877358 21.2971698,10.004717 20.1084906,8.81603774 Z M18.7216981,11.5896226 L11.5896226,18.7216981 C11.1933962,19.1179245 10.5990566,19.1179245 10.2028302,18.7216981 L1.98113208,10.5 L1.98113208,1.98113208 L10.5,1.98113208 L18.7216981,10.2028302 C19.1179245,10.5990566 19.1179245,11.1933962 18.7216981,11.5896226 Z M6.63679245,5.25 C6.83490566,5.44811321 6.93396226,5.64622642 6.93396226,5.94339623 C6.93396226,6.24056604 6.83490566,6.43867925 6.63679245,6.63679245 C6.43867925,6.83490566 6.24056604,6.93396226 5.94339623,6.93396226 C5.64622642,6.93396226 5.44811321,6.83490566 5.25,6.63679245 C5.1509434,6.53773585 5.05188679,6.43867925 5.05188679,6.33962264 C4.95283019,6.24056604 4.95283019,6.04245283 4.95283019,5.94339623 C4.95283019,5.64622642 5.05188679,5.44811321 5.25,5.25 C5.54716981,4.95283019 5.94339623,4.85377358 6.33962264,5.05188679 C6.43867925,5.05188679 6.53773585,5.1509434 6.63679245,5.25 Z" id="Mask"></path>
                            <path d="M20.1084906,8.81603774 L11.5896226,0.297169811 C11.3915094,0.0990566038 11.1933962,0 10.8962264,0 L0.990566038,0 C0.396226415,0 0,0.396226415 0,0.990566038 L0,10.8962264 C0,11.1933962 0.0990566038,11.3915094 0.297169811,11.5896226 L8.81603774,20.1084906 C9.41037736,20.7028302 10.1037736,21 10.8962264,21 C10.8962264,21 10.8962264,21 10.8962264,21 C11.6886792,21 12.4811321,20.7028302 12.9764151,20.1084906 L20.1084906,12.9764151 C20.1084906,12.9764151 20.1084906,12.9764151 20.1084906,12.9764151 C21.2971698,11.7877358 21.2971698,10.004717 20.1084906,8.81603774 Z" id="Path" opacity="0.3"></path>
                        </g>
                    </g>
                </g>
            </g>
        </g>
    </g>
</svg>