<?xml version="1.0" encoding="UTF-8"?>
<svg width="160px" height="160px" viewBox="0 0 160 160" version="1.1" xmlns="http://www.w3.org/2000/svg" xmlns:xlink="http://www.w3.org/1999/xlink">
    <!-- Generator: Sketch 54.1 (76490) - https://sketchapp.com -->
    <title>Graphics/import</title>
    <desc>Created with Sketch.</desc>
    <defs>
        <linearGradient x1="50%" y1="0%" x2="50%" y2="100%" id="linearGradient-1">
            <stop stop-color="#2079C2" stop-opacity="0.31602382" offset="0%"></stop>
            <stop stop-color="#2079C2" stop-opacity="0.636445586" offset="100%"></stop>
        </linearGradient>
        <linearGradient x1="50%" y1="0%" x2="50%" y2="100%" id="linearGradient-2">
            <stop stop-color="#2079C2" stop-opacity="0.234702797" offset="0%"></stop>
            <stop stop-color="#2079C2" stop-opacity="0.4" offset="100%"></stop>
        </linearGradient>
        <path d="M3,0 L31.5643468,2.22044605e-15 C32.3632556,2.07368888e-15 33.1291664,0.318658021 33.6923066,0.885339954 L55.1279598,22.4558086 C55.6865058,23.0178674 56,23.7780775 56,24.5704686 L56,77 C56,78.6568542 54.6568542,80 53,80 L3,80 C1.34314575,80 2.02906125e-16,78.6568542 0,77 L-4.4408921e-16,3 C-6.46995335e-16,1.34314575 1.34314575,3.04359188e-16 3,0 Z" id="path-3"></path>
        <linearGradient x1="50%" y1="0%" x2="50%" y2="99.9841639%" id="linearGradient-5">
            <stop stop-color="#2079C2" stop-opacity="0.27619646" offset="0%"></stop>
            <stop stop-color="#2079C2" stop-opacity="0.606015079" offset="99.9841639%"></stop>
        </linearGradient>
        <linearGradient x1="50%" y1="0%" x2="50%" y2="100%" id="linearGradient-6">
            <stop stop-color="#2079C2" stop-opacity="0.0764040647" offset="0%"></stop>
            <stop stop-color="#2079C2" stop-opacity="0.486396416" offset="100%"></stop>
        </linearGradient>
        <path d="M3.41421356,9 L8.70710678,14.2928932 C9.09763107,14.6834175 9.09763107,15.3165825 8.70710678,15.7071068 C8.31658249,16.0976311 7.68341751,16.0976311 7.29289322,15.7071068 L0.292893219,8.70710678 C-0.0976310729,8.31658249 -0.0976310729,7.68341751 0.292893219,7.29289322 L7.29289322,0.292893219 C7.68341751,-0.0976310729 8.31658249,-0.0976310729 8.70710678,0.292893219 C9.09763107,0.683417511 9.09763107,1.31658249 8.70710678,1.70710678 L3.41421356,7 L15,7 C15.5522847,7 16,7.44771525 16,8 C16,8.55228475 15.5522847,9 15,9 L3.41421356,9 Z" id="path-7"></path>
        <path d="M12.5857864,7 L7.29289322,1.70710678 C6.90236893,1.31658249 6.90236893,0.683417511 7.29289322,0.292893219 C7.68341751,-0.0976310729 8.31658249,-0.0976310729 8.70710678,0.292893219 L15.7071068,7.29289322 C16.0976311,7.68341751 16.0976311,8.31658249 15.7071068,8.70710678 L8.70710678,15.7071068 C8.31658249,16.0976311 7.68341751,16.0976311 7.29289322,15.7071068 C6.90236893,15.3165825 6.90236893,14.6834175 7.29289322,14.2928932 L12.5857864,9 L1,9 C0.44771525,9 0,8.55228475 0,8 C0,7.44771525 0.44771525,7 1,7 L12.5857864,7 Z" id="path-9"></path>
    </defs>
    <g id="Graphics/import" stroke="none" stroke-width="1" fill="none" fill-rule="evenodd">
        <g id="Blau-I" transform="translate(24.000000, 24.000000)">
            <g id="Screen" transform="translate(0.000000, 52.000000)">
                <rect id="Rectangle" fill="url(#linearGradient-1)" x="0" y="0" width="84" height="60" rx="3"></rect>
                <path d="M3,0 L24,0 L24,60 L3,60 C1.34314575,60 2.02906125e-16,58.6568542 0,57 L0,3 C-2.02906125e-16,1.34314575 1.34314575,3.04359188e-16 3,0 Z" id="Rectangle" fill="url(#linearGradient-2)"></path>
                <circle id="Oval" fill="#2079C2" opacity="0.8" cx="15.5" cy="4.5" r="1.5"></circle>
                <circle id="Oval-Copy" fill="#2079C2" opacity="0.8" cx="10.5" cy="4.5" r="1.5"></circle>
                <circle id="Oval-Copy-2" fill="#2079C2" opacity="0.8" cx="6.5" cy="4.5" r="1.5"></circle>
            </g>
            <g id="Doc" transform="translate(56.000000, 0.000000)">
                <mask id="mask-4" fill="white">
                    <use xlink:href="#path-3"></use>
                </mask>
                <g id="Mask"></g>
                <polygon id="Rectangle" fill="url(#linearGradient-5)" mask="url(#mask-4)" points="-1.8189894e-12 0 32.8125 0 56 23.3333333 56 80 -1.8189894e-12 80"></polygon>
                <path d="M32.375,3.28571429 C32.18097,2.36665865 31.80597,1.63649992 31.25,1.0952381 C30.69403,0.553976272 29.94403,0.188896907 29,0 L32.375,0 L56,23 L35.375,23 C33.7181458,23 32.375,21.6568542 32.375,20 L32.375,3.28571429 Z" id="Combined-Shape" fill="url(#linearGradient-6)" mask="url(#mask-4)"></path>
            </g>
            <g id="icon-/-arrow-down" transform="translate(44.000000, 28.000000)">
                <mask id="mask-8" fill="white">
                    <use xlink:href="#path-7"></use>
                </mask>
                <use id="Mask" fill="#2079C2" fill-rule="nonzero" xlink:href="#path-7"></use>
            </g>
            <g id="icon-/-arrow-down" transform="translate(80.000000, 84.000000)">
                <mask id="mask-10" fill="white">
                    <use xlink:href="#path-9"></use>
                </mask>
                <use id="Mask" fill="#2079C2" fill-rule="nonzero" xlink:href="#path-9"></use>
            </g>
        </g>
    </g>
</svg>