<?xml version="1.0" encoding="UTF-8"?>
<svg width="160px" height="160px" viewBox="0 0 160 160" version="1.1" xmlns="http://www.w3.org/2000/svg" xmlns:xlink="http://www.w3.org/1999/xlink">
    <!-- Generator: Sketch 53.2 (72643) - https://sketchapp.com -->
    <title>Website/Graphics/Computer</title>
    <desc>Created with Sketch.</desc>
    <defs>
        <linearGradient x1="50%" y1="0%" x2="50%" y2="100%" id="linearGradient-1">
            <stop stop-color="#2079C2" stop-opacity="0.253114073" offset="0%"></stop>
            <stop stop-color="#2079C2" stop-opacity="0.8" offset="100%"></stop>
        </linearGradient>
        <linearGradient x1="50%" y1="0%" x2="50%" y2="100%" id="linearGradient-2">
            <stop stop-color="#2079C2" stop-opacity="0.4" offset="0%"></stop>
            <stop stop-color="#2079C2" stop-opacity="0.8" offset="100%"></stop>
        </linearGradient>
        <linearGradient x1="50%" y1="100%" x2="50%" y2="3.061617e-15%" id="linearGradient-3">
            <stop stop-color="#2079C2" stop-opacity="0.8" offset="0%"></stop>
            <stop stop-color="#2079C2" offset="100%"></stop>
        </linearGradient>
        <linearGradient x1="50%" y1="0%" x2="50%" y2="100%" id="linearGradient-4">
            <stop stop-color="#2079C2" stop-opacity="0.4" offset="0%"></stop>
            <stop stop-color="#2079C2" stop-opacity="0.8" offset="100%"></stop>
        </linearGradient>
        <linearGradient x1="50%" y1="0%" x2="50%" y2="98.3187289%" id="linearGradient-5">
            <stop stop-color="#2079C2" stop-opacity="0.229376093" offset="0%"></stop>
            <stop stop-color="#2079C2" stop-opacity="0.663243007" offset="100%"></stop>
        </linearGradient>
        <linearGradient x1="50%" y1="0%" x2="50%" y2="100%" id="linearGradient-6">
            <stop stop-color="#2079C2" stop-opacity="0.168979458" offset="0%"></stop>
            <stop stop-color="#2079C2" stop-opacity="0.385380245" offset="100%"></stop>
        </linearGradient>
        <linearGradient x1="50%" y1="0%" x2="50%" y2="100%" id="linearGradient-7">
            <stop stop-color="#2079C2" stop-opacity="0.4" offset="0%"></stop>
            <stop stop-color="#2079C2" stop-opacity="0.8" offset="100%"></stop>
        </linearGradient>
    </defs>
    <g id="Website/Graphics/Computer" stroke="none" stroke-width="1" fill="none" fill-rule="evenodd">
        <g id="Blau-I" transform="translate(16.000000, 36.000000)">
            <rect id="Rectangle" fill="url(#linearGradient-1)" x="14" y="0" width="100.571429" height="72" rx="3"></rect>
            <path d="M14,58 L114.571429,58 L114.571429,69 C114.571429,70.6568542 113.228283,72 111.571429,72 L17,72 C15.3431458,72 14,70.6568542 14,69 L14,58 Z" id="Rectangle" fill-opacity="0.4" fill="#2079C2"></path>
            <path d="M52.2571429,72 L77.4571429,72 C77.8538517,77.3245165 78.4538517,81.102457 79.2571429,83.3338213 C80.060434,85.5651857 81.260434,86.7872452 82.8571429,87 L46.8571429,87 C48.5096379,86.6322837 49.7096379,85.4102241 50.4571429,83.3338213 C51.2046479,81.2574186 51.8046479,77.4794781 52.2571429,72 Z" id="Combined-Shape" fill="url(#linearGradient-2)"></path>
            <rect id="Rectangle" fill="url(#linearGradient-3)" x="42.7346939" y="87" width="43.1020408" height="1" rx="0.5"></rect>
            <g id="Logos" transform="translate(0.000000, 12.000000)">
                <path d="M72.7152617,17.0028586 C72.6749744,12.9503 76.0130852,11.0067394 76.1621982,10.910177 C74.2865923,8.15955464 71.3648255,7.78274251 70.3236537,7.73918005 C67.8371273,7.48686779 65.471837,9.20630364 64.2098957,9.20630364 C62.9511349,9.20630364 61.0038101,7.77649251 58.9416103,7.81405498 C56.2313831,7.85442994 53.7323838,9.39336595 52.3368582,11.8259261 C49.5209859,16.7227964 51.61574,23.9771644 54.3602674,27.9485981 C55.7013491,29.8925962 57.3004941,32.0759691 59.4001125,31.9979692 C61.422025,31.9170943 62.1866112,30.686783 64.6311041,30.686783 C67.0755346,30.686783 67.7627267,31.9979692 69.902383,31.9577192 C72.0781482,31.9172193 73.456586,29.9765336 74.7884377,28.026598 C76.3284614,25.7713502 76.9625814,23.5879148 77,23.4758524 C76.9516677,23.4537274 72.7572953,21.8434165 72.7152617,17.0028586 Z M68.6947609,5.11005758 C69.8091484,3.75512138 70.561324,1.87531069 70.3561455,0 C68.7509512,0.0654999369 66.8052478,1.07156147 65.6535665,2.42343517 C64.6201903,3.62268401 63.7155964,5.53674467 63.9580063,7.3745554 C65.7499817,7.51468026 67.5791886,6.46193128 68.6947609,5.11005758 Z" id="Shape" fill="url(#linearGradient-4)" fill-rule="nonzero"></path>
                <path d="M127.162235,25.6933357 C126.235162,25.3090184 125.838586,24.7990085 125.876938,24.038033 C125.916429,23.1497911 125.418584,22.4991902 125.182152,22.2421393 C125.324986,21.6898471 125.742396,19.7792772 125.182566,18.1197778 C124.580964,16.3435039 122.744234,13.6306205 120.849043,10.9639014 C120.0732,9.8687598 120.036507,8.67835199 119.994113,7.29992984 C119.953481,5.98519335 119.907666,4.49492784 119.183339,2.83826123 C118.395784,1.03439367 116.815491,0 114.847432,0 C113.676671,0 112.474918,0.370363084 111.550127,1.01603289 C109.656387,2.33895304 109.906709,5.2232736 110.072346,7.13185004 C110.095046,7.39320258 110.116399,7.64007633 110.128837,7.85085804 C110.239124,9.72008997 110.138788,10.7052768 110.007563,11.0047148 C109.922671,11.2003882 109.504742,11.7572968 109.062455,12.34694 C108.605035,12.9567276 108.086459,13.6479321 107.661378,14.2920281 C107.154204,15.0670627 106.744775,16.2517 106.34882,17.3973075 C106.05911,18.2356081 105.785466,19.0274297 105.519078,19.5006131 C105.014184,20.4108879 105.139812,21.2596804 105.244709,21.6519715 C105.053572,21.7863724 104.777441,22.0509774 104.544325,22.549761 C104.262597,23.1582896 103.69095,23.4853212 102.502258,23.716667 C101.956007,23.8297694 101.579332,24.0622693 101.382391,24.4076617 C101.095791,24.9103273 101.251892,25.541938 101.394311,25.9735736 C101.604727,26.608122 101.473606,27.0097509 101.235204,27.738936 C101.180268,27.9072256 101.117973,28.097758 101.054848,28.3079102 C100.955445,28.6395583 100.991309,28.9410947 101.161196,29.2041259 C101.610117,29.8987928 102.920083,30.143778 104.268608,30.3049331 C105.073785,30.4016682 105.955042,30.7276507 106.807381,31.0430363 C107.642513,31.3519171 108.506046,31.6713946 109.29101,31.7683395 C109.410315,31.7835527 109.528479,31.7912117 109.642394,31.7912117 C110.827562,31.7912117 111.363033,30.9951934 111.532817,30.6681618 C111.958519,30.5802399 113.426764,30.298638 114.939994,30.2608673 C116.450839,30.2172211 117.912657,30.5191772 118.326751,30.6130794 C118.456939,30.865304 118.800134,31.4414127 119.347215,31.7382278 C119.647912,31.9046289 120.066359,32 120.494964,32 C120.495068,32 120.494964,32 120.495068,32 C120.952799,32 121.823588,31.8904649 122.512777,31.1565584 C123.200203,30.4191896 124.917733,29.4778589 126.171934,28.7905363 C126.451797,28.6371452 126.713625,28.4936164 126.943216,28.3640417 C127.647745,27.968708 128.032194,27.4038256 127.997885,26.8142873 C127.969277,26.3246316 127.649093,25.8950944 127.162235,25.6933357 Z" id="XMLID_92_-path" fill="url(#linearGradient-5)"></path>
                <path d="M127.162235,25.6933357 C126.235162,25.3090184 125.838586,24.7990085 125.876938,24.038033 C125.916429,23.1497911 125.418584,22.4991902 125.182152,22.2421393 C125.324986,21.6898471 125.742396,19.7792772 125.182566,18.1197778 C124.580964,16.3435039 122.744234,13.6306205 120.849043,10.9639014 C120.0732,9.8687598 120.036507,8.67835199 119.994113,7.29992984 C119.953481,5.98519335 119.907666,4.49492784 119.183339,2.83826123 C118.395784,1.03439367 116.815491,0 114.847432,0 C113.676671,0 112.474918,0.370363084 111.550127,1.01603289 C109.656387,2.33895304 109.906709,5.2232736 110.072346,7.13185004 C110.095046,7.39320258 110.116399,7.64007633 110.128837,7.85085804 C110.239124,9.72008997 110.138788,10.7052768 110.007563,11.0047148 C109.922671,11.2003882 109.504742,11.7572968 109.062455,12.34694 C108.605035,12.9567276 108.086459,13.6479321 107.661378,14.2920281 C107.154204,15.0670627 106.744775,16.2517 106.34882,17.3973075 C106.05911,18.2356081 105.785466,19.0274297 105.519078,19.5006131 C105.014184,20.4108879 105.139812,21.2596804 105.244709,21.6519715 C105.053572,21.7863724 104.777441,22.0509774 104.544325,22.549761 C104.262597,23.1582896 103.69095,23.4853212 102.502258,23.716667 C101.956007,23.8297694 101.579332,24.0622693 101.382391,24.4076617 C101.095791,24.9103273 101.251892,25.541938 101.394311,25.9735736 C101.604727,26.608122 101.473606,27.0097509 101.235204,27.738936 C101.180268,27.9072256 101.117973,28.097758 101.054848,28.3079102 C100.955445,28.6395583 100.991309,28.9410947 101.161196,29.2041259 C101.610117,29.8987928 102.920083,30.143778 104.268608,30.3049331 C105.073785,30.4016682 105.955042,30.7276507 106.807381,31.0430363 C107.642513,31.3519171 108.506046,31.6713946 109.29101,31.7683395 C109.410315,31.7835527 109.528479,31.7912117 109.642394,31.7912117 C110.827562,31.7912117 111.363033,30.9951934 111.532817,30.6681618 C111.958519,30.5802399 113.426764,30.298638 114.939994,30.2608673 C116.450839,30.2172211 117.912657,30.5191772 118.326751,30.6130794 C118.456939,30.865304 118.800134,31.4414127 119.347215,31.7382278 C119.647912,31.9046289 120.066359,32 120.494964,32 C120.495068,32 120.494964,32 120.495068,32 C120.952799,32 121.823588,31.8904649 122.512777,31.1565584 C123.200203,30.4191896 124.917733,29.4778589 126.171934,28.7905363 C126.451797,28.6371452 126.713625,28.4936164 126.943216,28.3640417 C127.647745,27.968708 128.032194,27.4038256 127.997885,26.8142873 C127.969277,26.3246316 127.649093,25.8950944 127.162235,25.6933357 Z M111.565571,25.5513807 C111.47788,24.9260651 110.683173,24.3058905 109.762838,23.5878268 C109.010318,23.0005967 108.157357,22.3350973 107.922376,21.7714739 C107.436762,20.6087646 107.819552,18.5643185 108.486974,17.511564 C108.816798,16.9844524 109.086192,16.1850766 109.346775,15.4120355 C109.628089,14.5773021 109.919043,13.7142407 110.24441,13.3364284 C110.759669,12.7465754 111.235851,11.5988695 111.320224,10.6943652 C111.802729,11.160624 112.551207,11.7522607 113.242676,11.7522607 C113.349128,11.7522607 113.45247,11.7382016 113.551251,11.7099784 C114.024323,11.5716956 114.720146,11.1647158 115.393061,10.7712706 C115.973207,10.4319635 116.688619,10.0135476 116.957806,9.97546213 C117.419373,10.6463124 120.101394,16.6540633 120.375452,18.5834137 C120.592294,20.109981 120.363221,21.3719434 120.248063,21.8662155 C120.155397,21.8534154 120.044903,21.8430285 119.928811,21.8430285 C119.181784,21.8430285 118.984015,22.2557787 118.932499,22.5022328 C118.800031,23.1425518 118.786037,25.1900406 118.784586,25.6501092 C118.514467,25.9974951 117.148424,27.6333878 115.187206,27.9274749 C114.388352,28.0449839 113.642362,28.1045777 112.970069,28.1045777 C112.395417,28.1045777 112.028692,28.0596725 111.876426,28.0362756 L110.890894,26.8948649 C111.279489,26.7006603 111.66798,26.2908478 111.565571,25.5513807 Z M112.816144,6.73043102 C112.785359,6.74386062 112.755092,6.75823448 112.725344,6.77355261 C112.722338,6.70598496 112.715393,6.63747303 112.704717,6.56875127 C112.597125,5.94186191 112.186452,5.48682942 111.72841,5.48682942 C111.694515,5.48682942 111.660413,5.48945239 111.622995,5.49522292 C111.350491,5.54117732 111.136759,5.74839179 111.019631,6.04216421 C111.122351,5.39754359 111.483167,4.92026833 111.911254,4.92026833 C112.413971,4.92026833 112.838637,5.60601709 112.838637,6.41766831 C112.838637,6.51996407 112.831277,6.62173522 112.816144,6.73043102 Z M116.72241,7.21379157 C116.768432,7.06543649 116.793309,6.90491085 116.793309,6.73829992 C116.793309,6.00240002 116.332053,5.42587165 115.743201,5.42587165 C115.167719,5.42587165 114.699519,6.01457059 114.699519,6.73829992 C114.699519,6.78761172 114.701903,6.83702844 114.706463,6.88634024 C114.675989,6.87448442 114.646241,6.86294336 114.617218,6.85182198 C114.550984,6.64880425 114.517504,6.43697336 114.517504,6.22073587 C114.517504,5.34078256 115.073084,4.62481721 115.756157,4.62481721 C116.439127,4.62481721 116.99481,5.34078256 116.99481,6.22073587 C116.99481,6.58679729 116.894992,6.93617663 116.72241,7.21379157 Z M116.21876,8.92648476 C116.208913,8.9709703 116.187975,8.99069502 115.956415,9.11261057 C115.839494,9.17419786 115.693965,9.25089345 115.511847,9.36315648 L115.390159,9.43775369 C114.901124,9.73782123 113.756069,10.4406717 113.445214,10.4819048 C113.234073,10.5106525 113.10347,10.4277667 112.809821,10.2257982 C112.743587,10.1801586 112.673103,10.1316861 112.597955,10.0828989 C112.068599,9.73131627 111.728099,9.34406127 111.689644,9.19266356 C111.862226,9.05763316 112.290002,8.71968997 112.50902,8.51960996 C112.953588,8.10119411 113.400954,7.82001193 113.622357,7.82001193 C113.63407,7.82001193 113.644642,7.82085128 113.65563,7.82294966 C113.915799,7.86942865 114.557514,8.12868281 115.026233,8.31795618 C115.242868,8.4054584 115.429961,8.48099988 115.561601,8.52884281 C115.976316,8.67300113 116.192536,8.85744825 116.21876,8.92648476 Z M119.944774,28.4801868 C120.178719,27.4120093 120.448217,25.958885 120.404579,25.1022236 C120.394524,24.9075994 120.377525,24.6957685 120.361044,24.4909672 C120.330259,24.1080138 120.284549,23.5388298 120.331711,23.3700155 C120.341039,23.365609 120.351405,23.3618319 120.36291,23.3585794 C120.36488,23.84834 120.469984,24.8252382 121.241784,25.1659093 C121.47179,25.2674706 121.734654,25.3188808 122.023016,25.3188808 C122.796164,25.3188808 123.653996,24.9349832 124.005379,24.5793087 C124.212271,24.369891 124.386304,24.1136794 124.5082,23.9107666 C124.534839,23.9897704 124.551216,24.0930104 124.542613,24.2260474 C124.496695,24.9484128 124.843517,25.9067404 125.50358,26.2598968 L125.599666,26.3109922 C125.834751,26.4358455 126.459156,26.7677034 126.469211,26.9250815 C126.469107,26.9251864 126.463925,26.9436521 126.429097,26.9763867 C126.272685,27.1210696 125.722184,27.4056092 125.189822,27.680811 C124.24544,28.1688929 123.175015,28.7221293 122.694273,29.2339228 C122.017419,29.9549243 121.251838,30.4392291 120.789546,30.4392291 C120.733884,30.4392291 120.683198,30.4320946 120.638109,30.4176159 C120.136014,30.2591886 119.722749,29.5259116 119.944774,28.4801868 Z M102.830527,25.7551328 C102.779322,25.5125607 102.738898,25.3210841 102.782328,25.1355878 C102.813839,24.9981443 103.484163,24.8508384 103.770452,24.7879921 C104.172937,24.6995456 104.589207,24.6081614 104.8614,24.4409209 C105.229472,24.2152408 105.428796,23.7990282 105.604592,23.4318127 C105.731878,23.1662634 105.86331,22.8916911 106.019722,22.8015659 C106.028532,22.79632 106.042007,22.7902347 106.067713,22.7902347 C106.36074,22.7902347 106.97561,23.4137666 107.329896,23.9718293 C107.419763,24.1125253 107.586229,24.3944419 107.778817,24.7208441 C108.354816,25.6963783 109.143512,27.0325182 109.555429,27.4803113 C109.92661,27.8828845 110.527486,28.6568699 110.379677,29.3206906 C110.271463,29.8357366 109.69536,30.2545722 109.559471,30.3472154 C109.510132,30.3585466 109.449081,30.3643171 109.377249,30.3643171 C108.588865,30.3643171 107.028265,29.7003915 106.189816,29.3436678 L106.065744,29.2908937 C105.597543,29.0921777 104.833206,28.9670096 104.094057,28.8459334 C103.50593,28.7495131 102.700546,28.6176303 102.567041,28.4984426 C102.458827,28.3755828 102.584351,27.9761572 102.695053,27.6237352 C102.774762,27.3704614 102.857062,27.1085843 102.902151,26.8344317 C102.966105,26.3971305 102.890853,26.0411413 102.830527,25.7551328 Z" id="XMLID_92_" fill="url(#linearGradient-6)" fill-rule="nonzero"></path>
                <path d="M7.3492,1.3924 C9.6172,0.488 11.6068,0.0336 13.4276,0 C14.3836,0 15.286,0.1028 16.1416,0.3016 C17.444,0.634 19.2464,1.61 19.9332,2.002 L16.6724,13.1056 C15.0108,12.046 13.0056,11.0168 10.294,10.9892 L10.2916,10.9892 C8.4832,10.9892 6.5184,11.4056 4.2416,12.2604 L7.3492,1.3924 Z M12.456,28.0208 C13.2624,25.2948 15.1988,18.7112 15.7768,16.7432 C15.3576,16.4884 14.9304,16.2336 14.4932,15.9976 C12.8152,15.1396 11.1848,14.7048 9.6452,14.7048 C9.4364,14.7048 9.2268,14.7112 9.0148,14.7296 C7.05,14.8912 5.2568,15.4076 4.1016,15.8084 C3.7952,15.92 3.4832,16.038 3.1588,16.1688 L0,27.0632 C2.1708,26.264 4.0888,25.8756 5.8468,25.8756 C8.6892,25.8756 10.7508,26.9328 12.456,28.0208 Z M31.6864,19.9012 C29.6252,20.5632 27.648,20.8988 25.7988,20.8988 C22.4256,20.8988 20.064,19.8108 18.574,18.7664 L15.3948,29.7584 C16.3384,30.296 19.5108,32 21.9416,32 C23.9032,32 26.0992,31.4992 28.6504,30.4672 L31.6864,19.9012 Z M36,5.0172 C33.932,5.8164 31.9144,6.2236 29.9872,6.2236 C26.764,6.2236 24.3872,5.1112 22.8472,4.0416 L19.6144,15.176 C21.7856,16.5656 24.1248,17.2708 26.58,17.2708 C28.582,17.2708 30.6552,16.7924 32.7484,15.8472 L32.742,15.77 L32.8732,15.7384 L36,5.0172 Z" id="Windows" fill="url(#linearGradient-7)" fill-rule="nonzero"></path>
            </g>
        </g>
    </g>
</svg>