<?xml version="1.0" encoding="UTF-8"?>
<svg width="160px" height="160px" viewBox="0 0 160 160" version="1.1" xmlns="http://www.w3.org/2000/svg" xmlns:xlink="http://www.w3.org/1999/xlink">
    <!-- Generator: Sketch 54.1 (76490) - https://sketchapp.com -->
    <title>Graphics/secured</title>
    <desc>Created with Sketch.</desc>
    <defs>
        <linearGradient x1="50%" y1="-2.48949813e-15%" x2="50%" y2="100%" id="linearGradient-1">
            <stop stop-color="#4F9CDC" stop-opacity="0.351589816" offset="0%"></stop>
            <stop stop-color="#3286CC" stop-opacity="0.512871117" offset="62.2166386%"></stop>
            <stop stop-color="#2079C2" stop-opacity="0.893547858" offset="100%"></stop>
        </linearGradient>
        <linearGradient x1="50%" y1="0%" x2="50%" y2="100%" id="linearGradient-2">
            <stop stop-color="#2079C2" stop-opacity="0" offset="0%"></stop>
            <stop stop-color="#2079C2" stop-opacity="0.231663121" offset="62.8341375%"></stop>
            <stop stop-color="#2079C2" stop-opacity="0.610576923" offset="100%"></stop>
        </linearGradient>
        <linearGradient x1="50%" y1="0%" x2="50%" y2="100%" id="linearGradient-3">
            <stop stop-color="#FFFFFF" stop-opacity="0.691488199" offset="0%"></stop>
            <stop stop-color="#FFFFFF" stop-opacity="0" offset="100%"></stop>
        </linearGradient>
        <linearGradient x1="50%" y1="0%" x2="50%" y2="100%" id="linearGradient-4">
            <stop stop-color="#2079C2" stop-opacity="0.713423295" offset="0%"></stop>
            <stop stop-color="#4F9CDC" stop-opacity="0" offset="100%"></stop>
        </linearGradient>
        <path d="M27.5,26.2916667 L27.5,29.375 C27.5,30.3 26.9,30.9166667 26,30.9166667 C25.1,30.9166667 24.5,30.3 24.5,29.375 L24.5,26.2916667 C24.5,23.6708333 22.55,21.6666667 20,21.6666667 L8,21.6666667 C5.45,21.6666667 3.5,23.6708333 3.5,26.2916667 L3.5,29.375 C3.5,30.3 2.9,30.9166667 2,30.9166667 C1.1,30.9166667 0.5,30.3 0.5,29.375 L0.5,26.2916667 C0.5,21.975 3.8,18.5833333 8,18.5833333 L20,18.5833333 C24.2,18.5833333 27.5,21.975 27.5,26.2916667 Z M6.5,7.79166667 C6.5,3.475 9.8,0.0833333333 14,0.0833333333 C18.2,0.0833333333 21.5,3.475 21.5,7.79166667 C21.5,12.1083333 18.2,15.5 14,15.5 C9.8,15.5 6.5,12.1083333 6.5,7.79166667 Z M9.5,7.79166667 C9.5,10.4125 11.45,12.4166667 14,12.4166667 C16.55,12.4166667 18.5,10.4125 18.5,7.79166667 C18.5,5.17083333 16.55,3.16666667 14,3.16666667 C11.45,3.16666667 9.5,5.17083333 9.5,7.79166667 Z" id="path-5"></path>
        <linearGradient x1="50%" y1="0%" x2="50%" y2="100%" id="linearGradient-7">
            <stop stop-color="#2079C2" stop-opacity="0.267318619" offset="0%"></stop>
            <stop stop-color="#2079C2" stop-opacity="0.51048951" offset="65.3086654%"></stop>
            <stop stop-color="#2079C2" stop-opacity="0.927884615" offset="100%"></stop>
        </linearGradient>
        <linearGradient x1="50%" y1="0%" x2="50%" y2="100%" id="linearGradient-8">
            <stop stop-color="#2079C2" stop-opacity="0.422721809" offset="0%"></stop>
            <stop stop-color="#2079C2" stop-opacity="0.271470717" offset="61.3324039%"></stop>
            <stop stop-color="#2079C2" stop-opacity="0" offset="100%"></stop>
        </linearGradient>
        <linearGradient x1="50%" y1="0%" x2="50%" y2="100%" id="linearGradient-9">
            <stop stop-color="#2079C2" stop-opacity="0.422721809" offset="0%"></stop>
            <stop stop-color="#2079C2" stop-opacity="0.271470717" offset="61.3324039%"></stop>
            <stop stop-color="#2079C2" stop-opacity="0" offset="100%"></stop>
        </linearGradient>
    </defs>
    <g id="Graphics/secured" stroke="none" stroke-width="1" fill="none" fill-rule="evenodd">
        <path d="M80,24 C87.0729167,24 99.1979167,28.546875 116.375,37.640625 C116.375,52.796875 116.375,64.4166667 116.375,72.5 C116.375,88.6666667 104.25,104.833333 80,121 C55.75,104.833333 43.625,88.6666667 43.625,72.5 C43.625,64.4166667 43.625,52.796875 43.625,37.640625 C60.8020833,28.546875 72.9270833,24 80,24 Z" id="Rectangle" fill="url(#linearGradient-1)"></path>
        <path d="M80,24 C87.0729167,24 99.1979167,28.546875 116.375,37.640625 C84.0416667,44.7135417 67.875,60.375 67.875,84.625 C67.875,100.791667 71.9166667,112.916667 80,121 C55.75,104.833333 43.625,88.6666667 43.625,72.5 C43.625,64.4166667 43.625,52.796875 43.625,37.640625 C60.8020833,28.546875 72.9270833,24 80,24 Z" id="Rectangle" fill="url(#linearGradient-2)"></path>
        <g id="Oval" transform="translate(55.750000, 44.000000)">
            <ellipse id="Weis" fill="url(#linearGradient-3)" cx="24.25" cy="24" rx="24.25" ry="24"></ellipse>
            <ellipse id="Blau" fill="url(#linearGradient-4)" cx="24.25" cy="24" rx="24.25" ry="24"></ellipse>
        </g>
        <g id="icon-/-user" opacity="0.663783482" transform="translate(66.000000, 51.000000)">
            <mask id="mask-6" fill="white">
                <use xlink:href="#path-5"></use>
            </mask>
            <use id="Mask" fill="#2079C2" fill-rule="nonzero" xlink:href="#path-5"></use>
        </g>
        <g id="Rechts" transform="translate(104.000000, 85.000000)">
            <path d="M21.1111111,69.3396226 C21.1111111,62.9716981 25.1408884,58.117354 29.7321812,48.1487985 C34.323474,38.1802429 38,35.3773585 38,27.0103082 C38,13.4842617 38,5.89361161 38,4.24528302 C38,1.41509434 35.8888889,0 33.7777778,0 C31.6666667,0 29.5555556,1.41509434 29.5555556,4.24528302 C29.5555556,5.25913406 29.5555556,10.4804651 29.5555556,19.9092763 C29.5555556,23.6175575 28.617284,26.8867925 26.7407407,29.7169811 C27.2098765,27.3584906 26.7407407,25.7075472 25.3333333,24.7641509 C23.2222222,23.3490566 21.1111111,24.7641509 20.4074074,25.4716981 C19.7037037,26.1792453 20.4074074,25.4716981 11.2592593,35.3773585 C4.22222222,39.6226415 2.63677968e-16,45.3491347 0,50.9433962 C0,63.6792453 1.40740741,53.7735849 1.40740741,75 C7.03703704,75 13.6049383,75 21.1111111,75 C21.1111111,73.5849057 21.1111111,71.6981132 21.1111111,69.3396226 Z" id="Path-2" fill="url(#linearGradient-7)"></path>
            <path d="M21.1111111,63 C23.7976293,59.3316237 26.6713193,54.2100275 29.7321812,47.6352113 C34.323474,37.772987 38,35 38,26.7221983 C38,13.3404296 38,5.83074642 38,4.2 C38,1.4 35.8888889,0 33.7777778,0 C31.6666667,0 29.5555556,1.4 29.5555556,4.2 C29.5555556,5.20303663 29.5555556,10.3686735 29.5555556,19.6969107 C29.5555556,23.3656369 28.617284,26.6 26.7407407,29.4 C26.0122463,30.7878576 25.3085426,31.9545243 24.6296296,32.9 C23.9507166,33.8454757 22.9569605,35.0427452 21.6483612,36.4918085 L16.8888889,44.1 C15.9506173,49.2333333 14.5432099,53.4333333 12.6666667,56.7 C10.7901235,59.9666667 6.56790123,62.0666667 0,63 L21.1111111,63 Z" id="Path-2" fill="url(#linearGradient-8)"></path>
        </g>
        <g id="Links" transform="translate(37.000000, 122.500000) scale(-1, 1) translate(-37.000000, -122.500000) translate(18.000000, 85.000000)">
            <path d="M21.1111111,69.3396226 C21.1111111,62.9716981 25.1408884,58.117354 29.7321812,48.1487985 C34.323474,38.1802429 38,35.3773585 38,27.0103082 C38,13.4842617 38,5.89361161 38,4.24528302 C38,1.41509434 35.8888889,0 33.7777778,0 C31.6666667,0 29.5555556,1.41509434 29.5555556,4.24528302 C29.5555556,5.25913406 29.5555556,10.4804651 29.5555556,19.9092763 C29.5555556,23.6175575 28.617284,26.8867925 26.7407407,29.7169811 C27.2098765,27.3584906 26.7407407,25.7075472 25.3333333,24.7641509 C23.2222222,23.3490566 21.1111111,24.7641509 20.4074074,25.4716981 C19.7037037,26.1792453 20.4074074,25.4716981 11.2592593,35.3773585 C4.22222222,39.6226415 2.63677968e-16,45.3491347 0,50.9433962 C0,63.6792453 1.40740741,53.7735849 1.40740741,75 C7.03703704,75 13.6049383,75 21.1111111,75 C21.1111111,73.5849057 21.1111111,71.6981132 21.1111111,69.3396226 Z" id="Path-2" fill="url(#linearGradient-7)"></path>
            <path d="M21.1111111,64 C23.7976293,60.2733955 26.6713193,55.0705041 29.7321812,48.3913258 C34.323474,38.3725582 38,35.5555556 38,27.1463602 C38,13.5521825 38,5.92329795 38,4.26666667 C38,1.42222222 35.8888889,0 33.7777778,0 C31.6666667,0 29.5555556,1.42222222 29.5555556,4.26666667 C29.5555556,5.28562452 29.5555556,10.5332556 29.5555556,20.00956 C29.5555556,23.73652 28.617284,27.0222222 26.7407407,29.8666667 C26.0122463,31.2765538 25.3085426,32.461739 24.6296296,33.4222222 C23.9507166,34.3827055 22.9569605,35.5989793 21.6483612,37.0710436 L16.8888889,44.8 C15.9506173,50.0148148 14.5432099,54.2814815 12.6666667,57.6 C10.7901235,60.9185185 6.56790123,63.0518519 0,64 L21.1111111,64 Z" id="Path-2" fill="url(#linearGradient-9)"></path>
        </g>
    </g>
</svg>