<?xml version="1.0" encoding="UTF-8"?>
<svg width="80px" height="80px" viewBox="0 0 80 80" version="1.1" xmlns="http://www.w3.org/2000/svg" xmlns:xlink="http://www.w3.org/1999/xlink">
    <!-- Generator: Sketch 54.1 (76490) - https://sketchapp.com -->
    <title>Graphics/features</title>
    <desc>Created with Sketch.</desc>
    <defs>
        <linearGradient x1="50%" y1="0%" x2="50%" y2="100%" id="linearGradient-1">
            <stop stop-color="#2079C2" stop-opacity="0.4" offset="0%"></stop>
            <stop stop-color="#2079C2" stop-opacity="0.8" offset="100%"></stop>
        </linearGradient>
        <linearGradient x1="50%" y1="0%" x2="50%" y2="100%" id="linearGradient-2">
            <stop stop-color="#2079C2" stop-opacity="0.4" offset="0%"></stop>
            <stop stop-color="#2079C2" stop-opacity="0.8" offset="100%"></stop>
        </linearGradient>
        <linearGradient x1="50%" y1="100%" x2="50%" y2="3.061617e-15%" id="linearGradient-3">
            <stop stop-color="#2079C2" stop-opacity="0.8" offset="0%"></stop>
            <stop stop-color="#2079C2" offset="100%"></stop>
        </linearGradient>
        <linearGradient x1="50%" y1="0%" x2="50%" y2="100%" id="linearGradient-4">
            <stop stop-color="#2079C2" stop-opacity="0.4" offset="0%"></stop>
            <stop stop-color="#2079C2" stop-opacity="0.8" offset="100%"></stop>
        </linearGradient>
        <linearGradient x1="50%" y1="0%" x2="50%" y2="100%" id="linearGradient-5">
            <stop stop-color="#2079C2" stop-opacity="0.4" offset="0%"></stop>
            <stop stop-color="#2079C2" stop-opacity="0.8" offset="100%"></stop>
        </linearGradient>
        <linearGradient x1="50%" y1="0%" x2="50%" y2="100%" id="linearGradient-6">
            <stop stop-color="#2079C2" stop-opacity="0.4" offset="0%"></stop>
            <stop stop-color="#2079C2" stop-opacity="0.8" offset="100%"></stop>
        </linearGradient>
        <path d="M14,7 L14,17 C14,17.6 13.6,18 13,18 C12.4,18 12,17.6 12,17 L12,7 C12,6.4 12.4,6 13,6 C13.6,6 14,6.4 14,7 Z M7,0 C6.4,0 6,0.4 6,1 L6,17 C6,17.6 6.4,18 7,18 C7.6,18 8,17.6 8,17 L8,1 C8,0.4 7.6,0 7,0 Z M1,10 C0.4,10 0,10.4 0,11 L0,17 C0,17.6 0.4,18 1,18 C1.6,18 2,17.6 2,17 L2,11 C2,10.4 1.6,10 1,10 Z" id="path-7"></path>
        <path d="M10.65,2.61324786 L6.65,0.647435897 C6.65,0.647435897 6.65,0.647435897 6.65,0.647435897 C6.25,0.450854701 5.75,0.450854701 5.3,0.647435897 L1.3,2.61324786 C0.8,2.85897436 0.5,3.35042735 0.5,3.89102564 L0.5,8.55982906 C0.5,9.10042735 0.8,9.64102564 1.35,9.88675214 L5.35,11.8525641 C5.55,11.9508547 5.8,12 6,12 C6.25,12 6.45,11.9508547 6.65,11.8525641 L10.65,9.88675214 C11.15,9.64102564 11.5,9.14957265 11.5,8.55982906 L11.5,3.89102564 C11.5,3.35042735 11.2,2.85897436 10.65,2.61324786 Z M5.8,1.48290598 C5.85,1.43376068 5.95,1.43376068 6,1.43376068 C6.1,1.43376068 6.15,1.43376068 6.2,1.48290598 L9.9,3.30128205 L8.5,3.98931624 L4.6,2.07264957 L5.8,1.48290598 Z M5.5,10.8696581 L1.75,9.05128205 C1.6,8.95299145 1.5,8.75641026 1.5,8.60897436 L1.5,4.08760684 L5.5,6.0534188 L5.5,10.8696581 Z M2.1,3.30128205 L3.5,2.61324786 L7.4,4.52991453 L6,5.21794872 L2.1,3.30128205 Z M10.5,8.60897436 C10.5,8.80555556 10.4,8.95299145 10.2,9.05128205 L6.5,10.8696581 L6.5,6.0534188 L10.5,4.08760684 L10.5,8.60897436 Z" id="path-9"></path>
        <linearGradient x1="50%" y1="100%" x2="50%" y2="3.061617e-15%" id="linearGradient-11">
            <stop stop-color="#2079C2" stop-opacity="0.4" offset="0%"></stop>
            <stop stop-color="#2079C2" stop-opacity="0.8" offset="100%"></stop>
        </linearGradient>
        <path d="M10,8.49658703 L10,9.99829352 C10,10.8492605 9.35,11.5 8.5,11.5 L1.5,11.5 C0.65,11.5 0,10.8492605 0,9.99829352 L0,8.49658703 C0,8.19624573 0.2,7.9960182 0.5,7.9960182 C0.8,7.9960182 1,8.19624573 1,8.49658703 L1,9.99829352 C1,10.2986348 1.2,10.4988623 1.5,10.4988623 L8.5,10.4988623 C8.8,10.4988623 9,10.2986348 9,9.99829352 L9,8.49658703 C9,8.19624573 9.2,7.9960182 9.5,7.9960182 C9.8,7.9960182 10,8.19624573 10,8.49658703 Z M3.35,3.3407281 L4.5,2.1894198 L4.5,7.9960182 C4.5,8.2963595 4.7,8.49658703 5,8.49658703 C5.3,8.49658703 5.5,8.2963595 5.5,7.9960182 L5.5,2.1894198 L6.65,3.3407281 C6.75,3.44084187 6.85,3.49089875 7,3.49089875 C7.15,3.49089875 7.25,3.44084187 7.35,3.3407281 C7.55,3.14050057 7.55,2.84015927 7.35,2.63993174 L5.35,0.637656428 C5.3,0.587599545 5.25,0.537542662 5.2,0.537542662 C5.1,0.487485779 4.95,0.487485779 4.8,0.537542662 C4.75,0.587599545 4.7,0.587599545 4.65,0.637656428 L2.65,2.63993174 C2.45,2.84015927 2.45,3.14050057 2.65,3.3407281 C2.85,3.54095563 3.15,3.54095563 3.35,3.3407281 Z" id="path-12"></path>
        <path d="M11.45,4.8 C11.45,4.8 11.45,4.8 11.45,4.8 L9.7,1.35 C9.45,0.85 8.95,0.5 8.35,0.5 L3.6,0.5 C3.05,0.5 2.55,0.8 2.3,1.35 L0.6,4.8 C0.6,4.8 0.6,4.8 0.6,4.8 C0.5,4.85 0.5,4.9 0.5,5 L0.5,8 C0.5,8.85 1.15,9.5 2,9.5 L10,9.5 C10.85,9.5 11.5,8.85 11.5,8 L11.5,5 C11.5,4.9 11.5,4.85 11.45,4.8 Z M3.15,1.8 C3.15,1.8 3.15,1.8 3.15,1.8 C3.25,1.6 3.45,1.5 3.6,1.5 L8.35,1.5 C8.55,1.5 8.7,1.6 8.8,1.8 L10.15,4.5 L1.8,4.5 L3.15,1.8 Z M10.5,8 C10.5,8.3 10.3,8.5 10,8.5 L2,8.5 C1.7,8.5 1.5,8.3 1.5,8 L1.5,5.5 L10.5,5.5 L10.5,8 Z M2.65,7.35 C2.55,7.25 2.5,7.15 2.5,7 C2.5,6.95 2.5,6.85 2.55,6.8 C2.6,6.75 2.6,6.7 2.65,6.65 C2.7,6.6 2.75,6.55 2.8,6.55 C2.9,6.5 3.05,6.5 3.2,6.55 C3.25,6.55 3.3,6.6 3.35,6.65 C3.4,6.7 3.45,6.75 3.45,6.8 C3.5,6.85 3.5,6.95 3.5,7 C3.5,7.15 3.45,7.25 3.35,7.35 C3.25,7.45 3.15,7.5 3,7.5 C2.85,7.5 2.75,7.45 2.65,7.35 Z M4.65,7.35 C4.55,7.25 4.5,7.15 4.5,7 C4.5,6.95 4.5,6.85 4.55,6.8 C4.6,6.75 4.6,6.7 4.65,6.65 C4.85,6.45 5.15,6.45 5.35,6.65 C5.4,6.7 5.45,6.75 5.45,6.8 C5.5,6.85 5.5,6.95 5.5,7 C5.5,7.15 5.45,7.25 5.35,7.35 C5.25,7.45 5.15,7.5 5,7.5 C4.85,7.5 4.75,7.45 4.65,7.35 Z" id="path-14"></path>
        <path d="M13.65,2.25 L7.65,0.75 C7.5,0.75 7.425,0.75 7.275,0.75 L1.275,2.25 C0.975,2.325 0.75,2.625 0.75,3 L0.75,9 C0.75,13.875 6.9,17.025 7.2,17.175 C7.275,17.25 7.35,17.25 7.5,17.25 C7.65,17.25 7.725,17.25 7.8,17.175 C8.1,17.025 14.25,13.875 14.25,9 L14.25,3 C14.25,2.625 14.025,2.325 13.65,2.25 Z" id="path-16"></path>
    </defs>
    <g id="Graphics/features" stroke="none" stroke-width="1" fill="none" fill-rule="evenodd">
        <rect id="Rectangle" fill="url(#linearGradient-1)" x="16" y="24" width="56" height="40" rx="3"></rect>
        <path d="M16,56 L72,56 L72,61 C72,62.6568542 70.6568542,64 69,64 L19,64 C17.3431458,64 16,62.6568542 16,61 L16,56 Z" id="Rectangle" fill-opacity="0.4" fill="#2079C2"></path>
        <path d="M37,64 L51,64 C51.2203938,66.8397422 51.5537271,68.8546437 52,70.0447047 C52.4462729,71.2347657 53.1129395,71.8865308 54,72 L34,72 C34.9180528,71.8038846 35.5847194,71.1521195 36,70.0447047 C36.4152806,68.9372899 36.7486139,66.9223883 37,64 Z" id="Combined-Shape" fill="url(#linearGradient-2)"></path>
        <rect id="Rectangle" fill="url(#linearGradient-3)" x="32" y="72" width="24" height="1" rx="0.5"></rect>
        <rect id="Rectangle" fill="url(#linearGradient-4)" x="0" y="36" width="40" height="16" rx="2"></rect>
        <rect id="Rectangle-Copy" fill="url(#linearGradient-5)" x="8" y="16" width="32" height="16" rx="2"></rect>
        <g id="icon-/-bar-chart-2" transform="translate(49.000000, 31.000000)">
            <mask id="mask-8" fill="white">
                <use xlink:href="#path-7"></use>
            </mask>
            <use id="Shape" fill="url(#linearGradient-6)" fill-rule="nonzero" xlink:href="#path-7"></use>
        </g>
        <g id="icon-/-git-merge-copy" transform="translate(26.000000, 38.000000)">
            <mask id="mask-10" fill="white">
                <use xlink:href="#path-9"></use>
            </mask>
            <use id="Mask" fill="#2079C2" fill-rule="nonzero" xlink:href="#path-9"></use>
        </g>
        <g id="icon-/-git-merge-copy-3" transform="translate(51.000000, 8.000000)">
            <mask id="mask-13" fill="white">
                <use xlink:href="#path-12"></use>
            </mask>
            <use id="Mask" fill="url(#linearGradient-11)" fill-rule="nonzero" xlink:href="#path-12"></use>
        </g>
        <g id="icon-/-git-merge-copy-2" transform="translate(26.000000, 19.000000)">
            <mask id="mask-15" fill="white">
                <use xlink:href="#path-14"></use>
            </mask>
            <use id="Shape" fill="#2079C2" fill-rule="nonzero" xlink:href="#path-14"></use>
        </g>
        <g id="icon-/-printer" transform="translate(65.000000, 51.000000)">
            <mask id="mask-17" fill="white">
                <use xlink:href="#path-16"></use>
            </mask>
            <use id="Mask" fill="#2079C2" fill-rule="nonzero" xlink:href="#path-16"></use>
        </g>
    </g>
</svg>