<?xml version="1.0" encoding="UTF-8"?>
<svg width="80px" height="80px" viewBox="0 0 80 80" version="1.1" xmlns="http://www.w3.org/2000/svg" xmlns:xlink="http://www.w3.org/1999/xlink">
    <!-- Generator: Sketch 53.2 (72643) - https://sketchapp.com -->
    <title>Website/Graphics/Start</title>
    <desc>Created with Sketch.</desc>
    <defs>
        <linearGradient x1="50%" y1="0%" x2="50%" y2="100%" id="linearGradient-1">
            <stop stop-color="#15C880" stop-opacity="0.2" offset="0%"></stop>
            <stop stop-color="#15C880" stop-opacity="0.6" offset="100%"></stop>
        </linearGradient>
        <linearGradient x1="100%" y1="50%" x2="0%" y2="50%" id="linearGradient-2">
            <stop stop-color="#15C880" stop-opacity="0.4" offset="0%"></stop>
            <stop stop-color="#15C880" stop-opacity="0.8" offset="100%"></stop>
        </linearGradient>
        <linearGradient x1="50%" y1="100%" x2="50%" y2="3.061617e-15%" id="linearGradient-3">
            <stop stop-color="#15C880" stop-opacity="0.2" offset="0%"></stop>
            <stop stop-color="#15C880" stop-opacity="0.5" offset="100%"></stop>
        </linearGradient>
        <linearGradient x1="100%" y1="50%" x2="0%" y2="50%" id="linearGradient-4">
            <stop stop-color="#15C880" stop-opacity="0.6" offset="0%"></stop>
            <stop stop-color="#15C880" stop-opacity="0.8" offset="100%"></stop>
        </linearGradient>
        <linearGradient x1="50%" y1="-2.48949813e-15%" x2="50%" y2="100%" id="linearGradient-5">
            <stop stop-color="#15C880" stop-opacity="0.4" offset="0%"></stop>
            <stop stop-color="#15C880" stop-opacity="0.8" offset="100%"></stop>
        </linearGradient>
        <linearGradient x1="50%" y1="0%" x2="50%" y2="100%" id="linearGradient-6">
            <stop stop-color="#15C880" stop-opacity="0.4" offset="0%"></stop>
            <stop stop-color="#15C880" stop-opacity="0.8" offset="100%"></stop>
        </linearGradient>
        <linearGradient x1="50%" y1="0%" x2="50%" y2="100%" id="linearGradient-7">
            <stop stop-color="#15C880" stop-opacity="0.2" offset="0%"></stop>
            <stop stop-color="#15C880" stop-opacity="0.6" offset="100%"></stop>
        </linearGradient>
        <linearGradient x1="50%" y1="0%" x2="50%" y2="100%" id="linearGradient-8">
            <stop stop-color="#15C880" offset="0%"></stop>
            <stop stop-color="#15C880" stop-opacity="0" offset="100%"></stop>
        </linearGradient>
    </defs>
    <g id="Website/Graphics/Start" stroke="none" stroke-width="1" fill="none" fill-rule="evenodd">
        <path d="M16,76 C7.163444,76 0,68.836556 0,60 C0,51.163444 7.163444,44 16,44 C22.4488361,44 28.0065821,47.8152103 30.5392423,53.3116352 C32.1772739,52.4730759 34.0333905,52 36,52 C42.627417,52 48,57.372583 48,64 C48,70.627417 42.627417,76 36,76 L16,76 Z" id="Combined-Shape" fill="url(#linearGradient-1)"></path>
        <path d="M28.1573634,36.084106 C28.0524545,34.5828588 28,33.2214901 28,32 C28,16.3933107 31.8057617,5.86097039 39.4172852,0.402979039 L39.417299,0.402998354 C39.7656311,0.153220059 40.2344115,0.153220452 40.5827431,0.402999332 C48.1942477,5.86099649 52,16.39333 52,32 C52,33.2214901 51.9475455,34.5828588 51.8426366,36.084106 C52.0262459,36.1646005 52.1844597,36.299747 52.2928631,36.4759026 L59.8516583,48.7589448 C59.9486477,48.9165525 60,49.0979824 60,49.2830422 L60,55.7950737 C60,56.3473585 59.5522847,56.7950737 59,56.7950737 C58.9381731,56.7950737 58.8764794,56.7893399 58.8157115,56.7779459 L49.190938,54.9733009 C49.1781317,55.0427356 49.1652829,55.1122873 49.1523903,55.1819558 L49.1524011,55.1819578 C49.064673,55.6560192 48.6511959,56 48.1690856,56 L31.8309205,56.000004 C31.3488136,56.000004 30.9353394,55.6560256 30.8476119,55.1819676 C30.8347186,55.1122952 30.821869,55.0427395 30.8090632,54.9733005 L21.1842885,56.7779459 C21.1235206,56.7893399 21.0618269,56.7950737 21,56.7950737 C20.4477153,56.7950737 20,56.3473585 20,55.7950737 L20,49.2830422 C20,49.0979824 20.0513523,48.9165525 20.1483417,48.7589448 L27.7071369,36.4759026 C27.8155403,36.299747 27.9737541,36.1646005 28.1573634,36.084106 Z M32,56 L48,56 L49.6893661,62.7574644 C49.8233148,63.2932593 49.4975541,63.8361938 48.9617592,63.9701425 C48.8824386,63.9899727 48.8009854,64 48.7192236,64 L31.2807764,64 C30.7284917,64 30.2807764,63.5522847 30.2807764,63 C30.2807764,62.9182382 30.2908038,62.836785 30.3106339,62.7574644 L32,56 Z" id="Combined-Shape" fill="#1D1E1F"></path>
        <g id="Rocket" transform="translate(20.000000, -0.000000)">
            <path d="M8,32 C8,16.3933107 11.8057617,5.86097039 19.4172852,0.402979039 L19.417299,0.402998354 C19.7656311,0.153220059 20.2344115,0.153220452 20.5827431,0.402999332 C28.1942477,5.86099649 32,16.39333 32,32 C32,37.19611 31.0507968,44.9234286 29.1523903,55.1819558 L29.1524011,55.1819578 C29.064673,55.6560192 28.6511959,56 28.1690856,56 L11.8309205,56.000004 C11.3488136,56.000004 10.9353394,55.6560256 10.8476119,55.1819676 C8.94920397,44.9234345 8,37.196112 8,32 Z" id="Rectangle" fill="url(#linearGradient-2)"></path>
            <circle id="Oval" fill="url(#linearGradient-3)" cx="20" cy="22" r="6"></circle>
            <path d="M12,56 L28,56 L29.6893661,62.7574644 C29.8233148,63.2932593 29.4975541,63.8361938 28.9617592,63.9701425 C28.8824386,63.9899727 28.8009854,64 28.7192236,64 L11.2807764,64 C10.7284917,64 10.2807764,63.5522847 10.2807764,63 C10.2807764,62.9182382 10.2908038,62.836785 10.3106339,62.7574644 L12,56 Z" id="Rectangle" fill="url(#linearGradient-4)"></path>
            <path d="M27.8950428,36 L31.4412048,36 C31.7884655,36 32.1108647,36.1801551 32.2928631,36.4759026 L39.8516583,48.7589448 C39.9486477,48.9165525 40,49.0979824 40,49.2830422 L40,55.7801961 C40,56.3324808 39.5522847,56.7801961 39,56.7801961 C38.934148,56.7801961 38.868457,56.7736914 38.8038839,56.7607768 L25.8990131,54.1798026 C25.3903784,54.0780757 25.0439638,53.6043255 25.1012455,53.0887904 L26.9011591,36.8895685 C26.9574294,36.3831358 27.3854936,36 27.8950428,36 Z" id="Rectangle" fill="url(#linearGradient-5)"></path>
            <path d="M2.79998229,36 L6.3461443,36 C6.69340501,36 7.01580417,36.1801551 7.19780261,36.4759026 L14.7565978,48.7589448 C14.8535872,48.9165525 14.9049395,49.0979824 14.9049395,49.2830422 L14.9049395,55.7801961 C14.9049395,56.3324808 14.4572242,56.7801961 13.9049395,56.7801961 C13.8390875,56.7801961 13.7733965,56.7736914 13.7088234,56.7607768 L0.803952601,54.1798026 C0.295317903,54.0780757 -0.0510966762,53.6043255 0.00618500118,53.0887904 L1.80609855,36.8895685 C1.86236885,36.3831358 2.29043307,36 2.79998229,36 Z" id="Rectangle-Copy" fill="url(#linearGradient-5)" transform="translate(7.452470, 46.390098) scale(-1, 1) translate(-7.452470, -46.390098) "></path>
            <rect id="Rectangle" fill="url(#linearGradient-6)" x="19" y="36" width="2" height="21" rx="1"></rect>
        </g>
        <path d="M70,80 L58,80 C54.1340068,80 51,76.8659932 51,73 C51,69.1340068 54.1340068,66 58,66 C58.9287237,66 59.8152044,66.1808634 60.6261416,66.5092897 C62.0423753,62.7077426 65.704974,60 70,60 C75.5228475,60 80,64.4771525 80,70 C80,75.5228475 75.5228475,80 70,80 Z" id="Combined-Shape" fill="url(#linearGradient-7)"></path>
        <path d="M40,65 L40,65 C42.2434899,65 44.0621978,66.8187079 44.0621978,69.0621978 C44.0621978,69.5789883 43.9635871,70.0910322 43.7716559,70.5708601 L40,80 L36.2283441,70.5708601 C35.3951328,68.4878321 36.4083096,66.1237531 38.4913376,65.2905418 C38.9711655,65.0986107 39.4832095,65 40,65 Z" id="Rectangle" fill="url(#linearGradient-8)"></path>
    </g>
</svg>