<svg xmlns="http://www.w3.org/2000/svg" xmlns:xlink="http://www.w3.org/1999/xlink" width="93" height="94" viewBox="0 0 93 94">
    <defs>
        <linearGradient id="prefix__a" x1="100%" x2="30.617%" y1="25.5%" y2="55.38%">
            <stop offset="0%" stop-color="#C8CACC" stop-opacity=".1"/>
            <stop offset="40.805%" stop-color="#C8CACC" stop-opacity=".42"/>
            <stop offset="100%" stop-color="#C8CACC" stop-opacity=".7"/>
        </linearGradient>
        <linearGradient id="prefix__b" x1="50%" x2="50%" y1="0%" y2="100%">
            <stop offset="0%" stop-color="#BBBEC4" stop-opacity=".5"/>
            <stop offset="100%" stop-color="#C8CACC" stop-opacity=".9"/>
        </linearGradient>
        <linearGradient id="prefix__d" x1="69.531%" x2="30.469%" y1="23.862%" y2="100%">
            <stop offset="0%" stop-color="#C8CACC" stop-opacity=".4"/>
            <stop offset="28.854%" stop-color="#C8CACC" stop-opacity=".5"/>
            <stop offset="100%" stop-color="#C8CACC"/>
        </linearGradient>
        <linearGradient id="prefix__f" x1="50%" x2="50%" y1="0%" y2="100%">
            <stop offset="0%" stop-color="#C8CACC" stop-opacity=".2"/>
            <stop offset="100%" stop-color="#C8CACC" stop-opacity=".6"/>
        </linearGradient>
        <linearGradient id="prefix__i" x1="100%" x2="50%" y1="0%" y2="68.22%">
            <stop offset="0%" stop-color="#4CFF83"/>
            <stop offset="100%" stop-color="#15C880"/>
        </linearGradient>
        <filter id="prefix__g" width="265%" height="265%" x="-82.5%" y="-67.5%" filterUnits="objectBoundingBox">
            <feOffset dy="6" in="SourceAlpha" result="shadowOffsetOuter1"/>
            <feGaussianBlur in="shadowOffsetOuter1" result="shadowBlurOuter1" stdDeviation="10"/>
            <feColorMatrix in="shadowBlurOuter1" values="0 0 0 0 0.0455 0 0 0 0 0.0665 0 0 0 0 0.0945 0 0 0 0.16 0"/>
        </filter>
        <circle id="prefix__h" cx="20" cy="20" r="20"/>
        <path id="prefix__c" d="M3 0h18.2c.83 0 1.622.343 2.189.948l15.8 16.853c.52.556.811 1.29.811 2.052V61c0 1.657-1.343 3-3 3H3c-1.657 0-3-1.343-3-3V3c0-1.657 1.343-3 3-3z"/>
    </defs>
    <g fill="none" fill-rule="evenodd">
        <g transform="translate(0 25)">
            <rect width="80" height="56" fill="url(#prefix__a)" rx="3"/>
            <path fill="#BBBEC4" d="M7 0H31V56H7z" opacity=".3"/>
            <path fill="url(#prefix__b)" d="M3 0h4v56H3c-1.657 0-3-1.343-3-3V3c0-1.657 1.343-3 3-3z"/>
            <circle cx="3.5" cy="15.5" r="1.5" fill="#FFF" opacity=".5" transform="rotate(90 3.5 15.5)"/>
            <circle cx="3.5" cy="9.5" r="1.5" fill="#FFF" opacity=".5" transform="rotate(90 3.5 9.5)"/>
            <circle cx="3.5" cy="3.5" r="1.5" fill="#FFF" opacity=".5" transform="rotate(90 3.5 3.5)"/>
        </g>
        <g transform="translate(53)">
            <mask id="prefix__e" fill="#fff">
                <use xlink:href="#prefix__c"/>
            </mask>
            <path fill="url(#prefix__d)" d="M0 0L22 0 40 18 40 64 0 64z" mask="url(#prefix__e)"/>
            <path fill="url(#prefix__f)" d="M21 1c-.494-.494-1.16-.828-2-1h3l18 18H25c-1.657 0-3-1.343-3-3V3c-.172-.84-.506-1.506-1-2z" mask="url(#prefix__e)"/>
        </g>
        <g transform="translate(24 29)">
            <use fill="#000" filter="url(#prefix__g)" xlink:href="#prefix__h"/>
            <use fill="url(#prefix__i)" xlink:href="#prefix__h"/>
            <g fill="#FFF">
                <path d="M18.333 14.167v2.5c0 1.416-1.083 2.5-2.5 2.5H4.167c-1.417 0-2.5-1.084-2.5-2.5v-2.5c0-.5.333-.834.833-.834.5 0 .833.334.833.834v2.5c0 .5.334.833.834.833h11.666c.5 0 .834-.333.834-.833v-2.5c0-.5.333-.834.833-.834.5 0 .833.334.833.834zm-8.916-.25c.083.083.166.166.25.166.083.084.25.084.333.084.083 0 .25 0 .333-.084.084-.083.167-.083.25-.166l3.334-3.334c.333-.333.333-.833 0-1.166-.334-.334-.834-.334-1.167 0l-1.917 1.916V1.667c0-.5-.333-.834-.833-.834-.5 0-.833.334-.833.834v9.666L7.25 9.417c-.333-.334-.833-.334-1.167 0-.333.333-.333.833 0 1.166l3.334 3.334z" transform="translate(10 10)"/>
            </g>
        </g>
    </g>
</svg>
