<svg xmlns="http://www.w3.org/2000/svg" width="104" height="64" viewBox="0 0 104 64">
    <defs>
        <linearGradient id="prefix__a" x1="50%" x2="50%" y1="0%" y2="100%">
            <stop offset="0%" stop-color="#4F9CDC" stop-opacity="0"/>
            <stop offset="100%" stop-color="#4F9CDC"/>
        </linearGradient>
        <linearGradient id="prefix__b" x1="100%" x2="0%" y1="50%" y2="50%">
            <stop offset="0%" stop-color="#4F9CDC" stop-opacity=".4"/>
            <stop offset="100%" stop-color="#4F9CDC"/>
        </linearGradient>
        <linearGradient id="prefix__c" x1="0%" x2="100%" y1="50%" y2="50%">
            <stop offset="0%" stop-color="#4F9CDC" stop-opacity=".4"/>
            <stop offset="100%" stop-color="#4F9CDC"/>
        </linearGradient>
        <linearGradient id="prefix__d" x1="100%" x2="0%" y1="0%" y2="100%">
            <stop offset="0%" stop-color="#4F9CDC" stop-opacity=".2"/>
            <stop offset="100%" stop-color="#4F9CDC"/>
        </linearGradient>
    </defs>
    <g fill="none">
        <path fill="url(#prefix__a)" d="M52 0C34.336 0 20 14.336 20 32s14.336 32 32 32 32-14.336 32-32S69.664 0 52 0z" opacity=".2"/>
        <path fill="url(#prefix__b)" d="M20 12c2.184 0 4.287.35 6.255.999-1.315 1.778-2.45 3.698-3.38 5.732C22.023 18.264 21.043 18 20 18c-3.32 0-6 2.68-6 6s2.68 6 6 6h.062c-.041.661-.062 1.328-.062 2 0 .604.017 1.205.05 1.8H20c-4 0-11.94 2.18-12 6.16 2.58 3.88 7 6.44 12 6.44 1.113 0 2.196-.127 3.238-.367.856 1.753 1.868 3.415 3.018 4.97-1.969.646-4.072.997-6.256.997C8.96 52 0 43.04 0 32s8.96-20 20-20z" opacity=".6"/>
        <path fill="url(#prefix__c)" d="M84 12c11.04 0 20 8.96 20 20s-8.96 20-20 20c-2.185 0-4.289-.351-6.257-1l.08-.105c1.117-1.524 2.103-3.15 2.94-4.861 1.04.24 2.124.366 3.237.366 5 0 9.42-2.56 12-6.44-.06-3.98-8.02-6.16-12-6.16h-.05c.033-.595.05-1.196.05-1.8 0-.672-.02-1.339-.062-2H84c3.32 0 6-2.68 6-6s-2.68-6-6-6c-1.043 0-2.023.264-2.876.73-.91-1.992-2.018-3.876-3.3-5.625L77.742 13c1.968-.649 4.072-1 6.257-1z" opacity=".6"/>
        <path fill="url(#prefix__d)" d="M52 0C34.336 0 20 14.336 20 32s14.336 32 32 32 32-14.336 32-32S69.664 0 52 0zm0 9.6c5.312 0 9.6 4.288 9.6 9.6 0 5.312-4.288 9.6-9.6 9.6-5.312 0-9.6-4.288-9.6-9.6 0-5.312 4.288-9.6 9.6-9.6zm0 45.44c-8 0-15.072-4.096-19.2-10.304.096-6.368 12.8-9.856 19.2-9.856 6.368 0 19.104 3.488 19.2 9.856C67.072 50.944 60 55.04 52 55.04z"/>
    </g>
</svg>
