<svg xmlns="http://www.w3.org/2000/svg" width="80" height="73" viewBox="0 0 80 73">
    <defs>
        <linearGradient id="prefix__a" x1="50%" x2="50%" y1="0%" y2="100%">
            <stop offset="0%" stop-color="#4F9CDC" stop-opacity=".4"/>
            <stop offset="100%" stop-color="#4F9CDC"/>
        </linearGradient>
        <linearGradient id="prefix__b" x1="50%" x2="50%" y1="0%" y2="100%">
            <stop offset="0%" stop-color="#4F9CDC" stop-opacity=".4"/>
            <stop offset="100%" stop-color="#4F9CDC"/>
        </linearGradient>
        <linearGradient id="prefix__c" x1="50%" x2="50%" y1="0%" y2="100%">
            <stop offset="0%" stop-color="#4F9CDC" stop-opacity=".4"/>
            <stop offset="100%" stop-color="#4F9CDC"/>
        </linearGradient>
    </defs>
    <g fill="none" fill-rule="evenodd">
        <path fill="url(#prefix__a)" d="M17.186 1.083c-.514.34-.913.868-1.144 1.553l-.07.234L8.28 31.575l-.05.21c-.142.691-.036 1.252.274 1.85l.099.18 18.071 31.3.184.308c1.007 1.62 2.319 2.777 3.936 3.471l-10.502 2.814c-2.088.768-4.475.417-6.482-.66l-.26-.144-.276-.166c-1.81-1.13-3.04-2.771-3.693-4.926l-.098-.345-9.355-34.91c-.2-.745-.182-1.364.165-2.057l.103-.19L15.255 2.573c.462-.801 1.121-1.304 1.864-1.478l.067-.013zm32.597 62.719l-.264.074-5.688 1.524 4.316-2.49c.314.045.634.073.96.084l.322.006.298-.005c.964-.03 1.922-.207 2.815-.53-.806.575-1.731 1.031-2.759 1.337zM31.19 16.779c.435.116.753.667 1.072 1.217.57.985.792 1.877.582 2.987-1.137-.08-1.945-.524-2.753-1.33-.45-.45-.9-.898-.9-1.348-.45-.449-.45-1.347-.45-1.796 0-.281.02-.543.059-.79.837.068 1.655.41 2.39 1.06z" opacity=".2"/>
        <path fill="url(#prefix__b)" fill-opacity=".6" d="M17.452.93c-.454.512-.711 1.213-.711 2.042v29.717l.006.217c.045.773.34 1.318.885 1.863L43.19 60.325l.257.25c1.392 1.304 2.959 2.082 4.702 2.334l-9.418 5.437c-1.818 1.282-4.214 1.56-6.432 1.04l-.288-.072-.31-.089c-2.04-.623-3.654-1.89-4.842-3.802l-.184-.308-18.071-31.3c-.385-.667-.53-1.27-.373-2.03l.05-.21L15.972 2.87c.23-.86.71-1.501 1.347-1.87zm47.723 52.143l-.24.143-5.103 2.946 9.537-9.534c-.282 2.566-1.74 4.935-4.194 6.445zM30.09 13.365c1.35-1.347 3.15-1.796 4.95-.898.45 0 .9.45 1.35.898.9.899 1.35 1.797 1.35 3.144 0 1.347-.45 2.246-1.35 3.144-.9.898-1.8 1.347-3.15 1.347-.138 0-.272-.005-.4-.014.213-1.113-.009-2.005-.58-2.99-.318-.55-.636-1.1-1.07-1.217-.736-.65-1.554-.992-2.39-1.06.147-.932.578-1.643 1.29-2.354z"/>
        <path fill="url(#prefix__c)" d="M49.43 0c.89 0 1.485.297 2.08.892l25.556 25.556c3.566 3.566 3.566 8.915 0 12.481L55.67 60.325C54.184 62.108 51.807 63 49.43 63l-.323-.006c-2.243-.077-4.216-.967-5.918-2.669L17.632 34.77c-.594-.594-.891-1.189-.891-2.08V2.972C16.74 1.189 17.929 0 19.712 0zM35.04 12.467c-1.8-.898-3.6-.449-4.95.898-.9.899-1.35 1.797-1.35 3.144 0 .45 0 1.347.45 1.796 0 .45.45.899.9 1.348.9.898 1.8 1.347 3.15 1.347 1.35 0 2.25-.45 3.15-1.347.9-.898 1.35-1.797 1.35-3.144 0-1.347-.45-2.245-1.35-3.144-.45-.449-.9-.898-1.35-.898z"/>
    </g>
</svg>
