<svg xmlns="http://www.w3.org/2000/svg" width="80" height="72" viewBox="0 0 80 72">
    <defs>
        <linearGradient id="prefix__a" x1="50%" x2="50%" y1="0%" y2="100%">
            <stop offset="0%" stop-color="#4F9CDC" stop-opacity=".4"/>
            <stop offset="100%" stop-color="#4F9CDC"/>
        </linearGradient>
    </defs>
    <g fill="url(#prefix__a)" fill-rule="evenodd" transform="translate(-2)">
        <path d="M3.039 46.264L39.023 25.7c1.845-1.054 4.11-1.054 5.954 0L80.96 46.264c.96.548 1.292 1.77.744 2.728-.177.31-.434.567-.744.744L44.977 70.3c-1.845 1.054-4.11 1.054-5.954 0L3.04 49.736c-.96-.548-1.292-1.77-.744-2.728.177-.31.434-.567.744-.744z" opacity=".2"/>
        <path d="M3.039 34.264L39.023 13.7c1.845-1.054 4.11-1.054 5.954 0L80.96 34.264c.96.548 1.292 1.77.744 2.728-.177.31-.434.567-.744.744L44.977 58.3c-1.845 1.054-4.11 1.054-5.954 0L3.04 37.736c-.96-.548-1.292-1.77-.744-2.728.177-.31.434-.567.744-.744z" opacity=".6"/>
        <path d="M3.039 22.264L39.023 1.7c1.845-1.054 4.11-1.054 5.954 0L80.96 22.264c.96.548 1.292 1.77.744 2.728-.177.31-.434.567-.744.744L44.977 46.3c-1.845 1.054-4.11 1.054-5.954 0L3.04 25.736c-.96-.548-1.292-1.77-.744-2.728.177-.31.434-.567.744-.744z"/>
    </g>
</svg>
